G04 #@! TF.GenerationSoftware,KiCad,Pcbnew,(5.1.5)-3*
G04 #@! TF.CreationDate,2020-04-27T23:25:01+02:00*
G04 #@! TF.ProjectId,unified-usb-pcb_batt,756e6966-6965-4642-9d75-73622d706362,rev?*
G04 #@! TF.SameCoordinates,Original*
G04 #@! TF.FileFunction,Soldermask,Top*
G04 #@! TF.FilePolarity,Negative*
%FSLAX46Y46*%
G04 Gerber Fmt 4.6, Leading zero omitted, Abs format (unit mm)*
G04 Created by KiCad (PCBNEW (5.1.5)-3) date 2020-04-27 23:25:01*
%MOMM*%
%LPD*%
G04 APERTURE LIST*
%ADD10C,0.100000*%
G04 APERTURE END LIST*
D10*
G36*
X34550642Y-50916404D02*
G01*
X34587737Y-50927657D01*
X34621915Y-50945925D01*
X34651881Y-50970519D01*
X34676475Y-51000485D01*
X34694743Y-51034663D01*
X34705996Y-51071758D01*
X34710400Y-51116474D01*
X34710400Y-52609526D01*
X34705996Y-52654242D01*
X34694743Y-52691337D01*
X34676475Y-52725515D01*
X34651881Y-52755481D01*
X34621915Y-52780075D01*
X34587737Y-52798343D01*
X34550642Y-52809596D01*
X34505926Y-52814000D01*
X33612874Y-52814000D01*
X33568158Y-52809596D01*
X33531063Y-52798343D01*
X33496885Y-52780075D01*
X33466919Y-52755481D01*
X33442325Y-52725515D01*
X33424057Y-52691337D01*
X33412804Y-52654242D01*
X33408400Y-52609526D01*
X33408400Y-51116474D01*
X33412804Y-51071758D01*
X33424057Y-51034663D01*
X33442325Y-51000485D01*
X33466919Y-50970519D01*
X33496885Y-50945925D01*
X33531063Y-50927657D01*
X33568158Y-50916404D01*
X33612874Y-50912000D01*
X34505926Y-50912000D01*
X34550642Y-50916404D01*
G37*
G36*
X27950642Y-50916404D02*
G01*
X27987737Y-50927657D01*
X28021915Y-50945925D01*
X28051881Y-50970519D01*
X28076475Y-51000485D01*
X28094743Y-51034663D01*
X28105996Y-51071758D01*
X28110400Y-51116474D01*
X28110400Y-52609526D01*
X28105996Y-52654242D01*
X28094743Y-52691337D01*
X28076475Y-52725515D01*
X28051881Y-52755481D01*
X28021915Y-52780075D01*
X27987737Y-52798343D01*
X27950642Y-52809596D01*
X27905926Y-52814000D01*
X27012874Y-52814000D01*
X26968158Y-52809596D01*
X26931063Y-52798343D01*
X26896885Y-52780075D01*
X26866919Y-52755481D01*
X26842325Y-52725515D01*
X26824057Y-52691337D01*
X26812804Y-52654242D01*
X26808400Y-52609526D01*
X26808400Y-51116474D01*
X26812804Y-51071758D01*
X26824057Y-51034663D01*
X26842325Y-51000485D01*
X26866919Y-50970519D01*
X26896885Y-50945925D01*
X26931063Y-50927657D01*
X26968158Y-50916404D01*
X27012874Y-50912000D01*
X27905926Y-50912000D01*
X27950642Y-50916404D01*
G37*
G36*
X19227812Y-47933134D02*
G01*
X19459746Y-47979269D01*
X19896700Y-48160262D01*
X20289948Y-48423022D01*
X20624378Y-48757452D01*
X20887138Y-49150700D01*
X20887139Y-49150702D01*
X21068131Y-49587655D01*
X21150461Y-50001552D01*
X21160400Y-50051522D01*
X21160400Y-50524478D01*
X21068131Y-50988346D01*
X20887138Y-51425300D01*
X20624378Y-51818548D01*
X20289948Y-52152978D01*
X19896700Y-52415738D01*
X19459746Y-52596731D01*
X19227812Y-52642866D01*
X18995879Y-52689000D01*
X18522921Y-52689000D01*
X18290988Y-52642865D01*
X18059054Y-52596731D01*
X17622100Y-52415738D01*
X17228852Y-52152978D01*
X16894422Y-51818548D01*
X16631662Y-51425300D01*
X16450669Y-50988346D01*
X16358400Y-50524478D01*
X16358400Y-50051522D01*
X16368340Y-50001552D01*
X16450669Y-49587655D01*
X16631661Y-49150702D01*
X16631662Y-49150700D01*
X16894422Y-48757452D01*
X17228852Y-48423022D01*
X17622100Y-48160262D01*
X18059054Y-47979269D01*
X18290988Y-47933134D01*
X18522921Y-47887000D01*
X18995879Y-47887000D01*
X19227812Y-47933134D01*
G37*
G36*
X43227812Y-47933134D02*
G01*
X43459746Y-47979269D01*
X43896700Y-48160262D01*
X44289948Y-48423022D01*
X44624378Y-48757452D01*
X44887138Y-49150700D01*
X44887139Y-49150702D01*
X45068131Y-49587655D01*
X45150461Y-50001552D01*
X45160400Y-50051522D01*
X45160400Y-50524478D01*
X45068131Y-50988346D01*
X44887138Y-51425300D01*
X44624378Y-51818548D01*
X44289948Y-52152978D01*
X43896700Y-52415738D01*
X43459746Y-52596731D01*
X43227812Y-52642866D01*
X42995879Y-52689000D01*
X42522921Y-52689000D01*
X42290988Y-52642865D01*
X42059054Y-52596731D01*
X41622100Y-52415738D01*
X41228852Y-52152978D01*
X40894422Y-51818548D01*
X40631662Y-51425300D01*
X40450669Y-50988346D01*
X40358400Y-50524478D01*
X40358400Y-50051522D01*
X40368340Y-50001552D01*
X40450669Y-49587655D01*
X40631661Y-49150702D01*
X40631662Y-49150700D01*
X40894422Y-48757452D01*
X41228852Y-48423022D01*
X41622100Y-48160262D01*
X42059054Y-47979269D01*
X42290988Y-47933134D01*
X42522921Y-47887000D01*
X42995879Y-47887000D01*
X43227812Y-47933134D01*
G37*
G36*
X24670004Y-50004347D02*
G01*
X24706544Y-50015432D01*
X24740221Y-50033433D01*
X24769741Y-50057659D01*
X24793967Y-50087179D01*
X24811968Y-50120856D01*
X24823053Y-50157396D01*
X24827400Y-50201538D01*
X24827400Y-51150462D01*
X24823053Y-51194604D01*
X24811968Y-51231144D01*
X24793967Y-51264821D01*
X24769741Y-51294341D01*
X24740221Y-51318567D01*
X24706544Y-51336568D01*
X24670004Y-51347653D01*
X24625862Y-51352000D01*
X23176938Y-51352000D01*
X23132796Y-51347653D01*
X23096256Y-51336568D01*
X23062579Y-51318567D01*
X23033059Y-51294341D01*
X23008833Y-51264821D01*
X22990832Y-51231144D01*
X22979747Y-51194604D01*
X22975400Y-51150462D01*
X22975400Y-50201538D01*
X22979747Y-50157396D01*
X22990832Y-50120856D01*
X23008833Y-50087179D01*
X23033059Y-50057659D01*
X23062579Y-50033433D01*
X23096256Y-50015432D01*
X23132796Y-50004347D01*
X23176938Y-50000000D01*
X24625862Y-50000000D01*
X24670004Y-50004347D01*
G37*
G36*
X36409991Y-49897085D02*
G01*
X36443969Y-49907393D01*
X36475290Y-49924134D01*
X36502739Y-49946661D01*
X36525266Y-49974110D01*
X36542007Y-50005431D01*
X36552315Y-50039409D01*
X36556400Y-50080890D01*
X36556400Y-50757110D01*
X36552315Y-50798591D01*
X36542007Y-50832569D01*
X36525266Y-50863890D01*
X36502739Y-50891339D01*
X36475290Y-50913866D01*
X36443969Y-50930607D01*
X36409991Y-50940915D01*
X36368510Y-50945000D01*
X35767290Y-50945000D01*
X35725809Y-50940915D01*
X35691831Y-50930607D01*
X35660510Y-50913866D01*
X35633061Y-50891339D01*
X35610534Y-50863890D01*
X35593793Y-50832569D01*
X35583485Y-50798591D01*
X35579400Y-50757110D01*
X35579400Y-50080890D01*
X35583485Y-50039409D01*
X35593793Y-50005431D01*
X35610534Y-49974110D01*
X35633061Y-49946661D01*
X35660510Y-49924134D01*
X35691831Y-49907393D01*
X35725809Y-49897085D01*
X35767290Y-49893000D01*
X36368510Y-49893000D01*
X36409991Y-49897085D01*
G37*
G36*
X37984991Y-49897085D02*
G01*
X38018969Y-49907393D01*
X38050290Y-49924134D01*
X38077739Y-49946661D01*
X38100266Y-49974110D01*
X38117007Y-50005431D01*
X38127315Y-50039409D01*
X38131400Y-50080890D01*
X38131400Y-50757110D01*
X38127315Y-50798591D01*
X38117007Y-50832569D01*
X38100266Y-50863890D01*
X38077739Y-50891339D01*
X38050290Y-50913866D01*
X38018969Y-50930607D01*
X37984991Y-50940915D01*
X37943510Y-50945000D01*
X37342290Y-50945000D01*
X37300809Y-50940915D01*
X37266831Y-50930607D01*
X37235510Y-50913866D01*
X37208061Y-50891339D01*
X37185534Y-50863890D01*
X37168793Y-50832569D01*
X37158485Y-50798591D01*
X37154400Y-50757110D01*
X37154400Y-50080890D01*
X37158485Y-50039409D01*
X37168793Y-50005431D01*
X37185534Y-49974110D01*
X37208061Y-49946661D01*
X37235510Y-49924134D01*
X37266831Y-49907393D01*
X37300809Y-49897085D01*
X37342290Y-49893000D01*
X37943510Y-49893000D01*
X37984991Y-49897085D01*
G37*
G36*
X37984991Y-48246085D02*
G01*
X38018969Y-48256393D01*
X38050290Y-48273134D01*
X38077739Y-48295661D01*
X38100266Y-48323110D01*
X38117007Y-48354431D01*
X38127315Y-48388409D01*
X38131400Y-48429890D01*
X38131400Y-49106110D01*
X38127315Y-49147591D01*
X38117007Y-49181569D01*
X38100266Y-49212890D01*
X38077739Y-49240339D01*
X38050290Y-49262866D01*
X38018969Y-49279607D01*
X37984991Y-49289915D01*
X37943510Y-49294000D01*
X37342290Y-49294000D01*
X37300809Y-49289915D01*
X37266831Y-49279607D01*
X37235510Y-49262866D01*
X37208061Y-49240339D01*
X37185534Y-49212890D01*
X37168793Y-49181569D01*
X37158485Y-49147591D01*
X37154400Y-49106110D01*
X37154400Y-48429890D01*
X37158485Y-48388409D01*
X37168793Y-48354431D01*
X37185534Y-48323110D01*
X37208061Y-48295661D01*
X37235510Y-48273134D01*
X37266831Y-48256393D01*
X37300809Y-48246085D01*
X37342290Y-48242000D01*
X37943510Y-48242000D01*
X37984991Y-48246085D01*
G37*
G36*
X36409991Y-48246085D02*
G01*
X36443969Y-48256393D01*
X36475290Y-48273134D01*
X36502739Y-48295661D01*
X36525266Y-48323110D01*
X36542007Y-48354431D01*
X36552315Y-48388409D01*
X36556400Y-48429890D01*
X36556400Y-49106110D01*
X36552315Y-49147591D01*
X36542007Y-49181569D01*
X36525266Y-49212890D01*
X36502739Y-49240339D01*
X36475290Y-49262866D01*
X36443969Y-49279607D01*
X36409991Y-49289915D01*
X36368510Y-49294000D01*
X35767290Y-49294000D01*
X35725809Y-49289915D01*
X35691831Y-49279607D01*
X35660510Y-49262866D01*
X35633061Y-49240339D01*
X35610534Y-49212890D01*
X35593793Y-49181569D01*
X35583485Y-49147591D01*
X35579400Y-49106110D01*
X35579400Y-48429890D01*
X35583485Y-48388409D01*
X35593793Y-48354431D01*
X35610534Y-48323110D01*
X35633061Y-48295661D01*
X35660510Y-48273134D01*
X35691831Y-48256393D01*
X35725809Y-48246085D01*
X35767290Y-48242000D01*
X36368510Y-48242000D01*
X36409991Y-48246085D01*
G37*
G36*
X32019328Y-47164764D02*
G01*
X32040409Y-47171160D01*
X32059845Y-47181548D01*
X32076876Y-47195524D01*
X32090852Y-47212555D01*
X32101240Y-47231991D01*
X32107636Y-47253072D01*
X32110400Y-47281140D01*
X32110400Y-48694860D01*
X32107636Y-48722928D01*
X32101240Y-48744009D01*
X32090852Y-48763445D01*
X32076876Y-48780476D01*
X32059845Y-48794452D01*
X32040409Y-48804840D01*
X32019328Y-48811236D01*
X31991260Y-48814000D01*
X31527540Y-48814000D01*
X31499472Y-48811236D01*
X31478391Y-48804840D01*
X31458955Y-48794452D01*
X31441924Y-48780476D01*
X31427948Y-48763445D01*
X31417560Y-48744009D01*
X31411164Y-48722928D01*
X31408400Y-48694860D01*
X31408400Y-47281140D01*
X31411164Y-47253072D01*
X31417560Y-47231991D01*
X31427948Y-47212555D01*
X31441924Y-47195524D01*
X31458955Y-47181548D01*
X31478391Y-47171160D01*
X31499472Y-47164764D01*
X31527540Y-47162000D01*
X31991260Y-47162000D01*
X32019328Y-47164764D01*
G37*
G36*
X30019328Y-47164764D02*
G01*
X30040409Y-47171160D01*
X30059845Y-47181548D01*
X30076876Y-47195524D01*
X30090852Y-47212555D01*
X30101240Y-47231991D01*
X30107636Y-47253072D01*
X30110400Y-47281140D01*
X30110400Y-48694860D01*
X30107636Y-48722928D01*
X30101240Y-48744009D01*
X30090852Y-48763445D01*
X30076876Y-48780476D01*
X30059845Y-48794452D01*
X30040409Y-48804840D01*
X30019328Y-48811236D01*
X29991260Y-48814000D01*
X29527540Y-48814000D01*
X29499472Y-48811236D01*
X29478391Y-48804840D01*
X29458955Y-48794452D01*
X29441924Y-48780476D01*
X29427948Y-48763445D01*
X29417560Y-48744009D01*
X29411164Y-48722928D01*
X29408400Y-48694860D01*
X29408400Y-47281140D01*
X29411164Y-47253072D01*
X29417560Y-47231991D01*
X29427948Y-47212555D01*
X29441924Y-47195524D01*
X29458955Y-47181548D01*
X29478391Y-47171160D01*
X29499472Y-47164764D01*
X29527540Y-47162000D01*
X29991260Y-47162000D01*
X30019328Y-47164764D01*
G37*
G36*
X29019328Y-47164764D02*
G01*
X29040409Y-47171160D01*
X29059845Y-47181548D01*
X29076876Y-47195524D01*
X29090852Y-47212555D01*
X29101240Y-47231991D01*
X29107636Y-47253072D01*
X29110400Y-47281140D01*
X29110400Y-48694860D01*
X29107636Y-48722928D01*
X29101240Y-48744009D01*
X29090852Y-48763445D01*
X29076876Y-48780476D01*
X29059845Y-48794452D01*
X29040409Y-48804840D01*
X29019328Y-48811236D01*
X28991260Y-48814000D01*
X28527540Y-48814000D01*
X28499472Y-48811236D01*
X28478391Y-48804840D01*
X28458955Y-48794452D01*
X28441924Y-48780476D01*
X28427948Y-48763445D01*
X28417560Y-48744009D01*
X28411164Y-48722928D01*
X28408400Y-48694860D01*
X28408400Y-47281140D01*
X28411164Y-47253072D01*
X28417560Y-47231991D01*
X28427948Y-47212555D01*
X28441924Y-47195524D01*
X28458955Y-47181548D01*
X28478391Y-47171160D01*
X28499472Y-47164764D01*
X28527540Y-47162000D01*
X28991260Y-47162000D01*
X29019328Y-47164764D01*
G37*
G36*
X31019328Y-47164764D02*
G01*
X31040409Y-47171160D01*
X31059845Y-47181548D01*
X31076876Y-47195524D01*
X31090852Y-47212555D01*
X31101240Y-47231991D01*
X31107636Y-47253072D01*
X31110400Y-47281140D01*
X31110400Y-48694860D01*
X31107636Y-48722928D01*
X31101240Y-48744009D01*
X31090852Y-48763445D01*
X31076876Y-48780476D01*
X31059845Y-48794452D01*
X31040409Y-48804840D01*
X31019328Y-48811236D01*
X30991260Y-48814000D01*
X30527540Y-48814000D01*
X30499472Y-48811236D01*
X30478391Y-48804840D01*
X30458955Y-48794452D01*
X30441924Y-48780476D01*
X30427948Y-48763445D01*
X30417560Y-48744009D01*
X30411164Y-48722928D01*
X30408400Y-48694860D01*
X30408400Y-47281140D01*
X30411164Y-47253072D01*
X30417560Y-47231991D01*
X30427948Y-47212555D01*
X30441924Y-47195524D01*
X30458955Y-47181548D01*
X30478391Y-47171160D01*
X30499472Y-47164764D01*
X30527540Y-47162000D01*
X30991260Y-47162000D01*
X31019328Y-47164764D01*
G37*
G36*
X33019328Y-47164764D02*
G01*
X33040409Y-47171160D01*
X33059845Y-47181548D01*
X33076876Y-47195524D01*
X33090852Y-47212555D01*
X33101240Y-47231991D01*
X33107636Y-47253072D01*
X33110400Y-47281140D01*
X33110400Y-48694860D01*
X33107636Y-48722928D01*
X33101240Y-48744009D01*
X33090852Y-48763445D01*
X33076876Y-48780476D01*
X33059845Y-48794452D01*
X33040409Y-48804840D01*
X33019328Y-48811236D01*
X32991260Y-48814000D01*
X32527540Y-48814000D01*
X32499472Y-48811236D01*
X32478391Y-48804840D01*
X32458955Y-48794452D01*
X32441924Y-48780476D01*
X32427948Y-48763445D01*
X32417560Y-48744009D01*
X32411164Y-48722928D01*
X32408400Y-48694860D01*
X32408400Y-47281140D01*
X32411164Y-47253072D01*
X32417560Y-47231991D01*
X32427948Y-47212555D01*
X32441924Y-47195524D01*
X32458955Y-47181548D01*
X32478391Y-47171160D01*
X32499472Y-47164764D01*
X32527540Y-47162000D01*
X32991260Y-47162000D01*
X33019328Y-47164764D01*
G37*
G36*
X24670004Y-47204347D02*
G01*
X24706544Y-47215432D01*
X24740221Y-47233433D01*
X24769741Y-47257659D01*
X24793967Y-47287179D01*
X24811968Y-47320856D01*
X24823053Y-47357396D01*
X24827400Y-47401538D01*
X24827400Y-48350462D01*
X24823053Y-48394604D01*
X24811968Y-48431144D01*
X24793967Y-48464821D01*
X24769741Y-48494341D01*
X24740221Y-48518567D01*
X24706544Y-48536568D01*
X24670004Y-48547653D01*
X24625862Y-48552000D01*
X23176938Y-48552000D01*
X23132796Y-48547653D01*
X23096256Y-48536568D01*
X23062579Y-48518567D01*
X23033059Y-48494341D01*
X23008833Y-48464821D01*
X22990832Y-48431144D01*
X22979747Y-48394604D01*
X22975400Y-48350462D01*
X22975400Y-47401538D01*
X22979747Y-47357396D01*
X22990832Y-47320856D01*
X23008833Y-47287179D01*
X23033059Y-47257659D01*
X23062579Y-47233433D01*
X23096256Y-47215432D01*
X23132796Y-47204347D01*
X23176938Y-47200000D01*
X24625862Y-47200000D01*
X24670004Y-47204347D01*
G37*
G36*
X37673400Y-47528000D02*
G01*
X35021400Y-47528000D01*
X35021400Y-46366000D01*
X37673400Y-46366000D01*
X37673400Y-47528000D01*
G37*
G36*
X44982642Y-45603404D02*
G01*
X45019737Y-45614657D01*
X45053915Y-45632925D01*
X45083881Y-45657519D01*
X45108475Y-45687485D01*
X45126743Y-45721663D01*
X45137996Y-45758758D01*
X45142400Y-45803474D01*
X45142400Y-46696526D01*
X45137996Y-46741242D01*
X45126743Y-46778337D01*
X45108475Y-46812515D01*
X45083881Y-46842481D01*
X45053915Y-46867075D01*
X45019737Y-46885343D01*
X44982642Y-46896596D01*
X44937926Y-46901000D01*
X43444874Y-46901000D01*
X43400158Y-46896596D01*
X43363063Y-46885343D01*
X43328885Y-46867075D01*
X43298919Y-46842481D01*
X43274325Y-46812515D01*
X43256057Y-46778337D01*
X43244804Y-46741242D01*
X43240400Y-46696526D01*
X43240400Y-45803474D01*
X43244804Y-45758758D01*
X43256057Y-45721663D01*
X43274325Y-45687485D01*
X43298919Y-45657519D01*
X43328885Y-45632925D01*
X43363063Y-45614657D01*
X43400158Y-45603404D01*
X43444874Y-45599000D01*
X44937926Y-45599000D01*
X44982642Y-45603404D01*
G37*
G36*
X18118642Y-45603404D02*
G01*
X18155737Y-45614657D01*
X18189915Y-45632925D01*
X18219881Y-45657519D01*
X18244475Y-45687485D01*
X18262743Y-45721663D01*
X18273996Y-45758758D01*
X18278400Y-45803474D01*
X18278400Y-46696526D01*
X18273996Y-46741242D01*
X18262743Y-46778337D01*
X18244475Y-46812515D01*
X18219881Y-46842481D01*
X18189915Y-46867075D01*
X18155737Y-46885343D01*
X18118642Y-46896596D01*
X18073926Y-46901000D01*
X16580874Y-46901000D01*
X16536158Y-46896596D01*
X16499063Y-46885343D01*
X16464885Y-46867075D01*
X16434919Y-46842481D01*
X16410325Y-46812515D01*
X16392057Y-46778337D01*
X16380804Y-46741242D01*
X16376400Y-46696526D01*
X16376400Y-45803474D01*
X16380804Y-45758758D01*
X16392057Y-45721663D01*
X16410325Y-45687485D01*
X16434919Y-45657519D01*
X16464885Y-45632925D01*
X16499063Y-45614657D01*
X16536158Y-45603404D01*
X16580874Y-45599000D01*
X18073926Y-45599000D01*
X18118642Y-45603404D01*
G37*
G36*
X28205991Y-45325085D02*
G01*
X28239969Y-45335393D01*
X28271290Y-45352134D01*
X28298739Y-45374661D01*
X28321266Y-45402110D01*
X28338007Y-45433431D01*
X28348315Y-45467409D01*
X28352400Y-45508890D01*
X28352400Y-46185110D01*
X28348315Y-46226591D01*
X28338007Y-46260569D01*
X28321266Y-46291890D01*
X28298739Y-46319339D01*
X28271290Y-46341866D01*
X28239969Y-46358607D01*
X28205991Y-46368915D01*
X28164510Y-46373000D01*
X27563290Y-46373000D01*
X27521809Y-46368915D01*
X27487831Y-46358607D01*
X27456510Y-46341866D01*
X27429061Y-46319339D01*
X27406534Y-46291890D01*
X27389793Y-46260569D01*
X27379485Y-46226591D01*
X27375400Y-46185110D01*
X27375400Y-45508890D01*
X27379485Y-45467409D01*
X27389793Y-45433431D01*
X27406534Y-45402110D01*
X27429061Y-45374661D01*
X27456510Y-45352134D01*
X27487831Y-45335393D01*
X27521809Y-45325085D01*
X27563290Y-45321000D01*
X28164510Y-45321000D01*
X28205991Y-45325085D01*
G37*
G36*
X26630991Y-45325085D02*
G01*
X26664969Y-45335393D01*
X26696290Y-45352134D01*
X26723739Y-45374661D01*
X26746266Y-45402110D01*
X26763007Y-45433431D01*
X26773315Y-45467409D01*
X26777400Y-45508890D01*
X26777400Y-46185110D01*
X26773315Y-46226591D01*
X26763007Y-46260569D01*
X26746266Y-46291890D01*
X26723739Y-46319339D01*
X26696290Y-46341866D01*
X26664969Y-46358607D01*
X26630991Y-46368915D01*
X26589510Y-46373000D01*
X25988290Y-46373000D01*
X25946809Y-46368915D01*
X25912831Y-46358607D01*
X25881510Y-46341866D01*
X25854061Y-46319339D01*
X25831534Y-46291890D01*
X25814793Y-46260569D01*
X25804485Y-46226591D01*
X25800400Y-46185110D01*
X25800400Y-45508890D01*
X25804485Y-45467409D01*
X25814793Y-45433431D01*
X25831534Y-45402110D01*
X25854061Y-45374661D01*
X25881510Y-45352134D01*
X25912831Y-45335393D01*
X25946809Y-45325085D01*
X25988290Y-45321000D01*
X26589510Y-45321000D01*
X26630991Y-45325085D01*
G37*
G36*
X37673400Y-45328000D02*
G01*
X35021400Y-45328000D01*
X35021400Y-44166000D01*
X37673400Y-44166000D01*
X37673400Y-45328000D01*
G37*
G36*
X41051328Y-44601764D02*
G01*
X41072409Y-44608160D01*
X41091845Y-44618548D01*
X41108876Y-44632524D01*
X41122852Y-44649555D01*
X41133240Y-44668991D01*
X41139636Y-44690072D01*
X41142400Y-44718140D01*
X41142400Y-45181860D01*
X41139636Y-45209928D01*
X41133240Y-45231009D01*
X41122852Y-45250445D01*
X41108876Y-45267476D01*
X41091845Y-45281452D01*
X41072409Y-45291840D01*
X41051328Y-45298236D01*
X41023260Y-45301000D01*
X39609540Y-45301000D01*
X39581472Y-45298236D01*
X39560391Y-45291840D01*
X39540955Y-45281452D01*
X39523924Y-45267476D01*
X39509948Y-45250445D01*
X39499560Y-45231009D01*
X39493164Y-45209928D01*
X39490400Y-45181860D01*
X39490400Y-44718140D01*
X39493164Y-44690072D01*
X39499560Y-44668991D01*
X39509948Y-44649555D01*
X39523924Y-44632524D01*
X39540955Y-44618548D01*
X39560391Y-44608160D01*
X39581472Y-44601764D01*
X39609540Y-44599000D01*
X41023260Y-44599000D01*
X41051328Y-44601764D01*
G37*
G36*
X21937328Y-44601764D02*
G01*
X21958409Y-44608160D01*
X21977845Y-44618548D01*
X21994876Y-44632524D01*
X22008852Y-44649555D01*
X22019240Y-44668991D01*
X22025636Y-44690072D01*
X22028400Y-44718140D01*
X22028400Y-45181860D01*
X22025636Y-45209928D01*
X22019240Y-45231009D01*
X22008852Y-45250445D01*
X21994876Y-45267476D01*
X21977845Y-45281452D01*
X21958409Y-45291840D01*
X21937328Y-45298236D01*
X21909260Y-45301000D01*
X20495540Y-45301000D01*
X20467472Y-45298236D01*
X20446391Y-45291840D01*
X20426955Y-45281452D01*
X20409924Y-45267476D01*
X20395948Y-45250445D01*
X20385560Y-45231009D01*
X20379164Y-45209928D01*
X20376400Y-45181860D01*
X20376400Y-44718140D01*
X20379164Y-44690072D01*
X20385560Y-44668991D01*
X20395948Y-44649555D01*
X20409924Y-44632524D01*
X20426955Y-44618548D01*
X20446391Y-44608160D01*
X20467472Y-44601764D01*
X20495540Y-44599000D01*
X21909260Y-44599000D01*
X21937328Y-44601764D01*
G37*
G36*
X34059991Y-44245085D02*
G01*
X34093969Y-44255393D01*
X34125290Y-44272134D01*
X34152739Y-44294661D01*
X34175266Y-44322110D01*
X34192007Y-44353431D01*
X34202315Y-44387409D01*
X34206400Y-44428890D01*
X34206400Y-45030110D01*
X34202315Y-45071591D01*
X34192007Y-45105569D01*
X34175266Y-45136890D01*
X34152739Y-45164339D01*
X34125290Y-45186866D01*
X34093969Y-45203607D01*
X34059991Y-45213915D01*
X34018510Y-45218000D01*
X33342290Y-45218000D01*
X33300809Y-45213915D01*
X33266831Y-45203607D01*
X33235510Y-45186866D01*
X33208061Y-45164339D01*
X33185534Y-45136890D01*
X33168793Y-45105569D01*
X33158485Y-45071591D01*
X33154400Y-45030110D01*
X33154400Y-44428890D01*
X33158485Y-44387409D01*
X33168793Y-44353431D01*
X33185534Y-44322110D01*
X33208061Y-44294661D01*
X33235510Y-44272134D01*
X33266831Y-44255393D01*
X33300809Y-44245085D01*
X33342290Y-44241000D01*
X34018510Y-44241000D01*
X34059991Y-44245085D01*
G37*
G36*
X21937328Y-43601764D02*
G01*
X21958409Y-43608160D01*
X21977845Y-43618548D01*
X21994876Y-43632524D01*
X22008852Y-43649555D01*
X22019240Y-43668991D01*
X22025636Y-43690072D01*
X22028400Y-43718140D01*
X22028400Y-44181860D01*
X22025636Y-44209928D01*
X22019240Y-44231009D01*
X22008852Y-44250445D01*
X21994876Y-44267476D01*
X21977845Y-44281452D01*
X21958409Y-44291840D01*
X21937328Y-44298236D01*
X21909260Y-44301000D01*
X20495540Y-44301000D01*
X20467472Y-44298236D01*
X20446391Y-44291840D01*
X20426955Y-44281452D01*
X20409924Y-44267476D01*
X20395948Y-44250445D01*
X20385560Y-44231009D01*
X20379164Y-44209928D01*
X20376400Y-44181860D01*
X20376400Y-43718140D01*
X20379164Y-43690072D01*
X20385560Y-43668991D01*
X20395948Y-43649555D01*
X20409924Y-43632524D01*
X20426955Y-43618548D01*
X20446391Y-43608160D01*
X20467472Y-43601764D01*
X20495540Y-43599000D01*
X21909260Y-43599000D01*
X21937328Y-43601764D01*
G37*
G36*
X41051328Y-43601764D02*
G01*
X41072409Y-43608160D01*
X41091845Y-43618548D01*
X41108876Y-43632524D01*
X41122852Y-43649555D01*
X41133240Y-43668991D01*
X41139636Y-43690072D01*
X41142400Y-43718140D01*
X41142400Y-44181860D01*
X41139636Y-44209928D01*
X41133240Y-44231009D01*
X41122852Y-44250445D01*
X41108876Y-44267476D01*
X41091845Y-44281452D01*
X41072409Y-44291840D01*
X41051328Y-44298236D01*
X41023260Y-44301000D01*
X39609540Y-44301000D01*
X39581472Y-44298236D01*
X39560391Y-44291840D01*
X39540955Y-44281452D01*
X39523924Y-44267476D01*
X39509948Y-44250445D01*
X39499560Y-44231009D01*
X39493164Y-44209928D01*
X39490400Y-44181860D01*
X39490400Y-43718140D01*
X39493164Y-43690072D01*
X39499560Y-43668991D01*
X39509948Y-43649555D01*
X39523924Y-43632524D01*
X39540955Y-43618548D01*
X39560391Y-43608160D01*
X39581472Y-43601764D01*
X39609540Y-43599000D01*
X41023260Y-43599000D01*
X41051328Y-43601764D01*
G37*
G36*
X34059991Y-42670085D02*
G01*
X34093969Y-42680393D01*
X34125290Y-42697134D01*
X34152739Y-42719661D01*
X34175266Y-42747110D01*
X34192007Y-42778431D01*
X34202315Y-42812409D01*
X34206400Y-42853890D01*
X34206400Y-43455110D01*
X34202315Y-43496591D01*
X34192007Y-43530569D01*
X34175266Y-43561890D01*
X34152739Y-43589339D01*
X34125290Y-43611866D01*
X34093969Y-43628607D01*
X34059991Y-43638915D01*
X34018510Y-43643000D01*
X33342290Y-43643000D01*
X33300809Y-43638915D01*
X33266831Y-43628607D01*
X33235510Y-43611866D01*
X33208061Y-43589339D01*
X33185534Y-43561890D01*
X33168793Y-43530569D01*
X33158485Y-43496591D01*
X33154400Y-43455110D01*
X33154400Y-42853890D01*
X33158485Y-42812409D01*
X33168793Y-42778431D01*
X33185534Y-42747110D01*
X33208061Y-42719661D01*
X33235510Y-42697134D01*
X33266831Y-42680393D01*
X33300809Y-42670085D01*
X33342290Y-42666000D01*
X34018510Y-42666000D01*
X34059991Y-42670085D01*
G37*
G36*
X37685400Y-43369000D02*
G01*
X35033400Y-43369000D01*
X35033400Y-42207000D01*
X37685400Y-42207000D01*
X37685400Y-43369000D01*
G37*
G36*
X44982642Y-42003404D02*
G01*
X45019737Y-42014657D01*
X45053915Y-42032925D01*
X45083881Y-42057519D01*
X45108475Y-42087485D01*
X45126743Y-42121663D01*
X45137996Y-42158758D01*
X45142400Y-42203474D01*
X45142400Y-43096526D01*
X45137996Y-43141242D01*
X45126743Y-43178337D01*
X45108475Y-43212515D01*
X45083881Y-43242481D01*
X45053915Y-43267075D01*
X45019737Y-43285343D01*
X44982642Y-43296596D01*
X44937926Y-43301000D01*
X43444874Y-43301000D01*
X43400158Y-43296596D01*
X43363063Y-43285343D01*
X43328885Y-43267075D01*
X43298919Y-43242481D01*
X43274325Y-43212515D01*
X43256057Y-43178337D01*
X43244804Y-43141242D01*
X43240400Y-43096526D01*
X43240400Y-42203474D01*
X43244804Y-42158758D01*
X43256057Y-42121663D01*
X43274325Y-42087485D01*
X43298919Y-42057519D01*
X43328885Y-42032925D01*
X43363063Y-42014657D01*
X43400158Y-42003404D01*
X43444874Y-41999000D01*
X44937926Y-41999000D01*
X44982642Y-42003404D01*
G37*
G36*
X18118642Y-42003404D02*
G01*
X18155737Y-42014657D01*
X18189915Y-42032925D01*
X18219881Y-42057519D01*
X18244475Y-42087485D01*
X18262743Y-42121663D01*
X18273996Y-42158758D01*
X18278400Y-42203474D01*
X18278400Y-43096526D01*
X18273996Y-43141242D01*
X18262743Y-43178337D01*
X18244475Y-43212515D01*
X18219881Y-43242481D01*
X18189915Y-43267075D01*
X18155737Y-43285343D01*
X18118642Y-43296596D01*
X18073926Y-43301000D01*
X16580874Y-43301000D01*
X16536158Y-43296596D01*
X16499063Y-43285343D01*
X16464885Y-43267075D01*
X16434919Y-43242481D01*
X16410325Y-43212515D01*
X16392057Y-43178337D01*
X16380804Y-43141242D01*
X16376400Y-43096526D01*
X16376400Y-42203474D01*
X16380804Y-42158758D01*
X16392057Y-42121663D01*
X16410325Y-42087485D01*
X16434919Y-42057519D01*
X16464885Y-42032925D01*
X16499063Y-42014657D01*
X16536158Y-42003404D01*
X16580874Y-41999000D01*
X18073926Y-41999000D01*
X18118642Y-42003404D01*
G37*
G36*
X24670004Y-41495347D02*
G01*
X24706544Y-41506432D01*
X24740221Y-41524433D01*
X24769741Y-41548659D01*
X24793967Y-41578179D01*
X24811968Y-41611856D01*
X24823053Y-41648396D01*
X24827400Y-41692538D01*
X24827400Y-42641462D01*
X24823053Y-42685604D01*
X24811968Y-42722144D01*
X24793967Y-42755821D01*
X24769741Y-42785341D01*
X24740221Y-42809567D01*
X24706544Y-42827568D01*
X24670004Y-42838653D01*
X24625862Y-42843000D01*
X23176938Y-42843000D01*
X23132796Y-42838653D01*
X23096256Y-42827568D01*
X23062579Y-42809567D01*
X23033059Y-42785341D01*
X23008833Y-42755821D01*
X22990832Y-42722144D01*
X22979747Y-42685604D01*
X22975400Y-42641462D01*
X22975400Y-41692538D01*
X22979747Y-41648396D01*
X22990832Y-41611856D01*
X23008833Y-41578179D01*
X23033059Y-41548659D01*
X23062579Y-41524433D01*
X23096256Y-41506432D01*
X23132796Y-41495347D01*
X23176938Y-41491000D01*
X24625862Y-41491000D01*
X24670004Y-41495347D01*
G37*
G36*
X44982642Y-40142404D02*
G01*
X45019737Y-40153657D01*
X45053915Y-40171925D01*
X45083881Y-40196519D01*
X45108475Y-40226485D01*
X45126743Y-40260663D01*
X45137996Y-40297758D01*
X45142400Y-40342474D01*
X45142400Y-41235526D01*
X45137996Y-41280242D01*
X45126743Y-41317337D01*
X45108475Y-41351515D01*
X45083881Y-41381481D01*
X45053915Y-41406075D01*
X45019737Y-41424343D01*
X44982642Y-41435596D01*
X44937926Y-41440000D01*
X43444874Y-41440000D01*
X43400158Y-41435596D01*
X43363063Y-41424343D01*
X43328885Y-41406075D01*
X43298919Y-41381481D01*
X43274325Y-41351515D01*
X43256057Y-41317337D01*
X43244804Y-41280242D01*
X43240400Y-41235526D01*
X43240400Y-40342474D01*
X43244804Y-40297758D01*
X43256057Y-40260663D01*
X43274325Y-40226485D01*
X43298919Y-40196519D01*
X43328885Y-40171925D01*
X43363063Y-40153657D01*
X43400158Y-40142404D01*
X43444874Y-40138000D01*
X44937926Y-40138000D01*
X44982642Y-40142404D01*
G37*
G36*
X37685400Y-41169000D02*
G01*
X35033400Y-41169000D01*
X35033400Y-40007000D01*
X37685400Y-40007000D01*
X37685400Y-41169000D01*
G37*
G36*
X19419198Y-39410247D02*
G01*
X19454767Y-39421037D01*
X19487539Y-39438554D01*
X19516269Y-39462131D01*
X19539846Y-39490861D01*
X19557363Y-39523633D01*
X19568153Y-39559202D01*
X19572400Y-39602325D01*
X19572400Y-40661675D01*
X19568153Y-40704798D01*
X19557363Y-40740367D01*
X19539846Y-40773139D01*
X19516269Y-40801869D01*
X19487539Y-40825446D01*
X19454767Y-40842963D01*
X19419198Y-40853753D01*
X19376075Y-40858000D01*
X18266725Y-40858000D01*
X18223602Y-40853753D01*
X18188033Y-40842963D01*
X18155261Y-40825446D01*
X18126531Y-40801869D01*
X18102954Y-40773139D01*
X18085437Y-40740367D01*
X18074647Y-40704798D01*
X18070400Y-40661675D01*
X18070400Y-39602325D01*
X18074647Y-39559202D01*
X18085437Y-39523633D01*
X18102954Y-39490861D01*
X18126531Y-39462131D01*
X18155261Y-39438554D01*
X18188033Y-39421037D01*
X18223602Y-39410247D01*
X18266725Y-39406000D01*
X19376075Y-39406000D01*
X19419198Y-39410247D01*
G37*
G36*
X22119198Y-39410247D02*
G01*
X22154767Y-39421037D01*
X22187539Y-39438554D01*
X22216269Y-39462131D01*
X22239846Y-39490861D01*
X22257363Y-39523633D01*
X22268153Y-39559202D01*
X22272400Y-39602325D01*
X22272400Y-40661675D01*
X22268153Y-40704798D01*
X22257363Y-40740367D01*
X22239846Y-40773139D01*
X22216269Y-40801869D01*
X22187539Y-40825446D01*
X22154767Y-40842963D01*
X22119198Y-40853753D01*
X22076075Y-40858000D01*
X20966725Y-40858000D01*
X20923602Y-40853753D01*
X20888033Y-40842963D01*
X20855261Y-40825446D01*
X20826531Y-40801869D01*
X20802954Y-40773139D01*
X20785437Y-40740367D01*
X20774647Y-40704798D01*
X20770400Y-40661675D01*
X20770400Y-39602325D01*
X20774647Y-39559202D01*
X20785437Y-39523633D01*
X20802954Y-39490861D01*
X20826531Y-39462131D01*
X20855261Y-39438554D01*
X20888033Y-39421037D01*
X20923602Y-39410247D01*
X20966725Y-39406000D01*
X22076075Y-39406000D01*
X22119198Y-39410247D01*
G37*
G36*
X24670004Y-38695347D02*
G01*
X24706544Y-38706432D01*
X24740221Y-38724433D01*
X24769741Y-38748659D01*
X24793967Y-38778179D01*
X24811968Y-38811856D01*
X24823053Y-38848396D01*
X24827400Y-38892538D01*
X24827400Y-39841462D01*
X24823053Y-39885604D01*
X24811968Y-39922144D01*
X24793967Y-39955821D01*
X24769741Y-39985341D01*
X24740221Y-40009567D01*
X24706544Y-40027568D01*
X24670004Y-40038653D01*
X24625862Y-40043000D01*
X23176938Y-40043000D01*
X23132796Y-40038653D01*
X23096256Y-40027568D01*
X23062579Y-40009567D01*
X23033059Y-39985341D01*
X23008833Y-39955821D01*
X22990832Y-39922144D01*
X22979747Y-39885604D01*
X22975400Y-39841462D01*
X22975400Y-38892538D01*
X22979747Y-38848396D01*
X22990832Y-38811856D01*
X23008833Y-38778179D01*
X23033059Y-38748659D01*
X23062579Y-38724433D01*
X23096256Y-38706432D01*
X23132796Y-38695347D01*
X23176938Y-38691000D01*
X24625862Y-38691000D01*
X24670004Y-38695347D01*
G37*
G36*
X41051328Y-39140764D02*
G01*
X41072409Y-39147160D01*
X41091845Y-39157548D01*
X41108876Y-39171524D01*
X41122852Y-39188555D01*
X41133240Y-39207991D01*
X41139636Y-39229072D01*
X41142400Y-39257140D01*
X41142400Y-39720860D01*
X41139636Y-39748928D01*
X41133240Y-39770009D01*
X41122852Y-39789445D01*
X41108876Y-39806476D01*
X41091845Y-39820452D01*
X41072409Y-39830840D01*
X41051328Y-39837236D01*
X41023260Y-39840000D01*
X39609540Y-39840000D01*
X39581472Y-39837236D01*
X39560391Y-39830840D01*
X39540955Y-39820452D01*
X39523924Y-39806476D01*
X39509948Y-39789445D01*
X39499560Y-39770009D01*
X39493164Y-39748928D01*
X39490400Y-39720860D01*
X39490400Y-39257140D01*
X39493164Y-39229072D01*
X39499560Y-39207991D01*
X39509948Y-39188555D01*
X39523924Y-39171524D01*
X39540955Y-39157548D01*
X39560391Y-39147160D01*
X39581472Y-39140764D01*
X39609540Y-39138000D01*
X41023260Y-39138000D01*
X41051328Y-39140764D01*
G37*
G36*
X26832198Y-38140247D02*
G01*
X26867767Y-38151037D01*
X26900539Y-38168554D01*
X26929269Y-38192131D01*
X26952846Y-38220861D01*
X26970363Y-38253633D01*
X26981153Y-38289202D01*
X26985400Y-38332325D01*
X26985400Y-39391675D01*
X26981153Y-39434798D01*
X26970363Y-39470367D01*
X26952846Y-39503139D01*
X26929269Y-39531869D01*
X26900539Y-39555446D01*
X26867767Y-39572963D01*
X26832198Y-39583753D01*
X26789075Y-39588000D01*
X25679725Y-39588000D01*
X25636602Y-39583753D01*
X25601033Y-39572963D01*
X25568261Y-39555446D01*
X25539531Y-39531869D01*
X25515954Y-39503139D01*
X25498437Y-39470367D01*
X25487647Y-39434798D01*
X25483400Y-39391675D01*
X25483400Y-38332325D01*
X25487647Y-38289202D01*
X25498437Y-38253633D01*
X25515954Y-38220861D01*
X25539531Y-38192131D01*
X25568261Y-38168554D01*
X25601033Y-38151037D01*
X25636602Y-38140247D01*
X25679725Y-38136000D01*
X26789075Y-38136000D01*
X26832198Y-38140247D01*
G37*
G36*
X29532198Y-38140247D02*
G01*
X29567767Y-38151037D01*
X29600539Y-38168554D01*
X29629269Y-38192131D01*
X29652846Y-38220861D01*
X29670363Y-38253633D01*
X29681153Y-38289202D01*
X29685400Y-38332325D01*
X29685400Y-39391675D01*
X29681153Y-39434798D01*
X29670363Y-39470367D01*
X29652846Y-39503139D01*
X29629269Y-39531869D01*
X29600539Y-39555446D01*
X29567767Y-39572963D01*
X29532198Y-39583753D01*
X29489075Y-39588000D01*
X28379725Y-39588000D01*
X28336602Y-39583753D01*
X28301033Y-39572963D01*
X28268261Y-39555446D01*
X28239531Y-39531869D01*
X28215954Y-39503139D01*
X28198437Y-39470367D01*
X28187647Y-39434798D01*
X28183400Y-39391675D01*
X28183400Y-38332325D01*
X28187647Y-38289202D01*
X28198437Y-38253633D01*
X28215954Y-38220861D01*
X28239531Y-38192131D01*
X28268261Y-38168554D01*
X28301033Y-38151037D01*
X28336602Y-38140247D01*
X28379725Y-38136000D01*
X29489075Y-38136000D01*
X29532198Y-38140247D01*
G37*
G36*
X33230400Y-39282000D02*
G01*
X30828400Y-39282000D01*
X30828400Y-37680000D01*
X33230400Y-37680000D01*
X33230400Y-39282000D01*
G37*
G36*
X41051328Y-38140764D02*
G01*
X41072409Y-38147160D01*
X41091845Y-38157548D01*
X41108876Y-38171524D01*
X41122852Y-38188555D01*
X41133240Y-38207991D01*
X41139636Y-38229072D01*
X41142400Y-38257140D01*
X41142400Y-38720860D01*
X41139636Y-38748928D01*
X41133240Y-38770009D01*
X41122852Y-38789445D01*
X41108876Y-38806476D01*
X41091845Y-38820452D01*
X41072409Y-38830840D01*
X41051328Y-38837236D01*
X41023260Y-38840000D01*
X39609540Y-38840000D01*
X39581472Y-38837236D01*
X39560391Y-38830840D01*
X39540955Y-38820452D01*
X39523924Y-38806476D01*
X39509948Y-38789445D01*
X39499560Y-38770009D01*
X39493164Y-38748928D01*
X39490400Y-38720860D01*
X39490400Y-38257140D01*
X39493164Y-38229072D01*
X39499560Y-38207991D01*
X39509948Y-38188555D01*
X39523924Y-38171524D01*
X39540955Y-38157548D01*
X39560391Y-38147160D01*
X39581472Y-38140764D01*
X39609540Y-38138000D01*
X41023260Y-38138000D01*
X41051328Y-38140764D01*
G37*
G36*
X44982642Y-36542404D02*
G01*
X45019737Y-36553657D01*
X45053915Y-36571925D01*
X45083881Y-36596519D01*
X45108475Y-36626485D01*
X45126743Y-36660663D01*
X45137996Y-36697758D01*
X45142400Y-36742474D01*
X45142400Y-37635526D01*
X45137996Y-37680242D01*
X45126743Y-37717337D01*
X45108475Y-37751515D01*
X45083881Y-37781481D01*
X45053915Y-37806075D01*
X45019737Y-37824343D01*
X44982642Y-37835596D01*
X44937926Y-37840000D01*
X43444874Y-37840000D01*
X43400158Y-37835596D01*
X43363063Y-37824343D01*
X43328885Y-37806075D01*
X43298919Y-37781481D01*
X43274325Y-37751515D01*
X43256057Y-37717337D01*
X43244804Y-37680242D01*
X43240400Y-37635526D01*
X43240400Y-36742474D01*
X43244804Y-36697758D01*
X43256057Y-36660663D01*
X43274325Y-36626485D01*
X43298919Y-36596519D01*
X43328885Y-36571925D01*
X43363063Y-36553657D01*
X43400158Y-36542404D01*
X43444874Y-36538000D01*
X44937926Y-36538000D01*
X44982642Y-36542404D01*
G37*
G36*
X18573328Y-35106764D02*
G01*
X18594409Y-35113160D01*
X18613845Y-35123548D01*
X18630876Y-35137524D01*
X18644852Y-35154555D01*
X18655240Y-35173991D01*
X18661636Y-35195072D01*
X18664400Y-35223140D01*
X18664400Y-37036860D01*
X18661636Y-37064928D01*
X18655240Y-37086009D01*
X18644852Y-37105445D01*
X18630876Y-37122476D01*
X18613845Y-37136452D01*
X18594409Y-37146840D01*
X18573328Y-37153236D01*
X18545260Y-37156000D01*
X18081540Y-37156000D01*
X18053472Y-37153236D01*
X18032391Y-37146840D01*
X18012955Y-37136452D01*
X17995924Y-37122476D01*
X17981948Y-37105445D01*
X17971560Y-37086009D01*
X17965164Y-37064928D01*
X17962400Y-37036860D01*
X17962400Y-35223140D01*
X17965164Y-35195072D01*
X17971560Y-35173991D01*
X17981948Y-35154555D01*
X17995924Y-35137524D01*
X18012955Y-35123548D01*
X18032391Y-35113160D01*
X18053472Y-35106764D01*
X18081540Y-35104000D01*
X18545260Y-35104000D01*
X18573328Y-35106764D01*
G37*
G36*
X17303328Y-35106764D02*
G01*
X17324409Y-35113160D01*
X17343845Y-35123548D01*
X17360876Y-35137524D01*
X17374852Y-35154555D01*
X17385240Y-35173991D01*
X17391636Y-35195072D01*
X17394400Y-35223140D01*
X17394400Y-37036860D01*
X17391636Y-37064928D01*
X17385240Y-37086009D01*
X17374852Y-37105445D01*
X17360876Y-37122476D01*
X17343845Y-37136452D01*
X17324409Y-37146840D01*
X17303328Y-37153236D01*
X17275260Y-37156000D01*
X16811540Y-37156000D01*
X16783472Y-37153236D01*
X16762391Y-37146840D01*
X16742955Y-37136452D01*
X16725924Y-37122476D01*
X16711948Y-37105445D01*
X16701560Y-37086009D01*
X16695164Y-37064928D01*
X16692400Y-37036860D01*
X16692400Y-35223140D01*
X16695164Y-35195072D01*
X16701560Y-35173991D01*
X16711948Y-35154555D01*
X16725924Y-35137524D01*
X16742955Y-35123548D01*
X16762391Y-35113160D01*
X16783472Y-35106764D01*
X16811540Y-35104000D01*
X17275260Y-35104000D01*
X17303328Y-35106764D01*
G37*
G36*
X19843328Y-35106764D02*
G01*
X19864409Y-35113160D01*
X19883845Y-35123548D01*
X19900876Y-35137524D01*
X19914852Y-35154555D01*
X19925240Y-35173991D01*
X19931636Y-35195072D01*
X19934400Y-35223140D01*
X19934400Y-37036860D01*
X19931636Y-37064928D01*
X19925240Y-37086009D01*
X19914852Y-37105445D01*
X19900876Y-37122476D01*
X19883845Y-37136452D01*
X19864409Y-37146840D01*
X19843328Y-37153236D01*
X19815260Y-37156000D01*
X19351540Y-37156000D01*
X19323472Y-37153236D01*
X19302391Y-37146840D01*
X19282955Y-37136452D01*
X19265924Y-37122476D01*
X19251948Y-37105445D01*
X19241560Y-37086009D01*
X19235164Y-37064928D01*
X19232400Y-37036860D01*
X19232400Y-35223140D01*
X19235164Y-35195072D01*
X19241560Y-35173991D01*
X19251948Y-35154555D01*
X19265924Y-35137524D01*
X19282955Y-35123548D01*
X19302391Y-35113160D01*
X19323472Y-35106764D01*
X19351540Y-35104000D01*
X19815260Y-35104000D01*
X19843328Y-35106764D01*
G37*
G36*
X21113328Y-35106764D02*
G01*
X21134409Y-35113160D01*
X21153845Y-35123548D01*
X21170876Y-35137524D01*
X21184852Y-35154555D01*
X21195240Y-35173991D01*
X21201636Y-35195072D01*
X21204400Y-35223140D01*
X21204400Y-37036860D01*
X21201636Y-37064928D01*
X21195240Y-37086009D01*
X21184852Y-37105445D01*
X21170876Y-37122476D01*
X21153845Y-37136452D01*
X21134409Y-37146840D01*
X21113328Y-37153236D01*
X21085260Y-37156000D01*
X20621540Y-37156000D01*
X20593472Y-37153236D01*
X20572391Y-37146840D01*
X20552955Y-37136452D01*
X20535924Y-37122476D01*
X20521948Y-37105445D01*
X20511560Y-37086009D01*
X20505164Y-37064928D01*
X20502400Y-37036860D01*
X20502400Y-35223140D01*
X20505164Y-35195072D01*
X20511560Y-35173991D01*
X20521948Y-35154555D01*
X20535924Y-35137524D01*
X20552955Y-35123548D01*
X20572391Y-35113160D01*
X20593472Y-35106764D01*
X20621540Y-35104000D01*
X21085260Y-35104000D01*
X21113328Y-35106764D01*
G37*
G36*
X37362400Y-36384000D02*
G01*
X34760400Y-36384000D01*
X34760400Y-34482000D01*
X37362400Y-34482000D01*
X37362400Y-36384000D01*
G37*
G36*
X30250400Y-36384000D02*
G01*
X27648400Y-36384000D01*
X27648400Y-34482000D01*
X30250400Y-34482000D01*
X30250400Y-36384000D01*
G37*
G36*
X26250400Y-36384000D02*
G01*
X23648400Y-36384000D01*
X23648400Y-34482000D01*
X26250400Y-34482000D01*
X26250400Y-36384000D01*
G37*
G36*
X33362400Y-36384000D02*
G01*
X30760400Y-36384000D01*
X30760400Y-34482000D01*
X33362400Y-34482000D01*
X33362400Y-36384000D01*
G37*
G36*
X41358400Y-35345000D02*
G01*
X38956400Y-35345000D01*
X38956400Y-33743000D01*
X41358400Y-33743000D01*
X41358400Y-35345000D01*
G37*
G36*
X20367736Y-32462733D02*
G01*
X20398283Y-32471999D01*
X20426433Y-32487046D01*
X20451106Y-32507294D01*
X20471354Y-32531967D01*
X20486401Y-32560117D01*
X20495667Y-32590664D01*
X20499400Y-32628567D01*
X20499400Y-34681433D01*
X20495667Y-34719336D01*
X20486401Y-34749883D01*
X20471354Y-34778033D01*
X20451106Y-34802706D01*
X20426433Y-34822954D01*
X20398283Y-34838001D01*
X20367736Y-34847267D01*
X20329833Y-34851000D01*
X17566967Y-34851000D01*
X17529064Y-34847267D01*
X17498517Y-34838001D01*
X17470367Y-34822954D01*
X17445694Y-34802706D01*
X17425446Y-34778033D01*
X17410399Y-34749883D01*
X17401133Y-34719336D01*
X17397400Y-34681433D01*
X17397400Y-32628567D01*
X17401133Y-32590664D01*
X17410399Y-32560117D01*
X17425446Y-32531967D01*
X17445694Y-32507294D01*
X17470367Y-32487046D01*
X17498517Y-32471999D01*
X17529064Y-32462733D01*
X17566967Y-32459000D01*
X20329833Y-32459000D01*
X20367736Y-32462733D01*
G37*
G36*
X35211004Y-31843347D02*
G01*
X35247544Y-31854432D01*
X35281221Y-31872433D01*
X35310741Y-31896659D01*
X35334967Y-31926179D01*
X35352968Y-31959856D01*
X35364053Y-31996396D01*
X35368400Y-32040538D01*
X35368400Y-32989462D01*
X35364053Y-33033604D01*
X35352968Y-33070144D01*
X35334967Y-33103821D01*
X35310741Y-33133341D01*
X35281221Y-33157567D01*
X35247544Y-33175568D01*
X35211004Y-33186653D01*
X35166862Y-33191000D01*
X33717938Y-33191000D01*
X33673796Y-33186653D01*
X33637256Y-33175568D01*
X33603579Y-33157567D01*
X33574059Y-33133341D01*
X33549833Y-33103821D01*
X33531832Y-33070144D01*
X33520747Y-33033604D01*
X33516400Y-32989462D01*
X33516400Y-32040538D01*
X33520747Y-31996396D01*
X33531832Y-31959856D01*
X33549833Y-31926179D01*
X33574059Y-31896659D01*
X33603579Y-31872433D01*
X33637256Y-31854432D01*
X33673796Y-31843347D01*
X33717938Y-31839000D01*
X35166862Y-31839000D01*
X35211004Y-31843347D01*
G37*
G36*
X23074491Y-32180085D02*
G01*
X23108469Y-32190393D01*
X23139790Y-32207134D01*
X23167239Y-32229661D01*
X23189766Y-32257110D01*
X23206507Y-32288431D01*
X23216815Y-32322409D01*
X23220900Y-32363890D01*
X23220900Y-32965110D01*
X23216815Y-33006591D01*
X23206507Y-33040569D01*
X23189766Y-33071890D01*
X23167239Y-33099339D01*
X23139790Y-33121866D01*
X23108469Y-33138607D01*
X23074491Y-33148915D01*
X23033010Y-33153000D01*
X22356790Y-33153000D01*
X22315309Y-33148915D01*
X22281331Y-33138607D01*
X22250010Y-33121866D01*
X22222561Y-33099339D01*
X22200034Y-33071890D01*
X22183293Y-33040569D01*
X22172985Y-33006591D01*
X22168900Y-32965110D01*
X22168900Y-32363890D01*
X22172985Y-32322409D01*
X22183293Y-32288431D01*
X22200034Y-32257110D01*
X22222561Y-32229661D01*
X22250010Y-32207134D01*
X22281331Y-32190393D01*
X22315309Y-32180085D01*
X22356790Y-32176000D01*
X23033010Y-32176000D01*
X23074491Y-32180085D01*
G37*
G36*
X39902491Y-31545585D02*
G01*
X39936469Y-31555893D01*
X39967790Y-31572634D01*
X39995239Y-31595161D01*
X40017766Y-31622610D01*
X40034507Y-31653931D01*
X40044815Y-31687909D01*
X40048900Y-31729390D01*
X40048900Y-32405610D01*
X40044815Y-32447091D01*
X40034507Y-32481069D01*
X40017766Y-32512390D01*
X39995239Y-32539839D01*
X39967790Y-32562366D01*
X39936469Y-32579107D01*
X39902491Y-32589415D01*
X39861010Y-32593500D01*
X39259790Y-32593500D01*
X39218309Y-32589415D01*
X39184331Y-32579107D01*
X39153010Y-32562366D01*
X39125561Y-32539839D01*
X39103034Y-32512390D01*
X39086293Y-32481069D01*
X39075985Y-32447091D01*
X39071900Y-32405610D01*
X39071900Y-31729390D01*
X39075985Y-31687909D01*
X39086293Y-31653931D01*
X39103034Y-31622610D01*
X39125561Y-31595161D01*
X39153010Y-31572634D01*
X39184331Y-31555893D01*
X39218309Y-31545585D01*
X39259790Y-31541500D01*
X39861010Y-31541500D01*
X39902491Y-31545585D01*
G37*
G36*
X41477491Y-31545585D02*
G01*
X41511469Y-31555893D01*
X41542790Y-31572634D01*
X41570239Y-31595161D01*
X41592766Y-31622610D01*
X41609507Y-31653931D01*
X41619815Y-31687909D01*
X41623900Y-31729390D01*
X41623900Y-32405610D01*
X41619815Y-32447091D01*
X41609507Y-32481069D01*
X41592766Y-32512390D01*
X41570239Y-32539839D01*
X41542790Y-32562366D01*
X41511469Y-32579107D01*
X41477491Y-32589415D01*
X41436010Y-32593500D01*
X40834790Y-32593500D01*
X40793309Y-32589415D01*
X40759331Y-32579107D01*
X40728010Y-32562366D01*
X40700561Y-32539839D01*
X40678034Y-32512390D01*
X40661293Y-32481069D01*
X40650985Y-32447091D01*
X40646900Y-32405610D01*
X40646900Y-31729390D01*
X40650985Y-31687909D01*
X40661293Y-31653931D01*
X40678034Y-31622610D01*
X40700561Y-31595161D01*
X40728010Y-31572634D01*
X40759331Y-31555893D01*
X40793309Y-31545585D01*
X40834790Y-31541500D01*
X41436010Y-31541500D01*
X41477491Y-31545585D01*
G37*
G36*
X19843328Y-30156764D02*
G01*
X19864409Y-30163160D01*
X19883845Y-30173548D01*
X19900876Y-30187524D01*
X19914852Y-30204555D01*
X19925240Y-30223991D01*
X19931636Y-30245072D01*
X19934400Y-30273140D01*
X19934400Y-32086860D01*
X19931636Y-32114928D01*
X19925240Y-32136009D01*
X19914852Y-32155445D01*
X19900876Y-32172476D01*
X19883845Y-32186452D01*
X19864409Y-32196840D01*
X19843328Y-32203236D01*
X19815260Y-32206000D01*
X19351540Y-32206000D01*
X19323472Y-32203236D01*
X19302391Y-32196840D01*
X19282955Y-32186452D01*
X19265924Y-32172476D01*
X19251948Y-32155445D01*
X19241560Y-32136009D01*
X19235164Y-32114928D01*
X19232400Y-32086860D01*
X19232400Y-30273140D01*
X19235164Y-30245072D01*
X19241560Y-30223991D01*
X19251948Y-30204555D01*
X19265924Y-30187524D01*
X19282955Y-30173548D01*
X19302391Y-30163160D01*
X19323472Y-30156764D01*
X19351540Y-30154000D01*
X19815260Y-30154000D01*
X19843328Y-30156764D01*
G37*
G36*
X21113328Y-30156764D02*
G01*
X21134409Y-30163160D01*
X21153845Y-30173548D01*
X21170876Y-30187524D01*
X21184852Y-30204555D01*
X21195240Y-30223991D01*
X21201636Y-30245072D01*
X21204400Y-30273140D01*
X21204400Y-32086860D01*
X21201636Y-32114928D01*
X21195240Y-32136009D01*
X21184852Y-32155445D01*
X21170876Y-32172476D01*
X21153845Y-32186452D01*
X21134409Y-32196840D01*
X21113328Y-32203236D01*
X21085260Y-32206000D01*
X20621540Y-32206000D01*
X20593472Y-32203236D01*
X20572391Y-32196840D01*
X20552955Y-32186452D01*
X20535924Y-32172476D01*
X20521948Y-32155445D01*
X20511560Y-32136009D01*
X20505164Y-32114928D01*
X20502400Y-32086860D01*
X20502400Y-30273140D01*
X20505164Y-30245072D01*
X20511560Y-30223991D01*
X20521948Y-30204555D01*
X20535924Y-30187524D01*
X20552955Y-30173548D01*
X20572391Y-30163160D01*
X20593472Y-30156764D01*
X20621540Y-30154000D01*
X21085260Y-30154000D01*
X21113328Y-30156764D01*
G37*
G36*
X18573328Y-30156764D02*
G01*
X18594409Y-30163160D01*
X18613845Y-30173548D01*
X18630876Y-30187524D01*
X18644852Y-30204555D01*
X18655240Y-30223991D01*
X18661636Y-30245072D01*
X18664400Y-30273140D01*
X18664400Y-32086860D01*
X18661636Y-32114928D01*
X18655240Y-32136009D01*
X18644852Y-32155445D01*
X18630876Y-32172476D01*
X18613845Y-32186452D01*
X18594409Y-32196840D01*
X18573328Y-32203236D01*
X18545260Y-32206000D01*
X18081540Y-32206000D01*
X18053472Y-32203236D01*
X18032391Y-32196840D01*
X18012955Y-32186452D01*
X17995924Y-32172476D01*
X17981948Y-32155445D01*
X17971560Y-32136009D01*
X17965164Y-32114928D01*
X17962400Y-32086860D01*
X17962400Y-30273140D01*
X17965164Y-30245072D01*
X17971560Y-30223991D01*
X17981948Y-30204555D01*
X17995924Y-30187524D01*
X18012955Y-30173548D01*
X18032391Y-30163160D01*
X18053472Y-30156764D01*
X18081540Y-30154000D01*
X18545260Y-30154000D01*
X18573328Y-30156764D01*
G37*
G36*
X17303328Y-30156764D02*
G01*
X17324409Y-30163160D01*
X17343845Y-30173548D01*
X17360876Y-30187524D01*
X17374852Y-30204555D01*
X17385240Y-30223991D01*
X17391636Y-30245072D01*
X17394400Y-30273140D01*
X17394400Y-32086860D01*
X17391636Y-32114928D01*
X17385240Y-32136009D01*
X17374852Y-32155445D01*
X17360876Y-32172476D01*
X17343845Y-32186452D01*
X17324409Y-32196840D01*
X17303328Y-32203236D01*
X17275260Y-32206000D01*
X16811540Y-32206000D01*
X16783472Y-32203236D01*
X16762391Y-32196840D01*
X16742955Y-32186452D01*
X16725924Y-32172476D01*
X16711948Y-32155445D01*
X16701560Y-32136009D01*
X16695164Y-32114928D01*
X16692400Y-32086860D01*
X16692400Y-30273140D01*
X16695164Y-30245072D01*
X16701560Y-30223991D01*
X16711948Y-30204555D01*
X16725924Y-30187524D01*
X16742955Y-30173548D01*
X16762391Y-30163160D01*
X16783472Y-30156764D01*
X16811540Y-30154000D01*
X17275260Y-30154000D01*
X17303328Y-30156764D01*
G37*
G36*
X23074491Y-30605085D02*
G01*
X23108469Y-30615393D01*
X23139790Y-30632134D01*
X23167239Y-30654661D01*
X23189766Y-30682110D01*
X23206507Y-30713431D01*
X23216815Y-30747409D01*
X23220900Y-30788890D01*
X23220900Y-31390110D01*
X23216815Y-31431591D01*
X23206507Y-31465569D01*
X23189766Y-31496890D01*
X23167239Y-31524339D01*
X23139790Y-31546866D01*
X23108469Y-31563607D01*
X23074491Y-31573915D01*
X23033010Y-31578000D01*
X22356790Y-31578000D01*
X22315309Y-31573915D01*
X22281331Y-31563607D01*
X22250010Y-31546866D01*
X22222561Y-31524339D01*
X22200034Y-31496890D01*
X22183293Y-31465569D01*
X22172985Y-31431591D01*
X22168900Y-31390110D01*
X22168900Y-30788890D01*
X22172985Y-30747409D01*
X22183293Y-30713431D01*
X22200034Y-30682110D01*
X22222561Y-30654661D01*
X22250010Y-30632134D01*
X22281331Y-30615393D01*
X22315309Y-30605085D01*
X22356790Y-30601000D01*
X23033010Y-30601000D01*
X23074491Y-30605085D01*
G37*
G36*
X32440400Y-31298000D02*
G01*
X31278400Y-31298000D01*
X31278400Y-28646000D01*
X32440400Y-28646000D01*
X32440400Y-31298000D01*
G37*
G36*
X30240400Y-31298000D02*
G01*
X29078400Y-31298000D01*
X29078400Y-28646000D01*
X30240400Y-28646000D01*
X30240400Y-31298000D01*
G37*
G36*
X41477491Y-29958085D02*
G01*
X41511469Y-29968393D01*
X41542790Y-29985134D01*
X41570239Y-30007661D01*
X41592766Y-30035110D01*
X41609507Y-30066431D01*
X41619815Y-30100409D01*
X41623900Y-30141890D01*
X41623900Y-30818110D01*
X41619815Y-30859591D01*
X41609507Y-30893569D01*
X41592766Y-30924890D01*
X41570239Y-30952339D01*
X41542790Y-30974866D01*
X41511469Y-30991607D01*
X41477491Y-31001915D01*
X41436010Y-31006000D01*
X40834790Y-31006000D01*
X40793309Y-31001915D01*
X40759331Y-30991607D01*
X40728010Y-30974866D01*
X40700561Y-30952339D01*
X40678034Y-30924890D01*
X40661293Y-30893569D01*
X40650985Y-30859591D01*
X40646900Y-30818110D01*
X40646900Y-30141890D01*
X40650985Y-30100409D01*
X40661293Y-30066431D01*
X40678034Y-30035110D01*
X40700561Y-30007661D01*
X40728010Y-29985134D01*
X40759331Y-29968393D01*
X40793309Y-29958085D01*
X40834790Y-29954000D01*
X41436010Y-29954000D01*
X41477491Y-29958085D01*
G37*
G36*
X39902491Y-29958085D02*
G01*
X39936469Y-29968393D01*
X39967790Y-29985134D01*
X39995239Y-30007661D01*
X40017766Y-30035110D01*
X40034507Y-30066431D01*
X40044815Y-30100409D01*
X40048900Y-30141890D01*
X40048900Y-30818110D01*
X40044815Y-30859591D01*
X40034507Y-30893569D01*
X40017766Y-30924890D01*
X39995239Y-30952339D01*
X39967790Y-30974866D01*
X39936469Y-30991607D01*
X39902491Y-31001915D01*
X39861010Y-31006000D01*
X39259790Y-31006000D01*
X39218309Y-31001915D01*
X39184331Y-30991607D01*
X39153010Y-30974866D01*
X39125561Y-30952339D01*
X39103034Y-30924890D01*
X39086293Y-30893569D01*
X39075985Y-30859591D01*
X39071900Y-30818110D01*
X39071900Y-30141890D01*
X39075985Y-30100409D01*
X39086293Y-30066431D01*
X39103034Y-30035110D01*
X39125561Y-30007661D01*
X39153010Y-29985134D01*
X39184331Y-29968393D01*
X39218309Y-29958085D01*
X39259790Y-29954000D01*
X39861010Y-29954000D01*
X39902491Y-29958085D01*
G37*
G36*
X35211004Y-29043347D02*
G01*
X35247544Y-29054432D01*
X35281221Y-29072433D01*
X35310741Y-29096659D01*
X35334967Y-29126179D01*
X35352968Y-29159856D01*
X35364053Y-29196396D01*
X35368400Y-29240538D01*
X35368400Y-30189462D01*
X35364053Y-30233604D01*
X35352968Y-30270144D01*
X35334967Y-30303821D01*
X35310741Y-30333341D01*
X35281221Y-30357567D01*
X35247544Y-30375568D01*
X35211004Y-30386653D01*
X35166862Y-30391000D01*
X33717938Y-30391000D01*
X33673796Y-30386653D01*
X33637256Y-30375568D01*
X33603579Y-30357567D01*
X33574059Y-30333341D01*
X33549833Y-30303821D01*
X33531832Y-30270144D01*
X33520747Y-30233604D01*
X33516400Y-30189462D01*
X33516400Y-29240538D01*
X33520747Y-29196396D01*
X33531832Y-29159856D01*
X33549833Y-29126179D01*
X33574059Y-29096659D01*
X33603579Y-29072433D01*
X33637256Y-29054432D01*
X33673796Y-29043347D01*
X33717938Y-29039000D01*
X35166862Y-29039000D01*
X35211004Y-29043347D01*
G37*
G36*
X18807991Y-28434085D02*
G01*
X18841969Y-28444393D01*
X18873290Y-28461134D01*
X18900739Y-28483661D01*
X18923266Y-28511110D01*
X18940007Y-28542431D01*
X18950315Y-28576409D01*
X18954400Y-28617890D01*
X18954400Y-29294110D01*
X18950315Y-29335591D01*
X18940007Y-29369569D01*
X18923266Y-29400890D01*
X18900739Y-29428339D01*
X18873290Y-29450866D01*
X18841969Y-29467607D01*
X18807991Y-29477915D01*
X18766510Y-29482000D01*
X18165290Y-29482000D01*
X18123809Y-29477915D01*
X18089831Y-29467607D01*
X18058510Y-29450866D01*
X18031061Y-29428339D01*
X18008534Y-29400890D01*
X17991793Y-29369569D01*
X17981485Y-29335591D01*
X17977400Y-29294110D01*
X17977400Y-28617890D01*
X17981485Y-28576409D01*
X17991793Y-28542431D01*
X18008534Y-28511110D01*
X18031061Y-28483661D01*
X18058510Y-28461134D01*
X18089831Y-28444393D01*
X18123809Y-28434085D01*
X18165290Y-28430000D01*
X18766510Y-28430000D01*
X18807991Y-28434085D01*
G37*
G36*
X17232991Y-28434085D02*
G01*
X17266969Y-28444393D01*
X17298290Y-28461134D01*
X17325739Y-28483661D01*
X17348266Y-28511110D01*
X17365007Y-28542431D01*
X17375315Y-28576409D01*
X17379400Y-28617890D01*
X17379400Y-29294110D01*
X17375315Y-29335591D01*
X17365007Y-29369569D01*
X17348266Y-29400890D01*
X17325739Y-29428339D01*
X17298290Y-29450866D01*
X17266969Y-29467607D01*
X17232991Y-29477915D01*
X17191510Y-29482000D01*
X16590290Y-29482000D01*
X16548809Y-29477915D01*
X16514831Y-29467607D01*
X16483510Y-29450866D01*
X16456061Y-29428339D01*
X16433534Y-29400890D01*
X16416793Y-29369569D01*
X16406485Y-29335591D01*
X16402400Y-29294110D01*
X16402400Y-28617890D01*
X16406485Y-28576409D01*
X16416793Y-28542431D01*
X16433534Y-28511110D01*
X16456061Y-28483661D01*
X16483510Y-28461134D01*
X16514831Y-28444393D01*
X16548809Y-28434085D01*
X16590290Y-28430000D01*
X17191510Y-28430000D01*
X17232991Y-28434085D01*
G37*
G36*
X37730791Y-27062485D02*
G01*
X37764769Y-27072793D01*
X37796090Y-27089534D01*
X37823539Y-27112061D01*
X37846066Y-27139510D01*
X37862807Y-27170831D01*
X37873115Y-27204809D01*
X37877200Y-27246290D01*
X37877200Y-27922510D01*
X37873115Y-27963991D01*
X37862807Y-27997969D01*
X37846066Y-28029290D01*
X37823539Y-28056739D01*
X37796090Y-28079266D01*
X37764769Y-28096007D01*
X37730791Y-28106315D01*
X37689310Y-28110400D01*
X37088090Y-28110400D01*
X37046609Y-28106315D01*
X37012631Y-28096007D01*
X36981310Y-28079266D01*
X36953861Y-28056739D01*
X36931334Y-28029290D01*
X36914593Y-27997969D01*
X36904285Y-27963991D01*
X36900200Y-27922510D01*
X36900200Y-27246290D01*
X36904285Y-27204809D01*
X36914593Y-27170831D01*
X36931334Y-27139510D01*
X36953861Y-27112061D01*
X36981310Y-27089534D01*
X37012631Y-27072793D01*
X37046609Y-27062485D01*
X37088090Y-27058400D01*
X37689310Y-27058400D01*
X37730791Y-27062485D01*
G37*
G36*
X39305791Y-27062485D02*
G01*
X39339769Y-27072793D01*
X39371090Y-27089534D01*
X39398539Y-27112061D01*
X39421066Y-27139510D01*
X39437807Y-27170831D01*
X39448115Y-27204809D01*
X39452200Y-27246290D01*
X39452200Y-27922510D01*
X39448115Y-27963991D01*
X39437807Y-27997969D01*
X39421066Y-28029290D01*
X39398539Y-28056739D01*
X39371090Y-28079266D01*
X39339769Y-28096007D01*
X39305791Y-28106315D01*
X39264310Y-28110400D01*
X38663090Y-28110400D01*
X38621609Y-28106315D01*
X38587631Y-28096007D01*
X38556310Y-28079266D01*
X38528861Y-28056739D01*
X38506334Y-28029290D01*
X38489593Y-27997969D01*
X38479285Y-27963991D01*
X38475200Y-27922510D01*
X38475200Y-27246290D01*
X38479285Y-27204809D01*
X38489593Y-27170831D01*
X38506334Y-27139510D01*
X38528861Y-27112061D01*
X38556310Y-27089534D01*
X38587631Y-27072793D01*
X38621609Y-27062485D01*
X38663090Y-27058400D01*
X39264310Y-27058400D01*
X39305791Y-27062485D01*
G37*
G36*
X24915991Y-27074685D02*
G01*
X24949969Y-27084993D01*
X24981290Y-27101734D01*
X25008739Y-27124261D01*
X25031266Y-27151710D01*
X25048007Y-27183031D01*
X25058315Y-27217009D01*
X25062400Y-27258490D01*
X25062400Y-27859710D01*
X25058315Y-27901191D01*
X25048007Y-27935169D01*
X25031266Y-27966490D01*
X25008739Y-27993939D01*
X24981290Y-28016466D01*
X24949969Y-28033207D01*
X24915991Y-28043515D01*
X24874510Y-28047600D01*
X24198290Y-28047600D01*
X24156809Y-28043515D01*
X24122831Y-28033207D01*
X24091510Y-28016466D01*
X24064061Y-27993939D01*
X24041534Y-27966490D01*
X24024793Y-27935169D01*
X24014485Y-27901191D01*
X24010400Y-27859710D01*
X24010400Y-27258490D01*
X24014485Y-27217009D01*
X24024793Y-27183031D01*
X24041534Y-27151710D01*
X24064061Y-27124261D01*
X24091510Y-27101734D01*
X24122831Y-27084993D01*
X24156809Y-27074685D01*
X24198290Y-27070600D01*
X24874510Y-27070600D01*
X24915991Y-27074685D01*
G37*
G36*
X23264991Y-27074685D02*
G01*
X23298969Y-27084993D01*
X23330290Y-27101734D01*
X23357739Y-27124261D01*
X23380266Y-27151710D01*
X23397007Y-27183031D01*
X23407315Y-27217009D01*
X23411400Y-27258490D01*
X23411400Y-27859710D01*
X23407315Y-27901191D01*
X23397007Y-27935169D01*
X23380266Y-27966490D01*
X23357739Y-27993939D01*
X23330290Y-28016466D01*
X23298969Y-28033207D01*
X23264991Y-28043515D01*
X23223510Y-28047600D01*
X22547290Y-28047600D01*
X22505809Y-28043515D01*
X22471831Y-28033207D01*
X22440510Y-28016466D01*
X22413061Y-27993939D01*
X22390534Y-27966490D01*
X22373793Y-27935169D01*
X22363485Y-27901191D01*
X22359400Y-27859710D01*
X22359400Y-27258490D01*
X22363485Y-27217009D01*
X22373793Y-27183031D01*
X22390534Y-27151710D01*
X22413061Y-27124261D01*
X22440510Y-27101734D01*
X22471831Y-27084993D01*
X22505809Y-27074685D01*
X22547290Y-27070600D01*
X23223510Y-27070600D01*
X23264991Y-27074685D01*
G37*
G36*
X21613991Y-27074685D02*
G01*
X21647969Y-27084993D01*
X21679290Y-27101734D01*
X21706739Y-27124261D01*
X21729266Y-27151710D01*
X21746007Y-27183031D01*
X21756315Y-27217009D01*
X21760400Y-27258490D01*
X21760400Y-27859710D01*
X21756315Y-27901191D01*
X21746007Y-27935169D01*
X21729266Y-27966490D01*
X21706739Y-27993939D01*
X21679290Y-28016466D01*
X21647969Y-28033207D01*
X21613991Y-28043515D01*
X21572510Y-28047600D01*
X20896290Y-28047600D01*
X20854809Y-28043515D01*
X20820831Y-28033207D01*
X20789510Y-28016466D01*
X20762061Y-27993939D01*
X20739534Y-27966490D01*
X20722793Y-27935169D01*
X20712485Y-27901191D01*
X20708400Y-27859710D01*
X20708400Y-27258490D01*
X20712485Y-27217009D01*
X20722793Y-27183031D01*
X20739534Y-27151710D01*
X20762061Y-27124261D01*
X20789510Y-27101734D01*
X20820831Y-27084993D01*
X20854809Y-27074685D01*
X20896290Y-27070600D01*
X21572510Y-27070600D01*
X21613991Y-27074685D01*
G37*
G36*
X35187415Y-23974973D02*
G01*
X35291279Y-24006479D01*
X35293808Y-24007831D01*
X35387000Y-24057643D01*
X35470901Y-24126499D01*
X35539757Y-24210400D01*
X35558754Y-24245942D01*
X35590921Y-24306121D01*
X35622427Y-24409985D01*
X35630400Y-24490933D01*
X35630400Y-25645067D01*
X35622427Y-25726015D01*
X35590921Y-25829879D01*
X35539756Y-25925600D01*
X35470901Y-26009501D01*
X35402045Y-26066009D01*
X35386999Y-26078357D01*
X35335307Y-26105987D01*
X35291278Y-26129521D01*
X35187414Y-26161027D01*
X35079400Y-26171666D01*
X34971385Y-26161027D01*
X34867521Y-26129521D01*
X34823493Y-26105987D01*
X34771801Y-26078357D01*
X34759043Y-26067887D01*
X34687899Y-26009501D01*
X34619044Y-25925600D01*
X34595634Y-25881804D01*
X34582025Y-25861436D01*
X34564698Y-25844109D01*
X34544324Y-25830495D01*
X34521685Y-25821118D01*
X34497652Y-25816337D01*
X34473148Y-25816337D01*
X34449114Y-25821117D01*
X34426476Y-25830494D01*
X34406101Y-25844108D01*
X34388774Y-25861435D01*
X34375160Y-25881809D01*
X34365783Y-25904448D01*
X34361002Y-25928481D01*
X34360400Y-25940734D01*
X34360400Y-26759000D01*
X27158400Y-26759000D01*
X27158400Y-25940734D01*
X27155998Y-25916349D01*
X27148885Y-25892900D01*
X27137334Y-25871289D01*
X27121789Y-25852347D01*
X27102847Y-25836802D01*
X27081236Y-25825251D01*
X27057787Y-25818138D01*
X27033401Y-25815736D01*
X27009015Y-25818138D01*
X26985566Y-25825251D01*
X26963955Y-25836802D01*
X26945013Y-25852347D01*
X26929468Y-25871289D01*
X26923167Y-25881802D01*
X26917235Y-25892900D01*
X26899756Y-25925601D01*
X26868719Y-25963419D01*
X26830901Y-26009501D01*
X26762045Y-26066009D01*
X26746999Y-26078357D01*
X26695307Y-26105987D01*
X26651278Y-26129521D01*
X26547414Y-26161027D01*
X26439400Y-26171666D01*
X26331385Y-26161027D01*
X26227521Y-26129521D01*
X26183493Y-26105987D01*
X26131801Y-26078357D01*
X26119043Y-26067887D01*
X26047899Y-26009501D01*
X25979044Y-25925600D01*
X25927879Y-25829878D01*
X25896373Y-25726014D01*
X25888400Y-25645066D01*
X25888401Y-24490933D01*
X25896374Y-24409985D01*
X25927880Y-24306121D01*
X25960047Y-24245942D01*
X25979044Y-24210400D01*
X26047900Y-24126499D01*
X26131801Y-24057643D01*
X26224993Y-24007831D01*
X26227522Y-24006479D01*
X26331386Y-23974973D01*
X26439400Y-23964334D01*
X26547415Y-23974973D01*
X26651279Y-24006479D01*
X26653808Y-24007831D01*
X26747000Y-24057643D01*
X26830901Y-24126499D01*
X26899757Y-24210400D01*
X26918754Y-24245942D01*
X26950921Y-24306121D01*
X26982427Y-24409985D01*
X26990400Y-24490933D01*
X26990400Y-25082001D01*
X26992802Y-25106387D01*
X26999915Y-25129836D01*
X27011466Y-25151447D01*
X27027011Y-25170389D01*
X27045953Y-25185934D01*
X27067564Y-25197485D01*
X27091013Y-25204598D01*
X27115399Y-25207000D01*
X34403401Y-25207000D01*
X34427787Y-25204598D01*
X34451236Y-25197485D01*
X34472847Y-25185934D01*
X34491789Y-25170389D01*
X34507334Y-25151447D01*
X34518885Y-25129836D01*
X34525998Y-25106387D01*
X34528400Y-25082001D01*
X34528401Y-24490939D01*
X34528401Y-24490933D01*
X34536374Y-24409985D01*
X34567880Y-24306121D01*
X34600047Y-24245942D01*
X34619044Y-24210400D01*
X34687900Y-24126499D01*
X34771801Y-24057643D01*
X34864993Y-24007831D01*
X34867522Y-24006479D01*
X34971386Y-23974973D01*
X35079400Y-23964334D01*
X35187415Y-23974973D01*
G37*
G36*
X23264991Y-25499685D02*
G01*
X23298969Y-25509993D01*
X23330290Y-25526734D01*
X23357739Y-25549261D01*
X23380266Y-25576710D01*
X23397007Y-25608031D01*
X23407315Y-25642009D01*
X23411400Y-25683490D01*
X23411400Y-26284710D01*
X23407315Y-26326191D01*
X23397007Y-26360169D01*
X23380266Y-26391490D01*
X23357739Y-26418939D01*
X23330290Y-26441466D01*
X23298969Y-26458207D01*
X23264991Y-26468515D01*
X23223510Y-26472600D01*
X22547290Y-26472600D01*
X22505809Y-26468515D01*
X22471831Y-26458207D01*
X22440510Y-26441466D01*
X22413061Y-26418939D01*
X22390534Y-26391490D01*
X22373793Y-26360169D01*
X22363485Y-26326191D01*
X22359400Y-26284710D01*
X22359400Y-25683490D01*
X22363485Y-25642009D01*
X22373793Y-25608031D01*
X22390534Y-25576710D01*
X22413061Y-25549261D01*
X22440510Y-25526734D01*
X22471831Y-25509993D01*
X22505809Y-25499685D01*
X22547290Y-25495600D01*
X23223510Y-25495600D01*
X23264991Y-25499685D01*
G37*
G36*
X21613991Y-25499685D02*
G01*
X21647969Y-25509993D01*
X21679290Y-25526734D01*
X21706739Y-25549261D01*
X21729266Y-25576710D01*
X21746007Y-25608031D01*
X21756315Y-25642009D01*
X21760400Y-25683490D01*
X21760400Y-26284710D01*
X21756315Y-26326191D01*
X21746007Y-26360169D01*
X21729266Y-26391490D01*
X21706739Y-26418939D01*
X21679290Y-26441466D01*
X21647969Y-26458207D01*
X21613991Y-26468515D01*
X21572510Y-26472600D01*
X20896290Y-26472600D01*
X20854809Y-26468515D01*
X20820831Y-26458207D01*
X20789510Y-26441466D01*
X20762061Y-26418939D01*
X20739534Y-26391490D01*
X20722793Y-26360169D01*
X20712485Y-26326191D01*
X20708400Y-26284710D01*
X20708400Y-25683490D01*
X20712485Y-25642009D01*
X20722793Y-25608031D01*
X20739534Y-25576710D01*
X20762061Y-25549261D01*
X20789510Y-25526734D01*
X20820831Y-25509993D01*
X20854809Y-25499685D01*
X20896290Y-25495600D01*
X21572510Y-25495600D01*
X21613991Y-25499685D01*
G37*
G36*
X24915991Y-25499685D02*
G01*
X24949969Y-25509993D01*
X24981290Y-25526734D01*
X25008739Y-25549261D01*
X25031266Y-25576710D01*
X25048007Y-25608031D01*
X25058315Y-25642009D01*
X25062400Y-25683490D01*
X25062400Y-26284710D01*
X25058315Y-26326191D01*
X25048007Y-26360169D01*
X25031266Y-26391490D01*
X25008739Y-26418939D01*
X24981290Y-26441466D01*
X24949969Y-26458207D01*
X24915991Y-26468515D01*
X24874510Y-26472600D01*
X24198290Y-26472600D01*
X24156809Y-26468515D01*
X24122831Y-26458207D01*
X24091510Y-26441466D01*
X24064061Y-26418939D01*
X24041534Y-26391490D01*
X24024793Y-26360169D01*
X24014485Y-26326191D01*
X24010400Y-26284710D01*
X24010400Y-25683490D01*
X24014485Y-25642009D01*
X24024793Y-25608031D01*
X24041534Y-25576710D01*
X24064061Y-25549261D01*
X24091510Y-25526734D01*
X24122831Y-25509993D01*
X24156809Y-25499685D01*
X24198290Y-25495600D01*
X24874510Y-25495600D01*
X24915991Y-25499685D01*
G37*
G36*
X37577891Y-25474485D02*
G01*
X37611869Y-25484793D01*
X37643190Y-25501534D01*
X37670639Y-25524061D01*
X37693166Y-25551510D01*
X37709907Y-25582831D01*
X37720215Y-25616809D01*
X37724300Y-25658290D01*
X37724300Y-26259510D01*
X37720215Y-26300991D01*
X37709907Y-26334969D01*
X37693166Y-26366290D01*
X37670639Y-26393739D01*
X37643190Y-26416266D01*
X37611869Y-26433007D01*
X37577891Y-26443315D01*
X37536410Y-26447400D01*
X36860190Y-26447400D01*
X36818709Y-26443315D01*
X36784731Y-26433007D01*
X36753410Y-26416266D01*
X36725961Y-26393739D01*
X36703434Y-26366290D01*
X36686693Y-26334969D01*
X36676385Y-26300991D01*
X36672300Y-26259510D01*
X36672300Y-25658290D01*
X36676385Y-25616809D01*
X36686693Y-25582831D01*
X36703434Y-25551510D01*
X36725961Y-25524061D01*
X36753410Y-25501534D01*
X36784731Y-25484793D01*
X36818709Y-25474485D01*
X36860190Y-25470400D01*
X37536410Y-25470400D01*
X37577891Y-25474485D01*
G37*
G36*
X39482891Y-25474485D02*
G01*
X39516869Y-25484793D01*
X39548190Y-25501534D01*
X39575639Y-25524061D01*
X39598166Y-25551510D01*
X39614907Y-25582831D01*
X39625215Y-25616809D01*
X39629300Y-25658290D01*
X39629300Y-26259510D01*
X39625215Y-26300991D01*
X39614907Y-26334969D01*
X39598166Y-26366290D01*
X39575639Y-26393739D01*
X39548190Y-26416266D01*
X39516869Y-26433007D01*
X39482891Y-26443315D01*
X39441410Y-26447400D01*
X38765190Y-26447400D01*
X38723709Y-26443315D01*
X38689731Y-26433007D01*
X38658410Y-26416266D01*
X38630961Y-26393739D01*
X38608434Y-26366290D01*
X38591693Y-26334969D01*
X38581385Y-26300991D01*
X38577300Y-26259510D01*
X38577300Y-25658290D01*
X38581385Y-25616809D01*
X38591693Y-25582831D01*
X38608434Y-25551510D01*
X38630961Y-25524061D01*
X38658410Y-25501534D01*
X38689731Y-25484793D01*
X38723709Y-25474485D01*
X38765190Y-25470400D01*
X39441410Y-25470400D01*
X39482891Y-25474485D01*
G37*
G36*
X27979072Y-24176449D02*
G01*
X27979074Y-24176450D01*
X27979075Y-24176450D01*
X28047503Y-24204793D01*
X28109086Y-24245942D01*
X28161458Y-24298314D01*
X28202607Y-24359897D01*
X28230950Y-24428325D01*
X28245400Y-24500967D01*
X28245400Y-24575033D01*
X28230950Y-24647675D01*
X28202607Y-24716103D01*
X28161458Y-24777686D01*
X28109086Y-24830058D01*
X28047503Y-24871207D01*
X27979075Y-24899550D01*
X27979074Y-24899550D01*
X27979072Y-24899551D01*
X27906434Y-24914000D01*
X27832366Y-24914000D01*
X27759728Y-24899551D01*
X27759726Y-24899550D01*
X27759725Y-24899550D01*
X27691297Y-24871207D01*
X27629714Y-24830058D01*
X27577342Y-24777686D01*
X27536193Y-24716103D01*
X27507850Y-24647675D01*
X27493400Y-24575033D01*
X27493400Y-24500967D01*
X27507850Y-24428325D01*
X27536193Y-24359897D01*
X27577342Y-24298314D01*
X27629714Y-24245942D01*
X27691297Y-24204793D01*
X27759725Y-24176450D01*
X27759726Y-24176450D01*
X27759728Y-24176449D01*
X27832366Y-24162000D01*
X27906434Y-24162000D01*
X27979072Y-24176449D01*
G37*
G36*
X33759072Y-24176449D02*
G01*
X33759074Y-24176450D01*
X33759075Y-24176450D01*
X33827503Y-24204793D01*
X33889086Y-24245942D01*
X33941458Y-24298314D01*
X33982607Y-24359897D01*
X34010950Y-24428325D01*
X34025400Y-24500967D01*
X34025400Y-24575033D01*
X34010950Y-24647675D01*
X33982607Y-24716103D01*
X33941458Y-24777686D01*
X33889086Y-24830058D01*
X33827503Y-24871207D01*
X33759075Y-24899550D01*
X33759074Y-24899550D01*
X33759072Y-24899551D01*
X33686434Y-24914000D01*
X33612366Y-24914000D01*
X33539728Y-24899551D01*
X33539726Y-24899550D01*
X33539725Y-24899550D01*
X33471297Y-24871207D01*
X33409714Y-24830058D01*
X33357342Y-24777686D01*
X33316193Y-24716103D01*
X33287850Y-24647675D01*
X33273400Y-24575033D01*
X33273400Y-24500967D01*
X33287850Y-24428325D01*
X33316193Y-24359897D01*
X33357342Y-24298314D01*
X33409714Y-24245942D01*
X33471297Y-24204793D01*
X33539725Y-24176450D01*
X33539726Y-24176450D01*
X33539728Y-24176449D01*
X33612366Y-24162000D01*
X33686434Y-24162000D01*
X33759072Y-24176449D01*
G37*
G36*
X39482891Y-23899485D02*
G01*
X39516869Y-23909793D01*
X39548190Y-23926534D01*
X39575639Y-23949061D01*
X39598166Y-23976510D01*
X39614907Y-24007831D01*
X39625215Y-24041809D01*
X39629300Y-24083290D01*
X39629300Y-24684510D01*
X39625215Y-24725991D01*
X39614907Y-24759969D01*
X39598166Y-24791290D01*
X39575639Y-24818739D01*
X39548190Y-24841266D01*
X39516869Y-24858007D01*
X39482891Y-24868315D01*
X39441410Y-24872400D01*
X38765190Y-24872400D01*
X38723709Y-24868315D01*
X38689731Y-24858007D01*
X38658410Y-24841266D01*
X38630961Y-24818739D01*
X38608434Y-24791290D01*
X38591693Y-24759969D01*
X38581385Y-24725991D01*
X38577300Y-24684510D01*
X38577300Y-24083290D01*
X38581385Y-24041809D01*
X38591693Y-24007831D01*
X38608434Y-23976510D01*
X38630961Y-23949061D01*
X38658410Y-23926534D01*
X38689731Y-23909793D01*
X38723709Y-23899485D01*
X38765190Y-23895400D01*
X39441410Y-23895400D01*
X39482891Y-23899485D01*
G37*
G36*
X37577891Y-23899485D02*
G01*
X37611869Y-23909793D01*
X37643190Y-23926534D01*
X37670639Y-23949061D01*
X37693166Y-23976510D01*
X37709907Y-24007831D01*
X37720215Y-24041809D01*
X37724300Y-24083290D01*
X37724300Y-24684510D01*
X37720215Y-24725991D01*
X37709907Y-24759969D01*
X37693166Y-24791290D01*
X37670639Y-24818739D01*
X37643190Y-24841266D01*
X37611869Y-24858007D01*
X37577891Y-24868315D01*
X37536410Y-24872400D01*
X36860190Y-24872400D01*
X36818709Y-24868315D01*
X36784731Y-24858007D01*
X36753410Y-24841266D01*
X36725961Y-24818739D01*
X36703434Y-24791290D01*
X36686693Y-24759969D01*
X36676385Y-24725991D01*
X36672300Y-24684510D01*
X36672300Y-24083290D01*
X36676385Y-24041809D01*
X36686693Y-24007831D01*
X36703434Y-23976510D01*
X36725961Y-23949061D01*
X36753410Y-23926534D01*
X36784731Y-23909793D01*
X36818709Y-23899485D01*
X36860190Y-23895400D01*
X37536410Y-23895400D01*
X37577891Y-23899485D01*
G37*
G36*
X43227812Y-19933135D02*
G01*
X43459746Y-19979269D01*
X43768720Y-20107251D01*
X43817954Y-20127644D01*
X43896700Y-20160262D01*
X44289948Y-20423022D01*
X44624378Y-20757452D01*
X44887138Y-21150700D01*
X45068131Y-21587654D01*
X45090382Y-21699519D01*
X45156551Y-22032169D01*
X45160400Y-22051522D01*
X45160400Y-22524478D01*
X45068131Y-22988346D01*
X44887138Y-23425300D01*
X44624378Y-23818548D01*
X44289948Y-24152978D01*
X43896700Y-24415738D01*
X43896699Y-24415739D01*
X43896698Y-24415739D01*
X43866305Y-24428328D01*
X43459746Y-24596731D01*
X43301792Y-24628150D01*
X42995879Y-24689000D01*
X42522921Y-24689000D01*
X42217008Y-24628150D01*
X42059054Y-24596731D01*
X41652495Y-24428328D01*
X41622102Y-24415739D01*
X41622101Y-24415739D01*
X41622100Y-24415738D01*
X41228852Y-24152978D01*
X40894422Y-23818548D01*
X40631662Y-23425300D01*
X40450669Y-22988346D01*
X40358400Y-22524478D01*
X40358400Y-22051522D01*
X40362250Y-22032169D01*
X40428418Y-21699519D01*
X40450669Y-21587654D01*
X40631662Y-21150700D01*
X40894422Y-20757452D01*
X41228852Y-20423022D01*
X41622100Y-20160262D01*
X41700847Y-20127644D01*
X41750080Y-20107251D01*
X42059054Y-19979269D01*
X42290988Y-19933135D01*
X42522921Y-19887000D01*
X42995879Y-19887000D01*
X43227812Y-19933135D01*
G37*
G36*
X19227812Y-19933135D02*
G01*
X19459746Y-19979269D01*
X19768720Y-20107251D01*
X19817954Y-20127644D01*
X19896700Y-20160262D01*
X20289948Y-20423022D01*
X20624378Y-20757452D01*
X20887138Y-21150700D01*
X21068131Y-21587654D01*
X21090382Y-21699519D01*
X21156551Y-22032169D01*
X21160400Y-22051522D01*
X21160400Y-22524478D01*
X21068131Y-22988346D01*
X20887138Y-23425300D01*
X20624378Y-23818548D01*
X20289948Y-24152978D01*
X19896700Y-24415738D01*
X19896699Y-24415739D01*
X19896698Y-24415739D01*
X19866305Y-24428328D01*
X19459746Y-24596731D01*
X19301792Y-24628150D01*
X18995879Y-24689000D01*
X18522921Y-24689000D01*
X18217008Y-24628150D01*
X18059054Y-24596731D01*
X17652495Y-24428328D01*
X17622102Y-24415739D01*
X17622101Y-24415739D01*
X17622100Y-24415738D01*
X17228852Y-24152978D01*
X16894422Y-23818548D01*
X16631662Y-23425300D01*
X16450669Y-22988346D01*
X16358400Y-22524478D01*
X16358400Y-22051522D01*
X16362250Y-22032169D01*
X16428418Y-21699519D01*
X16450669Y-21587654D01*
X16631662Y-21150700D01*
X16894422Y-20757452D01*
X17228852Y-20423022D01*
X17622100Y-20160262D01*
X17700847Y-20127644D01*
X17750080Y-20107251D01*
X18059054Y-19979269D01*
X18290988Y-19933135D01*
X18522921Y-19887000D01*
X18995879Y-19887000D01*
X19227812Y-19933135D01*
G37*
G36*
X37532918Y-21844565D02*
G01*
X37565733Y-21854519D01*
X37595965Y-21870679D01*
X37622470Y-21892430D01*
X37644221Y-21918935D01*
X37660381Y-21949167D01*
X37670335Y-21981982D01*
X37674300Y-22022240D01*
X37674300Y-22985960D01*
X37670335Y-23026218D01*
X37660381Y-23059033D01*
X37644221Y-23089265D01*
X37622470Y-23115770D01*
X37595965Y-23137521D01*
X37565733Y-23153681D01*
X37532918Y-23163635D01*
X37492660Y-23167600D01*
X36903940Y-23167600D01*
X36863682Y-23163635D01*
X36830867Y-23153681D01*
X36800635Y-23137521D01*
X36774130Y-23115770D01*
X36752379Y-23089265D01*
X36736219Y-23059033D01*
X36726265Y-23026218D01*
X36722300Y-22985960D01*
X36722300Y-22022240D01*
X36726265Y-21981982D01*
X36736219Y-21949167D01*
X36752379Y-21918935D01*
X36774130Y-21892430D01*
X36800635Y-21870679D01*
X36830867Y-21854519D01*
X36863682Y-21844565D01*
X36903940Y-21840600D01*
X37492660Y-21840600D01*
X37532918Y-21844565D01*
G37*
G36*
X39437918Y-21844565D02*
G01*
X39470733Y-21854519D01*
X39500965Y-21870679D01*
X39527470Y-21892430D01*
X39549221Y-21918935D01*
X39565381Y-21949167D01*
X39575335Y-21981982D01*
X39579300Y-22022240D01*
X39579300Y-22985960D01*
X39575335Y-23026218D01*
X39565381Y-23059033D01*
X39549221Y-23089265D01*
X39527470Y-23115770D01*
X39500965Y-23137521D01*
X39470733Y-23153681D01*
X39437918Y-23163635D01*
X39397660Y-23167600D01*
X38808940Y-23167600D01*
X38768682Y-23163635D01*
X38735867Y-23153681D01*
X38705635Y-23137521D01*
X38679130Y-23115770D01*
X38657379Y-23089265D01*
X38641219Y-23059033D01*
X38631265Y-23026218D01*
X38627300Y-22985960D01*
X38627300Y-22022240D01*
X38631265Y-21981982D01*
X38641219Y-21949167D01*
X38657379Y-21918935D01*
X38679130Y-21892430D01*
X38705635Y-21870679D01*
X38735867Y-21854519D01*
X38768682Y-21844565D01*
X38808940Y-21840600D01*
X39397660Y-21840600D01*
X39437918Y-21844565D01*
G37*
G36*
X26547415Y-20044973D02*
G01*
X26651279Y-20076479D01*
X26678455Y-20091005D01*
X26747000Y-20127643D01*
X26830901Y-20196499D01*
X26899757Y-20280400D01*
X26936395Y-20348945D01*
X26950921Y-20376121D01*
X26982427Y-20479985D01*
X26990400Y-20560933D01*
X26990400Y-21215067D01*
X26982427Y-21296015D01*
X26950921Y-21399879D01*
X26950919Y-21399882D01*
X26911895Y-21472891D01*
X26899756Y-21495600D01*
X26830901Y-21579501D01*
X26762045Y-21636009D01*
X26746999Y-21648357D01*
X26695307Y-21675987D01*
X26651278Y-21699521D01*
X26547414Y-21731027D01*
X26439400Y-21741666D01*
X26331385Y-21731027D01*
X26227521Y-21699521D01*
X26183493Y-21675987D01*
X26131801Y-21648357D01*
X26119043Y-21637887D01*
X26047899Y-21579501D01*
X25979044Y-21495600D01*
X25966906Y-21472891D01*
X25947628Y-21436826D01*
X25927879Y-21399878D01*
X25896373Y-21296014D01*
X25888400Y-21215066D01*
X25888400Y-20560933D01*
X25896373Y-20479985D01*
X25927880Y-20376121D01*
X25927882Y-20376118D01*
X25979045Y-20280399D01*
X26047900Y-20196499D01*
X26131801Y-20127643D01*
X26200346Y-20091005D01*
X26227522Y-20076479D01*
X26331386Y-20044973D01*
X26439400Y-20034334D01*
X26547415Y-20044973D01*
G37*
G36*
X35187415Y-20044973D02*
G01*
X35291279Y-20076479D01*
X35318455Y-20091005D01*
X35387000Y-20127643D01*
X35470901Y-20196499D01*
X35539757Y-20280400D01*
X35576395Y-20348945D01*
X35590921Y-20376121D01*
X35622427Y-20479985D01*
X35630400Y-20560933D01*
X35630400Y-21215067D01*
X35622427Y-21296015D01*
X35590921Y-21399879D01*
X35590919Y-21399882D01*
X35551895Y-21472891D01*
X35539756Y-21495600D01*
X35470901Y-21579501D01*
X35402045Y-21636009D01*
X35386999Y-21648357D01*
X35335307Y-21675987D01*
X35291278Y-21699521D01*
X35187414Y-21731027D01*
X35079400Y-21741666D01*
X34971385Y-21731027D01*
X34867521Y-21699521D01*
X34823493Y-21675987D01*
X34771801Y-21648357D01*
X34759043Y-21637887D01*
X34687899Y-21579501D01*
X34619044Y-21495600D01*
X34606906Y-21472891D01*
X34587628Y-21436826D01*
X34567879Y-21399878D01*
X34536373Y-21296014D01*
X34528400Y-21215066D01*
X34528400Y-20560933D01*
X34536373Y-20479985D01*
X34567880Y-20376121D01*
X34567882Y-20376118D01*
X34619045Y-20280399D01*
X34687900Y-20196499D01*
X34771801Y-20127643D01*
X34840346Y-20091005D01*
X34867522Y-20076479D01*
X34971386Y-20044973D01*
X35079400Y-20034334D01*
X35187415Y-20044973D01*
G37*
G36*
X37532918Y-20219565D02*
G01*
X37565733Y-20229519D01*
X37595965Y-20245679D01*
X37622470Y-20267430D01*
X37644221Y-20293935D01*
X37660381Y-20324167D01*
X37670335Y-20356982D01*
X37674300Y-20397240D01*
X37674300Y-21360960D01*
X37670335Y-21401218D01*
X37660381Y-21434033D01*
X37644221Y-21464265D01*
X37622470Y-21490770D01*
X37595965Y-21512521D01*
X37565733Y-21528681D01*
X37532918Y-21538635D01*
X37492660Y-21542600D01*
X36903940Y-21542600D01*
X36863682Y-21538635D01*
X36830867Y-21528681D01*
X36800635Y-21512521D01*
X36774130Y-21490770D01*
X36752379Y-21464265D01*
X36736219Y-21434033D01*
X36726265Y-21401218D01*
X36722300Y-21360960D01*
X36722300Y-20397240D01*
X36726265Y-20356982D01*
X36736219Y-20324167D01*
X36752379Y-20293935D01*
X36774130Y-20267430D01*
X36800635Y-20245679D01*
X36830867Y-20229519D01*
X36863682Y-20219565D01*
X36903940Y-20215600D01*
X37492660Y-20215600D01*
X37532918Y-20219565D01*
G37*
G36*
X39437918Y-20219565D02*
G01*
X39470733Y-20229519D01*
X39500965Y-20245679D01*
X39527470Y-20267430D01*
X39549221Y-20293935D01*
X39565381Y-20324167D01*
X39575335Y-20356982D01*
X39579300Y-20397240D01*
X39579300Y-21360960D01*
X39575335Y-21401218D01*
X39565381Y-21434033D01*
X39549221Y-21464265D01*
X39527470Y-21490770D01*
X39500965Y-21512521D01*
X39470733Y-21528681D01*
X39437918Y-21538635D01*
X39397660Y-21542600D01*
X38808940Y-21542600D01*
X38768682Y-21538635D01*
X38735867Y-21528681D01*
X38705635Y-21512521D01*
X38679130Y-21490770D01*
X38657379Y-21464265D01*
X38641219Y-21434033D01*
X38631265Y-21401218D01*
X38627300Y-21360960D01*
X38627300Y-20397240D01*
X38631265Y-20356982D01*
X38641219Y-20324167D01*
X38657379Y-20293935D01*
X38679130Y-20267430D01*
X38705635Y-20245679D01*
X38735867Y-20229519D01*
X38768682Y-20219565D01*
X38808940Y-20215600D01*
X39397660Y-20215600D01*
X39437918Y-20219565D01*
G37*
M02*
