M48
; DRILL file {KiCad (5.1.5)-3} date 27.04.2020 23:24:59
; FORMAT={3:3/ absolute / metric / suppress leading zeros}
; #@! TF.CreationDate,2020-04-27T23:24:59+02:00
; #@! TF.GenerationSoftware,Kicad,Pcbnew,(5.1.5)-3
FMAT,2
METRIC,TZ
T1C0.400
T2C0.600
T3C2.700
T4C0.650
%
G90
G05
T1
X17043Y-39497
X17043Y-44323
X17932Y-33020
X17932Y-34290
X18885Y-27813
X18948Y-33020
X18948Y-34290
X19583Y-37846
X19964Y-33020
X19964Y-34290
X21234Y-42291
X21488Y-33274
X21615Y-38608
X22123Y-35941
X22504Y-24955
X23584Y-23876
X24663Y-45847
X26314Y-40513
X26314Y-43307
X27319Y-27559
X27330Y-28702
X27838Y-33782
X28309Y-27588
X29108Y-40513
X29108Y-43307
X29489Y-33909
X29997Y-23241
X30258Y-32766
X30258Y-45466
X30696Y-52197
X31261Y-32766
X31261Y-45466
X31902Y-33909
X32156Y-40513
X32156Y-43307
X32791Y-50038
X33209Y-27588
X33934Y-35433
X34188Y-47498
X34199Y-27548
X35077Y-27559
X36195Y-27559
X37363Y-28829
X37363Y-39243
X37871Y-33528
X38633Y-28829
X41554Y-40513
X42443Y-38862
X44221Y-38989
X44221Y-44450
T3
X42759Y-22288
X18759Y-22288
X18759Y-50288
X42759Y-50288
T4
X27869Y-24538
X33649Y-24538
T2
G00X26439Y-21188
M15
G01X26439Y-20588
M16
G05
G00X26439Y-25618
M15
G01X26439Y-24518
M16
G05
G00X35079Y-21188
M15
G01X35079Y-20588
M16
G05
G00X35079Y-25618
M15
G01X35079Y-24518
M16
G05
T0
M30
