G04 #@! TF.GenerationSoftware,KiCad,Pcbnew,(5.1.5)-3*
G04 #@! TF.CreationDate,2020-04-27T23:25:01+02:00*
G04 #@! TF.ProjectId,unified-usb-pcb_batt,756e6966-6965-4642-9d75-73622d706362,rev?*
G04 #@! TF.SameCoordinates,Original*
G04 #@! TF.FileFunction,Legend,Top*
G04 #@! TF.FilePolarity,Positive*
%FSLAX46Y46*%
G04 Gerber Fmt 4.6, Leading zero omitted, Abs format (unit mm)*
G04 Created by KiCad (PCBNEW (5.1.5)-3) date 2020-04-27 23:25:01*
%MOMM*%
%LPD*%
G04 APERTURE LIST*
%ADD10C,0.150000*%
%ADD11C,0.120000*%
G04 APERTURE END LIST*
D10*
X23528495Y-51903380D02*
X23528495Y-52712904D01*
X23576114Y-52808142D01*
X23623733Y-52855761D01*
X23718971Y-52903380D01*
X23909447Y-52903380D01*
X24004685Y-52855761D01*
X24052304Y-52808142D01*
X24099923Y-52712904D01*
X24099923Y-51903380D01*
X24528495Y-52855761D02*
X24671352Y-52903380D01*
X24909447Y-52903380D01*
X25004685Y-52855761D01*
X25052304Y-52808142D01*
X25099923Y-52712904D01*
X25099923Y-52617666D01*
X25052304Y-52522428D01*
X25004685Y-52474809D01*
X24909447Y-52427190D01*
X24718971Y-52379571D01*
X24623733Y-52331952D01*
X24576114Y-52284333D01*
X24528495Y-52189095D01*
X24528495Y-52093857D01*
X24576114Y-51998619D01*
X24623733Y-51951000D01*
X24718971Y-51903380D01*
X24957066Y-51903380D01*
X25099923Y-51951000D01*
X25861828Y-52379571D02*
X26004685Y-52427190D01*
X26052304Y-52474809D01*
X26099923Y-52570047D01*
X26099923Y-52712904D01*
X26052304Y-52808142D01*
X26004685Y-52855761D01*
X25909447Y-52903380D01*
X25528495Y-52903380D01*
X25528495Y-51903380D01*
X25861828Y-51903380D01*
X25957066Y-51951000D01*
X26004685Y-51998619D01*
X26052304Y-52093857D01*
X26052304Y-52189095D01*
X26004685Y-52284333D01*
X25957066Y-52331952D01*
X25861828Y-52379571D01*
X25528495Y-52379571D01*
X38951019Y-47299571D02*
X39093876Y-47347190D01*
X39141495Y-47394809D01*
X39189114Y-47490047D01*
X39189114Y-47632904D01*
X39141495Y-47728142D01*
X39093876Y-47775761D01*
X38998638Y-47823380D01*
X38617685Y-47823380D01*
X38617685Y-46823380D01*
X38951019Y-46823380D01*
X39046257Y-46871000D01*
X39093876Y-46918619D01*
X39141495Y-47013857D01*
X39141495Y-47109095D01*
X39093876Y-47204333D01*
X39046257Y-47251952D01*
X38951019Y-47299571D01*
X38617685Y-47299571D01*
X40046257Y-47823380D02*
X40046257Y-47299571D01*
X39998638Y-47204333D01*
X39903400Y-47156714D01*
X39712923Y-47156714D01*
X39617685Y-47204333D01*
X40046257Y-47775761D02*
X39951019Y-47823380D01*
X39712923Y-47823380D01*
X39617685Y-47775761D01*
X39570066Y-47680523D01*
X39570066Y-47585285D01*
X39617685Y-47490047D01*
X39712923Y-47442428D01*
X39951019Y-47442428D01*
X40046257Y-47394809D01*
X40379590Y-47156714D02*
X40760542Y-47156714D01*
X40522447Y-46823380D02*
X40522447Y-47680523D01*
X40570066Y-47775761D01*
X40665304Y-47823380D01*
X40760542Y-47823380D01*
X40951019Y-47156714D02*
X41331971Y-47156714D01*
X41093876Y-46823380D02*
X41093876Y-47680523D01*
X41141495Y-47775761D01*
X41236733Y-47823380D01*
X41331971Y-47823380D01*
X38911304Y-40981380D02*
X39482733Y-40981380D01*
X39197019Y-41981380D02*
X39197019Y-40981380D01*
X39816066Y-41981380D02*
X39816066Y-40981380D01*
X40244638Y-41981380D02*
X40244638Y-41457571D01*
X40197019Y-41362333D01*
X40101780Y-41314714D01*
X39958923Y-41314714D01*
X39863685Y-41362333D01*
X39816066Y-41409952D01*
X16805257Y-41695619D02*
X16710019Y-41648000D01*
X16614780Y-41552761D01*
X16471923Y-41409904D01*
X16376685Y-41362285D01*
X16281447Y-41362285D01*
X16329066Y-41600380D02*
X16233828Y-41552761D01*
X16138590Y-41457523D01*
X16090971Y-41267047D01*
X16090971Y-40933714D01*
X16138590Y-40743238D01*
X16233828Y-40648000D01*
X16329066Y-40600380D01*
X16519542Y-40600380D01*
X16614780Y-40648000D01*
X16710019Y-40743238D01*
X16757638Y-40933714D01*
X16757638Y-41267047D01*
X16710019Y-41457523D01*
X16614780Y-41552761D01*
X16519542Y-41600380D01*
X16329066Y-41600380D01*
X17186209Y-41600380D02*
X17186209Y-40600380D01*
X29322876Y-20900380D02*
X29322876Y-19900380D01*
X29322876Y-20376571D02*
X29894304Y-20376571D01*
X29894304Y-20900380D02*
X29894304Y-19900380D01*
X30941923Y-20900380D02*
X30608590Y-20424190D01*
X30370495Y-20900380D02*
X30370495Y-19900380D01*
X30751447Y-19900380D01*
X30846685Y-19948000D01*
X30894304Y-19995619D01*
X30941923Y-20090857D01*
X30941923Y-20233714D01*
X30894304Y-20328952D01*
X30846685Y-20376571D01*
X30751447Y-20424190D01*
X30370495Y-20424190D01*
X31560971Y-19900380D02*
X31751447Y-19900380D01*
X31846685Y-19948000D01*
X31941923Y-20043238D01*
X31989542Y-20233714D01*
X31989542Y-20567047D01*
X31941923Y-20757523D01*
X31846685Y-20852761D01*
X31751447Y-20900380D01*
X31560971Y-20900380D01*
X31465733Y-20852761D01*
X31370495Y-20757523D01*
X31322876Y-20567047D01*
X31322876Y-20233714D01*
X31370495Y-20043238D01*
X31465733Y-19948000D01*
X31560971Y-19900380D01*
X29370495Y-22455142D02*
X29322876Y-22502761D01*
X29180019Y-22550380D01*
X29084780Y-22550380D01*
X28941923Y-22502761D01*
X28846685Y-22407523D01*
X28799066Y-22312285D01*
X28751447Y-22121809D01*
X28751447Y-21978952D01*
X28799066Y-21788476D01*
X28846685Y-21693238D01*
X28941923Y-21598000D01*
X29084780Y-21550380D01*
X29180019Y-21550380D01*
X29322876Y-21598000D01*
X29370495Y-21645619D01*
X29799066Y-22169428D02*
X30560971Y-22169428D01*
X30941923Y-21550380D02*
X31560971Y-21550380D01*
X31227638Y-21931333D01*
X31370495Y-21931333D01*
X31465733Y-21978952D01*
X31513352Y-22026571D01*
X31560971Y-22121809D01*
X31560971Y-22359904D01*
X31513352Y-22455142D01*
X31465733Y-22502761D01*
X31370495Y-22550380D01*
X31084780Y-22550380D01*
X30989542Y-22502761D01*
X30941923Y-22455142D01*
X32513352Y-22550380D02*
X31941923Y-22550380D01*
X32227638Y-22550380D02*
X32227638Y-21550380D01*
X32132400Y-21693238D01*
X32037161Y-21788476D01*
X31941923Y-21836095D01*
X28727638Y-24200380D02*
X28727638Y-23200380D01*
X29060971Y-23914666D01*
X29394304Y-23200380D01*
X29394304Y-24200380D01*
X29870495Y-23819428D02*
X30632400Y-23819428D01*
X31632400Y-24200380D02*
X31060971Y-24200380D01*
X31346685Y-24200380D02*
X31346685Y-23200380D01*
X31251447Y-23343238D01*
X31156209Y-23438476D01*
X31060971Y-23486095D01*
X32013352Y-23295619D02*
X32060971Y-23248000D01*
X32156209Y-23200380D01*
X32394304Y-23200380D01*
X32489542Y-23248000D01*
X32537161Y-23295619D01*
X32584780Y-23390857D01*
X32584780Y-23486095D01*
X32537161Y-23628952D01*
X31965733Y-24200380D01*
X32584780Y-24200380D01*
D11*
X41557400Y-35544000D02*
X38757400Y-35544000D01*
X38757400Y-35544000D02*
X38757400Y-33544000D01*
X38757400Y-33544000D02*
X41557400Y-33544000D01*
X41557400Y-33544000D02*
X41557400Y-35544000D01*
X30629400Y-37481000D02*
X33429400Y-37481000D01*
X33429400Y-37481000D02*
X33429400Y-39481000D01*
X33429400Y-39481000D02*
X30629400Y-39481000D01*
X30629400Y-39481000D02*
X30629400Y-37481000D01*
X17515621Y-29466000D02*
X17841179Y-29466000D01*
X17515621Y-28446000D02*
X17841179Y-28446000D01*
X21508400Y-33655000D02*
X21508400Y-30205000D01*
X21508400Y-33655000D02*
X21508400Y-35605000D01*
X16388400Y-33655000D02*
X16388400Y-31705000D01*
X16388400Y-33655000D02*
X16388400Y-35605000D01*
X23204900Y-32039779D02*
X23204900Y-31714221D01*
X22184900Y-32039779D02*
X22184900Y-31714221D01*
X17861400Y-41067000D02*
X21771400Y-41067000D01*
X17861400Y-39197000D02*
X17861400Y-41067000D01*
X21771400Y-39197000D02*
X17861400Y-39197000D01*
X40510679Y-31557500D02*
X40185121Y-31557500D01*
X40510679Y-32577500D02*
X40185121Y-32577500D01*
X40185121Y-30990000D02*
X40510679Y-30990000D01*
X40185121Y-29970000D02*
X40510679Y-29970000D01*
X36692621Y-49278000D02*
X37018179Y-49278000D01*
X36692621Y-48258000D02*
X37018179Y-48258000D01*
X37018179Y-49909000D02*
X36692621Y-49909000D01*
X37018179Y-50929000D02*
X36692621Y-50929000D01*
X37957400Y-46747000D02*
X37957400Y-44297000D01*
X34737400Y-44947000D02*
X34737400Y-46747000D01*
X26059400Y-23838000D02*
X26059400Y-21838000D01*
X35459400Y-23838000D02*
X35459400Y-21838000D01*
X26913621Y-46357000D02*
X27239179Y-46357000D01*
X26913621Y-45337000D02*
X27239179Y-45337000D01*
X31659400Y-28362000D02*
X29209400Y-28362000D01*
X29859400Y-31582000D02*
X31659400Y-31582000D01*
X28319400Y-52673000D02*
X33199400Y-52673000D01*
X34369400Y-48203000D02*
X33319400Y-48203000D01*
X34369400Y-50703000D02*
X34369400Y-48203000D01*
X28199400Y-48203000D02*
X28199400Y-47213000D01*
X27149400Y-48203000D02*
X28199400Y-48203000D01*
X27149400Y-50703000D02*
X27149400Y-48203000D01*
X33170400Y-43779221D02*
X33170400Y-44104779D01*
X34190400Y-43779221D02*
X34190400Y-44104779D01*
X45001400Y-39929000D02*
X45001400Y-38049000D01*
X40531400Y-36879000D02*
X40531400Y-37929000D01*
X43031400Y-36879000D02*
X40531400Y-36879000D01*
X40531400Y-40049000D02*
X39541400Y-40049000D01*
X40531400Y-41099000D02*
X40531400Y-40049000D01*
X43031400Y-41099000D02*
X40531400Y-41099000D01*
X37969400Y-42588000D02*
X37969400Y-40138000D01*
X34749400Y-40788000D02*
X34749400Y-42588000D01*
X30349400Y-37083000D02*
X24949400Y-37083000D01*
X30349400Y-33783000D02*
X24949400Y-33783000D01*
X30349400Y-37083000D02*
X30349400Y-33783000D01*
X16517400Y-43510000D02*
X16517400Y-45390000D01*
X20987400Y-46560000D02*
X20987400Y-45510000D01*
X18487400Y-46560000D02*
X20987400Y-46560000D01*
X20987400Y-43390000D02*
X21977400Y-43390000D01*
X20987400Y-42340000D02*
X20987400Y-43390000D01*
X18487400Y-42340000D02*
X20987400Y-42340000D01*
X21744400Y-26934379D02*
X21744400Y-26608821D01*
X20724400Y-26934379D02*
X20724400Y-26608821D01*
X23395400Y-26934379D02*
X23395400Y-26608821D01*
X22375400Y-26934379D02*
X22375400Y-26608821D01*
X39613300Y-25334179D02*
X39613300Y-25008621D01*
X38593300Y-25334179D02*
X38593300Y-25008621D01*
X38338979Y-27074400D02*
X38013421Y-27074400D01*
X38338979Y-28094400D02*
X38013421Y-28094400D01*
X37708300Y-25334179D02*
X37708300Y-25008621D01*
X36688300Y-25334179D02*
X36688300Y-25008621D01*
X25046400Y-26934379D02*
X25046400Y-26608821D01*
X24026400Y-26934379D02*
X24026400Y-26608821D01*
X45001400Y-45390000D02*
X45001400Y-43510000D01*
X40531400Y-42340000D02*
X40531400Y-43390000D01*
X43031400Y-42340000D02*
X40531400Y-42340000D01*
X40531400Y-45510000D02*
X39541400Y-45510000D01*
X40531400Y-46560000D02*
X40531400Y-45510000D01*
X43031400Y-46560000D02*
X40531400Y-46560000D01*
X22991400Y-48673936D02*
X22991400Y-49878064D01*
X24811400Y-48673936D02*
X24811400Y-49878064D01*
X22991400Y-40164936D02*
X22991400Y-41369064D01*
X24811400Y-40164936D02*
X24811400Y-41369064D01*
X35352400Y-31717064D02*
X35352400Y-30512936D01*
X33532400Y-31717064D02*
X33532400Y-30512936D01*
X39788300Y-23376600D02*
X39788300Y-20891600D01*
X38418300Y-23376600D02*
X39788300Y-23376600D01*
X38418300Y-20891600D02*
X38418300Y-23376600D01*
X37883300Y-23376600D02*
X37883300Y-20891600D01*
X36513300Y-23376600D02*
X37883300Y-23376600D01*
X36513300Y-20891600D02*
X36513300Y-23376600D01*
X30661400Y-33783000D02*
X36061400Y-33783000D01*
X30661400Y-37083000D02*
X36061400Y-37083000D01*
X30661400Y-33783000D02*
X30661400Y-37083000D01*
X29894400Y-37927000D02*
X25984400Y-37927000D01*
X29894400Y-39797000D02*
X29894400Y-37927000D01*
X25984400Y-39797000D02*
X29894400Y-39797000D01*
D10*
X42499066Y-33996380D02*
X42499066Y-34710666D01*
X42451447Y-34853523D01*
X42356209Y-34948761D01*
X42213352Y-34996380D01*
X42118114Y-34996380D01*
X42975257Y-34996380D02*
X42975257Y-33996380D01*
X43356209Y-33996380D01*
X43451447Y-34044000D01*
X43499066Y-34091619D01*
X43546685Y-34186857D01*
X43546685Y-34329714D01*
X43499066Y-34424952D01*
X43451447Y-34472571D01*
X43356209Y-34520190D01*
X42975257Y-34520190D01*
X43927638Y-34091619D02*
X43975257Y-34044000D01*
X44070495Y-33996380D01*
X44308590Y-33996380D01*
X44403828Y-34044000D01*
X44451447Y-34091619D01*
X44499066Y-34186857D01*
X44499066Y-34282095D01*
X44451447Y-34424952D01*
X43880019Y-34996380D01*
X44499066Y-34996380D01*
X34117066Y-37615880D02*
X34117066Y-38330166D01*
X34069447Y-38473023D01*
X33974209Y-38568261D01*
X33831352Y-38615880D01*
X33736114Y-38615880D01*
X34593257Y-38615880D02*
X34593257Y-37615880D01*
X34974209Y-37615880D01*
X35069447Y-37663500D01*
X35117066Y-37711119D01*
X35164685Y-37806357D01*
X35164685Y-37949214D01*
X35117066Y-38044452D01*
X35069447Y-38092071D01*
X34974209Y-38139690D01*
X34593257Y-38139690D01*
X36117066Y-38615880D02*
X35545638Y-38615880D01*
X35831352Y-38615880D02*
X35831352Y-37615880D01*
X35736114Y-37758738D01*
X35640876Y-37853976D01*
X35545638Y-37901595D01*
X17130733Y-27852642D02*
X17083114Y-27900261D01*
X16940257Y-27947880D01*
X16845019Y-27947880D01*
X16702161Y-27900261D01*
X16606923Y-27805023D01*
X16559304Y-27709785D01*
X16511685Y-27519309D01*
X16511685Y-27376452D01*
X16559304Y-27185976D01*
X16606923Y-27090738D01*
X16702161Y-26995500D01*
X16845019Y-26947880D01*
X16940257Y-26947880D01*
X17083114Y-26995500D01*
X17130733Y-27043119D01*
X17987876Y-27281214D02*
X17987876Y-27947880D01*
X17749780Y-26900261D02*
X17511685Y-27614547D01*
X18130733Y-27614547D01*
X21742495Y-36663380D02*
X21742495Y-37472904D01*
X21790114Y-37568142D01*
X21837733Y-37615761D01*
X21932971Y-37663380D01*
X22123447Y-37663380D01*
X22218685Y-37615761D01*
X22266304Y-37568142D01*
X22313923Y-37472904D01*
X22313923Y-36663380D01*
X22694876Y-36663380D02*
X23313923Y-36663380D01*
X22980590Y-37044333D01*
X23123447Y-37044333D01*
X23218685Y-37091952D01*
X23266304Y-37139571D01*
X23313923Y-37234809D01*
X23313923Y-37472904D01*
X23266304Y-37568142D01*
X23218685Y-37615761D01*
X23123447Y-37663380D01*
X22837733Y-37663380D01*
X22742495Y-37615761D01*
X22694876Y-37568142D01*
X24734780Y-32773857D02*
X24258590Y-33107190D01*
X24734780Y-33345285D02*
X23734780Y-33345285D01*
X23734780Y-32964333D01*
X23782400Y-32869095D01*
X23830019Y-32821476D01*
X23925257Y-32773857D01*
X24068114Y-32773857D01*
X24163352Y-32821476D01*
X24210971Y-32869095D01*
X24258590Y-32964333D01*
X24258590Y-33345285D01*
X24734780Y-31821476D02*
X24734780Y-32392904D01*
X24734780Y-32107190D02*
X23734780Y-32107190D01*
X23877638Y-32202428D01*
X23972876Y-32297666D01*
X24020495Y-32392904D01*
X23734780Y-31202428D02*
X23734780Y-31107190D01*
X23782400Y-31011952D01*
X23830019Y-30964333D01*
X23925257Y-30916714D01*
X24115733Y-30869095D01*
X24353828Y-30869095D01*
X24544304Y-30916714D01*
X24639542Y-30964333D01*
X24687161Y-31011952D01*
X24734780Y-31107190D01*
X24734780Y-31202428D01*
X24687161Y-31297666D01*
X24639542Y-31345285D01*
X24544304Y-31392904D01*
X24353828Y-31440523D01*
X24115733Y-31440523D01*
X23925257Y-31392904D01*
X23830019Y-31345285D01*
X23782400Y-31297666D01*
X23734780Y-31202428D01*
X17384733Y-38711142D02*
X17337114Y-38758761D01*
X17194257Y-38806380D01*
X17099019Y-38806380D01*
X16956161Y-38758761D01*
X16860923Y-38663523D01*
X16813304Y-38568285D01*
X16765685Y-38377809D01*
X16765685Y-38234952D01*
X16813304Y-38044476D01*
X16860923Y-37949238D01*
X16956161Y-37854000D01*
X17099019Y-37806380D01*
X17194257Y-37806380D01*
X17337114Y-37854000D01*
X17384733Y-37901619D01*
X17765685Y-37901619D02*
X17813304Y-37854000D01*
X17908542Y-37806380D01*
X18146638Y-37806380D01*
X18241876Y-37854000D01*
X18289495Y-37901619D01*
X18337114Y-37996857D01*
X18337114Y-38092095D01*
X18289495Y-38234952D01*
X17718066Y-38806380D01*
X18337114Y-38806380D01*
X42848233Y-32583380D02*
X42514900Y-32107190D01*
X42276804Y-32583380D02*
X42276804Y-31583380D01*
X42657757Y-31583380D01*
X42752995Y-31631000D01*
X42800614Y-31678619D01*
X42848233Y-31773857D01*
X42848233Y-31916714D01*
X42800614Y-32011952D01*
X42752995Y-32059571D01*
X42657757Y-32107190D01*
X42276804Y-32107190D01*
X43419661Y-32011952D02*
X43324423Y-31964333D01*
X43276804Y-31916714D01*
X43229185Y-31821476D01*
X43229185Y-31773857D01*
X43276804Y-31678619D01*
X43324423Y-31631000D01*
X43419661Y-31583380D01*
X43610138Y-31583380D01*
X43705376Y-31631000D01*
X43752995Y-31678619D01*
X43800614Y-31773857D01*
X43800614Y-31821476D01*
X43752995Y-31916714D01*
X43705376Y-31964333D01*
X43610138Y-32011952D01*
X43419661Y-32011952D01*
X43324423Y-32059571D01*
X43276804Y-32107190D01*
X43229185Y-32202428D01*
X43229185Y-32392904D01*
X43276804Y-32488142D01*
X43324423Y-32535761D01*
X43419661Y-32583380D01*
X43610138Y-32583380D01*
X43705376Y-32535761D01*
X43752995Y-32488142D01*
X43800614Y-32392904D01*
X43800614Y-32202428D01*
X43752995Y-32107190D01*
X43705376Y-32059571D01*
X43610138Y-32011952D01*
X42880042Y-30932380D02*
X42546709Y-30456190D01*
X42308614Y-30932380D02*
X42308614Y-29932380D01*
X42689566Y-29932380D01*
X42784804Y-29980000D01*
X42832423Y-30027619D01*
X42880042Y-30122857D01*
X42880042Y-30265714D01*
X42832423Y-30360952D01*
X42784804Y-30408571D01*
X42689566Y-30456190D01*
X42308614Y-30456190D01*
X43832423Y-30932380D02*
X43260995Y-30932380D01*
X43546709Y-30932380D02*
X43546709Y-29932380D01*
X43451471Y-30075238D01*
X43356233Y-30170476D01*
X43260995Y-30218095D01*
X44784804Y-30932380D02*
X44213376Y-30932380D01*
X44499090Y-30932380D02*
X44499090Y-29932380D01*
X44403852Y-30075238D01*
X44308614Y-30170476D01*
X44213376Y-30218095D01*
X39101733Y-49125142D02*
X39054114Y-49172761D01*
X38911257Y-49220380D01*
X38816019Y-49220380D01*
X38673161Y-49172761D01*
X38577923Y-49077523D01*
X38530304Y-48982285D01*
X38482685Y-48791809D01*
X38482685Y-48648952D01*
X38530304Y-48458476D01*
X38577923Y-48363238D01*
X38673161Y-48268000D01*
X38816019Y-48220380D01*
X38911257Y-48220380D01*
X39054114Y-48268000D01*
X39101733Y-48315619D01*
X40054114Y-49220380D02*
X39482685Y-49220380D01*
X39768400Y-49220380D02*
X39768400Y-48220380D01*
X39673161Y-48363238D01*
X39577923Y-48458476D01*
X39482685Y-48506095D01*
X39101733Y-50871380D02*
X38768400Y-50395190D01*
X38530304Y-50871380D02*
X38530304Y-49871380D01*
X38911257Y-49871380D01*
X39006495Y-49919000D01*
X39054114Y-49966619D01*
X39101733Y-50061857D01*
X39101733Y-50204714D01*
X39054114Y-50299952D01*
X39006495Y-50347571D01*
X38911257Y-50395190D01*
X38530304Y-50395190D01*
X39958876Y-50204714D02*
X39958876Y-50871380D01*
X39720780Y-49823761D02*
X39482685Y-50538047D01*
X40101733Y-50538047D01*
X32537495Y-45680380D02*
X32537495Y-46489904D01*
X32585114Y-46585142D01*
X32632733Y-46632761D01*
X32727971Y-46680380D01*
X32918447Y-46680380D01*
X33013685Y-46632761D01*
X33061304Y-46585142D01*
X33108923Y-46489904D01*
X33108923Y-45680380D01*
X33537495Y-45775619D02*
X33585114Y-45728000D01*
X33680352Y-45680380D01*
X33918447Y-45680380D01*
X34013685Y-45728000D01*
X34061304Y-45775619D01*
X34108923Y-45870857D01*
X34108923Y-45966095D01*
X34061304Y-46108952D01*
X33489876Y-46680380D01*
X34108923Y-46680380D01*
X27632066Y-19899380D02*
X27632066Y-20613666D01*
X27584447Y-20756523D01*
X27489209Y-20851761D01*
X27346352Y-20899380D01*
X27251114Y-20899380D01*
X28060638Y-19994619D02*
X28108257Y-19947000D01*
X28203495Y-19899380D01*
X28441590Y-19899380D01*
X28536828Y-19947000D01*
X28584447Y-19994619D01*
X28632066Y-20089857D01*
X28632066Y-20185095D01*
X28584447Y-20327952D01*
X28013019Y-20899380D01*
X28632066Y-20899380D01*
X26147733Y-44775380D02*
X25671542Y-44775380D01*
X25671542Y-43775380D01*
X27004876Y-44775380D02*
X26433447Y-44775380D01*
X26719161Y-44775380D02*
X26719161Y-43775380D01*
X26623923Y-43918238D01*
X26528685Y-44013476D01*
X26433447Y-44061095D01*
X27076495Y-30567380D02*
X27076495Y-31376904D01*
X27124114Y-31472142D01*
X27171733Y-31519761D01*
X27266971Y-31567380D01*
X27457447Y-31567380D01*
X27552685Y-31519761D01*
X27600304Y-31472142D01*
X27647923Y-31376904D01*
X27647923Y-30567380D01*
X28647923Y-31567380D02*
X28076495Y-31567380D01*
X28362209Y-31567380D02*
X28362209Y-30567380D01*
X28266971Y-30710238D01*
X28171733Y-30805476D01*
X28076495Y-30853095D01*
X30426066Y-49363380D02*
X30426066Y-50077666D01*
X30378447Y-50220523D01*
X30283209Y-50315761D01*
X30140352Y-50363380D01*
X30045114Y-50363380D01*
X30807019Y-49363380D02*
X31426066Y-49363380D01*
X31092733Y-49744333D01*
X31235590Y-49744333D01*
X31330828Y-49791952D01*
X31378447Y-49839571D01*
X31426066Y-49934809D01*
X31426066Y-50172904D01*
X31378447Y-50268142D01*
X31330828Y-50315761D01*
X31235590Y-50363380D01*
X30949876Y-50363380D01*
X30854638Y-50315761D01*
X30807019Y-50268142D01*
X33386733Y-42108380D02*
X33053400Y-41632190D01*
X32815304Y-42108380D02*
X32815304Y-41108380D01*
X33196257Y-41108380D01*
X33291495Y-41156000D01*
X33339114Y-41203619D01*
X33386733Y-41298857D01*
X33386733Y-41441714D01*
X33339114Y-41536952D01*
X33291495Y-41584571D01*
X33196257Y-41632190D01*
X32815304Y-41632190D01*
X33862923Y-42108380D02*
X34053400Y-42108380D01*
X34148638Y-42060761D01*
X34196257Y-42013142D01*
X34291495Y-41870285D01*
X34339114Y-41679809D01*
X34339114Y-41298857D01*
X34291495Y-41203619D01*
X34243876Y-41156000D01*
X34148638Y-41108380D01*
X33958161Y-41108380D01*
X33862923Y-41156000D01*
X33815304Y-41203619D01*
X33767685Y-41298857D01*
X33767685Y-41536952D01*
X33815304Y-41632190D01*
X33862923Y-41679809D01*
X33958161Y-41727428D01*
X34148638Y-41727428D01*
X34243876Y-41679809D01*
X34291495Y-41632190D01*
X34339114Y-41536952D01*
X41983066Y-38441380D02*
X41983066Y-39155666D01*
X41935447Y-39298523D01*
X41840209Y-39393761D01*
X41697352Y-39441380D01*
X41602114Y-39441380D01*
X42935447Y-38441380D02*
X42459257Y-38441380D01*
X42411638Y-38917571D01*
X42459257Y-38869952D01*
X42554495Y-38822333D01*
X42792590Y-38822333D01*
X42887828Y-38869952D01*
X42935447Y-38917571D01*
X42983066Y-39012809D01*
X42983066Y-39250904D01*
X42935447Y-39346142D01*
X42887828Y-39393761D01*
X42792590Y-39441380D01*
X42554495Y-39441380D01*
X42459257Y-39393761D01*
X42411638Y-39346142D01*
X32791495Y-39774880D02*
X32791495Y-40584404D01*
X32839114Y-40679642D01*
X32886733Y-40727261D01*
X32981971Y-40774880D01*
X33172447Y-40774880D01*
X33267685Y-40727261D01*
X33315304Y-40679642D01*
X33362923Y-40584404D01*
X33362923Y-39774880D01*
X34267685Y-40108214D02*
X34267685Y-40774880D01*
X34029590Y-39727261D02*
X33791495Y-40441547D01*
X34410542Y-40441547D01*
X27735304Y-33345380D02*
X27735304Y-32345380D01*
X27973400Y-32345380D01*
X28116257Y-32393000D01*
X28211495Y-32488238D01*
X28259114Y-32583476D01*
X28306733Y-32773952D01*
X28306733Y-32916809D01*
X28259114Y-33107285D01*
X28211495Y-33202523D01*
X28116257Y-33297761D01*
X27973400Y-33345380D01*
X27735304Y-33345380D01*
X28687685Y-32440619D02*
X28735304Y-32393000D01*
X28830542Y-32345380D01*
X29068638Y-32345380D01*
X29163876Y-32393000D01*
X29211495Y-32440619D01*
X29259114Y-32535857D01*
X29259114Y-32631095D01*
X29211495Y-32773952D01*
X28640066Y-33345380D01*
X29259114Y-33345380D01*
X18869066Y-43775380D02*
X18869066Y-44489666D01*
X18821447Y-44632523D01*
X18726209Y-44727761D01*
X18583352Y-44775380D01*
X18488114Y-44775380D01*
X19869066Y-44775380D02*
X19297638Y-44775380D01*
X19583352Y-44775380D02*
X19583352Y-43775380D01*
X19488114Y-43918238D01*
X19392876Y-44013476D01*
X19297638Y-44061095D01*
X21686780Y-29376666D02*
X21210590Y-29710000D01*
X21686780Y-29948095D02*
X20686780Y-29948095D01*
X20686780Y-29567142D01*
X20734400Y-29471904D01*
X20782019Y-29424285D01*
X20877257Y-29376666D01*
X21020114Y-29376666D01*
X21115352Y-29424285D01*
X21162971Y-29471904D01*
X21210590Y-29567142D01*
X21210590Y-29948095D01*
X21686780Y-28424285D02*
X21686780Y-28995714D01*
X21686780Y-28710000D02*
X20686780Y-28710000D01*
X20829638Y-28805238D01*
X20924876Y-28900476D01*
X20972495Y-28995714D01*
X23337780Y-29376666D02*
X22861590Y-29710000D01*
X23337780Y-29948095D02*
X22337780Y-29948095D01*
X22337780Y-29567142D01*
X22385400Y-29471904D01*
X22433019Y-29424285D01*
X22528257Y-29376666D01*
X22671114Y-29376666D01*
X22766352Y-29424285D01*
X22813971Y-29471904D01*
X22861590Y-29567142D01*
X22861590Y-29948095D01*
X22433019Y-28995714D02*
X22385400Y-28948095D01*
X22337780Y-28852857D01*
X22337780Y-28614761D01*
X22385400Y-28519523D01*
X22433019Y-28471904D01*
X22528257Y-28424285D01*
X22623495Y-28424285D01*
X22766352Y-28471904D01*
X23337780Y-29043333D01*
X23337780Y-28424285D01*
X42911733Y-27503380D02*
X42578400Y-27027190D01*
X42340304Y-27503380D02*
X42340304Y-26503380D01*
X42721257Y-26503380D01*
X42816495Y-26551000D01*
X42864114Y-26598619D01*
X42911733Y-26693857D01*
X42911733Y-26836714D01*
X42864114Y-26931952D01*
X42816495Y-26979571D01*
X42721257Y-27027190D01*
X42340304Y-27027190D01*
X43245066Y-26503380D02*
X43911733Y-26503380D01*
X43483161Y-27503380D01*
X40752733Y-28900380D02*
X40419400Y-28424190D01*
X40181304Y-28900380D02*
X40181304Y-27900380D01*
X40562257Y-27900380D01*
X40657495Y-27948000D01*
X40705114Y-27995619D01*
X40752733Y-28090857D01*
X40752733Y-28233714D01*
X40705114Y-28328952D01*
X40657495Y-28376571D01*
X40562257Y-28424190D01*
X40181304Y-28424190D01*
X41609876Y-27900380D02*
X41419400Y-27900380D01*
X41324161Y-27948000D01*
X41276542Y-27995619D01*
X41181304Y-28138476D01*
X41133685Y-28328952D01*
X41133685Y-28709904D01*
X41181304Y-28805142D01*
X41228923Y-28852761D01*
X41324161Y-28900380D01*
X41514638Y-28900380D01*
X41609876Y-28852761D01*
X41657495Y-28805142D01*
X41705114Y-28709904D01*
X41705114Y-28471809D01*
X41657495Y-28376571D01*
X41609876Y-28328952D01*
X41514638Y-28281333D01*
X41324161Y-28281333D01*
X41228923Y-28328952D01*
X41181304Y-28376571D01*
X41133685Y-28471809D01*
X40752733Y-27503380D02*
X40419400Y-27027190D01*
X40181304Y-27503380D02*
X40181304Y-26503380D01*
X40562257Y-26503380D01*
X40657495Y-26551000D01*
X40705114Y-26598619D01*
X40752733Y-26693857D01*
X40752733Y-26836714D01*
X40705114Y-26931952D01*
X40657495Y-26979571D01*
X40562257Y-27027190D01*
X40181304Y-27027190D01*
X41657495Y-26503380D02*
X41181304Y-26503380D01*
X41133685Y-26979571D01*
X41181304Y-26931952D01*
X41276542Y-26884333D01*
X41514638Y-26884333D01*
X41609876Y-26931952D01*
X41657495Y-26979571D01*
X41705114Y-27074809D01*
X41705114Y-27312904D01*
X41657495Y-27408142D01*
X41609876Y-27455761D01*
X41514638Y-27503380D01*
X41276542Y-27503380D01*
X41181304Y-27455761D01*
X41133685Y-27408142D01*
X25115780Y-29376666D02*
X24639590Y-29710000D01*
X25115780Y-29948095D02*
X24115780Y-29948095D01*
X24115780Y-29567142D01*
X24163400Y-29471904D01*
X24211019Y-29424285D01*
X24306257Y-29376666D01*
X24449114Y-29376666D01*
X24544352Y-29424285D01*
X24591971Y-29471904D01*
X24639590Y-29567142D01*
X24639590Y-29948095D01*
X24115780Y-29043333D02*
X24115780Y-28424285D01*
X24496733Y-28757619D01*
X24496733Y-28614761D01*
X24544352Y-28519523D01*
X24591971Y-28471904D01*
X24687209Y-28424285D01*
X24925304Y-28424285D01*
X25020542Y-28471904D01*
X25068161Y-28519523D01*
X25115780Y-28614761D01*
X25115780Y-28900476D01*
X25068161Y-28995714D01*
X25020542Y-29043333D01*
X42364066Y-43902380D02*
X42364066Y-44616666D01*
X42316447Y-44759523D01*
X42221209Y-44854761D01*
X42078352Y-44902380D01*
X41983114Y-44902380D01*
X43268828Y-44235714D02*
X43268828Y-44902380D01*
X43030733Y-43854761D02*
X42792638Y-44569047D01*
X43411685Y-44569047D01*
X23187066Y-46156571D02*
X22853733Y-46156571D01*
X22853733Y-46680380D02*
X22853733Y-45680380D01*
X23329923Y-45680380D01*
X23615638Y-45680380D02*
X24234685Y-45680380D01*
X23901352Y-46061333D01*
X24044209Y-46061333D01*
X24139447Y-46108952D01*
X24187066Y-46156571D01*
X24234685Y-46251809D01*
X24234685Y-46489904D01*
X24187066Y-46585142D01*
X24139447Y-46632761D01*
X24044209Y-46680380D01*
X23758495Y-46680380D01*
X23663257Y-46632761D01*
X23615638Y-46585142D01*
X23568066Y-43807071D02*
X23234733Y-43807071D01*
X23234733Y-44330880D02*
X23234733Y-43330880D01*
X23710923Y-43330880D01*
X24044257Y-43426119D02*
X24091876Y-43378500D01*
X24187114Y-43330880D01*
X24425209Y-43330880D01*
X24520447Y-43378500D01*
X24568066Y-43426119D01*
X24615685Y-43521357D01*
X24615685Y-43616595D01*
X24568066Y-43759452D01*
X23996638Y-44330880D01*
X24615685Y-44330880D01*
X36268066Y-30027571D02*
X35934733Y-30027571D01*
X35934733Y-30551380D02*
X35934733Y-29551380D01*
X36410923Y-29551380D01*
X37315685Y-30551380D02*
X36744257Y-30551380D01*
X37029971Y-30551380D02*
X37029971Y-29551380D01*
X36934733Y-29694238D01*
X36839495Y-29789476D01*
X36744257Y-29837095D01*
X42340304Y-26106380D02*
X42340304Y-25106380D01*
X42578400Y-25106380D01*
X42721257Y-25154000D01*
X42816495Y-25249238D01*
X42864114Y-25344476D01*
X42911733Y-25534952D01*
X42911733Y-25677809D01*
X42864114Y-25868285D01*
X42816495Y-25963523D01*
X42721257Y-26058761D01*
X42578400Y-26106380D01*
X42340304Y-26106380D01*
X43768876Y-25439714D02*
X43768876Y-26106380D01*
X43530780Y-25058761D02*
X43292685Y-25773047D01*
X43911733Y-25773047D01*
X40181304Y-26106380D02*
X40181304Y-25106380D01*
X40419400Y-25106380D01*
X40562257Y-25154000D01*
X40657495Y-25249238D01*
X40705114Y-25344476D01*
X40752733Y-25534952D01*
X40752733Y-25677809D01*
X40705114Y-25868285D01*
X40657495Y-25963523D01*
X40562257Y-26058761D01*
X40419400Y-26106380D01*
X40181304Y-26106380D01*
X41086066Y-25106380D02*
X41705114Y-25106380D01*
X41371780Y-25487333D01*
X41514638Y-25487333D01*
X41609876Y-25534952D01*
X41657495Y-25582571D01*
X41705114Y-25677809D01*
X41705114Y-25915904D01*
X41657495Y-26011142D01*
X41609876Y-26058761D01*
X41514638Y-26106380D01*
X41228923Y-26106380D01*
X41133685Y-26058761D01*
X41086066Y-26011142D01*
X31862804Y-33345380D02*
X31862804Y-32345380D01*
X32100900Y-32345380D01*
X32243757Y-32393000D01*
X32338995Y-32488238D01*
X32386614Y-32583476D01*
X32434233Y-32773952D01*
X32434233Y-32916809D01*
X32386614Y-33107285D01*
X32338995Y-33202523D01*
X32243757Y-33297761D01*
X32100900Y-33345380D01*
X31862804Y-33345380D01*
X33386614Y-33345380D02*
X32815185Y-33345380D01*
X33100900Y-33345380D02*
X33100900Y-32345380D01*
X33005661Y-32488238D01*
X32910423Y-32583476D01*
X32815185Y-32631095D01*
X27544733Y-40997142D02*
X27497114Y-41044761D01*
X27354257Y-41092380D01*
X27259019Y-41092380D01*
X27116161Y-41044761D01*
X27020923Y-40949523D01*
X26973304Y-40854285D01*
X26925685Y-40663809D01*
X26925685Y-40520952D01*
X26973304Y-40330476D01*
X27020923Y-40235238D01*
X27116161Y-40140000D01*
X27259019Y-40092380D01*
X27354257Y-40092380D01*
X27497114Y-40140000D01*
X27544733Y-40187619D01*
X27878066Y-40092380D02*
X28497114Y-40092380D01*
X28163780Y-40473333D01*
X28306638Y-40473333D01*
X28401876Y-40520952D01*
X28449495Y-40568571D01*
X28497114Y-40663809D01*
X28497114Y-40901904D01*
X28449495Y-40997142D01*
X28401876Y-41044761D01*
X28306638Y-41092380D01*
X28020923Y-41092380D01*
X27925685Y-41044761D01*
X27878066Y-40997142D01*
M02*
