G04 #@! TF.GenerationSoftware,KiCad,Pcbnew,(5.1.5)-3*
G04 #@! TF.CreationDate,2020-04-27T23:25:01+02:00*
G04 #@! TF.ProjectId,unified-usb-pcb_batt,756e6966-6965-4642-9d75-73622d706362,rev?*
G04 #@! TF.SameCoordinates,Original*
G04 #@! TF.FileFunction,Copper,L2,Bot*
G04 #@! TF.FilePolarity,Positive*
%FSLAX46Y46*%
G04 Gerber Fmt 4.6, Leading zero omitted, Abs format (unit mm)*
G04 Created by KiCad (PCBNEW (5.1.5)-3) date 2020-04-27 23:25:01*
%MOMM*%
%LPD*%
G04 APERTURE LIST*
%ADD10O,1.000000X2.100000*%
%ADD11O,1.000000X1.600000*%
%ADD12C,4.700000*%
%ADD13R,3.500000X1.500000*%
%ADD14C,0.800000*%
%ADD15C,0.254000*%
%ADD16C,0.508000*%
%ADD17C,0.190500*%
G04 APERTURE END LIST*
D10*
X26439400Y-25068000D03*
X35079400Y-25068000D03*
D11*
X35079400Y-20888000D03*
X26439400Y-20888000D03*
D12*
X42759400Y-50288000D03*
X18759400Y-50288000D03*
X42759400Y-22288000D03*
X18759400Y-22288000D03*
D13*
X38711400Y-36957000D03*
X42111400Y-34417000D03*
X38711400Y-31877000D03*
D14*
X17932400Y-33020000D03*
X18948400Y-33020000D03*
X19964400Y-33020000D03*
X19964400Y-34290000D03*
X17932400Y-34290000D03*
X18948400Y-34290000D03*
X27319332Y-27558673D03*
X34199111Y-27548412D03*
X24663400Y-45847000D03*
X29108400Y-40513000D03*
X29108400Y-43307000D03*
X32156400Y-40513000D03*
X32156400Y-43307000D03*
X31902400Y-33909000D03*
X29489400Y-33909000D03*
X37363400Y-39243000D03*
X44221400Y-38989000D03*
X44221400Y-44450000D03*
X30695900Y-52197000D03*
X17043400Y-44323000D03*
X17043400Y-39497000D03*
X37871400Y-33528000D03*
X27330400Y-28702000D03*
X35077400Y-27559000D03*
X26314400Y-40513000D03*
X26314400Y-43307000D03*
X21234400Y-42291000D03*
X22504400Y-24955500D03*
X32791396Y-50038000D03*
X37363400Y-28829000D03*
X22123400Y-35941000D03*
X27838400Y-33782000D03*
X33934386Y-35433000D03*
X18884900Y-27813000D03*
X33209400Y-27588000D03*
X28309400Y-27588000D03*
X31261000Y-32766000D03*
X31261000Y-45466000D03*
X30257800Y-32766000D03*
X30257800Y-45466000D03*
X29997400Y-23241000D03*
X23583900Y-23876000D03*
X38633400Y-28829000D03*
X19583400Y-37846000D03*
X34188400Y-47497988D03*
X41554400Y-40513000D03*
X21488400Y-33274000D03*
X21615400Y-38608000D03*
X36195006Y-27559000D03*
X42443400Y-38862000D03*
D15*
X34199111Y-27548412D02*
X34199111Y-27515809D01*
D16*
X33807400Y-50038000D02*
X32791396Y-50038000D01*
X38711400Y-45134000D02*
X33807400Y-50038000D01*
X38711400Y-36957000D02*
X38711400Y-45134000D01*
X25679400Y-35941000D02*
X22123400Y-35941000D01*
X27838400Y-33782000D02*
X25679400Y-35941000D01*
D15*
X33934386Y-32258014D02*
X33934386Y-35433000D01*
X37363400Y-28829000D02*
X33934386Y-32258014D01*
D16*
X23393400Y-34671000D02*
X23393400Y-32321500D01*
X23393400Y-32321500D02*
X18884900Y-27813000D01*
X22123400Y-35941000D02*
X23393400Y-34671000D01*
X28309400Y-27588000D02*
X33209400Y-27588000D01*
D17*
X30956250Y-45161250D02*
X31261000Y-45466000D01*
X30956250Y-33070750D02*
X30956250Y-45161250D01*
X31261000Y-32766000D02*
X30956250Y-33070750D01*
X30562550Y-33070750D02*
X30562550Y-45161250D01*
X30257800Y-32766000D02*
X30562550Y-33070750D01*
X30562550Y-45161250D02*
X30257800Y-45466000D01*
D15*
X25298400Y-48768000D02*
X32918388Y-48768000D01*
X32918388Y-48768000D02*
X34188400Y-47497988D01*
X19583400Y-37846000D02*
X19583400Y-43053000D01*
X19583400Y-43053000D02*
X25298400Y-48768000D01*
X35331400Y-46354988D02*
X34188400Y-47497988D01*
X35331400Y-32285813D02*
X35331400Y-46354988D01*
X38633400Y-28829000D02*
X38633400Y-28983813D01*
X38633400Y-28983813D02*
X35331400Y-32285813D01*
X18186400Y-37084000D02*
X21488400Y-33782000D01*
X21488400Y-33782000D02*
X21488400Y-33274000D01*
X24790400Y-51435000D02*
X18186400Y-44831000D01*
X41554400Y-40513000D02*
X41554400Y-44196000D01*
X41554400Y-44196000D02*
X34315400Y-51435000D01*
X34315400Y-51435000D02*
X24790400Y-51435000D01*
X18186400Y-44831000D02*
X18186400Y-37084000D01*
X21615400Y-40513000D02*
X28727400Y-47625000D01*
X28727400Y-47625000D02*
X31902400Y-47625000D01*
X33172400Y-30581606D02*
X36195006Y-27559000D01*
X31902400Y-47625000D02*
X33172400Y-46355000D01*
X21615400Y-38608000D02*
X21615400Y-40513000D01*
X33172400Y-46355000D02*
X33172400Y-30581606D01*
D16*
X42111400Y-34417000D02*
X42570400Y-34876000D01*
X42111400Y-34417000D02*
X42443400Y-34749000D01*
X42443400Y-34749000D02*
X42443400Y-38862000D01*
D17*
G36*
X22840950Y-26720800D02*
G01*
X22846685Y-26779025D01*
X22863668Y-26835012D01*
X22891248Y-26886610D01*
X22928364Y-26931836D01*
X23131564Y-27135036D01*
X23176790Y-27172152D01*
X23228388Y-27199732D01*
X23284375Y-27216715D01*
X23342600Y-27222450D01*
X27713633Y-27222450D01*
X27690441Y-27257160D01*
X27637791Y-27384270D01*
X27610950Y-27519209D01*
X27610950Y-27656791D01*
X27637791Y-27791730D01*
X27690441Y-27918840D01*
X27766878Y-28033236D01*
X27864164Y-28130522D01*
X27978560Y-28206959D01*
X28105670Y-28259609D01*
X28240609Y-28286450D01*
X28378191Y-28286450D01*
X28513130Y-28259609D01*
X28640240Y-28206959D01*
X28739778Y-28140450D01*
X32779022Y-28140450D01*
X32878560Y-28206959D01*
X33005670Y-28259609D01*
X33140609Y-28286450D01*
X33278191Y-28286450D01*
X33413130Y-28259609D01*
X33540240Y-28206959D01*
X33654636Y-28130522D01*
X33751922Y-28033236D01*
X33828359Y-27918840D01*
X33881009Y-27791730D01*
X33907850Y-27656791D01*
X33907850Y-27519209D01*
X33881009Y-27384270D01*
X33828359Y-27257160D01*
X33805167Y-27222450D01*
X35579862Y-27222450D01*
X35576047Y-27228160D01*
X35523397Y-27355270D01*
X35496556Y-27490209D01*
X35496556Y-27627791D01*
X35501198Y-27651130D01*
X32886340Y-30265990D01*
X32870107Y-30279312D01*
X32856786Y-30295544D01*
X32816940Y-30344096D01*
X32777435Y-30418006D01*
X32753107Y-30498204D01*
X32744892Y-30581606D01*
X32746951Y-30602510D01*
X32746950Y-46178772D01*
X31726174Y-47199550D01*
X28903627Y-47199550D01*
X22040850Y-40336774D01*
X22040850Y-39163743D01*
X22060636Y-39150522D01*
X22157922Y-39053236D01*
X22234359Y-38938840D01*
X22287009Y-38811730D01*
X22313850Y-38676791D01*
X22313850Y-38539209D01*
X22287009Y-38404270D01*
X22234359Y-38277160D01*
X22157922Y-38162764D01*
X22060636Y-38065478D01*
X21946240Y-37989041D01*
X21819130Y-37936391D01*
X21684191Y-37909550D01*
X21546609Y-37909550D01*
X21411670Y-37936391D01*
X21284560Y-37989041D01*
X21170164Y-38065478D01*
X21072878Y-38162764D01*
X20996441Y-38277160D01*
X20943791Y-38404270D01*
X20916950Y-38539209D01*
X20916950Y-38676791D01*
X20943791Y-38811730D01*
X20996441Y-38938840D01*
X21072878Y-39053236D01*
X21170164Y-39150522D01*
X21189950Y-39163743D01*
X21189951Y-40492096D01*
X21187892Y-40513000D01*
X21194668Y-40581791D01*
X21196107Y-40596403D01*
X21220435Y-40676600D01*
X21259941Y-40750511D01*
X21313107Y-40815294D01*
X21329340Y-40828616D01*
X28411784Y-47911061D01*
X28425106Y-47927294D01*
X28489889Y-47980460D01*
X28563800Y-48019966D01*
X28643997Y-48044294D01*
X28706504Y-48050450D01*
X28706506Y-48050450D01*
X28727400Y-48052508D01*
X28748294Y-48050450D01*
X31881506Y-48050450D01*
X31902400Y-48052508D01*
X31923294Y-48050450D01*
X31923296Y-48050450D01*
X31985803Y-48044294D01*
X32066000Y-48019966D01*
X32139911Y-47980460D01*
X32204694Y-47927294D01*
X32218021Y-47911055D01*
X33458467Y-46670611D01*
X33474694Y-46657294D01*
X33488025Y-46641051D01*
X33527860Y-46592511D01*
X33567365Y-46518601D01*
X33567366Y-46518600D01*
X33591694Y-46438403D01*
X33597850Y-46375896D01*
X33597850Y-46375895D01*
X33599908Y-46355001D01*
X33597850Y-46334107D01*
X33597850Y-36048153D01*
X33603546Y-36051959D01*
X33730656Y-36104609D01*
X33865595Y-36131450D01*
X34003177Y-36131450D01*
X34138116Y-36104609D01*
X34265226Y-36051959D01*
X34379622Y-35975522D01*
X34476908Y-35878236D01*
X34553345Y-35763840D01*
X34605995Y-35636730D01*
X34632836Y-35501791D01*
X34632836Y-35364209D01*
X34605995Y-35229270D01*
X34553345Y-35102160D01*
X34476908Y-34987764D01*
X34379622Y-34890478D01*
X34359836Y-34877257D01*
X34359836Y-32434240D01*
X37271269Y-29522807D01*
X37294609Y-29527450D01*
X37432191Y-29527450D01*
X37501964Y-29513571D01*
X35045345Y-31970192D01*
X35029106Y-31983519D01*
X34975940Y-32048303D01*
X34936434Y-32122214D01*
X34912106Y-32202411D01*
X34908688Y-32237118D01*
X34903892Y-32285813D01*
X34905950Y-32306707D01*
X34905951Y-46178760D01*
X34280531Y-46804181D01*
X34257191Y-46799538D01*
X34119609Y-46799538D01*
X33984670Y-46826379D01*
X33857560Y-46879029D01*
X33743164Y-46955466D01*
X33645878Y-47052752D01*
X33569441Y-47167148D01*
X33516791Y-47294258D01*
X33489950Y-47429197D01*
X33489950Y-47566779D01*
X33494592Y-47590118D01*
X32742162Y-48342550D01*
X25474627Y-48342550D01*
X20008850Y-42876774D01*
X20008850Y-38401743D01*
X20028636Y-38388522D01*
X20125922Y-38291236D01*
X20202359Y-38176840D01*
X20255009Y-38049730D01*
X20281850Y-37914791D01*
X20281850Y-37777209D01*
X20255009Y-37642270D01*
X20202359Y-37515160D01*
X20125922Y-37400764D01*
X20028636Y-37303478D01*
X19914240Y-37227041D01*
X19787130Y-37174391D01*
X19652191Y-37147550D01*
X19514609Y-37147550D01*
X19379670Y-37174391D01*
X19252560Y-37227041D01*
X19138164Y-37303478D01*
X19040878Y-37400764D01*
X18964441Y-37515160D01*
X18911791Y-37642270D01*
X18884950Y-37777209D01*
X18884950Y-37914791D01*
X18911791Y-38049730D01*
X18964441Y-38176840D01*
X19040878Y-38291236D01*
X19138164Y-38388522D01*
X19157950Y-38401743D01*
X19157951Y-43032096D01*
X19155892Y-43053000D01*
X19163407Y-43129300D01*
X19164107Y-43136403D01*
X19188435Y-43216600D01*
X19227941Y-43290511D01*
X19281107Y-43355294D01*
X19297340Y-43368616D01*
X24982784Y-49054061D01*
X24996106Y-49070294D01*
X25060889Y-49123460D01*
X25134799Y-49162966D01*
X25214997Y-49187294D01*
X25298400Y-49195508D01*
X25319296Y-49193450D01*
X32897494Y-49193450D01*
X32918388Y-49195508D01*
X32939282Y-49193450D01*
X32939284Y-49193450D01*
X33001791Y-49187294D01*
X33081988Y-49162966D01*
X33155899Y-49123460D01*
X33220682Y-49070294D01*
X33234009Y-49054055D01*
X34096270Y-48191796D01*
X34119609Y-48196438D01*
X34257191Y-48196438D01*
X34392130Y-48169597D01*
X34519240Y-48116947D01*
X34633636Y-48040510D01*
X34730922Y-47943224D01*
X34807359Y-47828828D01*
X34860009Y-47701718D01*
X34886850Y-47566779D01*
X34886850Y-47429197D01*
X34882207Y-47405857D01*
X35617460Y-46670605D01*
X35633694Y-46657282D01*
X35686860Y-46592499D01*
X35726366Y-46518588D01*
X35750694Y-46438391D01*
X35756850Y-46375884D01*
X35756850Y-46375883D01*
X35758908Y-46354989D01*
X35756850Y-46334095D01*
X35756850Y-33667000D01*
X40061506Y-33667000D01*
X40061506Y-35167000D01*
X40067268Y-35225506D01*
X40084334Y-35281764D01*
X40112047Y-35333612D01*
X40149343Y-35379057D01*
X40194788Y-35416353D01*
X40246636Y-35444066D01*
X40302894Y-35461132D01*
X40361400Y-35466894D01*
X41890950Y-35466894D01*
X41890951Y-38431621D01*
X41824441Y-38531160D01*
X41771791Y-38658270D01*
X41744950Y-38793209D01*
X41744950Y-38930791D01*
X41771791Y-39065730D01*
X41824441Y-39192840D01*
X41900878Y-39307236D01*
X41998164Y-39404522D01*
X42112560Y-39480959D01*
X42239670Y-39533609D01*
X42374609Y-39560450D01*
X42512191Y-39560450D01*
X42647130Y-39533609D01*
X42774240Y-39480959D01*
X42888636Y-39404522D01*
X42985922Y-39307236D01*
X43062359Y-39192840D01*
X43115009Y-39065730D01*
X43141850Y-38930791D01*
X43141850Y-38793209D01*
X43115009Y-38658270D01*
X43062359Y-38531160D01*
X42995850Y-38431622D01*
X42995850Y-35466894D01*
X43861400Y-35466894D01*
X43919906Y-35461132D01*
X43976164Y-35444066D01*
X44028012Y-35416353D01*
X44073457Y-35379057D01*
X44110753Y-35333612D01*
X44138466Y-35281764D01*
X44155532Y-35225506D01*
X44161294Y-35167000D01*
X44161294Y-33667000D01*
X44155532Y-33608494D01*
X44138466Y-33552236D01*
X44110753Y-33500388D01*
X44073457Y-33454943D01*
X44028012Y-33417647D01*
X43976164Y-33389934D01*
X43919906Y-33372868D01*
X43861400Y-33367106D01*
X40361400Y-33367106D01*
X40302894Y-33372868D01*
X40246636Y-33389934D01*
X40194788Y-33417647D01*
X40149343Y-33454943D01*
X40112047Y-33500388D01*
X40084334Y-33552236D01*
X40067268Y-33608494D01*
X40061506Y-33667000D01*
X35756850Y-33667000D01*
X35756850Y-32462039D01*
X36661506Y-31557384D01*
X36661506Y-32627000D01*
X36667268Y-32685506D01*
X36684334Y-32741764D01*
X36712047Y-32793612D01*
X36749343Y-32839057D01*
X36794788Y-32876353D01*
X36846636Y-32904066D01*
X36902894Y-32921132D01*
X36961400Y-32926894D01*
X40461400Y-32926894D01*
X40519906Y-32921132D01*
X40576164Y-32904066D01*
X40628012Y-32876353D01*
X40673457Y-32839057D01*
X40710753Y-32793612D01*
X40738466Y-32741764D01*
X40755532Y-32685506D01*
X40761294Y-32627000D01*
X40761294Y-31127000D01*
X40755532Y-31068494D01*
X40738466Y-31012236D01*
X40710753Y-30960388D01*
X40673457Y-30914943D01*
X40628012Y-30877647D01*
X40576164Y-30849934D01*
X40519906Y-30832868D01*
X40461400Y-30827106D01*
X37391784Y-30827106D01*
X38691441Y-29527450D01*
X38702191Y-29527450D01*
X38837130Y-29500609D01*
X38964240Y-29447959D01*
X39078636Y-29371522D01*
X39175922Y-29274236D01*
X39252359Y-29159840D01*
X39305009Y-29032730D01*
X39331850Y-28897791D01*
X39331850Y-28760209D01*
X39305009Y-28625270D01*
X39252359Y-28498160D01*
X39175922Y-28383764D01*
X39078636Y-28286478D01*
X38964240Y-28210041D01*
X38837130Y-28157391D01*
X38702191Y-28130550D01*
X38564609Y-28130550D01*
X38429670Y-28157391D01*
X38302560Y-28210041D01*
X38188164Y-28286478D01*
X38090878Y-28383764D01*
X38014441Y-28498160D01*
X37998400Y-28536887D01*
X37982359Y-28498160D01*
X37905922Y-28383764D01*
X37808636Y-28286478D01*
X37694240Y-28210041D01*
X37567130Y-28157391D01*
X37432191Y-28130550D01*
X37294609Y-28130550D01*
X37159670Y-28157391D01*
X37032560Y-28210041D01*
X36918164Y-28286478D01*
X36820878Y-28383764D01*
X36744441Y-28498160D01*
X36691791Y-28625270D01*
X36664950Y-28760209D01*
X36664950Y-28897791D01*
X36669593Y-28921131D01*
X33648331Y-31942393D01*
X33632092Y-31955720D01*
X33597850Y-31997445D01*
X33597850Y-30757832D01*
X36102876Y-28252808D01*
X36126215Y-28257450D01*
X36263797Y-28257450D01*
X36398736Y-28230609D01*
X36525846Y-28177959D01*
X36640242Y-28101522D01*
X36737528Y-28004236D01*
X36813965Y-27889840D01*
X36866615Y-27762730D01*
X36893456Y-27627791D01*
X36893456Y-27490209D01*
X36866615Y-27355270D01*
X36813965Y-27228160D01*
X36810150Y-27222450D01*
X38176200Y-27222450D01*
X38234425Y-27216715D01*
X38290412Y-27199732D01*
X38342010Y-27172152D01*
X38387236Y-27135036D01*
X38590436Y-26931836D01*
X38627552Y-26886610D01*
X38655132Y-26835012D01*
X38672115Y-26779025D01*
X38677850Y-26720800D01*
X38677850Y-24225845D01*
X41046061Y-24225845D01*
X41326365Y-24530486D01*
X41791387Y-24766969D01*
X42293610Y-24908186D01*
X42813733Y-24948711D01*
X43331768Y-24886986D01*
X43827808Y-24725384D01*
X44192435Y-24530486D01*
X44472739Y-24225845D01*
X42759400Y-22512506D01*
X41046061Y-24225845D01*
X38677850Y-24225845D01*
X38677850Y-22342333D01*
X40098689Y-22342333D01*
X40160414Y-22860368D01*
X40322016Y-23356408D01*
X40516914Y-23721035D01*
X40821555Y-24001339D01*
X42534894Y-22288000D01*
X42983906Y-22288000D01*
X44697245Y-24001339D01*
X45001886Y-23721035D01*
X45238369Y-23256013D01*
X45379586Y-22753790D01*
X45420111Y-22233667D01*
X45358386Y-21715632D01*
X45196784Y-21219592D01*
X45001886Y-20854965D01*
X44697245Y-20574661D01*
X42983906Y-22288000D01*
X42534894Y-22288000D01*
X40821555Y-20574661D01*
X40516914Y-20854965D01*
X40280431Y-21319987D01*
X40139214Y-21822210D01*
X40098689Y-22342333D01*
X38677850Y-22342333D01*
X38677850Y-20350155D01*
X41046061Y-20350155D01*
X42759400Y-22063494D01*
X44472739Y-20350155D01*
X44192435Y-20045514D01*
X43727413Y-19809031D01*
X43225190Y-19667814D01*
X42705067Y-19627289D01*
X42187032Y-19689014D01*
X41690992Y-19850616D01*
X41326365Y-20045514D01*
X41046061Y-20350155D01*
X38677850Y-20350155D01*
X38677850Y-19611450D01*
X42743584Y-19611450D01*
X43278976Y-19663946D01*
X43778761Y-19814840D01*
X44239722Y-20059937D01*
X44644298Y-20389901D01*
X44977073Y-20792157D01*
X45225382Y-21251396D01*
X45379763Y-21750119D01*
X45435936Y-22284568D01*
X45435951Y-22288840D01*
X45435950Y-50272184D01*
X45383454Y-50807575D01*
X45232559Y-51307363D01*
X44987462Y-51768325D01*
X44657499Y-52172898D01*
X44255240Y-52505676D01*
X43796004Y-52753982D01*
X43297282Y-52908363D01*
X42762831Y-52964536D01*
X42758847Y-52964550D01*
X18775216Y-52964550D01*
X18239825Y-52912054D01*
X17740037Y-52761159D01*
X17279075Y-52516062D01*
X16923236Y-52225845D01*
X17046061Y-52225845D01*
X17326365Y-52530486D01*
X17791387Y-52766969D01*
X18293610Y-52908186D01*
X18813733Y-52948711D01*
X19331768Y-52886986D01*
X19827808Y-52725384D01*
X20192435Y-52530486D01*
X20472739Y-52225845D01*
X41046061Y-52225845D01*
X41326365Y-52530486D01*
X41791387Y-52766969D01*
X42293610Y-52908186D01*
X42813733Y-52948711D01*
X43331768Y-52886986D01*
X43827808Y-52725384D01*
X44192435Y-52530486D01*
X44472739Y-52225845D01*
X42759400Y-50512506D01*
X41046061Y-52225845D01*
X20472739Y-52225845D01*
X18759400Y-50512506D01*
X17046061Y-52225845D01*
X16923236Y-52225845D01*
X16874502Y-52186099D01*
X16541724Y-51783840D01*
X16293418Y-51324604D01*
X16139037Y-50825882D01*
X16088215Y-50342333D01*
X16098689Y-50342333D01*
X16160414Y-50860368D01*
X16322016Y-51356408D01*
X16516914Y-51721035D01*
X16821555Y-52001339D01*
X18534894Y-50288000D01*
X18983906Y-50288000D01*
X20697245Y-52001339D01*
X21001886Y-51721035D01*
X21238369Y-51256013D01*
X21379586Y-50753790D01*
X21420111Y-50233667D01*
X21358386Y-49715632D01*
X21196784Y-49219592D01*
X21001886Y-48854965D01*
X20697245Y-48574661D01*
X18983906Y-50288000D01*
X18534894Y-50288000D01*
X16821555Y-48574661D01*
X16516914Y-48854965D01*
X16280431Y-49319987D01*
X16139214Y-49822210D01*
X16098689Y-50342333D01*
X16088215Y-50342333D01*
X16082864Y-50291431D01*
X16082850Y-50287447D01*
X16082850Y-48350155D01*
X17046061Y-48350155D01*
X18759400Y-50063494D01*
X20472739Y-48350155D01*
X20192435Y-48045514D01*
X19727413Y-47809031D01*
X19225190Y-47667814D01*
X18705067Y-47627289D01*
X18187032Y-47689014D01*
X17690992Y-47850616D01*
X17326365Y-48045514D01*
X17046061Y-48350155D01*
X16082850Y-48350155D01*
X16082850Y-37084000D01*
X17758892Y-37084000D01*
X17760951Y-37104904D01*
X17760950Y-44810106D01*
X17758892Y-44831000D01*
X17760950Y-44851894D01*
X17760950Y-44851895D01*
X17767106Y-44914402D01*
X17791434Y-44994599D01*
X17830940Y-45068510D01*
X17884106Y-45133294D01*
X17900345Y-45146621D01*
X24474788Y-51721066D01*
X24488106Y-51737294D01*
X24504334Y-51750612D01*
X24504336Y-51750614D01*
X24552888Y-51790460D01*
X24592394Y-51811576D01*
X24626800Y-51829966D01*
X24706997Y-51854294D01*
X24769504Y-51860450D01*
X24769505Y-51860450D01*
X24790399Y-51862508D01*
X24811293Y-51860450D01*
X34294506Y-51860450D01*
X34315400Y-51862508D01*
X34336294Y-51860450D01*
X34336296Y-51860450D01*
X34398803Y-51854294D01*
X34479000Y-51829966D01*
X34552911Y-51790460D01*
X34617694Y-51737294D01*
X34631021Y-51721055D01*
X36009743Y-50342333D01*
X40098689Y-50342333D01*
X40160414Y-50860368D01*
X40322016Y-51356408D01*
X40516914Y-51721035D01*
X40821555Y-52001339D01*
X42534894Y-50288000D01*
X42983906Y-50288000D01*
X44697245Y-52001339D01*
X45001886Y-51721035D01*
X45238369Y-51256013D01*
X45379586Y-50753790D01*
X45420111Y-50233667D01*
X45358386Y-49715632D01*
X45196784Y-49219592D01*
X45001886Y-48854965D01*
X44697245Y-48574661D01*
X42983906Y-50288000D01*
X42534894Y-50288000D01*
X40821555Y-48574661D01*
X40516914Y-48854965D01*
X40280431Y-49319987D01*
X40139214Y-49822210D01*
X40098689Y-50342333D01*
X36009743Y-50342333D01*
X38001921Y-48350155D01*
X41046061Y-48350155D01*
X42759400Y-50063494D01*
X44472739Y-48350155D01*
X44192435Y-48045514D01*
X43727413Y-47809031D01*
X43225190Y-47667814D01*
X42705067Y-47627289D01*
X42187032Y-47689014D01*
X41690992Y-47850616D01*
X41326365Y-48045514D01*
X41046061Y-48350155D01*
X38001921Y-48350155D01*
X41840461Y-44511616D01*
X41856694Y-44498294D01*
X41909860Y-44433511D01*
X41949366Y-44359600D01*
X41973694Y-44279403D01*
X41979850Y-44216896D01*
X41979850Y-44216894D01*
X41981908Y-44196000D01*
X41979850Y-44175106D01*
X41979850Y-41068743D01*
X41999636Y-41055522D01*
X42096922Y-40958236D01*
X42173359Y-40843840D01*
X42226009Y-40716730D01*
X42252850Y-40581791D01*
X42252850Y-40444209D01*
X42226009Y-40309270D01*
X42173359Y-40182160D01*
X42096922Y-40067764D01*
X41999636Y-39970478D01*
X41885240Y-39894041D01*
X41758130Y-39841391D01*
X41623191Y-39814550D01*
X41485609Y-39814550D01*
X41350670Y-39841391D01*
X41223560Y-39894041D01*
X41109164Y-39970478D01*
X41011878Y-40067764D01*
X40935441Y-40182160D01*
X40882791Y-40309270D01*
X40855950Y-40444209D01*
X40855950Y-40581791D01*
X40882791Y-40716730D01*
X40935441Y-40843840D01*
X41011878Y-40958236D01*
X41109164Y-41055522D01*
X41128950Y-41068743D01*
X41128951Y-44019772D01*
X34139174Y-51009550D01*
X24966628Y-51009550D01*
X23926287Y-49969209D01*
X32092946Y-49969209D01*
X32092946Y-50106791D01*
X32119787Y-50241730D01*
X32172437Y-50368840D01*
X32248874Y-50483236D01*
X32346160Y-50580522D01*
X32460556Y-50656959D01*
X32587666Y-50709609D01*
X32722605Y-50736450D01*
X32860187Y-50736450D01*
X32995126Y-50709609D01*
X33122236Y-50656959D01*
X33221774Y-50590450D01*
X33780269Y-50590450D01*
X33807400Y-50593122D01*
X33834531Y-50590450D01*
X33834538Y-50590450D01*
X33915699Y-50582456D01*
X34019836Y-50550867D01*
X34115810Y-50499568D01*
X34199931Y-50430531D01*
X34217236Y-50409445D01*
X39082851Y-45543831D01*
X39103931Y-45526531D01*
X39172968Y-45442410D01*
X39224267Y-45346436D01*
X39254668Y-45246215D01*
X39255856Y-45242300D01*
X39259896Y-45201282D01*
X39263850Y-45161138D01*
X39263850Y-45161132D01*
X39266522Y-45134001D01*
X39263850Y-45106870D01*
X39263850Y-38006894D01*
X40461400Y-38006894D01*
X40519906Y-38001132D01*
X40576164Y-37984066D01*
X40628012Y-37956353D01*
X40673457Y-37919057D01*
X40710753Y-37873612D01*
X40738466Y-37821764D01*
X40755532Y-37765506D01*
X40761294Y-37707000D01*
X40761294Y-36207000D01*
X40755532Y-36148494D01*
X40738466Y-36092236D01*
X40710753Y-36040388D01*
X40673457Y-35994943D01*
X40628012Y-35957647D01*
X40576164Y-35929934D01*
X40519906Y-35912868D01*
X40461400Y-35907106D01*
X36961400Y-35907106D01*
X36902894Y-35912868D01*
X36846636Y-35929934D01*
X36794788Y-35957647D01*
X36749343Y-35994943D01*
X36712047Y-36040388D01*
X36684334Y-36092236D01*
X36667268Y-36148494D01*
X36661506Y-36207000D01*
X36661506Y-37707000D01*
X36667268Y-37765506D01*
X36684334Y-37821764D01*
X36712047Y-37873612D01*
X36749343Y-37919057D01*
X36794788Y-37956353D01*
X36846636Y-37984066D01*
X36902894Y-38001132D01*
X36961400Y-38006894D01*
X38158950Y-38006894D01*
X38158951Y-44905167D01*
X33578569Y-49485550D01*
X33221774Y-49485550D01*
X33122236Y-49419041D01*
X32995126Y-49366391D01*
X32860187Y-49339550D01*
X32722605Y-49339550D01*
X32587666Y-49366391D01*
X32460556Y-49419041D01*
X32346160Y-49495478D01*
X32248874Y-49592764D01*
X32172437Y-49707160D01*
X32119787Y-49834270D01*
X32092946Y-49969209D01*
X23926287Y-49969209D01*
X18611850Y-44654774D01*
X18611850Y-37260226D01*
X21774467Y-34097611D01*
X21790694Y-34084294D01*
X21843860Y-34019511D01*
X21883366Y-33945600D01*
X21907694Y-33865403D01*
X21911020Y-33831634D01*
X21933636Y-33816522D01*
X22030922Y-33719236D01*
X22107359Y-33604840D01*
X22160009Y-33477730D01*
X22186850Y-33342791D01*
X22186850Y-33205209D01*
X22160009Y-33070270D01*
X22107359Y-32943160D01*
X22030922Y-32828764D01*
X21933636Y-32731478D01*
X21819240Y-32655041D01*
X21692130Y-32602391D01*
X21557191Y-32575550D01*
X21419609Y-32575550D01*
X21284670Y-32602391D01*
X21157560Y-32655041D01*
X21043164Y-32731478D01*
X20945878Y-32828764D01*
X20869441Y-32943160D01*
X20816791Y-33070270D01*
X20789950Y-33205209D01*
X20789950Y-33342791D01*
X20816791Y-33477730D01*
X20869441Y-33604840D01*
X20945878Y-33719236D01*
X20947682Y-33721040D01*
X17900340Y-36768384D01*
X17884107Y-36781706D01*
X17870786Y-36797938D01*
X17830940Y-36846490D01*
X17791435Y-36920400D01*
X17767107Y-37000598D01*
X17758892Y-37084000D01*
X16082850Y-37084000D01*
X16082850Y-27744209D01*
X18186450Y-27744209D01*
X18186450Y-27881791D01*
X18213291Y-28016730D01*
X18265941Y-28143840D01*
X18342378Y-28258236D01*
X18439664Y-28355522D01*
X18554060Y-28431959D01*
X18681170Y-28484609D01*
X18798583Y-28507964D01*
X22840951Y-32550333D01*
X22840950Y-34442168D01*
X22037083Y-35246036D01*
X21919670Y-35269391D01*
X21792560Y-35322041D01*
X21678164Y-35398478D01*
X21580878Y-35495764D01*
X21504441Y-35610160D01*
X21451791Y-35737270D01*
X21424950Y-35872209D01*
X21424950Y-36009791D01*
X21451791Y-36144730D01*
X21504441Y-36271840D01*
X21580878Y-36386236D01*
X21678164Y-36483522D01*
X21792560Y-36559959D01*
X21919670Y-36612609D01*
X22054609Y-36639450D01*
X22192191Y-36639450D01*
X22327130Y-36612609D01*
X22454240Y-36559959D01*
X22553778Y-36493450D01*
X25652269Y-36493450D01*
X25679400Y-36496122D01*
X25706531Y-36493450D01*
X25706538Y-36493450D01*
X25787699Y-36485456D01*
X25891836Y-36453867D01*
X25987810Y-36402568D01*
X26071931Y-36333531D01*
X26089236Y-36312445D01*
X27924718Y-34476964D01*
X28042130Y-34453609D01*
X28169240Y-34400959D01*
X28283636Y-34324522D01*
X28380922Y-34227236D01*
X28457359Y-34112840D01*
X28510009Y-33985730D01*
X28536850Y-33850791D01*
X28536850Y-33713209D01*
X28510009Y-33578270D01*
X28457359Y-33451160D01*
X28380922Y-33336764D01*
X28283636Y-33239478D01*
X28169240Y-33163041D01*
X28042130Y-33110391D01*
X27907191Y-33083550D01*
X27769609Y-33083550D01*
X27634670Y-33110391D01*
X27507560Y-33163041D01*
X27393164Y-33239478D01*
X27295878Y-33336764D01*
X27219441Y-33451160D01*
X27166791Y-33578270D01*
X27143436Y-33695682D01*
X25450569Y-35388550D01*
X23457132Y-35388550D01*
X23764850Y-35080832D01*
X23785931Y-35063531D01*
X23854968Y-34979410D01*
X23906267Y-34883436D01*
X23937856Y-34779299D01*
X23945850Y-34698138D01*
X23945850Y-34698132D01*
X23948522Y-34671001D01*
X23945850Y-34643870D01*
X23945850Y-32697209D01*
X29559350Y-32697209D01*
X29559350Y-32834791D01*
X29586191Y-32969730D01*
X29638841Y-33096840D01*
X29715278Y-33211236D01*
X29812564Y-33308522D01*
X29926960Y-33384959D01*
X30054070Y-33437609D01*
X30168850Y-33460440D01*
X30168851Y-44771560D01*
X30054070Y-44794391D01*
X29926960Y-44847041D01*
X29812564Y-44923478D01*
X29715278Y-45020764D01*
X29638841Y-45135160D01*
X29586191Y-45262270D01*
X29559350Y-45397209D01*
X29559350Y-45534791D01*
X29586191Y-45669730D01*
X29638841Y-45796840D01*
X29715278Y-45911236D01*
X29812564Y-46008522D01*
X29926960Y-46084959D01*
X30054070Y-46137609D01*
X30189009Y-46164450D01*
X30326591Y-46164450D01*
X30461530Y-46137609D01*
X30588640Y-46084959D01*
X30703036Y-46008522D01*
X30759400Y-45952158D01*
X30815764Y-46008522D01*
X30930160Y-46084959D01*
X31057270Y-46137609D01*
X31192209Y-46164450D01*
X31329791Y-46164450D01*
X31464730Y-46137609D01*
X31591840Y-46084959D01*
X31706236Y-46008522D01*
X31803522Y-45911236D01*
X31879959Y-45796840D01*
X31932609Y-45669730D01*
X31959450Y-45534791D01*
X31959450Y-45397209D01*
X31932609Y-45262270D01*
X31879959Y-45135160D01*
X31803522Y-45020764D01*
X31706236Y-44923478D01*
X31591840Y-44847041D01*
X31464730Y-44794391D01*
X31349950Y-44771560D01*
X31349950Y-33460440D01*
X31464730Y-33437609D01*
X31591840Y-33384959D01*
X31706236Y-33308522D01*
X31803522Y-33211236D01*
X31879959Y-33096840D01*
X31932609Y-32969730D01*
X31959450Y-32834791D01*
X31959450Y-32697209D01*
X31932609Y-32562270D01*
X31879959Y-32435160D01*
X31803522Y-32320764D01*
X31706236Y-32223478D01*
X31591840Y-32147041D01*
X31464730Y-32094391D01*
X31329791Y-32067550D01*
X31192209Y-32067550D01*
X31057270Y-32094391D01*
X30930160Y-32147041D01*
X30815764Y-32223478D01*
X30759400Y-32279842D01*
X30703036Y-32223478D01*
X30588640Y-32147041D01*
X30461530Y-32094391D01*
X30326591Y-32067550D01*
X30189009Y-32067550D01*
X30054070Y-32094391D01*
X29926960Y-32147041D01*
X29812564Y-32223478D01*
X29715278Y-32320764D01*
X29638841Y-32435160D01*
X29586191Y-32562270D01*
X29559350Y-32697209D01*
X23945850Y-32697209D01*
X23945850Y-32348631D01*
X23948522Y-32321500D01*
X23945850Y-32294369D01*
X23945850Y-32294362D01*
X23937856Y-32213201D01*
X23906267Y-32109064D01*
X23854968Y-32013090D01*
X23785931Y-31928969D01*
X23764851Y-31911669D01*
X19579864Y-27726683D01*
X19556509Y-27609270D01*
X19503859Y-27482160D01*
X19427422Y-27367764D01*
X19330136Y-27270478D01*
X19215740Y-27194041D01*
X19088630Y-27141391D01*
X18953691Y-27114550D01*
X18816109Y-27114550D01*
X18681170Y-27141391D01*
X18554060Y-27194041D01*
X18439664Y-27270478D01*
X18342378Y-27367764D01*
X18265941Y-27482160D01*
X18213291Y-27609270D01*
X18186450Y-27744209D01*
X16082850Y-27744209D01*
X16082850Y-24225845D01*
X17046061Y-24225845D01*
X17326365Y-24530486D01*
X17791387Y-24766969D01*
X18293610Y-24908186D01*
X18813733Y-24948711D01*
X19331768Y-24886986D01*
X19827808Y-24725384D01*
X20192435Y-24530486D01*
X20472739Y-24225845D01*
X18759400Y-22512506D01*
X17046061Y-24225845D01*
X16082850Y-24225845D01*
X16082850Y-22342333D01*
X16098689Y-22342333D01*
X16160414Y-22860368D01*
X16322016Y-23356408D01*
X16516914Y-23721035D01*
X16821555Y-24001339D01*
X18534894Y-22288000D01*
X18983906Y-22288000D01*
X20697245Y-24001339D01*
X21001886Y-23721035D01*
X21238369Y-23256013D01*
X21379586Y-22753790D01*
X21420111Y-22233667D01*
X21358386Y-21715632D01*
X21196784Y-21219592D01*
X21001886Y-20854965D01*
X20697245Y-20574661D01*
X18983906Y-22288000D01*
X18534894Y-22288000D01*
X16821555Y-20574661D01*
X16516914Y-20854965D01*
X16280431Y-21319987D01*
X16139214Y-21822210D01*
X16098689Y-22342333D01*
X16082850Y-22342333D01*
X16082850Y-22303816D01*
X16135346Y-21768424D01*
X16286240Y-21268639D01*
X16531337Y-20807678D01*
X16861301Y-20403102D01*
X16925302Y-20350155D01*
X17046061Y-20350155D01*
X18759400Y-22063494D01*
X20472739Y-20350155D01*
X20192435Y-20045514D01*
X19727413Y-19809031D01*
X19225190Y-19667814D01*
X18705067Y-19627289D01*
X18187032Y-19689014D01*
X17690992Y-19850616D01*
X17326365Y-20045514D01*
X17046061Y-20350155D01*
X16925302Y-20350155D01*
X17263557Y-20070327D01*
X17722796Y-19822018D01*
X18221519Y-19667637D01*
X18755968Y-19611464D01*
X18759953Y-19611450D01*
X22840950Y-19611450D01*
X22840950Y-26720800D01*
G37*
X22840950Y-26720800D02*
X22846685Y-26779025D01*
X22863668Y-26835012D01*
X22891248Y-26886610D01*
X22928364Y-26931836D01*
X23131564Y-27135036D01*
X23176790Y-27172152D01*
X23228388Y-27199732D01*
X23284375Y-27216715D01*
X23342600Y-27222450D01*
X27713633Y-27222450D01*
X27690441Y-27257160D01*
X27637791Y-27384270D01*
X27610950Y-27519209D01*
X27610950Y-27656791D01*
X27637791Y-27791730D01*
X27690441Y-27918840D01*
X27766878Y-28033236D01*
X27864164Y-28130522D01*
X27978560Y-28206959D01*
X28105670Y-28259609D01*
X28240609Y-28286450D01*
X28378191Y-28286450D01*
X28513130Y-28259609D01*
X28640240Y-28206959D01*
X28739778Y-28140450D01*
X32779022Y-28140450D01*
X32878560Y-28206959D01*
X33005670Y-28259609D01*
X33140609Y-28286450D01*
X33278191Y-28286450D01*
X33413130Y-28259609D01*
X33540240Y-28206959D01*
X33654636Y-28130522D01*
X33751922Y-28033236D01*
X33828359Y-27918840D01*
X33881009Y-27791730D01*
X33907850Y-27656791D01*
X33907850Y-27519209D01*
X33881009Y-27384270D01*
X33828359Y-27257160D01*
X33805167Y-27222450D01*
X35579862Y-27222450D01*
X35576047Y-27228160D01*
X35523397Y-27355270D01*
X35496556Y-27490209D01*
X35496556Y-27627791D01*
X35501198Y-27651130D01*
X32886340Y-30265990D01*
X32870107Y-30279312D01*
X32856786Y-30295544D01*
X32816940Y-30344096D01*
X32777435Y-30418006D01*
X32753107Y-30498204D01*
X32744892Y-30581606D01*
X32746951Y-30602510D01*
X32746950Y-46178772D01*
X31726174Y-47199550D01*
X28903627Y-47199550D01*
X22040850Y-40336774D01*
X22040850Y-39163743D01*
X22060636Y-39150522D01*
X22157922Y-39053236D01*
X22234359Y-38938840D01*
X22287009Y-38811730D01*
X22313850Y-38676791D01*
X22313850Y-38539209D01*
X22287009Y-38404270D01*
X22234359Y-38277160D01*
X22157922Y-38162764D01*
X22060636Y-38065478D01*
X21946240Y-37989041D01*
X21819130Y-37936391D01*
X21684191Y-37909550D01*
X21546609Y-37909550D01*
X21411670Y-37936391D01*
X21284560Y-37989041D01*
X21170164Y-38065478D01*
X21072878Y-38162764D01*
X20996441Y-38277160D01*
X20943791Y-38404270D01*
X20916950Y-38539209D01*
X20916950Y-38676791D01*
X20943791Y-38811730D01*
X20996441Y-38938840D01*
X21072878Y-39053236D01*
X21170164Y-39150522D01*
X21189950Y-39163743D01*
X21189951Y-40492096D01*
X21187892Y-40513000D01*
X21194668Y-40581791D01*
X21196107Y-40596403D01*
X21220435Y-40676600D01*
X21259941Y-40750511D01*
X21313107Y-40815294D01*
X21329340Y-40828616D01*
X28411784Y-47911061D01*
X28425106Y-47927294D01*
X28489889Y-47980460D01*
X28563800Y-48019966D01*
X28643997Y-48044294D01*
X28706504Y-48050450D01*
X28706506Y-48050450D01*
X28727400Y-48052508D01*
X28748294Y-48050450D01*
X31881506Y-48050450D01*
X31902400Y-48052508D01*
X31923294Y-48050450D01*
X31923296Y-48050450D01*
X31985803Y-48044294D01*
X32066000Y-48019966D01*
X32139911Y-47980460D01*
X32204694Y-47927294D01*
X32218021Y-47911055D01*
X33458467Y-46670611D01*
X33474694Y-46657294D01*
X33488025Y-46641051D01*
X33527860Y-46592511D01*
X33567365Y-46518601D01*
X33567366Y-46518600D01*
X33591694Y-46438403D01*
X33597850Y-46375896D01*
X33597850Y-46375895D01*
X33599908Y-46355001D01*
X33597850Y-46334107D01*
X33597850Y-36048153D01*
X33603546Y-36051959D01*
X33730656Y-36104609D01*
X33865595Y-36131450D01*
X34003177Y-36131450D01*
X34138116Y-36104609D01*
X34265226Y-36051959D01*
X34379622Y-35975522D01*
X34476908Y-35878236D01*
X34553345Y-35763840D01*
X34605995Y-35636730D01*
X34632836Y-35501791D01*
X34632836Y-35364209D01*
X34605995Y-35229270D01*
X34553345Y-35102160D01*
X34476908Y-34987764D01*
X34379622Y-34890478D01*
X34359836Y-34877257D01*
X34359836Y-32434240D01*
X37271269Y-29522807D01*
X37294609Y-29527450D01*
X37432191Y-29527450D01*
X37501964Y-29513571D01*
X35045345Y-31970192D01*
X35029106Y-31983519D01*
X34975940Y-32048303D01*
X34936434Y-32122214D01*
X34912106Y-32202411D01*
X34908688Y-32237118D01*
X34903892Y-32285813D01*
X34905950Y-32306707D01*
X34905951Y-46178760D01*
X34280531Y-46804181D01*
X34257191Y-46799538D01*
X34119609Y-46799538D01*
X33984670Y-46826379D01*
X33857560Y-46879029D01*
X33743164Y-46955466D01*
X33645878Y-47052752D01*
X33569441Y-47167148D01*
X33516791Y-47294258D01*
X33489950Y-47429197D01*
X33489950Y-47566779D01*
X33494592Y-47590118D01*
X32742162Y-48342550D01*
X25474627Y-48342550D01*
X20008850Y-42876774D01*
X20008850Y-38401743D01*
X20028636Y-38388522D01*
X20125922Y-38291236D01*
X20202359Y-38176840D01*
X20255009Y-38049730D01*
X20281850Y-37914791D01*
X20281850Y-37777209D01*
X20255009Y-37642270D01*
X20202359Y-37515160D01*
X20125922Y-37400764D01*
X20028636Y-37303478D01*
X19914240Y-37227041D01*
X19787130Y-37174391D01*
X19652191Y-37147550D01*
X19514609Y-37147550D01*
X19379670Y-37174391D01*
X19252560Y-37227041D01*
X19138164Y-37303478D01*
X19040878Y-37400764D01*
X18964441Y-37515160D01*
X18911791Y-37642270D01*
X18884950Y-37777209D01*
X18884950Y-37914791D01*
X18911791Y-38049730D01*
X18964441Y-38176840D01*
X19040878Y-38291236D01*
X19138164Y-38388522D01*
X19157950Y-38401743D01*
X19157951Y-43032096D01*
X19155892Y-43053000D01*
X19163407Y-43129300D01*
X19164107Y-43136403D01*
X19188435Y-43216600D01*
X19227941Y-43290511D01*
X19281107Y-43355294D01*
X19297340Y-43368616D01*
X24982784Y-49054061D01*
X24996106Y-49070294D01*
X25060889Y-49123460D01*
X25134799Y-49162966D01*
X25214997Y-49187294D01*
X25298400Y-49195508D01*
X25319296Y-49193450D01*
X32897494Y-49193450D01*
X32918388Y-49195508D01*
X32939282Y-49193450D01*
X32939284Y-49193450D01*
X33001791Y-49187294D01*
X33081988Y-49162966D01*
X33155899Y-49123460D01*
X33220682Y-49070294D01*
X33234009Y-49054055D01*
X34096270Y-48191796D01*
X34119609Y-48196438D01*
X34257191Y-48196438D01*
X34392130Y-48169597D01*
X34519240Y-48116947D01*
X34633636Y-48040510D01*
X34730922Y-47943224D01*
X34807359Y-47828828D01*
X34860009Y-47701718D01*
X34886850Y-47566779D01*
X34886850Y-47429197D01*
X34882207Y-47405857D01*
X35617460Y-46670605D01*
X35633694Y-46657282D01*
X35686860Y-46592499D01*
X35726366Y-46518588D01*
X35750694Y-46438391D01*
X35756850Y-46375884D01*
X35756850Y-46375883D01*
X35758908Y-46354989D01*
X35756850Y-46334095D01*
X35756850Y-33667000D01*
X40061506Y-33667000D01*
X40061506Y-35167000D01*
X40067268Y-35225506D01*
X40084334Y-35281764D01*
X40112047Y-35333612D01*
X40149343Y-35379057D01*
X40194788Y-35416353D01*
X40246636Y-35444066D01*
X40302894Y-35461132D01*
X40361400Y-35466894D01*
X41890950Y-35466894D01*
X41890951Y-38431621D01*
X41824441Y-38531160D01*
X41771791Y-38658270D01*
X41744950Y-38793209D01*
X41744950Y-38930791D01*
X41771791Y-39065730D01*
X41824441Y-39192840D01*
X41900878Y-39307236D01*
X41998164Y-39404522D01*
X42112560Y-39480959D01*
X42239670Y-39533609D01*
X42374609Y-39560450D01*
X42512191Y-39560450D01*
X42647130Y-39533609D01*
X42774240Y-39480959D01*
X42888636Y-39404522D01*
X42985922Y-39307236D01*
X43062359Y-39192840D01*
X43115009Y-39065730D01*
X43141850Y-38930791D01*
X43141850Y-38793209D01*
X43115009Y-38658270D01*
X43062359Y-38531160D01*
X42995850Y-38431622D01*
X42995850Y-35466894D01*
X43861400Y-35466894D01*
X43919906Y-35461132D01*
X43976164Y-35444066D01*
X44028012Y-35416353D01*
X44073457Y-35379057D01*
X44110753Y-35333612D01*
X44138466Y-35281764D01*
X44155532Y-35225506D01*
X44161294Y-35167000D01*
X44161294Y-33667000D01*
X44155532Y-33608494D01*
X44138466Y-33552236D01*
X44110753Y-33500388D01*
X44073457Y-33454943D01*
X44028012Y-33417647D01*
X43976164Y-33389934D01*
X43919906Y-33372868D01*
X43861400Y-33367106D01*
X40361400Y-33367106D01*
X40302894Y-33372868D01*
X40246636Y-33389934D01*
X40194788Y-33417647D01*
X40149343Y-33454943D01*
X40112047Y-33500388D01*
X40084334Y-33552236D01*
X40067268Y-33608494D01*
X40061506Y-33667000D01*
X35756850Y-33667000D01*
X35756850Y-32462039D01*
X36661506Y-31557384D01*
X36661506Y-32627000D01*
X36667268Y-32685506D01*
X36684334Y-32741764D01*
X36712047Y-32793612D01*
X36749343Y-32839057D01*
X36794788Y-32876353D01*
X36846636Y-32904066D01*
X36902894Y-32921132D01*
X36961400Y-32926894D01*
X40461400Y-32926894D01*
X40519906Y-32921132D01*
X40576164Y-32904066D01*
X40628012Y-32876353D01*
X40673457Y-32839057D01*
X40710753Y-32793612D01*
X40738466Y-32741764D01*
X40755532Y-32685506D01*
X40761294Y-32627000D01*
X40761294Y-31127000D01*
X40755532Y-31068494D01*
X40738466Y-31012236D01*
X40710753Y-30960388D01*
X40673457Y-30914943D01*
X40628012Y-30877647D01*
X40576164Y-30849934D01*
X40519906Y-30832868D01*
X40461400Y-30827106D01*
X37391784Y-30827106D01*
X38691441Y-29527450D01*
X38702191Y-29527450D01*
X38837130Y-29500609D01*
X38964240Y-29447959D01*
X39078636Y-29371522D01*
X39175922Y-29274236D01*
X39252359Y-29159840D01*
X39305009Y-29032730D01*
X39331850Y-28897791D01*
X39331850Y-28760209D01*
X39305009Y-28625270D01*
X39252359Y-28498160D01*
X39175922Y-28383764D01*
X39078636Y-28286478D01*
X38964240Y-28210041D01*
X38837130Y-28157391D01*
X38702191Y-28130550D01*
X38564609Y-28130550D01*
X38429670Y-28157391D01*
X38302560Y-28210041D01*
X38188164Y-28286478D01*
X38090878Y-28383764D01*
X38014441Y-28498160D01*
X37998400Y-28536887D01*
X37982359Y-28498160D01*
X37905922Y-28383764D01*
X37808636Y-28286478D01*
X37694240Y-28210041D01*
X37567130Y-28157391D01*
X37432191Y-28130550D01*
X37294609Y-28130550D01*
X37159670Y-28157391D01*
X37032560Y-28210041D01*
X36918164Y-28286478D01*
X36820878Y-28383764D01*
X36744441Y-28498160D01*
X36691791Y-28625270D01*
X36664950Y-28760209D01*
X36664950Y-28897791D01*
X36669593Y-28921131D01*
X33648331Y-31942393D01*
X33632092Y-31955720D01*
X33597850Y-31997445D01*
X33597850Y-30757832D01*
X36102876Y-28252808D01*
X36126215Y-28257450D01*
X36263797Y-28257450D01*
X36398736Y-28230609D01*
X36525846Y-28177959D01*
X36640242Y-28101522D01*
X36737528Y-28004236D01*
X36813965Y-27889840D01*
X36866615Y-27762730D01*
X36893456Y-27627791D01*
X36893456Y-27490209D01*
X36866615Y-27355270D01*
X36813965Y-27228160D01*
X36810150Y-27222450D01*
X38176200Y-27222450D01*
X38234425Y-27216715D01*
X38290412Y-27199732D01*
X38342010Y-27172152D01*
X38387236Y-27135036D01*
X38590436Y-26931836D01*
X38627552Y-26886610D01*
X38655132Y-26835012D01*
X38672115Y-26779025D01*
X38677850Y-26720800D01*
X38677850Y-24225845D01*
X41046061Y-24225845D01*
X41326365Y-24530486D01*
X41791387Y-24766969D01*
X42293610Y-24908186D01*
X42813733Y-24948711D01*
X43331768Y-24886986D01*
X43827808Y-24725384D01*
X44192435Y-24530486D01*
X44472739Y-24225845D01*
X42759400Y-22512506D01*
X41046061Y-24225845D01*
X38677850Y-24225845D01*
X38677850Y-22342333D01*
X40098689Y-22342333D01*
X40160414Y-22860368D01*
X40322016Y-23356408D01*
X40516914Y-23721035D01*
X40821555Y-24001339D01*
X42534894Y-22288000D01*
X42983906Y-22288000D01*
X44697245Y-24001339D01*
X45001886Y-23721035D01*
X45238369Y-23256013D01*
X45379586Y-22753790D01*
X45420111Y-22233667D01*
X45358386Y-21715632D01*
X45196784Y-21219592D01*
X45001886Y-20854965D01*
X44697245Y-20574661D01*
X42983906Y-22288000D01*
X42534894Y-22288000D01*
X40821555Y-20574661D01*
X40516914Y-20854965D01*
X40280431Y-21319987D01*
X40139214Y-21822210D01*
X40098689Y-22342333D01*
X38677850Y-22342333D01*
X38677850Y-20350155D01*
X41046061Y-20350155D01*
X42759400Y-22063494D01*
X44472739Y-20350155D01*
X44192435Y-20045514D01*
X43727413Y-19809031D01*
X43225190Y-19667814D01*
X42705067Y-19627289D01*
X42187032Y-19689014D01*
X41690992Y-19850616D01*
X41326365Y-20045514D01*
X41046061Y-20350155D01*
X38677850Y-20350155D01*
X38677850Y-19611450D01*
X42743584Y-19611450D01*
X43278976Y-19663946D01*
X43778761Y-19814840D01*
X44239722Y-20059937D01*
X44644298Y-20389901D01*
X44977073Y-20792157D01*
X45225382Y-21251396D01*
X45379763Y-21750119D01*
X45435936Y-22284568D01*
X45435951Y-22288840D01*
X45435950Y-50272184D01*
X45383454Y-50807575D01*
X45232559Y-51307363D01*
X44987462Y-51768325D01*
X44657499Y-52172898D01*
X44255240Y-52505676D01*
X43796004Y-52753982D01*
X43297282Y-52908363D01*
X42762831Y-52964536D01*
X42758847Y-52964550D01*
X18775216Y-52964550D01*
X18239825Y-52912054D01*
X17740037Y-52761159D01*
X17279075Y-52516062D01*
X16923236Y-52225845D01*
X17046061Y-52225845D01*
X17326365Y-52530486D01*
X17791387Y-52766969D01*
X18293610Y-52908186D01*
X18813733Y-52948711D01*
X19331768Y-52886986D01*
X19827808Y-52725384D01*
X20192435Y-52530486D01*
X20472739Y-52225845D01*
X41046061Y-52225845D01*
X41326365Y-52530486D01*
X41791387Y-52766969D01*
X42293610Y-52908186D01*
X42813733Y-52948711D01*
X43331768Y-52886986D01*
X43827808Y-52725384D01*
X44192435Y-52530486D01*
X44472739Y-52225845D01*
X42759400Y-50512506D01*
X41046061Y-52225845D01*
X20472739Y-52225845D01*
X18759400Y-50512506D01*
X17046061Y-52225845D01*
X16923236Y-52225845D01*
X16874502Y-52186099D01*
X16541724Y-51783840D01*
X16293418Y-51324604D01*
X16139037Y-50825882D01*
X16088215Y-50342333D01*
X16098689Y-50342333D01*
X16160414Y-50860368D01*
X16322016Y-51356408D01*
X16516914Y-51721035D01*
X16821555Y-52001339D01*
X18534894Y-50288000D01*
X18983906Y-50288000D01*
X20697245Y-52001339D01*
X21001886Y-51721035D01*
X21238369Y-51256013D01*
X21379586Y-50753790D01*
X21420111Y-50233667D01*
X21358386Y-49715632D01*
X21196784Y-49219592D01*
X21001886Y-48854965D01*
X20697245Y-48574661D01*
X18983906Y-50288000D01*
X18534894Y-50288000D01*
X16821555Y-48574661D01*
X16516914Y-48854965D01*
X16280431Y-49319987D01*
X16139214Y-49822210D01*
X16098689Y-50342333D01*
X16088215Y-50342333D01*
X16082864Y-50291431D01*
X16082850Y-50287447D01*
X16082850Y-48350155D01*
X17046061Y-48350155D01*
X18759400Y-50063494D01*
X20472739Y-48350155D01*
X20192435Y-48045514D01*
X19727413Y-47809031D01*
X19225190Y-47667814D01*
X18705067Y-47627289D01*
X18187032Y-47689014D01*
X17690992Y-47850616D01*
X17326365Y-48045514D01*
X17046061Y-48350155D01*
X16082850Y-48350155D01*
X16082850Y-37084000D01*
X17758892Y-37084000D01*
X17760951Y-37104904D01*
X17760950Y-44810106D01*
X17758892Y-44831000D01*
X17760950Y-44851894D01*
X17760950Y-44851895D01*
X17767106Y-44914402D01*
X17791434Y-44994599D01*
X17830940Y-45068510D01*
X17884106Y-45133294D01*
X17900345Y-45146621D01*
X24474788Y-51721066D01*
X24488106Y-51737294D01*
X24504334Y-51750612D01*
X24504336Y-51750614D01*
X24552888Y-51790460D01*
X24592394Y-51811576D01*
X24626800Y-51829966D01*
X24706997Y-51854294D01*
X24769504Y-51860450D01*
X24769505Y-51860450D01*
X24790399Y-51862508D01*
X24811293Y-51860450D01*
X34294506Y-51860450D01*
X34315400Y-51862508D01*
X34336294Y-51860450D01*
X34336296Y-51860450D01*
X34398803Y-51854294D01*
X34479000Y-51829966D01*
X34552911Y-51790460D01*
X34617694Y-51737294D01*
X34631021Y-51721055D01*
X36009743Y-50342333D01*
X40098689Y-50342333D01*
X40160414Y-50860368D01*
X40322016Y-51356408D01*
X40516914Y-51721035D01*
X40821555Y-52001339D01*
X42534894Y-50288000D01*
X42983906Y-50288000D01*
X44697245Y-52001339D01*
X45001886Y-51721035D01*
X45238369Y-51256013D01*
X45379586Y-50753790D01*
X45420111Y-50233667D01*
X45358386Y-49715632D01*
X45196784Y-49219592D01*
X45001886Y-48854965D01*
X44697245Y-48574661D01*
X42983906Y-50288000D01*
X42534894Y-50288000D01*
X40821555Y-48574661D01*
X40516914Y-48854965D01*
X40280431Y-49319987D01*
X40139214Y-49822210D01*
X40098689Y-50342333D01*
X36009743Y-50342333D01*
X38001921Y-48350155D01*
X41046061Y-48350155D01*
X42759400Y-50063494D01*
X44472739Y-48350155D01*
X44192435Y-48045514D01*
X43727413Y-47809031D01*
X43225190Y-47667814D01*
X42705067Y-47627289D01*
X42187032Y-47689014D01*
X41690992Y-47850616D01*
X41326365Y-48045514D01*
X41046061Y-48350155D01*
X38001921Y-48350155D01*
X41840461Y-44511616D01*
X41856694Y-44498294D01*
X41909860Y-44433511D01*
X41949366Y-44359600D01*
X41973694Y-44279403D01*
X41979850Y-44216896D01*
X41979850Y-44216894D01*
X41981908Y-44196000D01*
X41979850Y-44175106D01*
X41979850Y-41068743D01*
X41999636Y-41055522D01*
X42096922Y-40958236D01*
X42173359Y-40843840D01*
X42226009Y-40716730D01*
X42252850Y-40581791D01*
X42252850Y-40444209D01*
X42226009Y-40309270D01*
X42173359Y-40182160D01*
X42096922Y-40067764D01*
X41999636Y-39970478D01*
X41885240Y-39894041D01*
X41758130Y-39841391D01*
X41623191Y-39814550D01*
X41485609Y-39814550D01*
X41350670Y-39841391D01*
X41223560Y-39894041D01*
X41109164Y-39970478D01*
X41011878Y-40067764D01*
X40935441Y-40182160D01*
X40882791Y-40309270D01*
X40855950Y-40444209D01*
X40855950Y-40581791D01*
X40882791Y-40716730D01*
X40935441Y-40843840D01*
X41011878Y-40958236D01*
X41109164Y-41055522D01*
X41128950Y-41068743D01*
X41128951Y-44019772D01*
X34139174Y-51009550D01*
X24966628Y-51009550D01*
X23926287Y-49969209D01*
X32092946Y-49969209D01*
X32092946Y-50106791D01*
X32119787Y-50241730D01*
X32172437Y-50368840D01*
X32248874Y-50483236D01*
X32346160Y-50580522D01*
X32460556Y-50656959D01*
X32587666Y-50709609D01*
X32722605Y-50736450D01*
X32860187Y-50736450D01*
X32995126Y-50709609D01*
X33122236Y-50656959D01*
X33221774Y-50590450D01*
X33780269Y-50590450D01*
X33807400Y-50593122D01*
X33834531Y-50590450D01*
X33834538Y-50590450D01*
X33915699Y-50582456D01*
X34019836Y-50550867D01*
X34115810Y-50499568D01*
X34199931Y-50430531D01*
X34217236Y-50409445D01*
X39082851Y-45543831D01*
X39103931Y-45526531D01*
X39172968Y-45442410D01*
X39224267Y-45346436D01*
X39254668Y-45246215D01*
X39255856Y-45242300D01*
X39259896Y-45201282D01*
X39263850Y-45161138D01*
X39263850Y-45161132D01*
X39266522Y-45134001D01*
X39263850Y-45106870D01*
X39263850Y-38006894D01*
X40461400Y-38006894D01*
X40519906Y-38001132D01*
X40576164Y-37984066D01*
X40628012Y-37956353D01*
X40673457Y-37919057D01*
X40710753Y-37873612D01*
X40738466Y-37821764D01*
X40755532Y-37765506D01*
X40761294Y-37707000D01*
X40761294Y-36207000D01*
X40755532Y-36148494D01*
X40738466Y-36092236D01*
X40710753Y-36040388D01*
X40673457Y-35994943D01*
X40628012Y-35957647D01*
X40576164Y-35929934D01*
X40519906Y-35912868D01*
X40461400Y-35907106D01*
X36961400Y-35907106D01*
X36902894Y-35912868D01*
X36846636Y-35929934D01*
X36794788Y-35957647D01*
X36749343Y-35994943D01*
X36712047Y-36040388D01*
X36684334Y-36092236D01*
X36667268Y-36148494D01*
X36661506Y-36207000D01*
X36661506Y-37707000D01*
X36667268Y-37765506D01*
X36684334Y-37821764D01*
X36712047Y-37873612D01*
X36749343Y-37919057D01*
X36794788Y-37956353D01*
X36846636Y-37984066D01*
X36902894Y-38001132D01*
X36961400Y-38006894D01*
X38158950Y-38006894D01*
X38158951Y-44905167D01*
X33578569Y-49485550D01*
X33221774Y-49485550D01*
X33122236Y-49419041D01*
X32995126Y-49366391D01*
X32860187Y-49339550D01*
X32722605Y-49339550D01*
X32587666Y-49366391D01*
X32460556Y-49419041D01*
X32346160Y-49495478D01*
X32248874Y-49592764D01*
X32172437Y-49707160D01*
X32119787Y-49834270D01*
X32092946Y-49969209D01*
X23926287Y-49969209D01*
X18611850Y-44654774D01*
X18611850Y-37260226D01*
X21774467Y-34097611D01*
X21790694Y-34084294D01*
X21843860Y-34019511D01*
X21883366Y-33945600D01*
X21907694Y-33865403D01*
X21911020Y-33831634D01*
X21933636Y-33816522D01*
X22030922Y-33719236D01*
X22107359Y-33604840D01*
X22160009Y-33477730D01*
X22186850Y-33342791D01*
X22186850Y-33205209D01*
X22160009Y-33070270D01*
X22107359Y-32943160D01*
X22030922Y-32828764D01*
X21933636Y-32731478D01*
X21819240Y-32655041D01*
X21692130Y-32602391D01*
X21557191Y-32575550D01*
X21419609Y-32575550D01*
X21284670Y-32602391D01*
X21157560Y-32655041D01*
X21043164Y-32731478D01*
X20945878Y-32828764D01*
X20869441Y-32943160D01*
X20816791Y-33070270D01*
X20789950Y-33205209D01*
X20789950Y-33342791D01*
X20816791Y-33477730D01*
X20869441Y-33604840D01*
X20945878Y-33719236D01*
X20947682Y-33721040D01*
X17900340Y-36768384D01*
X17884107Y-36781706D01*
X17870786Y-36797938D01*
X17830940Y-36846490D01*
X17791435Y-36920400D01*
X17767107Y-37000598D01*
X17758892Y-37084000D01*
X16082850Y-37084000D01*
X16082850Y-27744209D01*
X18186450Y-27744209D01*
X18186450Y-27881791D01*
X18213291Y-28016730D01*
X18265941Y-28143840D01*
X18342378Y-28258236D01*
X18439664Y-28355522D01*
X18554060Y-28431959D01*
X18681170Y-28484609D01*
X18798583Y-28507964D01*
X22840951Y-32550333D01*
X22840950Y-34442168D01*
X22037083Y-35246036D01*
X21919670Y-35269391D01*
X21792560Y-35322041D01*
X21678164Y-35398478D01*
X21580878Y-35495764D01*
X21504441Y-35610160D01*
X21451791Y-35737270D01*
X21424950Y-35872209D01*
X21424950Y-36009791D01*
X21451791Y-36144730D01*
X21504441Y-36271840D01*
X21580878Y-36386236D01*
X21678164Y-36483522D01*
X21792560Y-36559959D01*
X21919670Y-36612609D01*
X22054609Y-36639450D01*
X22192191Y-36639450D01*
X22327130Y-36612609D01*
X22454240Y-36559959D01*
X22553778Y-36493450D01*
X25652269Y-36493450D01*
X25679400Y-36496122D01*
X25706531Y-36493450D01*
X25706538Y-36493450D01*
X25787699Y-36485456D01*
X25891836Y-36453867D01*
X25987810Y-36402568D01*
X26071931Y-36333531D01*
X26089236Y-36312445D01*
X27924718Y-34476964D01*
X28042130Y-34453609D01*
X28169240Y-34400959D01*
X28283636Y-34324522D01*
X28380922Y-34227236D01*
X28457359Y-34112840D01*
X28510009Y-33985730D01*
X28536850Y-33850791D01*
X28536850Y-33713209D01*
X28510009Y-33578270D01*
X28457359Y-33451160D01*
X28380922Y-33336764D01*
X28283636Y-33239478D01*
X28169240Y-33163041D01*
X28042130Y-33110391D01*
X27907191Y-33083550D01*
X27769609Y-33083550D01*
X27634670Y-33110391D01*
X27507560Y-33163041D01*
X27393164Y-33239478D01*
X27295878Y-33336764D01*
X27219441Y-33451160D01*
X27166791Y-33578270D01*
X27143436Y-33695682D01*
X25450569Y-35388550D01*
X23457132Y-35388550D01*
X23764850Y-35080832D01*
X23785931Y-35063531D01*
X23854968Y-34979410D01*
X23906267Y-34883436D01*
X23937856Y-34779299D01*
X23945850Y-34698138D01*
X23945850Y-34698132D01*
X23948522Y-34671001D01*
X23945850Y-34643870D01*
X23945850Y-32697209D01*
X29559350Y-32697209D01*
X29559350Y-32834791D01*
X29586191Y-32969730D01*
X29638841Y-33096840D01*
X29715278Y-33211236D01*
X29812564Y-33308522D01*
X29926960Y-33384959D01*
X30054070Y-33437609D01*
X30168850Y-33460440D01*
X30168851Y-44771560D01*
X30054070Y-44794391D01*
X29926960Y-44847041D01*
X29812564Y-44923478D01*
X29715278Y-45020764D01*
X29638841Y-45135160D01*
X29586191Y-45262270D01*
X29559350Y-45397209D01*
X29559350Y-45534791D01*
X29586191Y-45669730D01*
X29638841Y-45796840D01*
X29715278Y-45911236D01*
X29812564Y-46008522D01*
X29926960Y-46084959D01*
X30054070Y-46137609D01*
X30189009Y-46164450D01*
X30326591Y-46164450D01*
X30461530Y-46137609D01*
X30588640Y-46084959D01*
X30703036Y-46008522D01*
X30759400Y-45952158D01*
X30815764Y-46008522D01*
X30930160Y-46084959D01*
X31057270Y-46137609D01*
X31192209Y-46164450D01*
X31329791Y-46164450D01*
X31464730Y-46137609D01*
X31591840Y-46084959D01*
X31706236Y-46008522D01*
X31803522Y-45911236D01*
X31879959Y-45796840D01*
X31932609Y-45669730D01*
X31959450Y-45534791D01*
X31959450Y-45397209D01*
X31932609Y-45262270D01*
X31879959Y-45135160D01*
X31803522Y-45020764D01*
X31706236Y-44923478D01*
X31591840Y-44847041D01*
X31464730Y-44794391D01*
X31349950Y-44771560D01*
X31349950Y-33460440D01*
X31464730Y-33437609D01*
X31591840Y-33384959D01*
X31706236Y-33308522D01*
X31803522Y-33211236D01*
X31879959Y-33096840D01*
X31932609Y-32969730D01*
X31959450Y-32834791D01*
X31959450Y-32697209D01*
X31932609Y-32562270D01*
X31879959Y-32435160D01*
X31803522Y-32320764D01*
X31706236Y-32223478D01*
X31591840Y-32147041D01*
X31464730Y-32094391D01*
X31329791Y-32067550D01*
X31192209Y-32067550D01*
X31057270Y-32094391D01*
X30930160Y-32147041D01*
X30815764Y-32223478D01*
X30759400Y-32279842D01*
X30703036Y-32223478D01*
X30588640Y-32147041D01*
X30461530Y-32094391D01*
X30326591Y-32067550D01*
X30189009Y-32067550D01*
X30054070Y-32094391D01*
X29926960Y-32147041D01*
X29812564Y-32223478D01*
X29715278Y-32320764D01*
X29638841Y-32435160D01*
X29586191Y-32562270D01*
X29559350Y-32697209D01*
X23945850Y-32697209D01*
X23945850Y-32348631D01*
X23948522Y-32321500D01*
X23945850Y-32294369D01*
X23945850Y-32294362D01*
X23937856Y-32213201D01*
X23906267Y-32109064D01*
X23854968Y-32013090D01*
X23785931Y-31928969D01*
X23764851Y-31911669D01*
X19579864Y-27726683D01*
X19556509Y-27609270D01*
X19503859Y-27482160D01*
X19427422Y-27367764D01*
X19330136Y-27270478D01*
X19215740Y-27194041D01*
X19088630Y-27141391D01*
X18953691Y-27114550D01*
X18816109Y-27114550D01*
X18681170Y-27141391D01*
X18554060Y-27194041D01*
X18439664Y-27270478D01*
X18342378Y-27367764D01*
X18265941Y-27482160D01*
X18213291Y-27609270D01*
X18186450Y-27744209D01*
X16082850Y-27744209D01*
X16082850Y-24225845D01*
X17046061Y-24225845D01*
X17326365Y-24530486D01*
X17791387Y-24766969D01*
X18293610Y-24908186D01*
X18813733Y-24948711D01*
X19331768Y-24886986D01*
X19827808Y-24725384D01*
X20192435Y-24530486D01*
X20472739Y-24225845D01*
X18759400Y-22512506D01*
X17046061Y-24225845D01*
X16082850Y-24225845D01*
X16082850Y-22342333D01*
X16098689Y-22342333D01*
X16160414Y-22860368D01*
X16322016Y-23356408D01*
X16516914Y-23721035D01*
X16821555Y-24001339D01*
X18534894Y-22288000D01*
X18983906Y-22288000D01*
X20697245Y-24001339D01*
X21001886Y-23721035D01*
X21238369Y-23256013D01*
X21379586Y-22753790D01*
X21420111Y-22233667D01*
X21358386Y-21715632D01*
X21196784Y-21219592D01*
X21001886Y-20854965D01*
X20697245Y-20574661D01*
X18983906Y-22288000D01*
X18534894Y-22288000D01*
X16821555Y-20574661D01*
X16516914Y-20854965D01*
X16280431Y-21319987D01*
X16139214Y-21822210D01*
X16098689Y-22342333D01*
X16082850Y-22342333D01*
X16082850Y-22303816D01*
X16135346Y-21768424D01*
X16286240Y-21268639D01*
X16531337Y-20807678D01*
X16861301Y-20403102D01*
X16925302Y-20350155D01*
X17046061Y-20350155D01*
X18759400Y-22063494D01*
X20472739Y-20350155D01*
X20192435Y-20045514D01*
X19727413Y-19809031D01*
X19225190Y-19667814D01*
X18705067Y-19627289D01*
X18187032Y-19689014D01*
X17690992Y-19850616D01*
X17326365Y-20045514D01*
X17046061Y-20350155D01*
X16925302Y-20350155D01*
X17263557Y-20070327D01*
X17722796Y-19822018D01*
X18221519Y-19667637D01*
X18755968Y-19611464D01*
X18759953Y-19611450D01*
X22840950Y-19611450D01*
X22840950Y-26720800D01*
G36*
X38284150Y-26681346D02*
G01*
X38136746Y-26828750D01*
X23382054Y-26828750D01*
X23234650Y-26681346D01*
X23234650Y-25226750D01*
X25640950Y-25226750D01*
X25640950Y-25776750D01*
X25687263Y-25929470D01*
X25762480Y-26070220D01*
X25863711Y-26193591D01*
X25987065Y-26294843D01*
X26160193Y-26366041D01*
X26280650Y-26324215D01*
X26280650Y-25226750D01*
X26598150Y-25226750D01*
X26598150Y-26324215D01*
X26718607Y-26366041D01*
X26891735Y-26294843D01*
X27015089Y-26193591D01*
X27116320Y-26070220D01*
X27191537Y-25929470D01*
X27237850Y-25776750D01*
X27237850Y-25226750D01*
X34280950Y-25226750D01*
X34280950Y-25776750D01*
X34327263Y-25929470D01*
X34402480Y-26070220D01*
X34503711Y-26193591D01*
X34627065Y-26294843D01*
X34800193Y-26366041D01*
X34920650Y-26324215D01*
X34920650Y-25226750D01*
X35238150Y-25226750D01*
X35238150Y-26324215D01*
X35358607Y-26366041D01*
X35531735Y-26294843D01*
X35655089Y-26193591D01*
X35756320Y-26070220D01*
X35831537Y-25929470D01*
X35877850Y-25776750D01*
X35877850Y-25226750D01*
X35238150Y-25226750D01*
X34920650Y-25226750D01*
X34280950Y-25226750D01*
X27237850Y-25226750D01*
X26598150Y-25226750D01*
X26280650Y-25226750D01*
X25640950Y-25226750D01*
X23234650Y-25226750D01*
X23234650Y-24359250D01*
X25640950Y-24359250D01*
X25640950Y-24909250D01*
X26280650Y-24909250D01*
X26280650Y-23811785D01*
X26598150Y-23811785D01*
X26598150Y-24909250D01*
X27237850Y-24909250D01*
X27237850Y-24476595D01*
X27245950Y-24476595D01*
X27245950Y-24599405D01*
X27269908Y-24719854D01*
X27316905Y-24833314D01*
X27385134Y-24935426D01*
X27471974Y-25022266D01*
X27574086Y-25090495D01*
X27687546Y-25137492D01*
X27807995Y-25161450D01*
X27930805Y-25161450D01*
X28051254Y-25137492D01*
X28164714Y-25090495D01*
X28266826Y-25022266D01*
X28353666Y-24935426D01*
X28421895Y-24833314D01*
X28468892Y-24719854D01*
X28492850Y-24599405D01*
X28492850Y-24476595D01*
X33025950Y-24476595D01*
X33025950Y-24599405D01*
X33049908Y-24719854D01*
X33096905Y-24833314D01*
X33165134Y-24935426D01*
X33251974Y-25022266D01*
X33354086Y-25090495D01*
X33467546Y-25137492D01*
X33587995Y-25161450D01*
X33710805Y-25161450D01*
X33831254Y-25137492D01*
X33944714Y-25090495D01*
X34046826Y-25022266D01*
X34133666Y-24935426D01*
X34201895Y-24833314D01*
X34248892Y-24719854D01*
X34272850Y-24599405D01*
X34272850Y-24476595D01*
X34249510Y-24359250D01*
X34280950Y-24359250D01*
X34280950Y-24909250D01*
X34920650Y-24909250D01*
X34920650Y-23811785D01*
X35238150Y-23811785D01*
X35238150Y-24909250D01*
X35877850Y-24909250D01*
X35877850Y-24359250D01*
X35831537Y-24206530D01*
X35756320Y-24065780D01*
X35655089Y-23942409D01*
X35531735Y-23841157D01*
X35358607Y-23769959D01*
X35238150Y-23811785D01*
X34920650Y-23811785D01*
X34800193Y-23769959D01*
X34627065Y-23841157D01*
X34503711Y-23942409D01*
X34402480Y-24065780D01*
X34327263Y-24206530D01*
X34280950Y-24359250D01*
X34249510Y-24359250D01*
X34248892Y-24356146D01*
X34201895Y-24242686D01*
X34133666Y-24140574D01*
X34046826Y-24053734D01*
X33944714Y-23985505D01*
X33831254Y-23938508D01*
X33710805Y-23914550D01*
X33587995Y-23914550D01*
X33467546Y-23938508D01*
X33354086Y-23985505D01*
X33251974Y-24053734D01*
X33165134Y-24140574D01*
X33096905Y-24242686D01*
X33049908Y-24356146D01*
X33025950Y-24476595D01*
X28492850Y-24476595D01*
X28468892Y-24356146D01*
X28421895Y-24242686D01*
X28353666Y-24140574D01*
X28266826Y-24053734D01*
X28164714Y-23985505D01*
X28051254Y-23938508D01*
X27930805Y-23914550D01*
X27807995Y-23914550D01*
X27687546Y-23938508D01*
X27574086Y-23985505D01*
X27471974Y-24053734D01*
X27385134Y-24140574D01*
X27316905Y-24242686D01*
X27269908Y-24356146D01*
X27245950Y-24476595D01*
X27237850Y-24476595D01*
X27237850Y-24359250D01*
X27191537Y-24206530D01*
X27116320Y-24065780D01*
X27015089Y-23942409D01*
X26891735Y-23841157D01*
X26718607Y-23769959D01*
X26598150Y-23811785D01*
X26280650Y-23811785D01*
X26160193Y-23769959D01*
X25987065Y-23841157D01*
X25863711Y-23942409D01*
X25762480Y-24065780D01*
X25687263Y-24206530D01*
X25640950Y-24359250D01*
X23234650Y-24359250D01*
X23234650Y-21175570D01*
X25614944Y-21175570D01*
X25628361Y-21336652D01*
X25672945Y-21492022D01*
X25746984Y-21635708D01*
X25847632Y-21762189D01*
X25971021Y-21866604D01*
X26160193Y-21936041D01*
X26280650Y-21894215D01*
X26280650Y-21046750D01*
X26598150Y-21046750D01*
X26598150Y-21894215D01*
X26718607Y-21936041D01*
X26907779Y-21866604D01*
X27031168Y-21762189D01*
X27131816Y-21635708D01*
X27205855Y-21492022D01*
X27250439Y-21336652D01*
X27263856Y-21175570D01*
X34254944Y-21175570D01*
X34268361Y-21336652D01*
X34312945Y-21492022D01*
X34386984Y-21635708D01*
X34487632Y-21762189D01*
X34611021Y-21866604D01*
X34800193Y-21936041D01*
X34920650Y-21894215D01*
X34920650Y-21046750D01*
X35238150Y-21046750D01*
X35238150Y-21894215D01*
X35358607Y-21936041D01*
X35547779Y-21866604D01*
X35671168Y-21762189D01*
X35771816Y-21635708D01*
X35845855Y-21492022D01*
X35890439Y-21336652D01*
X35903856Y-21175570D01*
X35817149Y-21046750D01*
X35238150Y-21046750D01*
X34920650Y-21046750D01*
X34341651Y-21046750D01*
X34254944Y-21175570D01*
X27263856Y-21175570D01*
X27177149Y-21046750D01*
X26598150Y-21046750D01*
X26280650Y-21046750D01*
X25701651Y-21046750D01*
X25614944Y-21175570D01*
X23234650Y-21175570D01*
X23234650Y-20600430D01*
X25614944Y-20600430D01*
X25701651Y-20729250D01*
X26280650Y-20729250D01*
X26280650Y-19881785D01*
X26598150Y-19881785D01*
X26598150Y-20729250D01*
X27177149Y-20729250D01*
X27263856Y-20600430D01*
X34254944Y-20600430D01*
X34341651Y-20729250D01*
X34920650Y-20729250D01*
X34920650Y-19881785D01*
X35238150Y-19881785D01*
X35238150Y-20729250D01*
X35817149Y-20729250D01*
X35903856Y-20600430D01*
X35890439Y-20439348D01*
X35845855Y-20283978D01*
X35771816Y-20140292D01*
X35671168Y-20013811D01*
X35547779Y-19909396D01*
X35358607Y-19839959D01*
X35238150Y-19881785D01*
X34920650Y-19881785D01*
X34800193Y-19839959D01*
X34611021Y-19909396D01*
X34487632Y-20013811D01*
X34386984Y-20140292D01*
X34312945Y-20283978D01*
X34268361Y-20439348D01*
X34254944Y-20600430D01*
X27263856Y-20600430D01*
X27250439Y-20439348D01*
X27205855Y-20283978D01*
X27131816Y-20140292D01*
X27031168Y-20013811D01*
X26907779Y-19909396D01*
X26718607Y-19839959D01*
X26598150Y-19881785D01*
X26280650Y-19881785D01*
X26160193Y-19839959D01*
X25971021Y-19909396D01*
X25847632Y-20013811D01*
X25746984Y-20140292D01*
X25672945Y-20283978D01*
X25628361Y-20439348D01*
X25614944Y-20600430D01*
X23234650Y-20600430D01*
X23234650Y-19611450D01*
X38284150Y-19611450D01*
X38284150Y-26681346D01*
G37*
X38284150Y-26681346D02*
X38136746Y-26828750D01*
X23382054Y-26828750D01*
X23234650Y-26681346D01*
X23234650Y-25226750D01*
X25640950Y-25226750D01*
X25640950Y-25776750D01*
X25687263Y-25929470D01*
X25762480Y-26070220D01*
X25863711Y-26193591D01*
X25987065Y-26294843D01*
X26160193Y-26366041D01*
X26280650Y-26324215D01*
X26280650Y-25226750D01*
X26598150Y-25226750D01*
X26598150Y-26324215D01*
X26718607Y-26366041D01*
X26891735Y-26294843D01*
X27015089Y-26193591D01*
X27116320Y-26070220D01*
X27191537Y-25929470D01*
X27237850Y-25776750D01*
X27237850Y-25226750D01*
X34280950Y-25226750D01*
X34280950Y-25776750D01*
X34327263Y-25929470D01*
X34402480Y-26070220D01*
X34503711Y-26193591D01*
X34627065Y-26294843D01*
X34800193Y-26366041D01*
X34920650Y-26324215D01*
X34920650Y-25226750D01*
X35238150Y-25226750D01*
X35238150Y-26324215D01*
X35358607Y-26366041D01*
X35531735Y-26294843D01*
X35655089Y-26193591D01*
X35756320Y-26070220D01*
X35831537Y-25929470D01*
X35877850Y-25776750D01*
X35877850Y-25226750D01*
X35238150Y-25226750D01*
X34920650Y-25226750D01*
X34280950Y-25226750D01*
X27237850Y-25226750D01*
X26598150Y-25226750D01*
X26280650Y-25226750D01*
X25640950Y-25226750D01*
X23234650Y-25226750D01*
X23234650Y-24359250D01*
X25640950Y-24359250D01*
X25640950Y-24909250D01*
X26280650Y-24909250D01*
X26280650Y-23811785D01*
X26598150Y-23811785D01*
X26598150Y-24909250D01*
X27237850Y-24909250D01*
X27237850Y-24476595D01*
X27245950Y-24476595D01*
X27245950Y-24599405D01*
X27269908Y-24719854D01*
X27316905Y-24833314D01*
X27385134Y-24935426D01*
X27471974Y-25022266D01*
X27574086Y-25090495D01*
X27687546Y-25137492D01*
X27807995Y-25161450D01*
X27930805Y-25161450D01*
X28051254Y-25137492D01*
X28164714Y-25090495D01*
X28266826Y-25022266D01*
X28353666Y-24935426D01*
X28421895Y-24833314D01*
X28468892Y-24719854D01*
X28492850Y-24599405D01*
X28492850Y-24476595D01*
X33025950Y-24476595D01*
X33025950Y-24599405D01*
X33049908Y-24719854D01*
X33096905Y-24833314D01*
X33165134Y-24935426D01*
X33251974Y-25022266D01*
X33354086Y-25090495D01*
X33467546Y-25137492D01*
X33587995Y-25161450D01*
X33710805Y-25161450D01*
X33831254Y-25137492D01*
X33944714Y-25090495D01*
X34046826Y-25022266D01*
X34133666Y-24935426D01*
X34201895Y-24833314D01*
X34248892Y-24719854D01*
X34272850Y-24599405D01*
X34272850Y-24476595D01*
X34249510Y-24359250D01*
X34280950Y-24359250D01*
X34280950Y-24909250D01*
X34920650Y-24909250D01*
X34920650Y-23811785D01*
X35238150Y-23811785D01*
X35238150Y-24909250D01*
X35877850Y-24909250D01*
X35877850Y-24359250D01*
X35831537Y-24206530D01*
X35756320Y-24065780D01*
X35655089Y-23942409D01*
X35531735Y-23841157D01*
X35358607Y-23769959D01*
X35238150Y-23811785D01*
X34920650Y-23811785D01*
X34800193Y-23769959D01*
X34627065Y-23841157D01*
X34503711Y-23942409D01*
X34402480Y-24065780D01*
X34327263Y-24206530D01*
X34280950Y-24359250D01*
X34249510Y-24359250D01*
X34248892Y-24356146D01*
X34201895Y-24242686D01*
X34133666Y-24140574D01*
X34046826Y-24053734D01*
X33944714Y-23985505D01*
X33831254Y-23938508D01*
X33710805Y-23914550D01*
X33587995Y-23914550D01*
X33467546Y-23938508D01*
X33354086Y-23985505D01*
X33251974Y-24053734D01*
X33165134Y-24140574D01*
X33096905Y-24242686D01*
X33049908Y-24356146D01*
X33025950Y-24476595D01*
X28492850Y-24476595D01*
X28468892Y-24356146D01*
X28421895Y-24242686D01*
X28353666Y-24140574D01*
X28266826Y-24053734D01*
X28164714Y-23985505D01*
X28051254Y-23938508D01*
X27930805Y-23914550D01*
X27807995Y-23914550D01*
X27687546Y-23938508D01*
X27574086Y-23985505D01*
X27471974Y-24053734D01*
X27385134Y-24140574D01*
X27316905Y-24242686D01*
X27269908Y-24356146D01*
X27245950Y-24476595D01*
X27237850Y-24476595D01*
X27237850Y-24359250D01*
X27191537Y-24206530D01*
X27116320Y-24065780D01*
X27015089Y-23942409D01*
X26891735Y-23841157D01*
X26718607Y-23769959D01*
X26598150Y-23811785D01*
X26280650Y-23811785D01*
X26160193Y-23769959D01*
X25987065Y-23841157D01*
X25863711Y-23942409D01*
X25762480Y-24065780D01*
X25687263Y-24206530D01*
X25640950Y-24359250D01*
X23234650Y-24359250D01*
X23234650Y-21175570D01*
X25614944Y-21175570D01*
X25628361Y-21336652D01*
X25672945Y-21492022D01*
X25746984Y-21635708D01*
X25847632Y-21762189D01*
X25971021Y-21866604D01*
X26160193Y-21936041D01*
X26280650Y-21894215D01*
X26280650Y-21046750D01*
X26598150Y-21046750D01*
X26598150Y-21894215D01*
X26718607Y-21936041D01*
X26907779Y-21866604D01*
X27031168Y-21762189D01*
X27131816Y-21635708D01*
X27205855Y-21492022D01*
X27250439Y-21336652D01*
X27263856Y-21175570D01*
X34254944Y-21175570D01*
X34268361Y-21336652D01*
X34312945Y-21492022D01*
X34386984Y-21635708D01*
X34487632Y-21762189D01*
X34611021Y-21866604D01*
X34800193Y-21936041D01*
X34920650Y-21894215D01*
X34920650Y-21046750D01*
X35238150Y-21046750D01*
X35238150Y-21894215D01*
X35358607Y-21936041D01*
X35547779Y-21866604D01*
X35671168Y-21762189D01*
X35771816Y-21635708D01*
X35845855Y-21492022D01*
X35890439Y-21336652D01*
X35903856Y-21175570D01*
X35817149Y-21046750D01*
X35238150Y-21046750D01*
X34920650Y-21046750D01*
X34341651Y-21046750D01*
X34254944Y-21175570D01*
X27263856Y-21175570D01*
X27177149Y-21046750D01*
X26598150Y-21046750D01*
X26280650Y-21046750D01*
X25701651Y-21046750D01*
X25614944Y-21175570D01*
X23234650Y-21175570D01*
X23234650Y-20600430D01*
X25614944Y-20600430D01*
X25701651Y-20729250D01*
X26280650Y-20729250D01*
X26280650Y-19881785D01*
X26598150Y-19881785D01*
X26598150Y-20729250D01*
X27177149Y-20729250D01*
X27263856Y-20600430D01*
X34254944Y-20600430D01*
X34341651Y-20729250D01*
X34920650Y-20729250D01*
X34920650Y-19881785D01*
X35238150Y-19881785D01*
X35238150Y-20729250D01*
X35817149Y-20729250D01*
X35903856Y-20600430D01*
X35890439Y-20439348D01*
X35845855Y-20283978D01*
X35771816Y-20140292D01*
X35671168Y-20013811D01*
X35547779Y-19909396D01*
X35358607Y-19839959D01*
X35238150Y-19881785D01*
X34920650Y-19881785D01*
X34800193Y-19839959D01*
X34611021Y-19909396D01*
X34487632Y-20013811D01*
X34386984Y-20140292D01*
X34312945Y-20283978D01*
X34268361Y-20439348D01*
X34254944Y-20600430D01*
X27263856Y-20600430D01*
X27250439Y-20439348D01*
X27205855Y-20283978D01*
X27131816Y-20140292D01*
X27031168Y-20013811D01*
X26907779Y-19909396D01*
X26718607Y-19839959D01*
X26598150Y-19881785D01*
X26280650Y-19881785D01*
X26160193Y-19839959D01*
X25971021Y-19909396D01*
X25847632Y-20013811D01*
X25746984Y-20140292D01*
X25672945Y-20283978D01*
X25628361Y-20439348D01*
X25614944Y-20600430D01*
X23234650Y-20600430D01*
X23234650Y-19611450D01*
X38284150Y-19611450D01*
X38284150Y-26681346D01*
M02*
