G04 #@! TF.GenerationSoftware,KiCad,Pcbnew,(5.1.5)-3*
G04 #@! TF.CreationDate,2020-04-27T21:47:52+02:00*
G04 #@! TF.ProjectId,unified-usb-pcb_simple,756e6966-6965-4642-9d75-73622d706362,rev?*
G04 #@! TF.SameCoordinates,Original*
G04 #@! TF.FileFunction,Soldermask,Top*
G04 #@! TF.FilePolarity,Negative*
%FSLAX46Y46*%
G04 Gerber Fmt 4.6, Leading zero omitted, Abs format (unit mm)*
G04 Created by KiCad (PCBNEW (5.1.5)-3) date 2020-04-27 21:47:52*
%MOMM*%
%LPD*%
G04 APERTURE LIST*
%ADD10C,0.100000*%
G04 APERTURE END LIST*
D10*
G36*
X34550642Y-50916404D02*
G01*
X34587737Y-50927657D01*
X34621915Y-50945925D01*
X34651881Y-50970519D01*
X34676475Y-51000485D01*
X34694743Y-51034663D01*
X34705996Y-51071758D01*
X34710400Y-51116474D01*
X34710400Y-52609526D01*
X34705996Y-52654242D01*
X34694743Y-52691337D01*
X34676475Y-52725515D01*
X34651881Y-52755481D01*
X34621915Y-52780075D01*
X34587737Y-52798343D01*
X34550642Y-52809596D01*
X34505926Y-52814000D01*
X33612874Y-52814000D01*
X33568158Y-52809596D01*
X33531063Y-52798343D01*
X33496885Y-52780075D01*
X33466919Y-52755481D01*
X33442325Y-52725515D01*
X33424057Y-52691337D01*
X33412804Y-52654242D01*
X33408400Y-52609526D01*
X33408400Y-51116474D01*
X33412804Y-51071758D01*
X33424057Y-51034663D01*
X33442325Y-51000485D01*
X33466919Y-50970519D01*
X33496885Y-50945925D01*
X33531063Y-50927657D01*
X33568158Y-50916404D01*
X33612874Y-50912000D01*
X34505926Y-50912000D01*
X34550642Y-50916404D01*
G37*
G36*
X27950642Y-50916404D02*
G01*
X27987737Y-50927657D01*
X28021915Y-50945925D01*
X28051881Y-50970519D01*
X28076475Y-51000485D01*
X28094743Y-51034663D01*
X28105996Y-51071758D01*
X28110400Y-51116474D01*
X28110400Y-52609526D01*
X28105996Y-52654242D01*
X28094743Y-52691337D01*
X28076475Y-52725515D01*
X28051881Y-52755481D01*
X28021915Y-52780075D01*
X27987737Y-52798343D01*
X27950642Y-52809596D01*
X27905926Y-52814000D01*
X27012874Y-52814000D01*
X26968158Y-52809596D01*
X26931063Y-52798343D01*
X26896885Y-52780075D01*
X26866919Y-52755481D01*
X26842325Y-52725515D01*
X26824057Y-52691337D01*
X26812804Y-52654242D01*
X26808400Y-52609526D01*
X26808400Y-51116474D01*
X26812804Y-51071758D01*
X26824057Y-51034663D01*
X26842325Y-51000485D01*
X26866919Y-50970519D01*
X26896885Y-50945925D01*
X26931063Y-50927657D01*
X26968158Y-50916404D01*
X27012874Y-50912000D01*
X27905926Y-50912000D01*
X27950642Y-50916404D01*
G37*
G36*
X43227812Y-47933134D02*
G01*
X43459746Y-47979269D01*
X43896700Y-48160262D01*
X44289948Y-48423022D01*
X44624378Y-48757452D01*
X44887138Y-49150700D01*
X45068131Y-49587654D01*
X45160400Y-50051522D01*
X45160400Y-50524478D01*
X45068131Y-50988346D01*
X44887138Y-51425300D01*
X44624378Y-51818548D01*
X44289948Y-52152978D01*
X43896700Y-52415738D01*
X43459746Y-52596731D01*
X43227812Y-52642866D01*
X42995879Y-52689000D01*
X42522921Y-52689000D01*
X42290988Y-52642865D01*
X42059054Y-52596731D01*
X41622100Y-52415738D01*
X41228852Y-52152978D01*
X40894422Y-51818548D01*
X40631662Y-51425300D01*
X40450669Y-50988346D01*
X40358400Y-50524478D01*
X40358400Y-50051522D01*
X40450669Y-49587654D01*
X40631662Y-49150700D01*
X40894422Y-48757452D01*
X41228852Y-48423022D01*
X41622100Y-48160262D01*
X42059054Y-47979269D01*
X42290988Y-47933134D01*
X42522921Y-47887000D01*
X42995879Y-47887000D01*
X43227812Y-47933134D01*
G37*
G36*
X19227812Y-47933134D02*
G01*
X19459746Y-47979269D01*
X19896700Y-48160262D01*
X20289948Y-48423022D01*
X20624378Y-48757452D01*
X20887138Y-49150700D01*
X21068131Y-49587654D01*
X21160400Y-50051522D01*
X21160400Y-50524478D01*
X21068131Y-50988346D01*
X20887138Y-51425300D01*
X20624378Y-51818548D01*
X20289948Y-52152978D01*
X19896700Y-52415738D01*
X19459746Y-52596731D01*
X19227812Y-52642866D01*
X18995879Y-52689000D01*
X18522921Y-52689000D01*
X18290988Y-52642865D01*
X18059054Y-52596731D01*
X17622100Y-52415738D01*
X17228852Y-52152978D01*
X16894422Y-51818548D01*
X16631662Y-51425300D01*
X16450669Y-50988346D01*
X16358400Y-50524478D01*
X16358400Y-50051522D01*
X16450669Y-49587654D01*
X16631662Y-49150700D01*
X16894422Y-48757452D01*
X17228852Y-48423022D01*
X17622100Y-48160262D01*
X18059054Y-47979269D01*
X18290988Y-47933134D01*
X18522921Y-47887000D01*
X18995879Y-47887000D01*
X19227812Y-47933134D01*
G37*
G36*
X29019328Y-47164764D02*
G01*
X29040409Y-47171160D01*
X29059845Y-47181548D01*
X29076876Y-47195524D01*
X29090852Y-47212555D01*
X29101240Y-47231991D01*
X29107636Y-47253072D01*
X29110400Y-47281140D01*
X29110400Y-48694860D01*
X29107636Y-48722928D01*
X29101240Y-48744009D01*
X29090852Y-48763445D01*
X29076876Y-48780476D01*
X29059845Y-48794452D01*
X29040409Y-48804840D01*
X29019328Y-48811236D01*
X28991260Y-48814000D01*
X28527540Y-48814000D01*
X28499472Y-48811236D01*
X28478391Y-48804840D01*
X28458955Y-48794452D01*
X28441924Y-48780476D01*
X28427948Y-48763445D01*
X28417560Y-48744009D01*
X28411164Y-48722928D01*
X28408400Y-48694860D01*
X28408400Y-47281140D01*
X28411164Y-47253072D01*
X28417560Y-47231991D01*
X28427948Y-47212555D01*
X28441924Y-47195524D01*
X28458955Y-47181548D01*
X28478391Y-47171160D01*
X28499472Y-47164764D01*
X28527540Y-47162000D01*
X28991260Y-47162000D01*
X29019328Y-47164764D01*
G37*
G36*
X30019328Y-47164764D02*
G01*
X30040409Y-47171160D01*
X30059845Y-47181548D01*
X30076876Y-47195524D01*
X30090852Y-47212555D01*
X30101240Y-47231991D01*
X30107636Y-47253072D01*
X30110400Y-47281140D01*
X30110400Y-48694860D01*
X30107636Y-48722928D01*
X30101240Y-48744009D01*
X30090852Y-48763445D01*
X30076876Y-48780476D01*
X30059845Y-48794452D01*
X30040409Y-48804840D01*
X30019328Y-48811236D01*
X29991260Y-48814000D01*
X29527540Y-48814000D01*
X29499472Y-48811236D01*
X29478391Y-48804840D01*
X29458955Y-48794452D01*
X29441924Y-48780476D01*
X29427948Y-48763445D01*
X29417560Y-48744009D01*
X29411164Y-48722928D01*
X29408400Y-48694860D01*
X29408400Y-47281140D01*
X29411164Y-47253072D01*
X29417560Y-47231991D01*
X29427948Y-47212555D01*
X29441924Y-47195524D01*
X29458955Y-47181548D01*
X29478391Y-47171160D01*
X29499472Y-47164764D01*
X29527540Y-47162000D01*
X29991260Y-47162000D01*
X30019328Y-47164764D01*
G37*
G36*
X31019328Y-47164764D02*
G01*
X31040409Y-47171160D01*
X31059845Y-47181548D01*
X31076876Y-47195524D01*
X31090852Y-47212555D01*
X31101240Y-47231991D01*
X31107636Y-47253072D01*
X31110400Y-47281140D01*
X31110400Y-48694860D01*
X31107636Y-48722928D01*
X31101240Y-48744009D01*
X31090852Y-48763445D01*
X31076876Y-48780476D01*
X31059845Y-48794452D01*
X31040409Y-48804840D01*
X31019328Y-48811236D01*
X30991260Y-48814000D01*
X30527540Y-48814000D01*
X30499472Y-48811236D01*
X30478391Y-48804840D01*
X30458955Y-48794452D01*
X30441924Y-48780476D01*
X30427948Y-48763445D01*
X30417560Y-48744009D01*
X30411164Y-48722928D01*
X30408400Y-48694860D01*
X30408400Y-47281140D01*
X30411164Y-47253072D01*
X30417560Y-47231991D01*
X30427948Y-47212555D01*
X30441924Y-47195524D01*
X30458955Y-47181548D01*
X30478391Y-47171160D01*
X30499472Y-47164764D01*
X30527540Y-47162000D01*
X30991260Y-47162000D01*
X31019328Y-47164764D01*
G37*
G36*
X33019328Y-47164764D02*
G01*
X33040409Y-47171160D01*
X33059845Y-47181548D01*
X33076876Y-47195524D01*
X33090852Y-47212555D01*
X33101240Y-47231991D01*
X33107636Y-47253072D01*
X33110400Y-47281140D01*
X33110400Y-48694860D01*
X33107636Y-48722928D01*
X33101240Y-48744009D01*
X33090852Y-48763445D01*
X33076876Y-48780476D01*
X33059845Y-48794452D01*
X33040409Y-48804840D01*
X33019328Y-48811236D01*
X32991260Y-48814000D01*
X32527540Y-48814000D01*
X32499472Y-48811236D01*
X32478391Y-48804840D01*
X32458955Y-48794452D01*
X32441924Y-48780476D01*
X32427948Y-48763445D01*
X32417560Y-48744009D01*
X32411164Y-48722928D01*
X32408400Y-48694860D01*
X32408400Y-47281140D01*
X32411164Y-47253072D01*
X32417560Y-47231991D01*
X32427948Y-47212555D01*
X32441924Y-47195524D01*
X32458955Y-47181548D01*
X32478391Y-47171160D01*
X32499472Y-47164764D01*
X32527540Y-47162000D01*
X32991260Y-47162000D01*
X33019328Y-47164764D01*
G37*
G36*
X32019328Y-47164764D02*
G01*
X32040409Y-47171160D01*
X32059845Y-47181548D01*
X32076876Y-47195524D01*
X32090852Y-47212555D01*
X32101240Y-47231991D01*
X32107636Y-47253072D01*
X32110400Y-47281140D01*
X32110400Y-48694860D01*
X32107636Y-48722928D01*
X32101240Y-48744009D01*
X32090852Y-48763445D01*
X32076876Y-48780476D01*
X32059845Y-48794452D01*
X32040409Y-48804840D01*
X32019328Y-48811236D01*
X31991260Y-48814000D01*
X31527540Y-48814000D01*
X31499472Y-48811236D01*
X31478391Y-48804840D01*
X31458955Y-48794452D01*
X31441924Y-48780476D01*
X31427948Y-48763445D01*
X31417560Y-48744009D01*
X31411164Y-48722928D01*
X31408400Y-48694860D01*
X31408400Y-47281140D01*
X31411164Y-47253072D01*
X31417560Y-47231991D01*
X31427948Y-47212555D01*
X31441924Y-47195524D01*
X31458955Y-47181548D01*
X31478391Y-47171160D01*
X31499472Y-47164764D01*
X31527540Y-47162000D01*
X31991260Y-47162000D01*
X32019328Y-47164764D01*
G37*
G36*
X29106991Y-43991085D02*
G01*
X29140969Y-44001393D01*
X29172290Y-44018134D01*
X29199739Y-44040661D01*
X29222266Y-44068110D01*
X29239007Y-44099431D01*
X29249315Y-44133409D01*
X29253400Y-44174890D01*
X29253400Y-44776110D01*
X29249315Y-44817591D01*
X29239007Y-44851569D01*
X29222266Y-44882890D01*
X29199739Y-44910339D01*
X29172290Y-44932866D01*
X29140969Y-44949607D01*
X29106991Y-44959915D01*
X29065510Y-44964000D01*
X28389290Y-44964000D01*
X28347809Y-44959915D01*
X28313831Y-44949607D01*
X28282510Y-44932866D01*
X28255061Y-44910339D01*
X28232534Y-44882890D01*
X28215793Y-44851569D01*
X28205485Y-44817591D01*
X28201400Y-44776110D01*
X28201400Y-44174890D01*
X28205485Y-44133409D01*
X28215793Y-44099431D01*
X28232534Y-44068110D01*
X28255061Y-44040661D01*
X28282510Y-44018134D01*
X28313831Y-44001393D01*
X28347809Y-43991085D01*
X28389290Y-43987000D01*
X29065510Y-43987000D01*
X29106991Y-43991085D01*
G37*
G36*
X29106991Y-42416085D02*
G01*
X29140969Y-42426393D01*
X29172290Y-42443134D01*
X29199739Y-42465661D01*
X29222266Y-42493110D01*
X29239007Y-42524431D01*
X29249315Y-42558409D01*
X29253400Y-42599890D01*
X29253400Y-43201110D01*
X29249315Y-43242591D01*
X29239007Y-43276569D01*
X29222266Y-43307890D01*
X29199739Y-43335339D01*
X29172290Y-43357866D01*
X29140969Y-43374607D01*
X29106991Y-43384915D01*
X29065510Y-43389000D01*
X28389290Y-43389000D01*
X28347809Y-43384915D01*
X28313831Y-43374607D01*
X28282510Y-43357866D01*
X28255061Y-43335339D01*
X28232534Y-43307890D01*
X28215793Y-43276569D01*
X28205485Y-43242591D01*
X28201400Y-43201110D01*
X28201400Y-42599890D01*
X28205485Y-42558409D01*
X28215793Y-42524431D01*
X28232534Y-42493110D01*
X28255061Y-42465661D01*
X28282510Y-42443134D01*
X28313831Y-42426393D01*
X28347809Y-42416085D01*
X28389290Y-42412000D01*
X29065510Y-42412000D01*
X29106991Y-42416085D01*
G37*
G36*
X34830004Y-31208347D02*
G01*
X34866544Y-31219432D01*
X34900221Y-31237433D01*
X34929741Y-31261659D01*
X34953967Y-31291179D01*
X34971968Y-31324856D01*
X34983053Y-31361396D01*
X34987400Y-31405538D01*
X34987400Y-32354462D01*
X34983053Y-32398604D01*
X34971968Y-32435144D01*
X34953967Y-32468821D01*
X34929741Y-32498341D01*
X34900221Y-32522567D01*
X34866544Y-32540568D01*
X34830004Y-32551653D01*
X34785862Y-32556000D01*
X33336938Y-32556000D01*
X33292796Y-32551653D01*
X33256256Y-32540568D01*
X33222579Y-32522567D01*
X33193059Y-32498341D01*
X33168833Y-32468821D01*
X33150832Y-32435144D01*
X33139747Y-32398604D01*
X33135400Y-32354462D01*
X33135400Y-31405538D01*
X33139747Y-31361396D01*
X33150832Y-31324856D01*
X33168833Y-31291179D01*
X33193059Y-31261659D01*
X33222579Y-31237433D01*
X33256256Y-31219432D01*
X33292796Y-31208347D01*
X33336938Y-31204000D01*
X34785862Y-31204000D01*
X34830004Y-31208347D01*
G37*
G36*
X30240400Y-31298000D02*
G01*
X29078400Y-31298000D01*
X29078400Y-28646000D01*
X30240400Y-28646000D01*
X30240400Y-31298000D01*
G37*
G36*
X32440400Y-31298000D02*
G01*
X31278400Y-31298000D01*
X31278400Y-28646000D01*
X32440400Y-28646000D01*
X32440400Y-31298000D01*
G37*
G36*
X34830004Y-28408347D02*
G01*
X34866544Y-28419432D01*
X34900221Y-28437433D01*
X34929741Y-28461659D01*
X34953967Y-28491179D01*
X34971968Y-28524856D01*
X34983053Y-28561396D01*
X34987400Y-28605538D01*
X34987400Y-29554462D01*
X34983053Y-29598604D01*
X34971968Y-29635144D01*
X34953967Y-29668821D01*
X34929741Y-29698341D01*
X34900221Y-29722567D01*
X34866544Y-29740568D01*
X34830004Y-29751653D01*
X34785862Y-29756000D01*
X33336938Y-29756000D01*
X33292796Y-29751653D01*
X33256256Y-29740568D01*
X33222579Y-29722567D01*
X33193059Y-29698341D01*
X33168833Y-29668821D01*
X33150832Y-29635144D01*
X33139747Y-29598604D01*
X33135400Y-29554462D01*
X33135400Y-28605538D01*
X33139747Y-28561396D01*
X33150832Y-28524856D01*
X33168833Y-28491179D01*
X33193059Y-28461659D01*
X33222579Y-28437433D01*
X33256256Y-28419432D01*
X33292796Y-28408347D01*
X33336938Y-28404000D01*
X34785862Y-28404000D01*
X34830004Y-28408347D01*
G37*
G36*
X23264991Y-27354085D02*
G01*
X23298969Y-27364393D01*
X23330290Y-27381134D01*
X23357739Y-27403661D01*
X23380266Y-27431110D01*
X23397007Y-27462431D01*
X23407315Y-27496409D01*
X23411400Y-27537890D01*
X23411400Y-28139110D01*
X23407315Y-28180591D01*
X23397007Y-28214569D01*
X23380266Y-28245890D01*
X23357739Y-28273339D01*
X23330290Y-28295866D01*
X23298969Y-28312607D01*
X23264991Y-28322915D01*
X23223510Y-28327000D01*
X22547290Y-28327000D01*
X22505809Y-28322915D01*
X22471831Y-28312607D01*
X22440510Y-28295866D01*
X22413061Y-28273339D01*
X22390534Y-28245890D01*
X22373793Y-28214569D01*
X22363485Y-28180591D01*
X22359400Y-28139110D01*
X22359400Y-27537890D01*
X22363485Y-27496409D01*
X22373793Y-27462431D01*
X22390534Y-27431110D01*
X22413061Y-27403661D01*
X22440510Y-27381134D01*
X22471831Y-27364393D01*
X22505809Y-27354085D01*
X22547290Y-27350000D01*
X23223510Y-27350000D01*
X23264991Y-27354085D01*
G37*
G36*
X37361991Y-27354085D02*
G01*
X37395969Y-27364393D01*
X37427290Y-27381134D01*
X37454739Y-27403661D01*
X37477266Y-27431110D01*
X37494007Y-27462431D01*
X37504315Y-27496409D01*
X37508400Y-27537890D01*
X37508400Y-28139110D01*
X37504315Y-28180591D01*
X37494007Y-28214569D01*
X37477266Y-28245890D01*
X37454739Y-28273339D01*
X37427290Y-28295866D01*
X37395969Y-28312607D01*
X37361991Y-28322915D01*
X37320510Y-28327000D01*
X36644290Y-28327000D01*
X36602809Y-28322915D01*
X36568831Y-28312607D01*
X36537510Y-28295866D01*
X36510061Y-28273339D01*
X36487534Y-28245890D01*
X36470793Y-28214569D01*
X36460485Y-28180591D01*
X36456400Y-28139110D01*
X36456400Y-27537890D01*
X36460485Y-27496409D01*
X36470793Y-27462431D01*
X36487534Y-27431110D01*
X36510061Y-27403661D01*
X36537510Y-27381134D01*
X36568831Y-27364393D01*
X36602809Y-27354085D01*
X36644290Y-27350000D01*
X37320510Y-27350000D01*
X37361991Y-27354085D01*
G37*
G36*
X24979491Y-27354085D02*
G01*
X25013469Y-27364393D01*
X25044790Y-27381134D01*
X25072239Y-27403661D01*
X25094766Y-27431110D01*
X25111507Y-27462431D01*
X25121815Y-27496409D01*
X25125900Y-27537890D01*
X25125900Y-28139110D01*
X25121815Y-28180591D01*
X25111507Y-28214569D01*
X25094766Y-28245890D01*
X25072239Y-28273339D01*
X25044790Y-28295866D01*
X25013469Y-28312607D01*
X24979491Y-28322915D01*
X24938010Y-28327000D01*
X24261790Y-28327000D01*
X24220309Y-28322915D01*
X24186331Y-28312607D01*
X24155010Y-28295866D01*
X24127561Y-28273339D01*
X24105034Y-28245890D01*
X24088293Y-28214569D01*
X24077985Y-28180591D01*
X24073900Y-28139110D01*
X24073900Y-27537890D01*
X24077985Y-27496409D01*
X24088293Y-27462431D01*
X24105034Y-27431110D01*
X24127561Y-27403661D01*
X24155010Y-27381134D01*
X24186331Y-27364393D01*
X24220309Y-27354085D01*
X24261790Y-27350000D01*
X24938010Y-27350000D01*
X24979491Y-27354085D01*
G37*
G36*
X35187415Y-23974973D02*
G01*
X35291279Y-24006479D01*
X35318455Y-24021005D01*
X35387000Y-24057643D01*
X35470901Y-24126499D01*
X35539757Y-24210400D01*
X35558754Y-24245942D01*
X35590921Y-24306121D01*
X35622427Y-24409985D01*
X35630400Y-24490933D01*
X35630400Y-25645067D01*
X35622427Y-25726015D01*
X35590921Y-25829879D01*
X35582016Y-25846539D01*
X35541997Y-25921409D01*
X35539756Y-25925600D01*
X35470901Y-26009501D01*
X35402045Y-26066009D01*
X35386999Y-26078357D01*
X35335307Y-26105987D01*
X35291278Y-26129521D01*
X35187414Y-26161027D01*
X35079400Y-26171666D01*
X34971385Y-26161027D01*
X34867521Y-26129521D01*
X34823493Y-26105987D01*
X34771801Y-26078357D01*
X34759043Y-26067887D01*
X34687899Y-26009501D01*
X34619044Y-25925600D01*
X34595634Y-25881804D01*
X34582025Y-25861436D01*
X34564698Y-25844109D01*
X34544324Y-25830495D01*
X34521685Y-25821118D01*
X34497652Y-25816337D01*
X34473148Y-25816337D01*
X34449114Y-25821117D01*
X34426476Y-25830494D01*
X34406101Y-25844108D01*
X34388774Y-25861435D01*
X34375160Y-25881809D01*
X34365783Y-25904448D01*
X34361002Y-25928481D01*
X34360400Y-25940734D01*
X34360400Y-26759000D01*
X27158400Y-26759000D01*
X27158400Y-25940734D01*
X27155998Y-25916349D01*
X27148885Y-25892900D01*
X27137334Y-25871289D01*
X27121789Y-25852347D01*
X27102847Y-25836802D01*
X27081236Y-25825251D01*
X27057787Y-25818138D01*
X27033401Y-25815736D01*
X27009015Y-25818138D01*
X26985566Y-25825251D01*
X26963955Y-25836802D01*
X26945013Y-25852347D01*
X26929468Y-25871289D01*
X26923167Y-25881802D01*
X26920158Y-25887431D01*
X26899756Y-25925601D01*
X26869153Y-25962890D01*
X26830901Y-26009501D01*
X26762045Y-26066009D01*
X26746999Y-26078357D01*
X26695307Y-26105987D01*
X26651278Y-26129521D01*
X26547414Y-26161027D01*
X26439400Y-26171666D01*
X26331385Y-26161027D01*
X26227521Y-26129521D01*
X26183493Y-26105987D01*
X26131801Y-26078357D01*
X26119043Y-26067887D01*
X26047899Y-26009501D01*
X25979044Y-25925600D01*
X25976804Y-25921409D01*
X25944747Y-25861435D01*
X25927879Y-25829878D01*
X25896373Y-25726014D01*
X25888400Y-25645066D01*
X25888401Y-24490933D01*
X25896374Y-24409985D01*
X25927880Y-24306121D01*
X25960047Y-24245942D01*
X25979044Y-24210400D01*
X26047900Y-24126499D01*
X26131801Y-24057643D01*
X26200346Y-24021005D01*
X26227522Y-24006479D01*
X26331386Y-23974973D01*
X26439400Y-23964334D01*
X26547415Y-23974973D01*
X26651279Y-24006479D01*
X26678455Y-24021005D01*
X26747000Y-24057643D01*
X26830901Y-24126499D01*
X26899757Y-24210400D01*
X26918754Y-24245942D01*
X26950921Y-24306121D01*
X26982427Y-24409985D01*
X26990400Y-24490933D01*
X26990400Y-25082001D01*
X26992802Y-25106387D01*
X26999915Y-25129836D01*
X27011466Y-25151447D01*
X27027011Y-25170389D01*
X27045953Y-25185934D01*
X27067564Y-25197485D01*
X27091013Y-25204598D01*
X27115399Y-25207000D01*
X34403401Y-25207000D01*
X34427787Y-25204598D01*
X34451236Y-25197485D01*
X34472847Y-25185934D01*
X34491789Y-25170389D01*
X34507334Y-25151447D01*
X34518885Y-25129836D01*
X34525998Y-25106387D01*
X34528400Y-25082001D01*
X34528401Y-24490939D01*
X34528401Y-24490933D01*
X34536374Y-24409985D01*
X34567880Y-24306121D01*
X34600047Y-24245942D01*
X34619044Y-24210400D01*
X34687900Y-24126499D01*
X34771801Y-24057643D01*
X34840346Y-24021005D01*
X34867522Y-24006479D01*
X34971386Y-23974973D01*
X35079400Y-23964334D01*
X35187415Y-23974973D01*
G37*
G36*
X24979491Y-25779085D02*
G01*
X25013469Y-25789393D01*
X25044790Y-25806134D01*
X25072239Y-25828661D01*
X25094766Y-25856110D01*
X25111507Y-25887431D01*
X25121815Y-25921409D01*
X25125900Y-25962890D01*
X25125900Y-26564110D01*
X25121815Y-26605591D01*
X25111507Y-26639569D01*
X25094766Y-26670890D01*
X25072239Y-26698339D01*
X25044790Y-26720866D01*
X25013469Y-26737607D01*
X24979491Y-26747915D01*
X24938010Y-26752000D01*
X24261790Y-26752000D01*
X24220309Y-26747915D01*
X24186331Y-26737607D01*
X24155010Y-26720866D01*
X24127561Y-26698339D01*
X24105034Y-26670890D01*
X24088293Y-26639569D01*
X24077985Y-26605591D01*
X24073900Y-26564110D01*
X24073900Y-25962890D01*
X24077985Y-25921409D01*
X24088293Y-25887431D01*
X24105034Y-25856110D01*
X24127561Y-25828661D01*
X24155010Y-25806134D01*
X24186331Y-25789393D01*
X24220309Y-25779085D01*
X24261790Y-25775000D01*
X24938010Y-25775000D01*
X24979491Y-25779085D01*
G37*
G36*
X37361991Y-25779085D02*
G01*
X37395969Y-25789393D01*
X37427290Y-25806134D01*
X37454739Y-25828661D01*
X37477266Y-25856110D01*
X37494007Y-25887431D01*
X37504315Y-25921409D01*
X37508400Y-25962890D01*
X37508400Y-26564110D01*
X37504315Y-26605591D01*
X37494007Y-26639569D01*
X37477266Y-26670890D01*
X37454739Y-26698339D01*
X37427290Y-26720866D01*
X37395969Y-26737607D01*
X37361991Y-26747915D01*
X37320510Y-26752000D01*
X36644290Y-26752000D01*
X36602809Y-26747915D01*
X36568831Y-26737607D01*
X36537510Y-26720866D01*
X36510061Y-26698339D01*
X36487534Y-26670890D01*
X36470793Y-26639569D01*
X36460485Y-26605591D01*
X36456400Y-26564110D01*
X36456400Y-25962890D01*
X36460485Y-25921409D01*
X36470793Y-25887431D01*
X36487534Y-25856110D01*
X36510061Y-25828661D01*
X36537510Y-25806134D01*
X36568831Y-25789393D01*
X36602809Y-25779085D01*
X36644290Y-25775000D01*
X37320510Y-25775000D01*
X37361991Y-25779085D01*
G37*
G36*
X23264991Y-25779085D02*
G01*
X23298969Y-25789393D01*
X23330290Y-25806134D01*
X23357739Y-25828661D01*
X23380266Y-25856110D01*
X23397007Y-25887431D01*
X23407315Y-25921409D01*
X23411400Y-25962890D01*
X23411400Y-26564110D01*
X23407315Y-26605591D01*
X23397007Y-26639569D01*
X23380266Y-26670890D01*
X23357739Y-26698339D01*
X23330290Y-26720866D01*
X23298969Y-26737607D01*
X23264991Y-26747915D01*
X23223510Y-26752000D01*
X22547290Y-26752000D01*
X22505809Y-26747915D01*
X22471831Y-26737607D01*
X22440510Y-26720866D01*
X22413061Y-26698339D01*
X22390534Y-26670890D01*
X22373793Y-26639569D01*
X22363485Y-26605591D01*
X22359400Y-26564110D01*
X22359400Y-25962890D01*
X22363485Y-25921409D01*
X22373793Y-25887431D01*
X22390534Y-25856110D01*
X22413061Y-25828661D01*
X22440510Y-25806134D01*
X22471831Y-25789393D01*
X22505809Y-25779085D01*
X22547290Y-25775000D01*
X23223510Y-25775000D01*
X23264991Y-25779085D01*
G37*
G36*
X33759072Y-24176449D02*
G01*
X33759074Y-24176450D01*
X33759075Y-24176450D01*
X33827503Y-24204793D01*
X33889086Y-24245942D01*
X33941458Y-24298314D01*
X33982607Y-24359897D01*
X34010950Y-24428325D01*
X34025400Y-24500967D01*
X34025400Y-24575033D01*
X34010950Y-24647675D01*
X33982607Y-24716103D01*
X33941458Y-24777686D01*
X33889086Y-24830058D01*
X33827503Y-24871207D01*
X33759075Y-24899550D01*
X33759074Y-24899550D01*
X33759072Y-24899551D01*
X33686434Y-24914000D01*
X33612366Y-24914000D01*
X33539728Y-24899551D01*
X33539726Y-24899550D01*
X33539725Y-24899550D01*
X33471297Y-24871207D01*
X33409714Y-24830058D01*
X33357342Y-24777686D01*
X33316193Y-24716103D01*
X33287850Y-24647675D01*
X33273400Y-24575033D01*
X33273400Y-24500967D01*
X33287850Y-24428325D01*
X33316193Y-24359897D01*
X33357342Y-24298314D01*
X33409714Y-24245942D01*
X33471297Y-24204793D01*
X33539725Y-24176450D01*
X33539726Y-24176450D01*
X33539728Y-24176449D01*
X33612366Y-24162000D01*
X33686434Y-24162000D01*
X33759072Y-24176449D01*
G37*
G36*
X27979072Y-24176449D02*
G01*
X27979074Y-24176450D01*
X27979075Y-24176450D01*
X28047503Y-24204793D01*
X28109086Y-24245942D01*
X28161458Y-24298314D01*
X28202607Y-24359897D01*
X28230950Y-24428325D01*
X28245400Y-24500967D01*
X28245400Y-24575033D01*
X28230950Y-24647675D01*
X28202607Y-24716103D01*
X28161458Y-24777686D01*
X28109086Y-24830058D01*
X28047503Y-24871207D01*
X27979075Y-24899550D01*
X27979074Y-24899550D01*
X27979072Y-24899551D01*
X27906434Y-24914000D01*
X27832366Y-24914000D01*
X27759728Y-24899551D01*
X27759726Y-24899550D01*
X27759725Y-24899550D01*
X27691297Y-24871207D01*
X27629714Y-24830058D01*
X27577342Y-24777686D01*
X27536193Y-24716103D01*
X27507850Y-24647675D01*
X27493400Y-24575033D01*
X27493400Y-24500967D01*
X27507850Y-24428325D01*
X27536193Y-24359897D01*
X27577342Y-24298314D01*
X27629714Y-24245942D01*
X27691297Y-24204793D01*
X27759725Y-24176450D01*
X27759726Y-24176450D01*
X27759728Y-24176449D01*
X27832366Y-24162000D01*
X27906434Y-24162000D01*
X27979072Y-24176449D01*
G37*
G36*
X19227812Y-19933135D02*
G01*
X19459746Y-19979269D01*
X19768720Y-20107251D01*
X19817954Y-20127644D01*
X19896700Y-20160262D01*
X20289948Y-20423022D01*
X20624378Y-20757452D01*
X20887138Y-21150700D01*
X21068131Y-21587654D01*
X21160400Y-22051522D01*
X21160400Y-22524478D01*
X21068131Y-22988346D01*
X20887138Y-23425300D01*
X20624378Y-23818548D01*
X20289948Y-24152978D01*
X19896700Y-24415738D01*
X19896699Y-24415739D01*
X19896698Y-24415739D01*
X19866305Y-24428328D01*
X19459746Y-24596731D01*
X19227812Y-24642866D01*
X18995879Y-24689000D01*
X18522921Y-24689000D01*
X18290988Y-24642866D01*
X18059054Y-24596731D01*
X17652495Y-24428328D01*
X17622102Y-24415739D01*
X17622101Y-24415739D01*
X17622100Y-24415738D01*
X17228852Y-24152978D01*
X16894422Y-23818548D01*
X16631662Y-23425300D01*
X16450669Y-22988346D01*
X16358400Y-22524478D01*
X16358400Y-22051522D01*
X16450669Y-21587654D01*
X16631662Y-21150700D01*
X16894422Y-20757452D01*
X17228852Y-20423022D01*
X17622100Y-20160262D01*
X17700847Y-20127644D01*
X17750080Y-20107251D01*
X18059054Y-19979269D01*
X18290988Y-19933135D01*
X18522921Y-19887000D01*
X18995879Y-19887000D01*
X19227812Y-19933135D01*
G37*
G36*
X43227812Y-19933135D02*
G01*
X43459746Y-19979269D01*
X43768720Y-20107251D01*
X43817954Y-20127644D01*
X43896700Y-20160262D01*
X44289948Y-20423022D01*
X44624378Y-20757452D01*
X44887138Y-21150700D01*
X45068131Y-21587654D01*
X45160400Y-22051522D01*
X45160400Y-22524478D01*
X45068131Y-22988346D01*
X44887138Y-23425300D01*
X44624378Y-23818548D01*
X44289948Y-24152978D01*
X43896700Y-24415738D01*
X43896699Y-24415739D01*
X43896698Y-24415739D01*
X43866305Y-24428328D01*
X43459746Y-24596731D01*
X43227812Y-24642866D01*
X42995879Y-24689000D01*
X42522921Y-24689000D01*
X42290988Y-24642866D01*
X42059054Y-24596731D01*
X41652495Y-24428328D01*
X41622102Y-24415739D01*
X41622101Y-24415739D01*
X41622100Y-24415738D01*
X41228852Y-24152978D01*
X40894422Y-23818548D01*
X40631662Y-23425300D01*
X40450669Y-22988346D01*
X40358400Y-22524478D01*
X40358400Y-22051522D01*
X40450669Y-21587654D01*
X40631662Y-21150700D01*
X40894422Y-20757452D01*
X41228852Y-20423022D01*
X41622100Y-20160262D01*
X41700847Y-20127644D01*
X41750080Y-20107251D01*
X42059054Y-19979269D01*
X42290988Y-19933135D01*
X42522921Y-19887000D01*
X42995879Y-19887000D01*
X43227812Y-19933135D01*
G37*
G36*
X35187415Y-20044973D02*
G01*
X35291279Y-20076479D01*
X35318455Y-20091005D01*
X35387000Y-20127643D01*
X35470901Y-20196499D01*
X35539757Y-20280400D01*
X35576395Y-20348945D01*
X35590921Y-20376121D01*
X35622427Y-20479985D01*
X35630400Y-20560933D01*
X35630400Y-21215067D01*
X35622427Y-21296015D01*
X35590921Y-21399879D01*
X35539756Y-21495600D01*
X35470901Y-21579501D01*
X35402045Y-21636009D01*
X35386999Y-21648357D01*
X35335307Y-21675987D01*
X35291278Y-21699521D01*
X35187414Y-21731027D01*
X35079400Y-21741666D01*
X34971385Y-21731027D01*
X34867521Y-21699521D01*
X34823493Y-21675987D01*
X34771801Y-21648357D01*
X34759043Y-21637887D01*
X34687899Y-21579501D01*
X34619044Y-21495600D01*
X34567879Y-21399878D01*
X34536373Y-21296014D01*
X34528400Y-21215066D01*
X34528400Y-20560933D01*
X34536373Y-20479985D01*
X34567880Y-20376121D01*
X34567882Y-20376118D01*
X34619045Y-20280399D01*
X34687900Y-20196499D01*
X34771801Y-20127643D01*
X34840346Y-20091005D01*
X34867522Y-20076479D01*
X34971386Y-20044973D01*
X35079400Y-20034334D01*
X35187415Y-20044973D01*
G37*
G36*
X26547415Y-20044973D02*
G01*
X26651279Y-20076479D01*
X26678455Y-20091005D01*
X26747000Y-20127643D01*
X26830901Y-20196499D01*
X26899757Y-20280400D01*
X26936395Y-20348945D01*
X26950921Y-20376121D01*
X26982427Y-20479985D01*
X26990400Y-20560933D01*
X26990400Y-21215067D01*
X26982427Y-21296015D01*
X26950921Y-21399879D01*
X26899756Y-21495600D01*
X26830901Y-21579501D01*
X26762045Y-21636009D01*
X26746999Y-21648357D01*
X26695307Y-21675987D01*
X26651278Y-21699521D01*
X26547414Y-21731027D01*
X26439400Y-21741666D01*
X26331385Y-21731027D01*
X26227521Y-21699521D01*
X26183493Y-21675987D01*
X26131801Y-21648357D01*
X26119043Y-21637887D01*
X26047899Y-21579501D01*
X25979044Y-21495600D01*
X25927879Y-21399878D01*
X25896373Y-21296014D01*
X25888400Y-21215066D01*
X25888400Y-20560933D01*
X25896373Y-20479985D01*
X25927880Y-20376121D01*
X25927882Y-20376118D01*
X25979045Y-20280399D01*
X26047900Y-20196499D01*
X26131801Y-20127643D01*
X26200346Y-20091005D01*
X26227522Y-20076479D01*
X26331386Y-20044973D01*
X26439400Y-20034334D01*
X26547415Y-20044973D01*
G37*
M02*
