G04 #@! TF.GenerationSoftware,KiCad,Pcbnew,(5.1.5)-3*
G04 #@! TF.CreationDate,2020-04-27T21:47:52+02:00*
G04 #@! TF.ProjectId,unified-usb-pcb_simple,756e6966-6965-4642-9d75-73622d706362,rev?*
G04 #@! TF.SameCoordinates,Original*
G04 #@! TF.FileFunction,Copper,L2,Bot*
G04 #@! TF.FilePolarity,Positive*
%FSLAX46Y46*%
G04 Gerber Fmt 4.6, Leading zero omitted, Abs format (unit mm)*
G04 Created by KiCad (PCBNEW (5.1.5)-3) date 2020-04-27 21:47:52*
%MOMM*%
%LPD*%
G04 APERTURE LIST*
%ADD10O,1.000000X2.100000*%
%ADD11O,1.000000X1.600000*%
%ADD12C,4.700000*%
%ADD13C,0.800000*%
%ADD14C,0.254000*%
%ADD15C,0.508000*%
%ADD16C,0.190500*%
G04 APERTURE END LIST*
D10*
X26439400Y-25068000D03*
X35079400Y-25068000D03*
D11*
X35079400Y-20888000D03*
X26439400Y-20888000D03*
D12*
X42759400Y-50288000D03*
X18759400Y-50288000D03*
X42759400Y-22288000D03*
X18759400Y-22288000D03*
D13*
X27319332Y-27558673D03*
X34199111Y-27548412D03*
X32473900Y-34036000D03*
X33209400Y-27588000D03*
X28309400Y-27588000D03*
X30251400Y-23876000D03*
D14*
X34199111Y-27548412D02*
X34199111Y-27515809D01*
D15*
X28309400Y-27588000D02*
X33209400Y-27588000D01*
X35079400Y-20844800D02*
X35079400Y-25024800D01*
X26439400Y-20844800D02*
X35079400Y-20844800D01*
X26439400Y-20844800D02*
X26439400Y-25024800D01*
D16*
G36*
X21570950Y-26720800D02*
G01*
X21576685Y-26779025D01*
X21593668Y-26835012D01*
X21621248Y-26886610D01*
X21658364Y-26931836D01*
X21861564Y-27135036D01*
X21906790Y-27172152D01*
X21958388Y-27199732D01*
X22014375Y-27216715D01*
X22072600Y-27222450D01*
X27713633Y-27222450D01*
X27690441Y-27257160D01*
X27637791Y-27384270D01*
X27610950Y-27519209D01*
X27610950Y-27656791D01*
X27637791Y-27791730D01*
X27690441Y-27918840D01*
X27766878Y-28033236D01*
X27864164Y-28130522D01*
X27978560Y-28206959D01*
X28105670Y-28259609D01*
X28240609Y-28286450D01*
X28378191Y-28286450D01*
X28513130Y-28259609D01*
X28640240Y-28206959D01*
X28739778Y-28140450D01*
X32779022Y-28140450D01*
X32878560Y-28206959D01*
X33005670Y-28259609D01*
X33140609Y-28286450D01*
X33278191Y-28286450D01*
X33413130Y-28259609D01*
X33540240Y-28206959D01*
X33654636Y-28130522D01*
X33751922Y-28033236D01*
X33828359Y-27918840D01*
X33881009Y-27791730D01*
X33907850Y-27656791D01*
X33907850Y-27519209D01*
X33881009Y-27384270D01*
X33828359Y-27257160D01*
X33805167Y-27222450D01*
X39446200Y-27222450D01*
X39504425Y-27216715D01*
X39560412Y-27199732D01*
X39612010Y-27172152D01*
X39657236Y-27135036D01*
X39860436Y-26931836D01*
X39897552Y-26886610D01*
X39925132Y-26835012D01*
X39942115Y-26779025D01*
X39947850Y-26720800D01*
X39947850Y-24225845D01*
X41046061Y-24225845D01*
X41326365Y-24530486D01*
X41791387Y-24766969D01*
X42293610Y-24908186D01*
X42813733Y-24948711D01*
X43331768Y-24886986D01*
X43827808Y-24725384D01*
X44192435Y-24530486D01*
X44472739Y-24225845D01*
X42759400Y-22512506D01*
X41046061Y-24225845D01*
X39947850Y-24225845D01*
X39947850Y-22342333D01*
X40098689Y-22342333D01*
X40160414Y-22860368D01*
X40322016Y-23356408D01*
X40516914Y-23721035D01*
X40821555Y-24001339D01*
X42534894Y-22288000D01*
X42983906Y-22288000D01*
X44697245Y-24001339D01*
X45001886Y-23721035D01*
X45238369Y-23256013D01*
X45379586Y-22753790D01*
X45420111Y-22233667D01*
X45358386Y-21715632D01*
X45196784Y-21219592D01*
X45001886Y-20854965D01*
X44697245Y-20574661D01*
X42983906Y-22288000D01*
X42534894Y-22288000D01*
X40821555Y-20574661D01*
X40516914Y-20854965D01*
X40280431Y-21319987D01*
X40139214Y-21822210D01*
X40098689Y-22342333D01*
X39947850Y-22342333D01*
X39947850Y-20350155D01*
X41046061Y-20350155D01*
X42759400Y-22063494D01*
X44472739Y-20350155D01*
X44192435Y-20045514D01*
X43727413Y-19809031D01*
X43225190Y-19667814D01*
X42705067Y-19627289D01*
X42187032Y-19689014D01*
X41690992Y-19850616D01*
X41326365Y-20045514D01*
X41046061Y-20350155D01*
X39947850Y-20350155D01*
X39947850Y-19611450D01*
X42743584Y-19611450D01*
X43278976Y-19663946D01*
X43778761Y-19814840D01*
X44239722Y-20059937D01*
X44644298Y-20389901D01*
X44977073Y-20792157D01*
X45225382Y-21251396D01*
X45379763Y-21750119D01*
X45435936Y-22284568D01*
X45435951Y-22288840D01*
X45435950Y-50272184D01*
X45383454Y-50807575D01*
X45232559Y-51307363D01*
X44987462Y-51768325D01*
X44657499Y-52172898D01*
X44255240Y-52505676D01*
X43796004Y-52753982D01*
X43297282Y-52908363D01*
X42762831Y-52964536D01*
X42758847Y-52964550D01*
X18775216Y-52964550D01*
X18239825Y-52912054D01*
X17740037Y-52761159D01*
X17279075Y-52516062D01*
X16923236Y-52225845D01*
X17046061Y-52225845D01*
X17326365Y-52530486D01*
X17791387Y-52766969D01*
X18293610Y-52908186D01*
X18813733Y-52948711D01*
X19331768Y-52886986D01*
X19827808Y-52725384D01*
X20192435Y-52530486D01*
X20472739Y-52225845D01*
X41046061Y-52225845D01*
X41326365Y-52530486D01*
X41791387Y-52766969D01*
X42293610Y-52908186D01*
X42813733Y-52948711D01*
X43331768Y-52886986D01*
X43827808Y-52725384D01*
X44192435Y-52530486D01*
X44472739Y-52225845D01*
X42759400Y-50512506D01*
X41046061Y-52225845D01*
X20472739Y-52225845D01*
X18759400Y-50512506D01*
X17046061Y-52225845D01*
X16923236Y-52225845D01*
X16874502Y-52186099D01*
X16541724Y-51783840D01*
X16293418Y-51324604D01*
X16139037Y-50825882D01*
X16088215Y-50342333D01*
X16098689Y-50342333D01*
X16160414Y-50860368D01*
X16322016Y-51356408D01*
X16516914Y-51721035D01*
X16821555Y-52001339D01*
X18534894Y-50288000D01*
X18983906Y-50288000D01*
X20697245Y-52001339D01*
X21001886Y-51721035D01*
X21238369Y-51256013D01*
X21379586Y-50753790D01*
X21411644Y-50342333D01*
X40098689Y-50342333D01*
X40160414Y-50860368D01*
X40322016Y-51356408D01*
X40516914Y-51721035D01*
X40821555Y-52001339D01*
X42534894Y-50288000D01*
X42983906Y-50288000D01*
X44697245Y-52001339D01*
X45001886Y-51721035D01*
X45238369Y-51256013D01*
X45379586Y-50753790D01*
X45420111Y-50233667D01*
X45358386Y-49715632D01*
X45196784Y-49219592D01*
X45001886Y-48854965D01*
X44697245Y-48574661D01*
X42983906Y-50288000D01*
X42534894Y-50288000D01*
X40821555Y-48574661D01*
X40516914Y-48854965D01*
X40280431Y-49319987D01*
X40139214Y-49822210D01*
X40098689Y-50342333D01*
X21411644Y-50342333D01*
X21420111Y-50233667D01*
X21358386Y-49715632D01*
X21196784Y-49219592D01*
X21001886Y-48854965D01*
X20697245Y-48574661D01*
X18983906Y-50288000D01*
X18534894Y-50288000D01*
X16821555Y-48574661D01*
X16516914Y-48854965D01*
X16280431Y-49319987D01*
X16139214Y-49822210D01*
X16098689Y-50342333D01*
X16088215Y-50342333D01*
X16082864Y-50291431D01*
X16082850Y-50287447D01*
X16082850Y-48350155D01*
X17046061Y-48350155D01*
X18759400Y-50063494D01*
X20472739Y-48350155D01*
X41046061Y-48350155D01*
X42759400Y-50063494D01*
X44472739Y-48350155D01*
X44192435Y-48045514D01*
X43727413Y-47809031D01*
X43225190Y-47667814D01*
X42705067Y-47627289D01*
X42187032Y-47689014D01*
X41690992Y-47850616D01*
X41326365Y-48045514D01*
X41046061Y-48350155D01*
X20472739Y-48350155D01*
X20192435Y-48045514D01*
X19727413Y-47809031D01*
X19225190Y-47667814D01*
X18705067Y-47627289D01*
X18187032Y-47689014D01*
X17690992Y-47850616D01*
X17326365Y-48045514D01*
X17046061Y-48350155D01*
X16082850Y-48350155D01*
X16082850Y-24225845D01*
X17046061Y-24225845D01*
X17326365Y-24530486D01*
X17791387Y-24766969D01*
X18293610Y-24908186D01*
X18813733Y-24948711D01*
X19331768Y-24886986D01*
X19827808Y-24725384D01*
X20192435Y-24530486D01*
X20472739Y-24225845D01*
X18759400Y-22512506D01*
X17046061Y-24225845D01*
X16082850Y-24225845D01*
X16082850Y-22342333D01*
X16098689Y-22342333D01*
X16160414Y-22860368D01*
X16322016Y-23356408D01*
X16516914Y-23721035D01*
X16821555Y-24001339D01*
X18534894Y-22288000D01*
X18983906Y-22288000D01*
X20697245Y-24001339D01*
X21001886Y-23721035D01*
X21238369Y-23256013D01*
X21379586Y-22753790D01*
X21420111Y-22233667D01*
X21358386Y-21715632D01*
X21196784Y-21219592D01*
X21001886Y-20854965D01*
X20697245Y-20574661D01*
X18983906Y-22288000D01*
X18534894Y-22288000D01*
X16821555Y-20574661D01*
X16516914Y-20854965D01*
X16280431Y-21319987D01*
X16139214Y-21822210D01*
X16098689Y-22342333D01*
X16082850Y-22342333D01*
X16082850Y-22303816D01*
X16135346Y-21768424D01*
X16286240Y-21268639D01*
X16531337Y-20807678D01*
X16861301Y-20403102D01*
X16925302Y-20350155D01*
X17046061Y-20350155D01*
X18759400Y-22063494D01*
X20472739Y-20350155D01*
X20192435Y-20045514D01*
X19727413Y-19809031D01*
X19225190Y-19667814D01*
X18705067Y-19627289D01*
X18187032Y-19689014D01*
X17690992Y-19850616D01*
X17326365Y-20045514D01*
X17046061Y-20350155D01*
X16925302Y-20350155D01*
X17263557Y-20070327D01*
X17722796Y-19822018D01*
X18221519Y-19667637D01*
X18755968Y-19611464D01*
X18759953Y-19611450D01*
X21570950Y-19611450D01*
X21570950Y-26720800D01*
G37*
X21570950Y-26720800D02*
X21576685Y-26779025D01*
X21593668Y-26835012D01*
X21621248Y-26886610D01*
X21658364Y-26931836D01*
X21861564Y-27135036D01*
X21906790Y-27172152D01*
X21958388Y-27199732D01*
X22014375Y-27216715D01*
X22072600Y-27222450D01*
X27713633Y-27222450D01*
X27690441Y-27257160D01*
X27637791Y-27384270D01*
X27610950Y-27519209D01*
X27610950Y-27656791D01*
X27637791Y-27791730D01*
X27690441Y-27918840D01*
X27766878Y-28033236D01*
X27864164Y-28130522D01*
X27978560Y-28206959D01*
X28105670Y-28259609D01*
X28240609Y-28286450D01*
X28378191Y-28286450D01*
X28513130Y-28259609D01*
X28640240Y-28206959D01*
X28739778Y-28140450D01*
X32779022Y-28140450D01*
X32878560Y-28206959D01*
X33005670Y-28259609D01*
X33140609Y-28286450D01*
X33278191Y-28286450D01*
X33413130Y-28259609D01*
X33540240Y-28206959D01*
X33654636Y-28130522D01*
X33751922Y-28033236D01*
X33828359Y-27918840D01*
X33881009Y-27791730D01*
X33907850Y-27656791D01*
X33907850Y-27519209D01*
X33881009Y-27384270D01*
X33828359Y-27257160D01*
X33805167Y-27222450D01*
X39446200Y-27222450D01*
X39504425Y-27216715D01*
X39560412Y-27199732D01*
X39612010Y-27172152D01*
X39657236Y-27135036D01*
X39860436Y-26931836D01*
X39897552Y-26886610D01*
X39925132Y-26835012D01*
X39942115Y-26779025D01*
X39947850Y-26720800D01*
X39947850Y-24225845D01*
X41046061Y-24225845D01*
X41326365Y-24530486D01*
X41791387Y-24766969D01*
X42293610Y-24908186D01*
X42813733Y-24948711D01*
X43331768Y-24886986D01*
X43827808Y-24725384D01*
X44192435Y-24530486D01*
X44472739Y-24225845D01*
X42759400Y-22512506D01*
X41046061Y-24225845D01*
X39947850Y-24225845D01*
X39947850Y-22342333D01*
X40098689Y-22342333D01*
X40160414Y-22860368D01*
X40322016Y-23356408D01*
X40516914Y-23721035D01*
X40821555Y-24001339D01*
X42534894Y-22288000D01*
X42983906Y-22288000D01*
X44697245Y-24001339D01*
X45001886Y-23721035D01*
X45238369Y-23256013D01*
X45379586Y-22753790D01*
X45420111Y-22233667D01*
X45358386Y-21715632D01*
X45196784Y-21219592D01*
X45001886Y-20854965D01*
X44697245Y-20574661D01*
X42983906Y-22288000D01*
X42534894Y-22288000D01*
X40821555Y-20574661D01*
X40516914Y-20854965D01*
X40280431Y-21319987D01*
X40139214Y-21822210D01*
X40098689Y-22342333D01*
X39947850Y-22342333D01*
X39947850Y-20350155D01*
X41046061Y-20350155D01*
X42759400Y-22063494D01*
X44472739Y-20350155D01*
X44192435Y-20045514D01*
X43727413Y-19809031D01*
X43225190Y-19667814D01*
X42705067Y-19627289D01*
X42187032Y-19689014D01*
X41690992Y-19850616D01*
X41326365Y-20045514D01*
X41046061Y-20350155D01*
X39947850Y-20350155D01*
X39947850Y-19611450D01*
X42743584Y-19611450D01*
X43278976Y-19663946D01*
X43778761Y-19814840D01*
X44239722Y-20059937D01*
X44644298Y-20389901D01*
X44977073Y-20792157D01*
X45225382Y-21251396D01*
X45379763Y-21750119D01*
X45435936Y-22284568D01*
X45435951Y-22288840D01*
X45435950Y-50272184D01*
X45383454Y-50807575D01*
X45232559Y-51307363D01*
X44987462Y-51768325D01*
X44657499Y-52172898D01*
X44255240Y-52505676D01*
X43796004Y-52753982D01*
X43297282Y-52908363D01*
X42762831Y-52964536D01*
X42758847Y-52964550D01*
X18775216Y-52964550D01*
X18239825Y-52912054D01*
X17740037Y-52761159D01*
X17279075Y-52516062D01*
X16923236Y-52225845D01*
X17046061Y-52225845D01*
X17326365Y-52530486D01*
X17791387Y-52766969D01*
X18293610Y-52908186D01*
X18813733Y-52948711D01*
X19331768Y-52886986D01*
X19827808Y-52725384D01*
X20192435Y-52530486D01*
X20472739Y-52225845D01*
X41046061Y-52225845D01*
X41326365Y-52530486D01*
X41791387Y-52766969D01*
X42293610Y-52908186D01*
X42813733Y-52948711D01*
X43331768Y-52886986D01*
X43827808Y-52725384D01*
X44192435Y-52530486D01*
X44472739Y-52225845D01*
X42759400Y-50512506D01*
X41046061Y-52225845D01*
X20472739Y-52225845D01*
X18759400Y-50512506D01*
X17046061Y-52225845D01*
X16923236Y-52225845D01*
X16874502Y-52186099D01*
X16541724Y-51783840D01*
X16293418Y-51324604D01*
X16139037Y-50825882D01*
X16088215Y-50342333D01*
X16098689Y-50342333D01*
X16160414Y-50860368D01*
X16322016Y-51356408D01*
X16516914Y-51721035D01*
X16821555Y-52001339D01*
X18534894Y-50288000D01*
X18983906Y-50288000D01*
X20697245Y-52001339D01*
X21001886Y-51721035D01*
X21238369Y-51256013D01*
X21379586Y-50753790D01*
X21411644Y-50342333D01*
X40098689Y-50342333D01*
X40160414Y-50860368D01*
X40322016Y-51356408D01*
X40516914Y-51721035D01*
X40821555Y-52001339D01*
X42534894Y-50288000D01*
X42983906Y-50288000D01*
X44697245Y-52001339D01*
X45001886Y-51721035D01*
X45238369Y-51256013D01*
X45379586Y-50753790D01*
X45420111Y-50233667D01*
X45358386Y-49715632D01*
X45196784Y-49219592D01*
X45001886Y-48854965D01*
X44697245Y-48574661D01*
X42983906Y-50288000D01*
X42534894Y-50288000D01*
X40821555Y-48574661D01*
X40516914Y-48854965D01*
X40280431Y-49319987D01*
X40139214Y-49822210D01*
X40098689Y-50342333D01*
X21411644Y-50342333D01*
X21420111Y-50233667D01*
X21358386Y-49715632D01*
X21196784Y-49219592D01*
X21001886Y-48854965D01*
X20697245Y-48574661D01*
X18983906Y-50288000D01*
X18534894Y-50288000D01*
X16821555Y-48574661D01*
X16516914Y-48854965D01*
X16280431Y-49319987D01*
X16139214Y-49822210D01*
X16098689Y-50342333D01*
X16088215Y-50342333D01*
X16082864Y-50291431D01*
X16082850Y-50287447D01*
X16082850Y-48350155D01*
X17046061Y-48350155D01*
X18759400Y-50063494D01*
X20472739Y-48350155D01*
X41046061Y-48350155D01*
X42759400Y-50063494D01*
X44472739Y-48350155D01*
X44192435Y-48045514D01*
X43727413Y-47809031D01*
X43225190Y-47667814D01*
X42705067Y-47627289D01*
X42187032Y-47689014D01*
X41690992Y-47850616D01*
X41326365Y-48045514D01*
X41046061Y-48350155D01*
X20472739Y-48350155D01*
X20192435Y-48045514D01*
X19727413Y-47809031D01*
X19225190Y-47667814D01*
X18705067Y-47627289D01*
X18187032Y-47689014D01*
X17690992Y-47850616D01*
X17326365Y-48045514D01*
X17046061Y-48350155D01*
X16082850Y-48350155D01*
X16082850Y-24225845D01*
X17046061Y-24225845D01*
X17326365Y-24530486D01*
X17791387Y-24766969D01*
X18293610Y-24908186D01*
X18813733Y-24948711D01*
X19331768Y-24886986D01*
X19827808Y-24725384D01*
X20192435Y-24530486D01*
X20472739Y-24225845D01*
X18759400Y-22512506D01*
X17046061Y-24225845D01*
X16082850Y-24225845D01*
X16082850Y-22342333D01*
X16098689Y-22342333D01*
X16160414Y-22860368D01*
X16322016Y-23356408D01*
X16516914Y-23721035D01*
X16821555Y-24001339D01*
X18534894Y-22288000D01*
X18983906Y-22288000D01*
X20697245Y-24001339D01*
X21001886Y-23721035D01*
X21238369Y-23256013D01*
X21379586Y-22753790D01*
X21420111Y-22233667D01*
X21358386Y-21715632D01*
X21196784Y-21219592D01*
X21001886Y-20854965D01*
X20697245Y-20574661D01*
X18983906Y-22288000D01*
X18534894Y-22288000D01*
X16821555Y-20574661D01*
X16516914Y-20854965D01*
X16280431Y-21319987D01*
X16139214Y-21822210D01*
X16098689Y-22342333D01*
X16082850Y-22342333D01*
X16082850Y-22303816D01*
X16135346Y-21768424D01*
X16286240Y-21268639D01*
X16531337Y-20807678D01*
X16861301Y-20403102D01*
X16925302Y-20350155D01*
X17046061Y-20350155D01*
X18759400Y-22063494D01*
X20472739Y-20350155D01*
X20192435Y-20045514D01*
X19727413Y-19809031D01*
X19225190Y-19667814D01*
X18705067Y-19627289D01*
X18187032Y-19689014D01*
X17690992Y-19850616D01*
X17326365Y-20045514D01*
X17046061Y-20350155D01*
X16925302Y-20350155D01*
X17263557Y-20070327D01*
X17722796Y-19822018D01*
X18221519Y-19667637D01*
X18755968Y-19611464D01*
X18759953Y-19611450D01*
X21570950Y-19611450D01*
X21570950Y-26720800D01*
G36*
X39554150Y-26681346D02*
G01*
X39406746Y-26828750D01*
X22112054Y-26828750D01*
X21964650Y-26681346D01*
X21964650Y-25226750D01*
X25640950Y-25226750D01*
X25640950Y-25776750D01*
X25687263Y-25929470D01*
X25762480Y-26070220D01*
X25863711Y-26193591D01*
X25987065Y-26294843D01*
X26160193Y-26366041D01*
X26280650Y-26324215D01*
X26280650Y-25226750D01*
X26598150Y-25226750D01*
X26598150Y-26324215D01*
X26718607Y-26366041D01*
X26891735Y-26294843D01*
X27015089Y-26193591D01*
X27116320Y-26070220D01*
X27191537Y-25929470D01*
X27237850Y-25776750D01*
X27237850Y-25226750D01*
X34280950Y-25226750D01*
X34280950Y-25776750D01*
X34327263Y-25929470D01*
X34402480Y-26070220D01*
X34503711Y-26193591D01*
X34627065Y-26294843D01*
X34800193Y-26366041D01*
X34920650Y-26324215D01*
X34920650Y-25226750D01*
X35238150Y-25226750D01*
X35238150Y-26324215D01*
X35358607Y-26366041D01*
X35531735Y-26294843D01*
X35655089Y-26193591D01*
X35756320Y-26070220D01*
X35831537Y-25929470D01*
X35877850Y-25776750D01*
X35877850Y-25226750D01*
X35238150Y-25226750D01*
X34920650Y-25226750D01*
X34280950Y-25226750D01*
X27237850Y-25226750D01*
X26598150Y-25226750D01*
X26280650Y-25226750D01*
X25640950Y-25226750D01*
X21964650Y-25226750D01*
X21964650Y-24359250D01*
X25640950Y-24359250D01*
X25640950Y-24909250D01*
X26280650Y-24909250D01*
X26280650Y-23811785D01*
X26598150Y-23811785D01*
X26598150Y-24909250D01*
X27237850Y-24909250D01*
X27237850Y-24476595D01*
X27245950Y-24476595D01*
X27245950Y-24599405D01*
X27269908Y-24719854D01*
X27316905Y-24833314D01*
X27385134Y-24935426D01*
X27471974Y-25022266D01*
X27574086Y-25090495D01*
X27687546Y-25137492D01*
X27807995Y-25161450D01*
X27930805Y-25161450D01*
X28051254Y-25137492D01*
X28164714Y-25090495D01*
X28266826Y-25022266D01*
X28353666Y-24935426D01*
X28421895Y-24833314D01*
X28468892Y-24719854D01*
X28492850Y-24599405D01*
X28492850Y-24476595D01*
X33025950Y-24476595D01*
X33025950Y-24599405D01*
X33049908Y-24719854D01*
X33096905Y-24833314D01*
X33165134Y-24935426D01*
X33251974Y-25022266D01*
X33354086Y-25090495D01*
X33467546Y-25137492D01*
X33587995Y-25161450D01*
X33710805Y-25161450D01*
X33831254Y-25137492D01*
X33944714Y-25090495D01*
X34046826Y-25022266D01*
X34133666Y-24935426D01*
X34201895Y-24833314D01*
X34248892Y-24719854D01*
X34272850Y-24599405D01*
X34272850Y-24476595D01*
X34249510Y-24359250D01*
X34280950Y-24359250D01*
X34280950Y-24909250D01*
X34920650Y-24909250D01*
X34920650Y-23811785D01*
X35238150Y-23811785D01*
X35238150Y-24909250D01*
X35877850Y-24909250D01*
X35877850Y-24359250D01*
X35831537Y-24206530D01*
X35756320Y-24065780D01*
X35655089Y-23942409D01*
X35531735Y-23841157D01*
X35358607Y-23769959D01*
X35238150Y-23811785D01*
X34920650Y-23811785D01*
X34800193Y-23769959D01*
X34627065Y-23841157D01*
X34503711Y-23942409D01*
X34402480Y-24065780D01*
X34327263Y-24206530D01*
X34280950Y-24359250D01*
X34249510Y-24359250D01*
X34248892Y-24356146D01*
X34201895Y-24242686D01*
X34133666Y-24140574D01*
X34046826Y-24053734D01*
X33944714Y-23985505D01*
X33831254Y-23938508D01*
X33710805Y-23914550D01*
X33587995Y-23914550D01*
X33467546Y-23938508D01*
X33354086Y-23985505D01*
X33251974Y-24053734D01*
X33165134Y-24140574D01*
X33096905Y-24242686D01*
X33049908Y-24356146D01*
X33025950Y-24476595D01*
X28492850Y-24476595D01*
X28468892Y-24356146D01*
X28421895Y-24242686D01*
X28353666Y-24140574D01*
X28266826Y-24053734D01*
X28164714Y-23985505D01*
X28051254Y-23938508D01*
X27930805Y-23914550D01*
X27807995Y-23914550D01*
X27687546Y-23938508D01*
X27574086Y-23985505D01*
X27471974Y-24053734D01*
X27385134Y-24140574D01*
X27316905Y-24242686D01*
X27269908Y-24356146D01*
X27245950Y-24476595D01*
X27237850Y-24476595D01*
X27237850Y-24359250D01*
X27191537Y-24206530D01*
X27116320Y-24065780D01*
X27015089Y-23942409D01*
X26891735Y-23841157D01*
X26718607Y-23769959D01*
X26598150Y-23811785D01*
X26280650Y-23811785D01*
X26160193Y-23769959D01*
X25987065Y-23841157D01*
X25863711Y-23942409D01*
X25762480Y-24065780D01*
X25687263Y-24206530D01*
X25640950Y-24359250D01*
X21964650Y-24359250D01*
X21964650Y-21175570D01*
X25614944Y-21175570D01*
X25628361Y-21336652D01*
X25672945Y-21492022D01*
X25746984Y-21635708D01*
X25847632Y-21762189D01*
X25971021Y-21866604D01*
X26160193Y-21936041D01*
X26280650Y-21894215D01*
X26280650Y-21046750D01*
X26598150Y-21046750D01*
X26598150Y-21894215D01*
X26718607Y-21936041D01*
X26907779Y-21866604D01*
X27031168Y-21762189D01*
X27131816Y-21635708D01*
X27205855Y-21492022D01*
X27250439Y-21336652D01*
X27263856Y-21175570D01*
X34254944Y-21175570D01*
X34268361Y-21336652D01*
X34312945Y-21492022D01*
X34386984Y-21635708D01*
X34487632Y-21762189D01*
X34611021Y-21866604D01*
X34800193Y-21936041D01*
X34920650Y-21894215D01*
X34920650Y-21046750D01*
X35238150Y-21046750D01*
X35238150Y-21894215D01*
X35358607Y-21936041D01*
X35547779Y-21866604D01*
X35671168Y-21762189D01*
X35771816Y-21635708D01*
X35845855Y-21492022D01*
X35890439Y-21336652D01*
X35903856Y-21175570D01*
X35817149Y-21046750D01*
X35238150Y-21046750D01*
X34920650Y-21046750D01*
X34341651Y-21046750D01*
X34254944Y-21175570D01*
X27263856Y-21175570D01*
X27177149Y-21046750D01*
X26598150Y-21046750D01*
X26280650Y-21046750D01*
X25701651Y-21046750D01*
X25614944Y-21175570D01*
X21964650Y-21175570D01*
X21964650Y-20600430D01*
X25614944Y-20600430D01*
X25701651Y-20729250D01*
X26280650Y-20729250D01*
X26280650Y-19881785D01*
X26598150Y-19881785D01*
X26598150Y-20729250D01*
X27177149Y-20729250D01*
X27263856Y-20600430D01*
X34254944Y-20600430D01*
X34341651Y-20729250D01*
X34920650Y-20729250D01*
X34920650Y-19881785D01*
X35238150Y-19881785D01*
X35238150Y-20729250D01*
X35817149Y-20729250D01*
X35903856Y-20600430D01*
X35890439Y-20439348D01*
X35845855Y-20283978D01*
X35771816Y-20140292D01*
X35671168Y-20013811D01*
X35547779Y-19909396D01*
X35358607Y-19839959D01*
X35238150Y-19881785D01*
X34920650Y-19881785D01*
X34800193Y-19839959D01*
X34611021Y-19909396D01*
X34487632Y-20013811D01*
X34386984Y-20140292D01*
X34312945Y-20283978D01*
X34268361Y-20439348D01*
X34254944Y-20600430D01*
X27263856Y-20600430D01*
X27250439Y-20439348D01*
X27205855Y-20283978D01*
X27131816Y-20140292D01*
X27031168Y-20013811D01*
X26907779Y-19909396D01*
X26718607Y-19839959D01*
X26598150Y-19881785D01*
X26280650Y-19881785D01*
X26160193Y-19839959D01*
X25971021Y-19909396D01*
X25847632Y-20013811D01*
X25746984Y-20140292D01*
X25672945Y-20283978D01*
X25628361Y-20439348D01*
X25614944Y-20600430D01*
X21964650Y-20600430D01*
X21964650Y-19611450D01*
X39554150Y-19611450D01*
X39554150Y-26681346D01*
G37*
X39554150Y-26681346D02*
X39406746Y-26828750D01*
X22112054Y-26828750D01*
X21964650Y-26681346D01*
X21964650Y-25226750D01*
X25640950Y-25226750D01*
X25640950Y-25776750D01*
X25687263Y-25929470D01*
X25762480Y-26070220D01*
X25863711Y-26193591D01*
X25987065Y-26294843D01*
X26160193Y-26366041D01*
X26280650Y-26324215D01*
X26280650Y-25226750D01*
X26598150Y-25226750D01*
X26598150Y-26324215D01*
X26718607Y-26366041D01*
X26891735Y-26294843D01*
X27015089Y-26193591D01*
X27116320Y-26070220D01*
X27191537Y-25929470D01*
X27237850Y-25776750D01*
X27237850Y-25226750D01*
X34280950Y-25226750D01*
X34280950Y-25776750D01*
X34327263Y-25929470D01*
X34402480Y-26070220D01*
X34503711Y-26193591D01*
X34627065Y-26294843D01*
X34800193Y-26366041D01*
X34920650Y-26324215D01*
X34920650Y-25226750D01*
X35238150Y-25226750D01*
X35238150Y-26324215D01*
X35358607Y-26366041D01*
X35531735Y-26294843D01*
X35655089Y-26193591D01*
X35756320Y-26070220D01*
X35831537Y-25929470D01*
X35877850Y-25776750D01*
X35877850Y-25226750D01*
X35238150Y-25226750D01*
X34920650Y-25226750D01*
X34280950Y-25226750D01*
X27237850Y-25226750D01*
X26598150Y-25226750D01*
X26280650Y-25226750D01*
X25640950Y-25226750D01*
X21964650Y-25226750D01*
X21964650Y-24359250D01*
X25640950Y-24359250D01*
X25640950Y-24909250D01*
X26280650Y-24909250D01*
X26280650Y-23811785D01*
X26598150Y-23811785D01*
X26598150Y-24909250D01*
X27237850Y-24909250D01*
X27237850Y-24476595D01*
X27245950Y-24476595D01*
X27245950Y-24599405D01*
X27269908Y-24719854D01*
X27316905Y-24833314D01*
X27385134Y-24935426D01*
X27471974Y-25022266D01*
X27574086Y-25090495D01*
X27687546Y-25137492D01*
X27807995Y-25161450D01*
X27930805Y-25161450D01*
X28051254Y-25137492D01*
X28164714Y-25090495D01*
X28266826Y-25022266D01*
X28353666Y-24935426D01*
X28421895Y-24833314D01*
X28468892Y-24719854D01*
X28492850Y-24599405D01*
X28492850Y-24476595D01*
X33025950Y-24476595D01*
X33025950Y-24599405D01*
X33049908Y-24719854D01*
X33096905Y-24833314D01*
X33165134Y-24935426D01*
X33251974Y-25022266D01*
X33354086Y-25090495D01*
X33467546Y-25137492D01*
X33587995Y-25161450D01*
X33710805Y-25161450D01*
X33831254Y-25137492D01*
X33944714Y-25090495D01*
X34046826Y-25022266D01*
X34133666Y-24935426D01*
X34201895Y-24833314D01*
X34248892Y-24719854D01*
X34272850Y-24599405D01*
X34272850Y-24476595D01*
X34249510Y-24359250D01*
X34280950Y-24359250D01*
X34280950Y-24909250D01*
X34920650Y-24909250D01*
X34920650Y-23811785D01*
X35238150Y-23811785D01*
X35238150Y-24909250D01*
X35877850Y-24909250D01*
X35877850Y-24359250D01*
X35831537Y-24206530D01*
X35756320Y-24065780D01*
X35655089Y-23942409D01*
X35531735Y-23841157D01*
X35358607Y-23769959D01*
X35238150Y-23811785D01*
X34920650Y-23811785D01*
X34800193Y-23769959D01*
X34627065Y-23841157D01*
X34503711Y-23942409D01*
X34402480Y-24065780D01*
X34327263Y-24206530D01*
X34280950Y-24359250D01*
X34249510Y-24359250D01*
X34248892Y-24356146D01*
X34201895Y-24242686D01*
X34133666Y-24140574D01*
X34046826Y-24053734D01*
X33944714Y-23985505D01*
X33831254Y-23938508D01*
X33710805Y-23914550D01*
X33587995Y-23914550D01*
X33467546Y-23938508D01*
X33354086Y-23985505D01*
X33251974Y-24053734D01*
X33165134Y-24140574D01*
X33096905Y-24242686D01*
X33049908Y-24356146D01*
X33025950Y-24476595D01*
X28492850Y-24476595D01*
X28468892Y-24356146D01*
X28421895Y-24242686D01*
X28353666Y-24140574D01*
X28266826Y-24053734D01*
X28164714Y-23985505D01*
X28051254Y-23938508D01*
X27930805Y-23914550D01*
X27807995Y-23914550D01*
X27687546Y-23938508D01*
X27574086Y-23985505D01*
X27471974Y-24053734D01*
X27385134Y-24140574D01*
X27316905Y-24242686D01*
X27269908Y-24356146D01*
X27245950Y-24476595D01*
X27237850Y-24476595D01*
X27237850Y-24359250D01*
X27191537Y-24206530D01*
X27116320Y-24065780D01*
X27015089Y-23942409D01*
X26891735Y-23841157D01*
X26718607Y-23769959D01*
X26598150Y-23811785D01*
X26280650Y-23811785D01*
X26160193Y-23769959D01*
X25987065Y-23841157D01*
X25863711Y-23942409D01*
X25762480Y-24065780D01*
X25687263Y-24206530D01*
X25640950Y-24359250D01*
X21964650Y-24359250D01*
X21964650Y-21175570D01*
X25614944Y-21175570D01*
X25628361Y-21336652D01*
X25672945Y-21492022D01*
X25746984Y-21635708D01*
X25847632Y-21762189D01*
X25971021Y-21866604D01*
X26160193Y-21936041D01*
X26280650Y-21894215D01*
X26280650Y-21046750D01*
X26598150Y-21046750D01*
X26598150Y-21894215D01*
X26718607Y-21936041D01*
X26907779Y-21866604D01*
X27031168Y-21762189D01*
X27131816Y-21635708D01*
X27205855Y-21492022D01*
X27250439Y-21336652D01*
X27263856Y-21175570D01*
X34254944Y-21175570D01*
X34268361Y-21336652D01*
X34312945Y-21492022D01*
X34386984Y-21635708D01*
X34487632Y-21762189D01*
X34611021Y-21866604D01*
X34800193Y-21936041D01*
X34920650Y-21894215D01*
X34920650Y-21046750D01*
X35238150Y-21046750D01*
X35238150Y-21894215D01*
X35358607Y-21936041D01*
X35547779Y-21866604D01*
X35671168Y-21762189D01*
X35771816Y-21635708D01*
X35845855Y-21492022D01*
X35890439Y-21336652D01*
X35903856Y-21175570D01*
X35817149Y-21046750D01*
X35238150Y-21046750D01*
X34920650Y-21046750D01*
X34341651Y-21046750D01*
X34254944Y-21175570D01*
X27263856Y-21175570D01*
X27177149Y-21046750D01*
X26598150Y-21046750D01*
X26280650Y-21046750D01*
X25701651Y-21046750D01*
X25614944Y-21175570D01*
X21964650Y-21175570D01*
X21964650Y-20600430D01*
X25614944Y-20600430D01*
X25701651Y-20729250D01*
X26280650Y-20729250D01*
X26280650Y-19881785D01*
X26598150Y-19881785D01*
X26598150Y-20729250D01*
X27177149Y-20729250D01*
X27263856Y-20600430D01*
X34254944Y-20600430D01*
X34341651Y-20729250D01*
X34920650Y-20729250D01*
X34920650Y-19881785D01*
X35238150Y-19881785D01*
X35238150Y-20729250D01*
X35817149Y-20729250D01*
X35903856Y-20600430D01*
X35890439Y-20439348D01*
X35845855Y-20283978D01*
X35771816Y-20140292D01*
X35671168Y-20013811D01*
X35547779Y-19909396D01*
X35358607Y-19839959D01*
X35238150Y-19881785D01*
X34920650Y-19881785D01*
X34800193Y-19839959D01*
X34611021Y-19909396D01*
X34487632Y-20013811D01*
X34386984Y-20140292D01*
X34312945Y-20283978D01*
X34268361Y-20439348D01*
X34254944Y-20600430D01*
X27263856Y-20600430D01*
X27250439Y-20439348D01*
X27205855Y-20283978D01*
X27131816Y-20140292D01*
X27031168Y-20013811D01*
X26907779Y-19909396D01*
X26718607Y-19839959D01*
X26598150Y-19881785D01*
X26280650Y-19881785D01*
X26160193Y-19839959D01*
X25971021Y-19909396D01*
X25847632Y-20013811D01*
X25746984Y-20140292D01*
X25672945Y-20283978D01*
X25628361Y-20439348D01*
X25614944Y-20600430D01*
X21964650Y-20600430D01*
X21964650Y-19611450D01*
X39554150Y-19611450D01*
X39554150Y-26681346D01*
M02*
