M48
; DRILL file {KiCad (5.1.5)-3} date 27.04.2020 21:47:10
; FORMAT={3:3/ absolute / metric / suppress leading zeros}
; #@! TF.CreationDate,2020-04-27T21:47:10+02:00
; #@! TF.GenerationSoftware,Kicad,Pcbnew,(5.1.5)-3
FMAT,2
METRIC,TZ
T1C0.400
T2C0.600
T3C2.700
T4C0.650
%
G90
G05
T1
X27319Y-27559
X28309Y-27588
X30251Y-23876
X32474Y-34036
X33209Y-27588
X34199Y-27548
T3
X18759Y-50288
X42759Y-50288
X18759Y-22288
X42759Y-22288
T4
X27869Y-24538
X33649Y-24538
T2
G00X26439Y-21188
M15
G01X26439Y-20588
M16
G05
G00X26439Y-25618
M15
G01X26439Y-24518
M16
G05
G00X35079Y-21188
M15
G01X35079Y-20588
M16
G05
G00X35079Y-25618
M15
G01X35079Y-24518
M16
G05
T0
M30
