G04 #@! TF.GenerationSoftware,KiCad,Pcbnew,(5.1.5)-3*
G04 #@! TF.CreationDate,2020-04-27T21:47:52+02:00*
G04 #@! TF.ProjectId,unified-usb-pcb_simple,756e6966-6965-4642-9d75-73622d706362,rev?*
G04 #@! TF.SameCoordinates,Original*
G04 #@! TF.FileFunction,Legend,Bot*
G04 #@! TF.FilePolarity,Positive*
%FSLAX46Y46*%
G04 Gerber Fmt 4.6, Leading zero omitted, Abs format (unit mm)*
G04 Created by KiCad (PCBNEW (5.1.5)-3) date 2020-04-27 21:47:52*
%MOMM*%
%LPD*%
G04 APERTURE LIST*
%ADD10C,0.150000*%
G04 APERTURE END LIST*
D10*
X45171661Y-42887380D02*
X44600233Y-42887380D01*
X44885947Y-43887380D02*
X44885947Y-42887380D01*
X44362138Y-43220714D02*
X44124042Y-43887380D01*
X43885947Y-43220714D02*
X44124042Y-43887380D01*
X44219280Y-44125476D01*
X44266900Y-44173095D01*
X44362138Y-44220714D01*
X43504995Y-43220714D02*
X43504995Y-44220714D01*
X43504995Y-43268333D02*
X43409757Y-43220714D01*
X43219280Y-43220714D01*
X43124042Y-43268333D01*
X43076423Y-43315952D01*
X43028804Y-43411190D01*
X43028804Y-43696904D01*
X43076423Y-43792142D01*
X43124042Y-43839761D01*
X43219280Y-43887380D01*
X43409757Y-43887380D01*
X43504995Y-43839761D01*
X42219280Y-43839761D02*
X42314519Y-43887380D01*
X42504995Y-43887380D01*
X42600233Y-43839761D01*
X42647852Y-43744523D01*
X42647852Y-43363571D01*
X42600233Y-43268333D01*
X42504995Y-43220714D01*
X42314519Y-43220714D01*
X42219280Y-43268333D01*
X42171661Y-43363571D01*
X42171661Y-43458809D01*
X42647852Y-43554047D01*
X41743090Y-43506428D02*
X40981185Y-43506428D01*
X39933566Y-43792142D02*
X39981185Y-43839761D01*
X40124042Y-43887380D01*
X40219280Y-43887380D01*
X40362138Y-43839761D01*
X40457376Y-43744523D01*
X40504995Y-43649285D01*
X40552614Y-43458809D01*
X40552614Y-43315952D01*
X40504995Y-43125476D01*
X40457376Y-43030238D01*
X40362138Y-42935000D01*
X40219280Y-42887380D01*
X40124042Y-42887380D01*
X39981185Y-42935000D01*
X39933566Y-42982619D01*
X38743090Y-43887380D02*
X38743090Y-42887380D01*
X38362138Y-42887380D01*
X38266900Y-42935000D01*
X38219280Y-42982619D01*
X38171661Y-43077857D01*
X38171661Y-43220714D01*
X38219280Y-43315952D01*
X38266900Y-43363571D01*
X38362138Y-43411190D01*
X38743090Y-43411190D01*
X37171661Y-43792142D02*
X37219280Y-43839761D01*
X37362138Y-43887380D01*
X37457376Y-43887380D01*
X37600233Y-43839761D01*
X37695471Y-43744523D01*
X37743090Y-43649285D01*
X37790709Y-43458809D01*
X37790709Y-43315952D01*
X37743090Y-43125476D01*
X37695471Y-43030238D01*
X37600233Y-42935000D01*
X37457376Y-42887380D01*
X37362138Y-42887380D01*
X37219280Y-42935000D01*
X37171661Y-42982619D01*
X36409757Y-43363571D02*
X36266900Y-43411190D01*
X36219280Y-43458809D01*
X36171661Y-43554047D01*
X36171661Y-43696904D01*
X36219280Y-43792142D01*
X36266900Y-43839761D01*
X36362138Y-43887380D01*
X36743090Y-43887380D01*
X36743090Y-42887380D01*
X36409757Y-42887380D01*
X36314519Y-42935000D01*
X36266900Y-42982619D01*
X36219280Y-43077857D01*
X36219280Y-43173095D01*
X36266900Y-43268333D01*
X36314519Y-43315952D01*
X36409757Y-43363571D01*
X36743090Y-43363571D01*
X34695471Y-44220714D02*
X34933566Y-44220714D01*
X34933566Y-42792142D01*
X34695471Y-42792142D01*
X34362138Y-43839761D02*
X34266900Y-43887380D01*
X34076423Y-43887380D01*
X33981185Y-43839761D01*
X33933566Y-43744523D01*
X33933566Y-43696904D01*
X33981185Y-43601666D01*
X34076423Y-43554047D01*
X34219280Y-43554047D01*
X34314519Y-43506428D01*
X34362138Y-43411190D01*
X34362138Y-43363571D01*
X34314519Y-43268333D01*
X34219280Y-43220714D01*
X34076423Y-43220714D01*
X33981185Y-43268333D01*
X33504995Y-43887380D02*
X33504995Y-43220714D01*
X33504995Y-42887380D02*
X33552614Y-42935000D01*
X33504995Y-42982619D01*
X33457376Y-42935000D01*
X33504995Y-42887380D01*
X33504995Y-42982619D01*
X33028804Y-43887380D02*
X33028804Y-43220714D01*
X33028804Y-43315952D02*
X32981185Y-43268333D01*
X32885947Y-43220714D01*
X32743090Y-43220714D01*
X32647852Y-43268333D01*
X32600233Y-43363571D01*
X32600233Y-43887380D01*
X32600233Y-43363571D02*
X32552614Y-43268333D01*
X32457376Y-43220714D01*
X32314519Y-43220714D01*
X32219280Y-43268333D01*
X32171661Y-43363571D01*
X32171661Y-43887380D01*
X31695471Y-43220714D02*
X31695471Y-44220714D01*
X31695471Y-43268333D02*
X31600233Y-43220714D01*
X31409757Y-43220714D01*
X31314519Y-43268333D01*
X31266900Y-43315952D01*
X31219280Y-43411190D01*
X31219280Y-43696904D01*
X31266900Y-43792142D01*
X31314519Y-43839761D01*
X31409757Y-43887380D01*
X31600233Y-43887380D01*
X31695471Y-43839761D01*
X30647852Y-43887380D02*
X30743090Y-43839761D01*
X30790709Y-43744523D01*
X30790709Y-42887380D01*
X29885947Y-43839761D02*
X29981185Y-43887380D01*
X30171661Y-43887380D01*
X30266900Y-43839761D01*
X30314519Y-43744523D01*
X30314519Y-43363571D01*
X30266900Y-43268333D01*
X30171661Y-43220714D01*
X29981185Y-43220714D01*
X29885947Y-43268333D01*
X29838328Y-43363571D01*
X29838328Y-43458809D01*
X30314519Y-43554047D01*
X29504995Y-44220714D02*
X29266900Y-44220714D01*
X29266900Y-42792142D01*
X29504995Y-42792142D01*
X27981185Y-43887380D02*
X27981185Y-43220714D01*
X27981185Y-43411190D02*
X27933566Y-43315952D01*
X27885947Y-43268333D01*
X27790709Y-43220714D01*
X27695471Y-43220714D01*
X26981185Y-43839761D02*
X27076423Y-43887380D01*
X27266900Y-43887380D01*
X27362138Y-43839761D01*
X27409757Y-43744523D01*
X27409757Y-43363571D01*
X27362138Y-43268333D01*
X27266900Y-43220714D01*
X27076423Y-43220714D01*
X26981185Y-43268333D01*
X26933566Y-43363571D01*
X26933566Y-43458809D01*
X27409757Y-43554047D01*
X26600233Y-43220714D02*
X26362138Y-43887380D01*
X26124042Y-43220714D01*
X24457376Y-43887380D02*
X25028804Y-43887380D01*
X24743090Y-43887380D02*
X24743090Y-42887380D01*
X24838328Y-43030238D01*
X24933566Y-43125476D01*
X25028804Y-43173095D01*
X24028804Y-43792142D02*
X23981185Y-43839761D01*
X24028804Y-43887380D01*
X24076423Y-43839761D01*
X24028804Y-43792142D01*
X24028804Y-43887380D01*
X23362138Y-42887380D02*
X23266900Y-42887380D01*
X23171661Y-42935000D01*
X23124042Y-42982619D01*
X23076423Y-43077857D01*
X23028804Y-43268333D01*
X23028804Y-43506428D01*
X23076423Y-43696904D01*
X23124042Y-43792142D01*
X23171661Y-43839761D01*
X23266900Y-43887380D01*
X23362138Y-43887380D01*
X23457376Y-43839761D01*
X23504995Y-43792142D01*
X23552614Y-43696904D01*
X23600233Y-43506428D01*
X23600233Y-43268333D01*
X23552614Y-43077857D01*
X23504995Y-42982619D01*
X23457376Y-42935000D01*
X23362138Y-42887380D01*
X44600233Y-44870714D02*
X44600233Y-45680238D01*
X44647852Y-45775476D01*
X44695471Y-45823095D01*
X44790709Y-45870714D01*
X44933566Y-45870714D01*
X45028804Y-45823095D01*
X44600233Y-45489761D02*
X44695471Y-45537380D01*
X44885947Y-45537380D01*
X44981185Y-45489761D01*
X45028804Y-45442142D01*
X45076423Y-45346904D01*
X45076423Y-45061190D01*
X45028804Y-44965952D01*
X44981185Y-44918333D01*
X44885947Y-44870714D01*
X44695471Y-44870714D01*
X44600233Y-44918333D01*
X44124042Y-45537380D02*
X44124042Y-44870714D01*
X44124042Y-44537380D02*
X44171661Y-44585000D01*
X44124042Y-44632619D01*
X44076423Y-44585000D01*
X44124042Y-44537380D01*
X44124042Y-44632619D01*
X43790709Y-44870714D02*
X43409757Y-44870714D01*
X43647852Y-44537380D02*
X43647852Y-45394523D01*
X43600233Y-45489761D01*
X43504995Y-45537380D01*
X43409757Y-45537380D01*
X43076423Y-45537380D02*
X43076423Y-44537380D01*
X42647852Y-45537380D02*
X42647852Y-45013571D01*
X42695471Y-44918333D01*
X42790709Y-44870714D01*
X42933566Y-44870714D01*
X43028804Y-44918333D01*
X43076423Y-44965952D01*
X41743090Y-44870714D02*
X41743090Y-45537380D01*
X42171661Y-44870714D02*
X42171661Y-45394523D01*
X42124042Y-45489761D01*
X42028804Y-45537380D01*
X41885947Y-45537380D01*
X41790709Y-45489761D01*
X41743090Y-45442142D01*
X41266900Y-45537380D02*
X41266900Y-44537380D01*
X41266900Y-44918333D02*
X41171661Y-44870714D01*
X40981185Y-44870714D01*
X40885947Y-44918333D01*
X40838328Y-44965952D01*
X40790709Y-45061190D01*
X40790709Y-45346904D01*
X40838328Y-45442142D01*
X40885947Y-45489761D01*
X40981185Y-45537380D01*
X41171661Y-45537380D01*
X41266900Y-45489761D01*
X40362138Y-45442142D02*
X40314519Y-45489761D01*
X40362138Y-45537380D01*
X40409757Y-45489761D01*
X40362138Y-45442142D01*
X40362138Y-45537380D01*
X39457376Y-45489761D02*
X39552614Y-45537380D01*
X39743090Y-45537380D01*
X39838328Y-45489761D01*
X39885947Y-45442142D01*
X39933566Y-45346904D01*
X39933566Y-45061190D01*
X39885947Y-44965952D01*
X39838328Y-44918333D01*
X39743090Y-44870714D01*
X39552614Y-44870714D01*
X39457376Y-44918333D01*
X38885947Y-45537380D02*
X38981185Y-45489761D01*
X39028804Y-45442142D01*
X39076423Y-45346904D01*
X39076423Y-45061190D01*
X39028804Y-44965952D01*
X38981185Y-44918333D01*
X38885947Y-44870714D01*
X38743090Y-44870714D01*
X38647852Y-44918333D01*
X38600233Y-44965952D01*
X38552614Y-45061190D01*
X38552614Y-45346904D01*
X38600233Y-45442142D01*
X38647852Y-45489761D01*
X38743090Y-45537380D01*
X38885947Y-45537380D01*
X38124042Y-45537380D02*
X38124042Y-44870714D01*
X38124042Y-44965952D02*
X38076423Y-44918333D01*
X37981185Y-44870714D01*
X37838328Y-44870714D01*
X37743090Y-44918333D01*
X37695471Y-45013571D01*
X37695471Y-45537380D01*
X37695471Y-45013571D02*
X37647852Y-44918333D01*
X37552614Y-44870714D01*
X37409757Y-44870714D01*
X37314519Y-44918333D01*
X37266900Y-45013571D01*
X37266900Y-45537380D01*
X36076423Y-44489761D02*
X36933566Y-45775476D01*
X35362138Y-45489761D02*
X35457376Y-45537380D01*
X35647852Y-45537380D01*
X35743090Y-45489761D01*
X35790709Y-45394523D01*
X35790709Y-45013571D01*
X35743090Y-44918333D01*
X35647852Y-44870714D01*
X35457376Y-44870714D01*
X35362138Y-44918333D01*
X35314519Y-45013571D01*
X35314519Y-45108809D01*
X35790709Y-45204047D01*
X34885947Y-45537380D02*
X34885947Y-44537380D01*
X34885947Y-44918333D02*
X34790709Y-44870714D01*
X34600233Y-44870714D01*
X34504995Y-44918333D01*
X34457376Y-44965952D01*
X34409757Y-45061190D01*
X34409757Y-45346904D01*
X34457376Y-45442142D01*
X34504995Y-45489761D01*
X34600233Y-45537380D01*
X34790709Y-45537380D01*
X34885947Y-45489761D01*
X33552614Y-45537380D02*
X33552614Y-45013571D01*
X33600233Y-44918333D01*
X33695471Y-44870714D01*
X33885947Y-44870714D01*
X33981185Y-44918333D01*
X33552614Y-45489761D02*
X33647852Y-45537380D01*
X33885947Y-45537380D01*
X33981185Y-45489761D01*
X34028804Y-45394523D01*
X34028804Y-45299285D01*
X33981185Y-45204047D01*
X33885947Y-45156428D01*
X33647852Y-45156428D01*
X33552614Y-45108809D01*
X33124042Y-45489761D02*
X33028804Y-45537380D01*
X32838328Y-45537380D01*
X32743090Y-45489761D01*
X32695471Y-45394523D01*
X32695471Y-45346904D01*
X32743090Y-45251666D01*
X32838328Y-45204047D01*
X32981185Y-45204047D01*
X33076423Y-45156428D01*
X33124042Y-45061190D01*
X33124042Y-45013571D01*
X33076423Y-44918333D01*
X32981185Y-44870714D01*
X32838328Y-44870714D01*
X32743090Y-44918333D01*
X32409757Y-44870714D02*
X32028804Y-44870714D01*
X32266900Y-44537380D02*
X32266900Y-45394523D01*
X32219280Y-45489761D01*
X32124042Y-45537380D01*
X32028804Y-45537380D01*
X31552614Y-45537380D02*
X31647852Y-45489761D01*
X31695471Y-45394523D01*
X31695471Y-44537380D01*
X30790709Y-45489761D02*
X30885947Y-45537380D01*
X31076423Y-45537380D01*
X31171661Y-45489761D01*
X31219280Y-45394523D01*
X31219280Y-45013571D01*
X31171661Y-44918333D01*
X31076423Y-44870714D01*
X30885947Y-44870714D01*
X30790709Y-44918333D01*
X30743090Y-45013571D01*
X30743090Y-45108809D01*
X31219280Y-45204047D01*
X30314519Y-45537380D02*
X30314519Y-44870714D01*
X30314519Y-45061190D02*
X30266900Y-44965952D01*
X30219280Y-44918333D01*
X30124042Y-44870714D01*
X30028804Y-44870714D01*
X28981185Y-44489761D02*
X29838328Y-45775476D01*
X28219280Y-44870714D02*
X28219280Y-45537380D01*
X28647852Y-44870714D02*
X28647852Y-45394523D01*
X28600233Y-45489761D01*
X28504995Y-45537380D01*
X28362138Y-45537380D01*
X28266900Y-45489761D01*
X28219280Y-45442142D01*
X27743090Y-44870714D02*
X27743090Y-45537380D01*
X27743090Y-44965952D02*
X27695471Y-44918333D01*
X27600233Y-44870714D01*
X27457376Y-44870714D01*
X27362138Y-44918333D01*
X27314519Y-45013571D01*
X27314519Y-45537380D01*
X26838328Y-45537380D02*
X26838328Y-44870714D01*
X26838328Y-44537380D02*
X26885947Y-44585000D01*
X26838328Y-44632619D01*
X26790709Y-44585000D01*
X26838328Y-44537380D01*
X26838328Y-44632619D01*
X26504995Y-44870714D02*
X26124042Y-44870714D01*
X26362138Y-45537380D02*
X26362138Y-44680238D01*
X26314519Y-44585000D01*
X26219280Y-44537380D01*
X26124042Y-44537380D01*
X25790709Y-45537380D02*
X25790709Y-44870714D01*
X25790709Y-44537380D02*
X25838328Y-44585000D01*
X25790709Y-44632619D01*
X25743090Y-44585000D01*
X25790709Y-44537380D01*
X25790709Y-44632619D01*
X24933566Y-45489761D02*
X25028804Y-45537380D01*
X25219280Y-45537380D01*
X25314519Y-45489761D01*
X25362138Y-45394523D01*
X25362138Y-45013571D01*
X25314519Y-44918333D01*
X25219280Y-44870714D01*
X25028804Y-44870714D01*
X24933566Y-44918333D01*
X24885947Y-45013571D01*
X24885947Y-45108809D01*
X25362138Y-45204047D01*
X24028804Y-45537380D02*
X24028804Y-44537380D01*
X24028804Y-45489761D02*
X24124042Y-45537380D01*
X24314519Y-45537380D01*
X24409757Y-45489761D01*
X24457376Y-45442142D01*
X24504995Y-45346904D01*
X24504995Y-45061190D01*
X24457376Y-44965952D01*
X24409757Y-44918333D01*
X24314519Y-44870714D01*
X24124042Y-44870714D01*
X24028804Y-44918333D01*
X23552614Y-45156428D02*
X22790709Y-45156428D01*
X21885947Y-44870714D02*
X21885947Y-45537380D01*
X22314519Y-44870714D02*
X22314519Y-45394523D01*
X22266900Y-45489761D01*
X22171661Y-45537380D01*
X22028804Y-45537380D01*
X21933566Y-45489761D01*
X21885947Y-45442142D01*
X21457376Y-45489761D02*
X21362138Y-45537380D01*
X21171661Y-45537380D01*
X21076423Y-45489761D01*
X21028804Y-45394523D01*
X21028804Y-45346904D01*
X21076423Y-45251666D01*
X21171661Y-45204047D01*
X21314519Y-45204047D01*
X21409757Y-45156428D01*
X21457376Y-45061190D01*
X21457376Y-45013571D01*
X21409757Y-44918333D01*
X21314519Y-44870714D01*
X21171661Y-44870714D01*
X21076423Y-44918333D01*
X20600233Y-45537380D02*
X20600233Y-44537380D01*
X20600233Y-44918333D02*
X20504995Y-44870714D01*
X20314519Y-44870714D01*
X20219280Y-44918333D01*
X20171661Y-44965952D01*
X20124042Y-45061190D01*
X20124042Y-45346904D01*
X20171661Y-45442142D01*
X20219280Y-45489761D01*
X20314519Y-45537380D01*
X20504995Y-45537380D01*
X20600233Y-45489761D01*
X19695471Y-45156428D02*
X18933566Y-45156428D01*
X18457376Y-44870714D02*
X18457376Y-45870714D01*
X18457376Y-44918333D02*
X18362138Y-44870714D01*
X18171661Y-44870714D01*
X18076423Y-44918333D01*
X18028804Y-44965952D01*
X17981185Y-45061190D01*
X17981185Y-45346904D01*
X18028804Y-45442142D01*
X18076423Y-45489761D01*
X18171661Y-45537380D01*
X18362138Y-45537380D01*
X18457376Y-45489761D01*
X17124042Y-45489761D02*
X17219280Y-45537380D01*
X17409757Y-45537380D01*
X17504995Y-45489761D01*
X17552614Y-45442142D01*
X17600233Y-45346904D01*
X17600233Y-45061190D01*
X17552614Y-44965952D01*
X17504995Y-44918333D01*
X17409757Y-44870714D01*
X17219280Y-44870714D01*
X17124042Y-44918333D01*
X16695471Y-45537380D02*
X16695471Y-44537380D01*
X16695471Y-44918333D02*
X16600233Y-44870714D01*
X16409757Y-44870714D01*
X16314519Y-44918333D01*
X16266900Y-44965952D01*
X16219280Y-45061190D01*
X16219280Y-45346904D01*
X16266900Y-45442142D01*
X16314519Y-45489761D01*
X16409757Y-45537380D01*
X16600233Y-45537380D01*
X16695471Y-45489761D01*
X45028804Y-47187380D02*
X45028804Y-46520714D01*
X45028804Y-46615952D02*
X44981185Y-46568333D01*
X44885947Y-46520714D01*
X44743090Y-46520714D01*
X44647852Y-46568333D01*
X44600233Y-46663571D01*
X44600233Y-47187380D01*
X44600233Y-46663571D02*
X44552614Y-46568333D01*
X44457376Y-46520714D01*
X44314519Y-46520714D01*
X44219280Y-46568333D01*
X44171661Y-46663571D01*
X44171661Y-47187380D01*
X43695471Y-46520714D02*
X43695471Y-47520714D01*
X43695471Y-46568333D02*
X43600233Y-46520714D01*
X43409757Y-46520714D01*
X43314519Y-46568333D01*
X43266900Y-46615952D01*
X43219280Y-46711190D01*
X43219280Y-46996904D01*
X43266900Y-47092142D01*
X43314519Y-47139761D01*
X43409757Y-47187380D01*
X43600233Y-47187380D01*
X43695471Y-47139761D01*
X42885947Y-46520714D02*
X42695471Y-47187380D01*
X42504995Y-46711190D01*
X42314519Y-47187380D01*
X42124042Y-46520714D01*
X41743090Y-47187380D02*
X41743090Y-46520714D01*
X41743090Y-46711190D02*
X41695471Y-46615952D01*
X41647852Y-46568333D01*
X41552614Y-46520714D01*
X41457376Y-46520714D01*
X41124042Y-47092142D02*
X41076423Y-47139761D01*
X41124042Y-47187380D01*
X41171661Y-47139761D01*
X41124042Y-47092142D01*
X41124042Y-47187380D01*
X40743090Y-47187380D02*
X40219280Y-46520714D01*
X40743090Y-46520714D02*
X40219280Y-47187380D01*
X39933566Y-46520714D02*
X39695471Y-47187380D01*
X39457376Y-46520714D02*
X39695471Y-47187380D01*
X39790709Y-47425476D01*
X39838328Y-47473095D01*
X39933566Y-47520714D01*
X39171661Y-46520714D02*
X38647852Y-46520714D01*
X39171661Y-47187380D01*
X38647852Y-47187380D01*
M02*
