G04 #@! TF.GenerationSoftware,KiCad,Pcbnew,(5.1.5)-3*
G04 #@! TF.CreationDate,2020-04-27T21:47:52+02:00*
G04 #@! TF.ProjectId,unified-usb-pcb_simple,756e6966-6965-4642-9d75-73622d706362,rev?*
G04 #@! TF.SameCoordinates,Original*
G04 #@! TF.FileFunction,Copper,L1,Top*
G04 #@! TF.FilePolarity,Positive*
%FSLAX46Y46*%
G04 Gerber Fmt 4.6, Leading zero omitted, Abs format (unit mm)*
G04 Created by KiCad (PCBNEW (5.1.5)-3) date 2020-04-27 21:47:52*
%MOMM*%
%LPD*%
G04 APERTURE LIST*
%ADD10R,0.600000X1.450000*%
%ADD11R,0.300000X1.450000*%
%ADD12O,1.000000X2.100000*%
%ADD13O,1.000000X1.600000*%
%ADD14C,0.100000*%
%ADD15C,4.700000*%
%ADD16R,1.060000X0.650000*%
%ADD17C,0.800000*%
%ADD18C,0.254000*%
%ADD19C,0.508000*%
%ADD20C,0.190500*%
G04 APERTURE END LIST*
D10*
X27509400Y-25983000D03*
X28309400Y-25983000D03*
X33209400Y-25983000D03*
X34009400Y-25983000D03*
X34009400Y-25983000D03*
X33209400Y-25983000D03*
X28309400Y-25983000D03*
X27509400Y-25983000D03*
D11*
X32509400Y-25983000D03*
X32009400Y-25983000D03*
X31509400Y-25983000D03*
X30509400Y-25983000D03*
X30009400Y-25983000D03*
X29509400Y-25983000D03*
X29009400Y-25983000D03*
X31009400Y-25983000D03*
D12*
X26439400Y-25068000D03*
X35079400Y-25068000D03*
D13*
X35079400Y-20888000D03*
X26439400Y-20888000D03*
G04 #@! TA.AperFunction,SMDPad,CuDef*
D14*
G36*
X29005091Y-42464053D02*
G01*
X29026326Y-42467203D01*
X29047150Y-42472419D01*
X29067362Y-42479651D01*
X29086768Y-42488830D01*
X29105181Y-42499866D01*
X29122424Y-42512654D01*
X29138330Y-42527070D01*
X29152746Y-42542976D01*
X29165534Y-42560219D01*
X29176570Y-42578632D01*
X29185749Y-42598038D01*
X29192981Y-42618250D01*
X29198197Y-42639074D01*
X29201347Y-42660309D01*
X29202400Y-42681750D01*
X29202400Y-43119250D01*
X29201347Y-43140691D01*
X29198197Y-43161926D01*
X29192981Y-43182750D01*
X29185749Y-43202962D01*
X29176570Y-43222368D01*
X29165534Y-43240781D01*
X29152746Y-43258024D01*
X29138330Y-43273930D01*
X29122424Y-43288346D01*
X29105181Y-43301134D01*
X29086768Y-43312170D01*
X29067362Y-43321349D01*
X29047150Y-43328581D01*
X29026326Y-43333797D01*
X29005091Y-43336947D01*
X28983650Y-43338000D01*
X28471150Y-43338000D01*
X28449709Y-43336947D01*
X28428474Y-43333797D01*
X28407650Y-43328581D01*
X28387438Y-43321349D01*
X28368032Y-43312170D01*
X28349619Y-43301134D01*
X28332376Y-43288346D01*
X28316470Y-43273930D01*
X28302054Y-43258024D01*
X28289266Y-43240781D01*
X28278230Y-43222368D01*
X28269051Y-43202962D01*
X28261819Y-43182750D01*
X28256603Y-43161926D01*
X28253453Y-43140691D01*
X28252400Y-43119250D01*
X28252400Y-42681750D01*
X28253453Y-42660309D01*
X28256603Y-42639074D01*
X28261819Y-42618250D01*
X28269051Y-42598038D01*
X28278230Y-42578632D01*
X28289266Y-42560219D01*
X28302054Y-42542976D01*
X28316470Y-42527070D01*
X28332376Y-42512654D01*
X28349619Y-42499866D01*
X28368032Y-42488830D01*
X28387438Y-42479651D01*
X28407650Y-42472419D01*
X28428474Y-42467203D01*
X28449709Y-42464053D01*
X28471150Y-42463000D01*
X28983650Y-42463000D01*
X29005091Y-42464053D01*
G37*
G04 #@! TD.AperFunction*
G04 #@! TA.AperFunction,SMDPad,CuDef*
G36*
X29005091Y-44039053D02*
G01*
X29026326Y-44042203D01*
X29047150Y-44047419D01*
X29067362Y-44054651D01*
X29086768Y-44063830D01*
X29105181Y-44074866D01*
X29122424Y-44087654D01*
X29138330Y-44102070D01*
X29152746Y-44117976D01*
X29165534Y-44135219D01*
X29176570Y-44153632D01*
X29185749Y-44173038D01*
X29192981Y-44193250D01*
X29198197Y-44214074D01*
X29201347Y-44235309D01*
X29202400Y-44256750D01*
X29202400Y-44694250D01*
X29201347Y-44715691D01*
X29198197Y-44736926D01*
X29192981Y-44757750D01*
X29185749Y-44777962D01*
X29176570Y-44797368D01*
X29165534Y-44815781D01*
X29152746Y-44833024D01*
X29138330Y-44848930D01*
X29122424Y-44863346D01*
X29105181Y-44876134D01*
X29086768Y-44887170D01*
X29067362Y-44896349D01*
X29047150Y-44903581D01*
X29026326Y-44908797D01*
X29005091Y-44911947D01*
X28983650Y-44913000D01*
X28471150Y-44913000D01*
X28449709Y-44911947D01*
X28428474Y-44908797D01*
X28407650Y-44903581D01*
X28387438Y-44896349D01*
X28368032Y-44887170D01*
X28349619Y-44876134D01*
X28332376Y-44863346D01*
X28316470Y-44848930D01*
X28302054Y-44833024D01*
X28289266Y-44815781D01*
X28278230Y-44797368D01*
X28269051Y-44777962D01*
X28261819Y-44757750D01*
X28256603Y-44736926D01*
X28253453Y-44715691D01*
X28252400Y-44694250D01*
X28252400Y-44256750D01*
X28253453Y-44235309D01*
X28256603Y-44214074D01*
X28261819Y-44193250D01*
X28269051Y-44173038D01*
X28278230Y-44153632D01*
X28289266Y-44135219D01*
X28302054Y-44117976D01*
X28316470Y-44102070D01*
X28332376Y-44087654D01*
X28349619Y-44074866D01*
X28368032Y-44063830D01*
X28387438Y-44054651D01*
X28407650Y-44047419D01*
X28428474Y-44042203D01*
X28449709Y-44039053D01*
X28471150Y-44038000D01*
X28983650Y-44038000D01*
X29005091Y-44039053D01*
G37*
G04 #@! TD.AperFunction*
D15*
X42759400Y-50288000D03*
X18759400Y-50288000D03*
X42759400Y-22288000D03*
X18759400Y-22288000D03*
G04 #@! TA.AperFunction,SMDPad,CuDef*
D14*
G36*
X34433905Y-50964204D02*
G01*
X34458173Y-50967804D01*
X34481972Y-50973765D01*
X34505071Y-50982030D01*
X34527250Y-50992520D01*
X34548293Y-51005132D01*
X34567999Y-51019747D01*
X34586177Y-51036223D01*
X34602653Y-51054401D01*
X34617268Y-51074107D01*
X34629880Y-51095150D01*
X34640370Y-51117329D01*
X34648635Y-51140428D01*
X34654596Y-51164227D01*
X34658196Y-51188495D01*
X34659400Y-51212999D01*
X34659400Y-52513001D01*
X34658196Y-52537505D01*
X34654596Y-52561773D01*
X34648635Y-52585572D01*
X34640370Y-52608671D01*
X34629880Y-52630850D01*
X34617268Y-52651893D01*
X34602653Y-52671599D01*
X34586177Y-52689777D01*
X34567999Y-52706253D01*
X34548293Y-52720868D01*
X34527250Y-52733480D01*
X34505071Y-52743970D01*
X34481972Y-52752235D01*
X34458173Y-52758196D01*
X34433905Y-52761796D01*
X34409401Y-52763000D01*
X33709399Y-52763000D01*
X33684895Y-52761796D01*
X33660627Y-52758196D01*
X33636828Y-52752235D01*
X33613729Y-52743970D01*
X33591550Y-52733480D01*
X33570507Y-52720868D01*
X33550801Y-52706253D01*
X33532623Y-52689777D01*
X33516147Y-52671599D01*
X33501532Y-52651893D01*
X33488920Y-52630850D01*
X33478430Y-52608671D01*
X33470165Y-52585572D01*
X33464204Y-52561773D01*
X33460604Y-52537505D01*
X33459400Y-52513001D01*
X33459400Y-51212999D01*
X33460604Y-51188495D01*
X33464204Y-51164227D01*
X33470165Y-51140428D01*
X33478430Y-51117329D01*
X33488920Y-51095150D01*
X33501532Y-51074107D01*
X33516147Y-51054401D01*
X33532623Y-51036223D01*
X33550801Y-51019747D01*
X33570507Y-51005132D01*
X33591550Y-50992520D01*
X33613729Y-50982030D01*
X33636828Y-50973765D01*
X33660627Y-50967804D01*
X33684895Y-50964204D01*
X33709399Y-50963000D01*
X34409401Y-50963000D01*
X34433905Y-50964204D01*
G37*
G04 #@! TD.AperFunction*
G04 #@! TA.AperFunction,SMDPad,CuDef*
G36*
X27833905Y-50964204D02*
G01*
X27858173Y-50967804D01*
X27881972Y-50973765D01*
X27905071Y-50982030D01*
X27927250Y-50992520D01*
X27948293Y-51005132D01*
X27967999Y-51019747D01*
X27986177Y-51036223D01*
X28002653Y-51054401D01*
X28017268Y-51074107D01*
X28029880Y-51095150D01*
X28040370Y-51117329D01*
X28048635Y-51140428D01*
X28054596Y-51164227D01*
X28058196Y-51188495D01*
X28059400Y-51212999D01*
X28059400Y-52513001D01*
X28058196Y-52537505D01*
X28054596Y-52561773D01*
X28048635Y-52585572D01*
X28040370Y-52608671D01*
X28029880Y-52630850D01*
X28017268Y-52651893D01*
X28002653Y-52671599D01*
X27986177Y-52689777D01*
X27967999Y-52706253D01*
X27948293Y-52720868D01*
X27927250Y-52733480D01*
X27905071Y-52743970D01*
X27881972Y-52752235D01*
X27858173Y-52758196D01*
X27833905Y-52761796D01*
X27809401Y-52763000D01*
X27109399Y-52763000D01*
X27084895Y-52761796D01*
X27060627Y-52758196D01*
X27036828Y-52752235D01*
X27013729Y-52743970D01*
X26991550Y-52733480D01*
X26970507Y-52720868D01*
X26950801Y-52706253D01*
X26932623Y-52689777D01*
X26916147Y-52671599D01*
X26901532Y-52651893D01*
X26888920Y-52630850D01*
X26878430Y-52608671D01*
X26870165Y-52585572D01*
X26864204Y-52561773D01*
X26860604Y-52537505D01*
X26859400Y-52513001D01*
X26859400Y-51212999D01*
X26860604Y-51188495D01*
X26864204Y-51164227D01*
X26870165Y-51140428D01*
X26878430Y-51117329D01*
X26888920Y-51095150D01*
X26901532Y-51074107D01*
X26916147Y-51054401D01*
X26932623Y-51036223D01*
X26950801Y-51019747D01*
X26970507Y-51005132D01*
X26991550Y-50992520D01*
X27013729Y-50982030D01*
X27036828Y-50973765D01*
X27060627Y-50967804D01*
X27084895Y-50964204D01*
X27109399Y-50963000D01*
X27809401Y-50963000D01*
X27833905Y-50964204D01*
G37*
G04 #@! TD.AperFunction*
G04 #@! TA.AperFunction,SMDPad,CuDef*
G36*
X32924103Y-47213722D02*
G01*
X32938664Y-47215882D01*
X32952943Y-47219459D01*
X32966803Y-47224418D01*
X32980110Y-47230712D01*
X32992736Y-47238280D01*
X33004559Y-47247048D01*
X33015466Y-47256934D01*
X33025352Y-47267841D01*
X33034120Y-47279664D01*
X33041688Y-47292290D01*
X33047982Y-47305597D01*
X33052941Y-47319457D01*
X33056518Y-47333736D01*
X33058678Y-47348297D01*
X33059400Y-47363000D01*
X33059400Y-48613000D01*
X33058678Y-48627703D01*
X33056518Y-48642264D01*
X33052941Y-48656543D01*
X33047982Y-48670403D01*
X33041688Y-48683710D01*
X33034120Y-48696336D01*
X33025352Y-48708159D01*
X33015466Y-48719066D01*
X33004559Y-48728952D01*
X32992736Y-48737720D01*
X32980110Y-48745288D01*
X32966803Y-48751582D01*
X32952943Y-48756541D01*
X32938664Y-48760118D01*
X32924103Y-48762278D01*
X32909400Y-48763000D01*
X32609400Y-48763000D01*
X32594697Y-48762278D01*
X32580136Y-48760118D01*
X32565857Y-48756541D01*
X32551997Y-48751582D01*
X32538690Y-48745288D01*
X32526064Y-48737720D01*
X32514241Y-48728952D01*
X32503334Y-48719066D01*
X32493448Y-48708159D01*
X32484680Y-48696336D01*
X32477112Y-48683710D01*
X32470818Y-48670403D01*
X32465859Y-48656543D01*
X32462282Y-48642264D01*
X32460122Y-48627703D01*
X32459400Y-48613000D01*
X32459400Y-47363000D01*
X32460122Y-47348297D01*
X32462282Y-47333736D01*
X32465859Y-47319457D01*
X32470818Y-47305597D01*
X32477112Y-47292290D01*
X32484680Y-47279664D01*
X32493448Y-47267841D01*
X32503334Y-47256934D01*
X32514241Y-47247048D01*
X32526064Y-47238280D01*
X32538690Y-47230712D01*
X32551997Y-47224418D01*
X32565857Y-47219459D01*
X32580136Y-47215882D01*
X32594697Y-47213722D01*
X32609400Y-47213000D01*
X32909400Y-47213000D01*
X32924103Y-47213722D01*
G37*
G04 #@! TD.AperFunction*
G04 #@! TA.AperFunction,SMDPad,CuDef*
G36*
X31924103Y-47213722D02*
G01*
X31938664Y-47215882D01*
X31952943Y-47219459D01*
X31966803Y-47224418D01*
X31980110Y-47230712D01*
X31992736Y-47238280D01*
X32004559Y-47247048D01*
X32015466Y-47256934D01*
X32025352Y-47267841D01*
X32034120Y-47279664D01*
X32041688Y-47292290D01*
X32047982Y-47305597D01*
X32052941Y-47319457D01*
X32056518Y-47333736D01*
X32058678Y-47348297D01*
X32059400Y-47363000D01*
X32059400Y-48613000D01*
X32058678Y-48627703D01*
X32056518Y-48642264D01*
X32052941Y-48656543D01*
X32047982Y-48670403D01*
X32041688Y-48683710D01*
X32034120Y-48696336D01*
X32025352Y-48708159D01*
X32015466Y-48719066D01*
X32004559Y-48728952D01*
X31992736Y-48737720D01*
X31980110Y-48745288D01*
X31966803Y-48751582D01*
X31952943Y-48756541D01*
X31938664Y-48760118D01*
X31924103Y-48762278D01*
X31909400Y-48763000D01*
X31609400Y-48763000D01*
X31594697Y-48762278D01*
X31580136Y-48760118D01*
X31565857Y-48756541D01*
X31551997Y-48751582D01*
X31538690Y-48745288D01*
X31526064Y-48737720D01*
X31514241Y-48728952D01*
X31503334Y-48719066D01*
X31493448Y-48708159D01*
X31484680Y-48696336D01*
X31477112Y-48683710D01*
X31470818Y-48670403D01*
X31465859Y-48656543D01*
X31462282Y-48642264D01*
X31460122Y-48627703D01*
X31459400Y-48613000D01*
X31459400Y-47363000D01*
X31460122Y-47348297D01*
X31462282Y-47333736D01*
X31465859Y-47319457D01*
X31470818Y-47305597D01*
X31477112Y-47292290D01*
X31484680Y-47279664D01*
X31493448Y-47267841D01*
X31503334Y-47256934D01*
X31514241Y-47247048D01*
X31526064Y-47238280D01*
X31538690Y-47230712D01*
X31551997Y-47224418D01*
X31565857Y-47219459D01*
X31580136Y-47215882D01*
X31594697Y-47213722D01*
X31609400Y-47213000D01*
X31909400Y-47213000D01*
X31924103Y-47213722D01*
G37*
G04 #@! TD.AperFunction*
G04 #@! TA.AperFunction,SMDPad,CuDef*
G36*
X30924103Y-47213722D02*
G01*
X30938664Y-47215882D01*
X30952943Y-47219459D01*
X30966803Y-47224418D01*
X30980110Y-47230712D01*
X30992736Y-47238280D01*
X31004559Y-47247048D01*
X31015466Y-47256934D01*
X31025352Y-47267841D01*
X31034120Y-47279664D01*
X31041688Y-47292290D01*
X31047982Y-47305597D01*
X31052941Y-47319457D01*
X31056518Y-47333736D01*
X31058678Y-47348297D01*
X31059400Y-47363000D01*
X31059400Y-48613000D01*
X31058678Y-48627703D01*
X31056518Y-48642264D01*
X31052941Y-48656543D01*
X31047982Y-48670403D01*
X31041688Y-48683710D01*
X31034120Y-48696336D01*
X31025352Y-48708159D01*
X31015466Y-48719066D01*
X31004559Y-48728952D01*
X30992736Y-48737720D01*
X30980110Y-48745288D01*
X30966803Y-48751582D01*
X30952943Y-48756541D01*
X30938664Y-48760118D01*
X30924103Y-48762278D01*
X30909400Y-48763000D01*
X30609400Y-48763000D01*
X30594697Y-48762278D01*
X30580136Y-48760118D01*
X30565857Y-48756541D01*
X30551997Y-48751582D01*
X30538690Y-48745288D01*
X30526064Y-48737720D01*
X30514241Y-48728952D01*
X30503334Y-48719066D01*
X30493448Y-48708159D01*
X30484680Y-48696336D01*
X30477112Y-48683710D01*
X30470818Y-48670403D01*
X30465859Y-48656543D01*
X30462282Y-48642264D01*
X30460122Y-48627703D01*
X30459400Y-48613000D01*
X30459400Y-47363000D01*
X30460122Y-47348297D01*
X30462282Y-47333736D01*
X30465859Y-47319457D01*
X30470818Y-47305597D01*
X30477112Y-47292290D01*
X30484680Y-47279664D01*
X30493448Y-47267841D01*
X30503334Y-47256934D01*
X30514241Y-47247048D01*
X30526064Y-47238280D01*
X30538690Y-47230712D01*
X30551997Y-47224418D01*
X30565857Y-47219459D01*
X30580136Y-47215882D01*
X30594697Y-47213722D01*
X30609400Y-47213000D01*
X30909400Y-47213000D01*
X30924103Y-47213722D01*
G37*
G04 #@! TD.AperFunction*
G04 #@! TA.AperFunction,SMDPad,CuDef*
G36*
X29924103Y-47213722D02*
G01*
X29938664Y-47215882D01*
X29952943Y-47219459D01*
X29966803Y-47224418D01*
X29980110Y-47230712D01*
X29992736Y-47238280D01*
X30004559Y-47247048D01*
X30015466Y-47256934D01*
X30025352Y-47267841D01*
X30034120Y-47279664D01*
X30041688Y-47292290D01*
X30047982Y-47305597D01*
X30052941Y-47319457D01*
X30056518Y-47333736D01*
X30058678Y-47348297D01*
X30059400Y-47363000D01*
X30059400Y-48613000D01*
X30058678Y-48627703D01*
X30056518Y-48642264D01*
X30052941Y-48656543D01*
X30047982Y-48670403D01*
X30041688Y-48683710D01*
X30034120Y-48696336D01*
X30025352Y-48708159D01*
X30015466Y-48719066D01*
X30004559Y-48728952D01*
X29992736Y-48737720D01*
X29980110Y-48745288D01*
X29966803Y-48751582D01*
X29952943Y-48756541D01*
X29938664Y-48760118D01*
X29924103Y-48762278D01*
X29909400Y-48763000D01*
X29609400Y-48763000D01*
X29594697Y-48762278D01*
X29580136Y-48760118D01*
X29565857Y-48756541D01*
X29551997Y-48751582D01*
X29538690Y-48745288D01*
X29526064Y-48737720D01*
X29514241Y-48728952D01*
X29503334Y-48719066D01*
X29493448Y-48708159D01*
X29484680Y-48696336D01*
X29477112Y-48683710D01*
X29470818Y-48670403D01*
X29465859Y-48656543D01*
X29462282Y-48642264D01*
X29460122Y-48627703D01*
X29459400Y-48613000D01*
X29459400Y-47363000D01*
X29460122Y-47348297D01*
X29462282Y-47333736D01*
X29465859Y-47319457D01*
X29470818Y-47305597D01*
X29477112Y-47292290D01*
X29484680Y-47279664D01*
X29493448Y-47267841D01*
X29503334Y-47256934D01*
X29514241Y-47247048D01*
X29526064Y-47238280D01*
X29538690Y-47230712D01*
X29551997Y-47224418D01*
X29565857Y-47219459D01*
X29580136Y-47215882D01*
X29594697Y-47213722D01*
X29609400Y-47213000D01*
X29909400Y-47213000D01*
X29924103Y-47213722D01*
G37*
G04 #@! TD.AperFunction*
G04 #@! TA.AperFunction,SMDPad,CuDef*
G36*
X28924103Y-47213722D02*
G01*
X28938664Y-47215882D01*
X28952943Y-47219459D01*
X28966803Y-47224418D01*
X28980110Y-47230712D01*
X28992736Y-47238280D01*
X29004559Y-47247048D01*
X29015466Y-47256934D01*
X29025352Y-47267841D01*
X29034120Y-47279664D01*
X29041688Y-47292290D01*
X29047982Y-47305597D01*
X29052941Y-47319457D01*
X29056518Y-47333736D01*
X29058678Y-47348297D01*
X29059400Y-47363000D01*
X29059400Y-48613000D01*
X29058678Y-48627703D01*
X29056518Y-48642264D01*
X29052941Y-48656543D01*
X29047982Y-48670403D01*
X29041688Y-48683710D01*
X29034120Y-48696336D01*
X29025352Y-48708159D01*
X29015466Y-48719066D01*
X29004559Y-48728952D01*
X28992736Y-48737720D01*
X28980110Y-48745288D01*
X28966803Y-48751582D01*
X28952943Y-48756541D01*
X28938664Y-48760118D01*
X28924103Y-48762278D01*
X28909400Y-48763000D01*
X28609400Y-48763000D01*
X28594697Y-48762278D01*
X28580136Y-48760118D01*
X28565857Y-48756541D01*
X28551997Y-48751582D01*
X28538690Y-48745288D01*
X28526064Y-48737720D01*
X28514241Y-48728952D01*
X28503334Y-48719066D01*
X28493448Y-48708159D01*
X28484680Y-48696336D01*
X28477112Y-48683710D01*
X28470818Y-48670403D01*
X28465859Y-48656543D01*
X28462282Y-48642264D01*
X28460122Y-48627703D01*
X28459400Y-48613000D01*
X28459400Y-47363000D01*
X28460122Y-47348297D01*
X28462282Y-47333736D01*
X28465859Y-47319457D01*
X28470818Y-47305597D01*
X28477112Y-47292290D01*
X28484680Y-47279664D01*
X28493448Y-47267841D01*
X28503334Y-47256934D01*
X28514241Y-47247048D01*
X28526064Y-47238280D01*
X28538690Y-47230712D01*
X28551997Y-47224418D01*
X28565857Y-47219459D01*
X28580136Y-47215882D01*
X28594697Y-47213722D01*
X28609400Y-47213000D01*
X28909400Y-47213000D01*
X28924103Y-47213722D01*
G37*
G04 #@! TD.AperFunction*
G04 #@! TA.AperFunction,SMDPad,CuDef*
G36*
X37260091Y-25827053D02*
G01*
X37281326Y-25830203D01*
X37302150Y-25835419D01*
X37322362Y-25842651D01*
X37341768Y-25851830D01*
X37360181Y-25862866D01*
X37377424Y-25875654D01*
X37393330Y-25890070D01*
X37407746Y-25905976D01*
X37420534Y-25923219D01*
X37431570Y-25941632D01*
X37440749Y-25961038D01*
X37447981Y-25981250D01*
X37453197Y-26002074D01*
X37456347Y-26023309D01*
X37457400Y-26044750D01*
X37457400Y-26482250D01*
X37456347Y-26503691D01*
X37453197Y-26524926D01*
X37447981Y-26545750D01*
X37440749Y-26565962D01*
X37431570Y-26585368D01*
X37420534Y-26603781D01*
X37407746Y-26621024D01*
X37393330Y-26636930D01*
X37377424Y-26651346D01*
X37360181Y-26664134D01*
X37341768Y-26675170D01*
X37322362Y-26684349D01*
X37302150Y-26691581D01*
X37281326Y-26696797D01*
X37260091Y-26699947D01*
X37238650Y-26701000D01*
X36726150Y-26701000D01*
X36704709Y-26699947D01*
X36683474Y-26696797D01*
X36662650Y-26691581D01*
X36642438Y-26684349D01*
X36623032Y-26675170D01*
X36604619Y-26664134D01*
X36587376Y-26651346D01*
X36571470Y-26636930D01*
X36557054Y-26621024D01*
X36544266Y-26603781D01*
X36533230Y-26585368D01*
X36524051Y-26565962D01*
X36516819Y-26545750D01*
X36511603Y-26524926D01*
X36508453Y-26503691D01*
X36507400Y-26482250D01*
X36507400Y-26044750D01*
X36508453Y-26023309D01*
X36511603Y-26002074D01*
X36516819Y-25981250D01*
X36524051Y-25961038D01*
X36533230Y-25941632D01*
X36544266Y-25923219D01*
X36557054Y-25905976D01*
X36571470Y-25890070D01*
X36587376Y-25875654D01*
X36604619Y-25862866D01*
X36623032Y-25851830D01*
X36642438Y-25842651D01*
X36662650Y-25835419D01*
X36683474Y-25830203D01*
X36704709Y-25827053D01*
X36726150Y-25826000D01*
X37238650Y-25826000D01*
X37260091Y-25827053D01*
G37*
G04 #@! TD.AperFunction*
G04 #@! TA.AperFunction,SMDPad,CuDef*
G36*
X37260091Y-27402053D02*
G01*
X37281326Y-27405203D01*
X37302150Y-27410419D01*
X37322362Y-27417651D01*
X37341768Y-27426830D01*
X37360181Y-27437866D01*
X37377424Y-27450654D01*
X37393330Y-27465070D01*
X37407746Y-27480976D01*
X37420534Y-27498219D01*
X37431570Y-27516632D01*
X37440749Y-27536038D01*
X37447981Y-27556250D01*
X37453197Y-27577074D01*
X37456347Y-27598309D01*
X37457400Y-27619750D01*
X37457400Y-28057250D01*
X37456347Y-28078691D01*
X37453197Y-28099926D01*
X37447981Y-28120750D01*
X37440749Y-28140962D01*
X37431570Y-28160368D01*
X37420534Y-28178781D01*
X37407746Y-28196024D01*
X37393330Y-28211930D01*
X37377424Y-28226346D01*
X37360181Y-28239134D01*
X37341768Y-28250170D01*
X37322362Y-28259349D01*
X37302150Y-28266581D01*
X37281326Y-28271797D01*
X37260091Y-28274947D01*
X37238650Y-28276000D01*
X36726150Y-28276000D01*
X36704709Y-28274947D01*
X36683474Y-28271797D01*
X36662650Y-28266581D01*
X36642438Y-28259349D01*
X36623032Y-28250170D01*
X36604619Y-28239134D01*
X36587376Y-28226346D01*
X36571470Y-28211930D01*
X36557054Y-28196024D01*
X36544266Y-28178781D01*
X36533230Y-28160368D01*
X36524051Y-28140962D01*
X36516819Y-28120750D01*
X36511603Y-28099926D01*
X36508453Y-28078691D01*
X36507400Y-28057250D01*
X36507400Y-27619750D01*
X36508453Y-27598309D01*
X36511603Y-27577074D01*
X36516819Y-27556250D01*
X36524051Y-27536038D01*
X36533230Y-27516632D01*
X36544266Y-27498219D01*
X36557054Y-27480976D01*
X36571470Y-27465070D01*
X36587376Y-27450654D01*
X36604619Y-27437866D01*
X36623032Y-27426830D01*
X36642438Y-27417651D01*
X36662650Y-27410419D01*
X36683474Y-27405203D01*
X36704709Y-27402053D01*
X36726150Y-27401000D01*
X37238650Y-27401000D01*
X37260091Y-27402053D01*
G37*
G04 #@! TD.AperFunction*
G04 #@! TA.AperFunction,SMDPad,CuDef*
G36*
X24877591Y-25827053D02*
G01*
X24898826Y-25830203D01*
X24919650Y-25835419D01*
X24939862Y-25842651D01*
X24959268Y-25851830D01*
X24977681Y-25862866D01*
X24994924Y-25875654D01*
X25010830Y-25890070D01*
X25025246Y-25905976D01*
X25038034Y-25923219D01*
X25049070Y-25941632D01*
X25058249Y-25961038D01*
X25065481Y-25981250D01*
X25070697Y-26002074D01*
X25073847Y-26023309D01*
X25074900Y-26044750D01*
X25074900Y-26482250D01*
X25073847Y-26503691D01*
X25070697Y-26524926D01*
X25065481Y-26545750D01*
X25058249Y-26565962D01*
X25049070Y-26585368D01*
X25038034Y-26603781D01*
X25025246Y-26621024D01*
X25010830Y-26636930D01*
X24994924Y-26651346D01*
X24977681Y-26664134D01*
X24959268Y-26675170D01*
X24939862Y-26684349D01*
X24919650Y-26691581D01*
X24898826Y-26696797D01*
X24877591Y-26699947D01*
X24856150Y-26701000D01*
X24343650Y-26701000D01*
X24322209Y-26699947D01*
X24300974Y-26696797D01*
X24280150Y-26691581D01*
X24259938Y-26684349D01*
X24240532Y-26675170D01*
X24222119Y-26664134D01*
X24204876Y-26651346D01*
X24188970Y-26636930D01*
X24174554Y-26621024D01*
X24161766Y-26603781D01*
X24150730Y-26585368D01*
X24141551Y-26565962D01*
X24134319Y-26545750D01*
X24129103Y-26524926D01*
X24125953Y-26503691D01*
X24124900Y-26482250D01*
X24124900Y-26044750D01*
X24125953Y-26023309D01*
X24129103Y-26002074D01*
X24134319Y-25981250D01*
X24141551Y-25961038D01*
X24150730Y-25941632D01*
X24161766Y-25923219D01*
X24174554Y-25905976D01*
X24188970Y-25890070D01*
X24204876Y-25875654D01*
X24222119Y-25862866D01*
X24240532Y-25851830D01*
X24259938Y-25842651D01*
X24280150Y-25835419D01*
X24300974Y-25830203D01*
X24322209Y-25827053D01*
X24343650Y-25826000D01*
X24856150Y-25826000D01*
X24877591Y-25827053D01*
G37*
G04 #@! TD.AperFunction*
G04 #@! TA.AperFunction,SMDPad,CuDef*
G36*
X24877591Y-27402053D02*
G01*
X24898826Y-27405203D01*
X24919650Y-27410419D01*
X24939862Y-27417651D01*
X24959268Y-27426830D01*
X24977681Y-27437866D01*
X24994924Y-27450654D01*
X25010830Y-27465070D01*
X25025246Y-27480976D01*
X25038034Y-27498219D01*
X25049070Y-27516632D01*
X25058249Y-27536038D01*
X25065481Y-27556250D01*
X25070697Y-27577074D01*
X25073847Y-27598309D01*
X25074900Y-27619750D01*
X25074900Y-28057250D01*
X25073847Y-28078691D01*
X25070697Y-28099926D01*
X25065481Y-28120750D01*
X25058249Y-28140962D01*
X25049070Y-28160368D01*
X25038034Y-28178781D01*
X25025246Y-28196024D01*
X25010830Y-28211930D01*
X24994924Y-28226346D01*
X24977681Y-28239134D01*
X24959268Y-28250170D01*
X24939862Y-28259349D01*
X24919650Y-28266581D01*
X24898826Y-28271797D01*
X24877591Y-28274947D01*
X24856150Y-28276000D01*
X24343650Y-28276000D01*
X24322209Y-28274947D01*
X24300974Y-28271797D01*
X24280150Y-28266581D01*
X24259938Y-28259349D01*
X24240532Y-28250170D01*
X24222119Y-28239134D01*
X24204876Y-28226346D01*
X24188970Y-28211930D01*
X24174554Y-28196024D01*
X24161766Y-28178781D01*
X24150730Y-28160368D01*
X24141551Y-28140962D01*
X24134319Y-28120750D01*
X24129103Y-28099926D01*
X24125953Y-28078691D01*
X24124900Y-28057250D01*
X24124900Y-27619750D01*
X24125953Y-27598309D01*
X24129103Y-27577074D01*
X24134319Y-27556250D01*
X24141551Y-27536038D01*
X24150730Y-27516632D01*
X24161766Y-27498219D01*
X24174554Y-27480976D01*
X24188970Y-27465070D01*
X24204876Y-27450654D01*
X24222119Y-27437866D01*
X24240532Y-27426830D01*
X24259938Y-27417651D01*
X24280150Y-27410419D01*
X24300974Y-27405203D01*
X24322209Y-27402053D01*
X24343650Y-27401000D01*
X24856150Y-27401000D01*
X24877591Y-27402053D01*
G37*
G04 #@! TD.AperFunction*
D16*
X31859400Y-29972000D03*
X31859400Y-29022000D03*
X31859400Y-30922000D03*
X29659400Y-30922000D03*
X29659400Y-29972000D03*
X29659400Y-29022000D03*
G04 #@! TA.AperFunction,SMDPad,CuDef*
D14*
G36*
X23163091Y-25827053D02*
G01*
X23184326Y-25830203D01*
X23205150Y-25835419D01*
X23225362Y-25842651D01*
X23244768Y-25851830D01*
X23263181Y-25862866D01*
X23280424Y-25875654D01*
X23296330Y-25890070D01*
X23310746Y-25905976D01*
X23323534Y-25923219D01*
X23334570Y-25941632D01*
X23343749Y-25961038D01*
X23350981Y-25981250D01*
X23356197Y-26002074D01*
X23359347Y-26023309D01*
X23360400Y-26044750D01*
X23360400Y-26482250D01*
X23359347Y-26503691D01*
X23356197Y-26524926D01*
X23350981Y-26545750D01*
X23343749Y-26565962D01*
X23334570Y-26585368D01*
X23323534Y-26603781D01*
X23310746Y-26621024D01*
X23296330Y-26636930D01*
X23280424Y-26651346D01*
X23263181Y-26664134D01*
X23244768Y-26675170D01*
X23225362Y-26684349D01*
X23205150Y-26691581D01*
X23184326Y-26696797D01*
X23163091Y-26699947D01*
X23141650Y-26701000D01*
X22629150Y-26701000D01*
X22607709Y-26699947D01*
X22586474Y-26696797D01*
X22565650Y-26691581D01*
X22545438Y-26684349D01*
X22526032Y-26675170D01*
X22507619Y-26664134D01*
X22490376Y-26651346D01*
X22474470Y-26636930D01*
X22460054Y-26621024D01*
X22447266Y-26603781D01*
X22436230Y-26585368D01*
X22427051Y-26565962D01*
X22419819Y-26545750D01*
X22414603Y-26524926D01*
X22411453Y-26503691D01*
X22410400Y-26482250D01*
X22410400Y-26044750D01*
X22411453Y-26023309D01*
X22414603Y-26002074D01*
X22419819Y-25981250D01*
X22427051Y-25961038D01*
X22436230Y-25941632D01*
X22447266Y-25923219D01*
X22460054Y-25905976D01*
X22474470Y-25890070D01*
X22490376Y-25875654D01*
X22507619Y-25862866D01*
X22526032Y-25851830D01*
X22545438Y-25842651D01*
X22565650Y-25835419D01*
X22586474Y-25830203D01*
X22607709Y-25827053D01*
X22629150Y-25826000D01*
X23141650Y-25826000D01*
X23163091Y-25827053D01*
G37*
G04 #@! TD.AperFunction*
G04 #@! TA.AperFunction,SMDPad,CuDef*
G36*
X23163091Y-27402053D02*
G01*
X23184326Y-27405203D01*
X23205150Y-27410419D01*
X23225362Y-27417651D01*
X23244768Y-27426830D01*
X23263181Y-27437866D01*
X23280424Y-27450654D01*
X23296330Y-27465070D01*
X23310746Y-27480976D01*
X23323534Y-27498219D01*
X23334570Y-27516632D01*
X23343749Y-27536038D01*
X23350981Y-27556250D01*
X23356197Y-27577074D01*
X23359347Y-27598309D01*
X23360400Y-27619750D01*
X23360400Y-28057250D01*
X23359347Y-28078691D01*
X23356197Y-28099926D01*
X23350981Y-28120750D01*
X23343749Y-28140962D01*
X23334570Y-28160368D01*
X23323534Y-28178781D01*
X23310746Y-28196024D01*
X23296330Y-28211930D01*
X23280424Y-28226346D01*
X23263181Y-28239134D01*
X23244768Y-28250170D01*
X23225362Y-28259349D01*
X23205150Y-28266581D01*
X23184326Y-28271797D01*
X23163091Y-28274947D01*
X23141650Y-28276000D01*
X22629150Y-28276000D01*
X22607709Y-28274947D01*
X22586474Y-28271797D01*
X22565650Y-28266581D01*
X22545438Y-28259349D01*
X22526032Y-28250170D01*
X22507619Y-28239134D01*
X22490376Y-28226346D01*
X22474470Y-28211930D01*
X22460054Y-28196024D01*
X22447266Y-28178781D01*
X22436230Y-28160368D01*
X22427051Y-28140962D01*
X22419819Y-28120750D01*
X22414603Y-28099926D01*
X22411453Y-28078691D01*
X22410400Y-28057250D01*
X22410400Y-27619750D01*
X22411453Y-27598309D01*
X22414603Y-27577074D01*
X22419819Y-27556250D01*
X22427051Y-27536038D01*
X22436230Y-27516632D01*
X22447266Y-27498219D01*
X22460054Y-27480976D01*
X22474470Y-27465070D01*
X22490376Y-27450654D01*
X22507619Y-27437866D01*
X22526032Y-27426830D01*
X22545438Y-27417651D01*
X22565650Y-27410419D01*
X22586474Y-27405203D01*
X22607709Y-27402053D01*
X22629150Y-27401000D01*
X23141650Y-27401000D01*
X23163091Y-27402053D01*
G37*
G04 #@! TD.AperFunction*
G04 #@! TA.AperFunction,SMDPad,CuDef*
G36*
X34710904Y-28456204D02*
G01*
X34735173Y-28459804D01*
X34758971Y-28465765D01*
X34782071Y-28474030D01*
X34804249Y-28484520D01*
X34825293Y-28497133D01*
X34844998Y-28511747D01*
X34863177Y-28528223D01*
X34879653Y-28546402D01*
X34894267Y-28566107D01*
X34906880Y-28587151D01*
X34917370Y-28609329D01*
X34925635Y-28632429D01*
X34931596Y-28656227D01*
X34935196Y-28680496D01*
X34936400Y-28705000D01*
X34936400Y-29455000D01*
X34935196Y-29479504D01*
X34931596Y-29503773D01*
X34925635Y-29527571D01*
X34917370Y-29550671D01*
X34906880Y-29572849D01*
X34894267Y-29593893D01*
X34879653Y-29613598D01*
X34863177Y-29631777D01*
X34844998Y-29648253D01*
X34825293Y-29662867D01*
X34804249Y-29675480D01*
X34782071Y-29685970D01*
X34758971Y-29694235D01*
X34735173Y-29700196D01*
X34710904Y-29703796D01*
X34686400Y-29705000D01*
X33436400Y-29705000D01*
X33411896Y-29703796D01*
X33387627Y-29700196D01*
X33363829Y-29694235D01*
X33340729Y-29685970D01*
X33318551Y-29675480D01*
X33297507Y-29662867D01*
X33277802Y-29648253D01*
X33259623Y-29631777D01*
X33243147Y-29613598D01*
X33228533Y-29593893D01*
X33215920Y-29572849D01*
X33205430Y-29550671D01*
X33197165Y-29527571D01*
X33191204Y-29503773D01*
X33187604Y-29479504D01*
X33186400Y-29455000D01*
X33186400Y-28705000D01*
X33187604Y-28680496D01*
X33191204Y-28656227D01*
X33197165Y-28632429D01*
X33205430Y-28609329D01*
X33215920Y-28587151D01*
X33228533Y-28566107D01*
X33243147Y-28546402D01*
X33259623Y-28528223D01*
X33277802Y-28511747D01*
X33297507Y-28497133D01*
X33318551Y-28484520D01*
X33340729Y-28474030D01*
X33363829Y-28465765D01*
X33387627Y-28459804D01*
X33411896Y-28456204D01*
X33436400Y-28455000D01*
X34686400Y-28455000D01*
X34710904Y-28456204D01*
G37*
G04 #@! TD.AperFunction*
G04 #@! TA.AperFunction,SMDPad,CuDef*
G36*
X34710904Y-31256204D02*
G01*
X34735173Y-31259804D01*
X34758971Y-31265765D01*
X34782071Y-31274030D01*
X34804249Y-31284520D01*
X34825293Y-31297133D01*
X34844998Y-31311747D01*
X34863177Y-31328223D01*
X34879653Y-31346402D01*
X34894267Y-31366107D01*
X34906880Y-31387151D01*
X34917370Y-31409329D01*
X34925635Y-31432429D01*
X34931596Y-31456227D01*
X34935196Y-31480496D01*
X34936400Y-31505000D01*
X34936400Y-32255000D01*
X34935196Y-32279504D01*
X34931596Y-32303773D01*
X34925635Y-32327571D01*
X34917370Y-32350671D01*
X34906880Y-32372849D01*
X34894267Y-32393893D01*
X34879653Y-32413598D01*
X34863177Y-32431777D01*
X34844998Y-32448253D01*
X34825293Y-32462867D01*
X34804249Y-32475480D01*
X34782071Y-32485970D01*
X34758971Y-32494235D01*
X34735173Y-32500196D01*
X34710904Y-32503796D01*
X34686400Y-32505000D01*
X33436400Y-32505000D01*
X33411896Y-32503796D01*
X33387627Y-32500196D01*
X33363829Y-32494235D01*
X33340729Y-32485970D01*
X33318551Y-32475480D01*
X33297507Y-32462867D01*
X33277802Y-32448253D01*
X33259623Y-32431777D01*
X33243147Y-32413598D01*
X33228533Y-32393893D01*
X33215920Y-32372849D01*
X33205430Y-32350671D01*
X33197165Y-32327571D01*
X33191204Y-32303773D01*
X33187604Y-32279504D01*
X33186400Y-32255000D01*
X33186400Y-31505000D01*
X33187604Y-31480496D01*
X33191204Y-31456227D01*
X33197165Y-31432429D01*
X33205430Y-31409329D01*
X33215920Y-31387151D01*
X33228533Y-31366107D01*
X33243147Y-31346402D01*
X33259623Y-31328223D01*
X33277802Y-31311747D01*
X33297507Y-31297133D01*
X33318551Y-31284520D01*
X33340729Y-31274030D01*
X33363829Y-31265765D01*
X33387627Y-31259804D01*
X33411896Y-31256204D01*
X33436400Y-31255000D01*
X34686400Y-31255000D01*
X34710904Y-31256204D01*
G37*
G04 #@! TD.AperFunction*
D17*
X27319332Y-27558673D03*
X34199111Y-27548412D03*
X32473900Y-34036000D03*
X33209400Y-27588000D03*
X28309400Y-27588000D03*
X30251400Y-23876000D03*
D18*
X27509400Y-27368605D02*
X27319332Y-27558673D01*
X34009400Y-27358701D02*
X34199111Y-27548412D01*
D19*
X34199111Y-26172711D02*
X34199111Y-27548412D01*
X34009400Y-25983000D02*
X34199111Y-26172711D01*
X27319332Y-26173068D02*
X27319332Y-27558673D01*
X27509400Y-25983000D02*
X27319332Y-26173068D01*
D18*
X34061400Y-31697498D02*
X34061400Y-31880000D01*
X32335902Y-29972000D02*
X34061400Y-31697498D01*
X31859400Y-29972000D02*
X32335902Y-29972000D01*
D19*
X32363144Y-49207510D02*
X31759400Y-48603766D01*
X31759400Y-48603766D02*
X31759400Y-47988000D01*
X33155656Y-49207510D02*
X32363144Y-49207510D01*
X34061400Y-48301766D02*
X33155656Y-49207510D01*
X34061400Y-31880000D02*
X34061400Y-48301766D01*
X33209400Y-27588000D02*
X33209400Y-25939800D01*
X28309400Y-25939800D02*
X28309400Y-27588000D01*
X33209400Y-28228000D02*
X34061400Y-29080000D01*
X33209400Y-27588000D02*
X33209400Y-28228000D01*
D20*
X31043649Y-30525601D02*
X31043649Y-29418399D01*
X31043649Y-29418399D02*
X31440048Y-29022000D01*
X31440048Y-30922000D02*
X31043649Y-30525601D01*
X31440048Y-29022000D02*
X31859400Y-29022000D01*
X31859400Y-30922000D02*
X31440048Y-30922000D01*
X31509400Y-26872352D02*
X31509400Y-25983000D01*
X30509400Y-26872352D02*
X30630799Y-26993751D01*
X31388001Y-26993751D02*
X31509400Y-26872352D01*
X30630799Y-26993751D02*
X31388001Y-26993751D01*
X30509400Y-25983000D02*
X30509400Y-26872352D01*
X31509400Y-28672000D02*
X31859400Y-29022000D01*
X31509400Y-25983000D02*
X31509400Y-28672000D01*
X31859400Y-31717001D02*
X31859400Y-30922000D01*
X30956250Y-32620151D02*
X31859400Y-31717001D01*
X31115000Y-45999400D02*
X31115000Y-45834300D01*
X30956250Y-46158150D02*
X31115000Y-45999400D01*
X31115000Y-45834300D02*
X30956250Y-45675550D01*
X30759400Y-47028100D02*
X31115000Y-46672500D01*
X30759400Y-47988000D02*
X30759400Y-47028100D01*
X31115000Y-46672500D02*
X31115000Y-46494700D01*
X31115000Y-46494700D02*
X30956250Y-46335950D01*
X30956250Y-45675550D02*
X30956250Y-32620151D01*
X30956250Y-46335950D02*
X30956250Y-46158150D01*
X30475151Y-29418399D02*
X30078752Y-29022000D01*
X30475151Y-30525601D02*
X30475151Y-29418399D01*
X30078752Y-29022000D02*
X29659400Y-29022000D01*
X30078752Y-30922000D02*
X30475151Y-30525601D01*
X29659400Y-30922000D02*
X30078752Y-30922000D01*
X31009400Y-25093648D02*
X31009400Y-25983000D01*
X30888001Y-24972249D02*
X31009400Y-25093648D01*
X30130799Y-24972249D02*
X30888001Y-24972249D01*
X30009400Y-25093648D02*
X30130799Y-24972249D01*
X30009400Y-25983000D02*
X30009400Y-25093648D01*
X30009400Y-28672000D02*
X30009400Y-25983000D01*
X29659400Y-29022000D02*
X30009400Y-28672000D01*
X29659400Y-31717001D02*
X29659400Y-30922000D01*
X30562550Y-46234850D02*
X30562550Y-32620151D01*
X30562550Y-32620151D02*
X29659400Y-31717001D01*
X29759400Y-47988000D02*
X29759400Y-47038000D01*
X29759400Y-47038000D02*
X30562550Y-46234850D01*
D18*
X35458400Y-22860000D02*
X36982400Y-24384000D01*
X33299400Y-22860000D02*
X35458400Y-22860000D01*
X32009400Y-25983000D02*
X32009400Y-24150000D01*
X32009400Y-24150000D02*
X33299400Y-22860000D01*
X36982400Y-24384000D02*
X36982400Y-26263500D01*
X27731400Y-22860000D02*
X29009400Y-24138000D01*
X26163770Y-22860000D02*
X27731400Y-22860000D01*
X29009400Y-24138000D02*
X29009400Y-25939800D01*
X24599900Y-26263500D02*
X24599900Y-24423870D01*
X24599900Y-24423870D02*
X26163770Y-22860000D01*
D19*
X28727400Y-47956000D02*
X28759400Y-47988000D01*
X28727400Y-44475500D02*
X28727400Y-47956000D01*
X26424600Y-20844800D02*
X26439400Y-20844800D01*
D20*
G36*
X21570950Y-26720800D02*
G01*
X21576685Y-26779025D01*
X21593668Y-26835012D01*
X21621248Y-26886610D01*
X21658364Y-26931836D01*
X21861564Y-27135036D01*
X21906790Y-27172152D01*
X21958388Y-27199732D01*
X22014375Y-27216715D01*
X22072600Y-27222450D01*
X22170844Y-27222450D01*
X22161047Y-27234388D01*
X22133334Y-27286236D01*
X22116268Y-27342494D01*
X22110506Y-27401000D01*
X22111950Y-27605138D01*
X22186562Y-27679750D01*
X22726650Y-27679750D01*
X22726650Y-27659750D01*
X23044150Y-27659750D01*
X23044150Y-27679750D01*
X23584238Y-27679750D01*
X23658850Y-27605138D01*
X23660294Y-27401000D01*
X23654532Y-27342494D01*
X23637466Y-27286236D01*
X23609753Y-27234388D01*
X23599956Y-27222450D01*
X23885344Y-27222450D01*
X23875547Y-27234388D01*
X23847834Y-27286236D01*
X23830768Y-27342494D01*
X23825006Y-27401000D01*
X23826450Y-27605138D01*
X23901062Y-27679750D01*
X24441150Y-27679750D01*
X24441150Y-27659750D01*
X24758650Y-27659750D01*
X24758650Y-27679750D01*
X25298738Y-27679750D01*
X25373350Y-27605138D01*
X25374794Y-27401000D01*
X25369032Y-27342494D01*
X25351966Y-27286236D01*
X25324253Y-27234388D01*
X25314456Y-27222450D01*
X27713633Y-27222450D01*
X27690441Y-27257160D01*
X27637791Y-27384270D01*
X27610950Y-27519209D01*
X27610950Y-27656791D01*
X27637791Y-27791730D01*
X27690441Y-27918840D01*
X27766878Y-28033236D01*
X27864164Y-28130522D01*
X27978560Y-28206959D01*
X28105670Y-28259609D01*
X28240609Y-28286450D01*
X28378191Y-28286450D01*
X28513130Y-28259609D01*
X28640240Y-28206959D01*
X28754636Y-28130522D01*
X28851922Y-28033236D01*
X28928359Y-27918840D01*
X28981009Y-27791730D01*
X29007850Y-27656791D01*
X29007850Y-27519209D01*
X28981009Y-27384270D01*
X28928359Y-27257160D01*
X28905167Y-27222450D01*
X29615701Y-27222450D01*
X29615700Y-28397106D01*
X29129400Y-28397106D01*
X29070894Y-28402868D01*
X29014636Y-28419934D01*
X28962788Y-28447647D01*
X28917343Y-28484943D01*
X28880047Y-28530388D01*
X28852334Y-28582236D01*
X28835268Y-28638494D01*
X28829506Y-28697000D01*
X28829506Y-29347000D01*
X28835268Y-29405506D01*
X28852334Y-29461764D01*
X28871168Y-29497000D01*
X28852334Y-29532236D01*
X28835268Y-29588494D01*
X28829506Y-29647000D01*
X28830950Y-29738638D01*
X28905562Y-29813250D01*
X29500650Y-29813250D01*
X29500650Y-29793250D01*
X29818150Y-29793250D01*
X29818150Y-29813250D01*
X29838150Y-29813250D01*
X29838150Y-30130750D01*
X29818150Y-30130750D01*
X29818150Y-30150750D01*
X29500650Y-30150750D01*
X29500650Y-30130750D01*
X28905562Y-30130750D01*
X28830950Y-30205362D01*
X28829506Y-30297000D01*
X28835268Y-30355506D01*
X28852334Y-30411764D01*
X28871168Y-30447000D01*
X28852334Y-30482236D01*
X28835268Y-30538494D01*
X28829506Y-30597000D01*
X28829506Y-31247000D01*
X28835268Y-31305506D01*
X28852334Y-31361764D01*
X28880047Y-31413612D01*
X28917343Y-31459057D01*
X28962788Y-31496353D01*
X29014636Y-31524066D01*
X29070894Y-31541132D01*
X29129400Y-31546894D01*
X29265700Y-31546894D01*
X29265700Y-31697678D01*
X29263797Y-31717001D01*
X29265700Y-31736323D01*
X29265700Y-31736333D01*
X29271397Y-31794179D01*
X29293910Y-31868391D01*
X29330467Y-31936786D01*
X29379666Y-31996735D01*
X29394685Y-32009061D01*
X30168851Y-32783228D01*
X30168850Y-46071774D01*
X29494680Y-46745945D01*
X29479667Y-46758266D01*
X29467346Y-46773279D01*
X29467342Y-46773283D01*
X29430467Y-46818215D01*
X29393910Y-46886610D01*
X29371398Y-46960822D01*
X29369140Y-46983749D01*
X29359452Y-46988927D01*
X29291277Y-47044877D01*
X29279850Y-47058801D01*
X29279850Y-45118875D01*
X29350387Y-45060987D01*
X29414887Y-44982393D01*
X29462815Y-44892726D01*
X29492328Y-44795432D01*
X29502294Y-44694250D01*
X29502294Y-44256750D01*
X29492328Y-44155568D01*
X29462815Y-44058274D01*
X29414887Y-43968607D01*
X29350387Y-43890013D01*
X29271793Y-43825513D01*
X29182126Y-43777585D01*
X29084832Y-43748072D01*
X28983650Y-43738106D01*
X28471150Y-43738106D01*
X28369968Y-43748072D01*
X28272674Y-43777585D01*
X28183007Y-43825513D01*
X28104413Y-43890013D01*
X28039913Y-43968607D01*
X27991985Y-44058274D01*
X27962472Y-44155568D01*
X27952506Y-44256750D01*
X27952506Y-44694250D01*
X27962472Y-44795432D01*
X27991985Y-44892726D01*
X28039913Y-44982393D01*
X28104413Y-45060987D01*
X28174950Y-45118875D01*
X28174951Y-47252814D01*
X28168151Y-47275230D01*
X28159506Y-47363000D01*
X28159506Y-48613000D01*
X28168151Y-48700770D01*
X28193752Y-48785167D01*
X28235327Y-48862948D01*
X28291277Y-48931123D01*
X28359452Y-48987073D01*
X28437233Y-49028648D01*
X28521630Y-49054249D01*
X28609400Y-49062894D01*
X28909400Y-49062894D01*
X28997170Y-49054249D01*
X29081567Y-49028648D01*
X29159348Y-48987073D01*
X29227523Y-48931123D01*
X29259400Y-48892281D01*
X29291277Y-48931123D01*
X29359452Y-48987073D01*
X29437233Y-49028648D01*
X29521630Y-49054249D01*
X29609400Y-49062894D01*
X29909400Y-49062894D01*
X29997170Y-49054249D01*
X30081567Y-49028648D01*
X30159348Y-48987073D01*
X30227523Y-48931123D01*
X30259400Y-48892281D01*
X30291277Y-48931123D01*
X30359452Y-48987073D01*
X30437233Y-49028648D01*
X30521630Y-49054249D01*
X30609400Y-49062894D01*
X30909400Y-49062894D01*
X30997170Y-49054249D01*
X31081567Y-49028648D01*
X31159348Y-48987073D01*
X31227523Y-48931123D01*
X31259400Y-48892281D01*
X31291277Y-48931123D01*
X31358983Y-48986688D01*
X31366869Y-48996297D01*
X31387955Y-49013602D01*
X31953312Y-49578960D01*
X31970613Y-49600041D01*
X32054734Y-49669078D01*
X32150708Y-49720377D01*
X32223255Y-49742383D01*
X32254844Y-49751966D01*
X32264798Y-49752946D01*
X32336006Y-49759960D01*
X32336013Y-49759960D01*
X32363144Y-49762632D01*
X32390275Y-49759960D01*
X33128525Y-49759960D01*
X33155656Y-49762632D01*
X33182787Y-49759960D01*
X33182794Y-49759960D01*
X33263955Y-49751966D01*
X33368092Y-49720377D01*
X33464066Y-49669078D01*
X33548187Y-49600041D01*
X33565492Y-49578955D01*
X34432850Y-48711598D01*
X34453931Y-48694297D01*
X34522968Y-48610176D01*
X34574267Y-48514202D01*
X34605856Y-48410065D01*
X34611756Y-48350155D01*
X41046061Y-48350155D01*
X42759400Y-50063494D01*
X44472739Y-48350155D01*
X44192435Y-48045514D01*
X43727413Y-47809031D01*
X43225190Y-47667814D01*
X42705067Y-47627289D01*
X42187032Y-47689014D01*
X41690992Y-47850616D01*
X41326365Y-48045514D01*
X41046061Y-48350155D01*
X34611756Y-48350155D01*
X34613850Y-48328904D01*
X34613850Y-48328898D01*
X34616522Y-48301767D01*
X34613850Y-48274636D01*
X34613850Y-32804894D01*
X34686400Y-32804894D01*
X34793679Y-32794328D01*
X34896835Y-32763036D01*
X34991905Y-32712220D01*
X35075234Y-32643834D01*
X35143620Y-32560505D01*
X35194436Y-32465435D01*
X35225728Y-32362279D01*
X35236294Y-32255000D01*
X35236294Y-31505000D01*
X35225728Y-31397721D01*
X35194436Y-31294565D01*
X35143620Y-31199495D01*
X35075234Y-31116166D01*
X34991905Y-31047780D01*
X34896835Y-30996964D01*
X34793679Y-30965672D01*
X34686400Y-30955106D01*
X33920685Y-30955106D01*
X32689294Y-29723716D01*
X32689294Y-29647000D01*
X32683532Y-29588494D01*
X32666466Y-29532236D01*
X32647632Y-29497000D01*
X32666466Y-29461764D01*
X32683532Y-29405506D01*
X32689294Y-29347000D01*
X32689294Y-28697000D01*
X32683532Y-28638494D01*
X32666466Y-28582236D01*
X32638753Y-28530388D01*
X32601457Y-28484943D01*
X32556012Y-28447647D01*
X32504164Y-28419934D01*
X32447906Y-28402868D01*
X32389400Y-28397106D01*
X31903100Y-28397106D01*
X31903100Y-27222450D01*
X32613633Y-27222450D01*
X32590441Y-27257160D01*
X32537791Y-27384270D01*
X32510950Y-27519209D01*
X32510950Y-27656791D01*
X32537791Y-27791730D01*
X32590441Y-27918840D01*
X32656950Y-28018378D01*
X32656950Y-28200869D01*
X32654278Y-28228000D01*
X32656950Y-28255131D01*
X32656950Y-28255138D01*
X32664944Y-28336299D01*
X32696534Y-28440436D01*
X32747833Y-28536410D01*
X32816870Y-28620531D01*
X32837950Y-28637831D01*
X32888175Y-28688056D01*
X32886506Y-28705000D01*
X32886506Y-29455000D01*
X32897072Y-29562279D01*
X32928364Y-29665435D01*
X32979180Y-29760505D01*
X33047566Y-29843834D01*
X33130895Y-29912220D01*
X33225965Y-29963036D01*
X33329121Y-29994328D01*
X33436400Y-30004894D01*
X34686400Y-30004894D01*
X34793679Y-29994328D01*
X34896835Y-29963036D01*
X34991905Y-29912220D01*
X35075234Y-29843834D01*
X35143620Y-29760505D01*
X35194436Y-29665435D01*
X35225728Y-29562279D01*
X35236294Y-29455000D01*
X35236294Y-28705000D01*
X35225728Y-28597721D01*
X35194436Y-28494565D01*
X35143620Y-28399495D01*
X35075234Y-28316166D01*
X35026292Y-28276000D01*
X36207506Y-28276000D01*
X36213268Y-28334506D01*
X36230334Y-28390764D01*
X36258047Y-28442612D01*
X36295343Y-28488057D01*
X36340788Y-28525353D01*
X36392636Y-28553066D01*
X36448894Y-28570132D01*
X36507400Y-28575894D01*
X36749038Y-28574450D01*
X36823650Y-28499838D01*
X36823650Y-27997250D01*
X37141150Y-27997250D01*
X37141150Y-28499838D01*
X37215762Y-28574450D01*
X37457400Y-28575894D01*
X37515906Y-28570132D01*
X37572164Y-28553066D01*
X37624012Y-28525353D01*
X37669457Y-28488057D01*
X37706753Y-28442612D01*
X37734466Y-28390764D01*
X37751532Y-28334506D01*
X37757294Y-28276000D01*
X37755850Y-28071862D01*
X37681238Y-27997250D01*
X37141150Y-27997250D01*
X36823650Y-27997250D01*
X36283562Y-27997250D01*
X36208950Y-28071862D01*
X36207506Y-28276000D01*
X35026292Y-28276000D01*
X34991905Y-28247780D01*
X34896835Y-28196964D01*
X34793679Y-28165672D01*
X34686400Y-28155106D01*
X33917787Y-28155106D01*
X33769544Y-28006863D01*
X33828359Y-27918840D01*
X33881009Y-27791730D01*
X33907850Y-27656791D01*
X33907850Y-27519209D01*
X33881009Y-27384270D01*
X33828359Y-27257160D01*
X33805167Y-27222450D01*
X36267844Y-27222450D01*
X36258047Y-27234388D01*
X36230334Y-27286236D01*
X36213268Y-27342494D01*
X36207506Y-27401000D01*
X36208950Y-27605138D01*
X36283562Y-27679750D01*
X36823650Y-27679750D01*
X36823650Y-27659750D01*
X37141150Y-27659750D01*
X37141150Y-27679750D01*
X37681238Y-27679750D01*
X37755850Y-27605138D01*
X37757294Y-27401000D01*
X37751532Y-27342494D01*
X37734466Y-27286236D01*
X37706753Y-27234388D01*
X37696956Y-27222450D01*
X39446200Y-27222450D01*
X39504425Y-27216715D01*
X39560412Y-27199732D01*
X39612010Y-27172152D01*
X39657236Y-27135036D01*
X39860436Y-26931836D01*
X39897552Y-26886610D01*
X39925132Y-26835012D01*
X39942115Y-26779025D01*
X39947850Y-26720800D01*
X39947850Y-24225845D01*
X41046061Y-24225845D01*
X41326365Y-24530486D01*
X41791387Y-24766969D01*
X42293610Y-24908186D01*
X42813733Y-24948711D01*
X43331768Y-24886986D01*
X43827808Y-24725384D01*
X44192435Y-24530486D01*
X44472739Y-24225845D01*
X42759400Y-22512506D01*
X41046061Y-24225845D01*
X39947850Y-24225845D01*
X39947850Y-22342333D01*
X40098689Y-22342333D01*
X40160414Y-22860368D01*
X40322016Y-23356408D01*
X40516914Y-23721035D01*
X40821555Y-24001339D01*
X42534894Y-22288000D01*
X42983906Y-22288000D01*
X44697245Y-24001339D01*
X45001886Y-23721035D01*
X45238369Y-23256013D01*
X45379586Y-22753790D01*
X45420111Y-22233667D01*
X45358386Y-21715632D01*
X45196784Y-21219592D01*
X45001886Y-20854965D01*
X44697245Y-20574661D01*
X42983906Y-22288000D01*
X42534894Y-22288000D01*
X40821555Y-20574661D01*
X40516914Y-20854965D01*
X40280431Y-21319987D01*
X40139214Y-21822210D01*
X40098689Y-22342333D01*
X39947850Y-22342333D01*
X39947850Y-20350155D01*
X41046061Y-20350155D01*
X42759400Y-22063494D01*
X44472739Y-20350155D01*
X44192435Y-20045514D01*
X43727413Y-19809031D01*
X43225190Y-19667814D01*
X42705067Y-19627289D01*
X42187032Y-19689014D01*
X41690992Y-19850616D01*
X41326365Y-20045514D01*
X41046061Y-20350155D01*
X39947850Y-20350155D01*
X39947850Y-19611450D01*
X42743584Y-19611450D01*
X43278976Y-19663946D01*
X43778761Y-19814840D01*
X44239722Y-20059937D01*
X44644298Y-20389901D01*
X44977073Y-20792157D01*
X45225382Y-21251396D01*
X45379763Y-21750119D01*
X45435936Y-22284568D01*
X45435951Y-22288840D01*
X45435950Y-50272184D01*
X45383454Y-50807575D01*
X45232559Y-51307363D01*
X44987462Y-51768325D01*
X44657499Y-52172898D01*
X44255240Y-52505676D01*
X43796004Y-52753982D01*
X43297282Y-52908363D01*
X42762831Y-52964536D01*
X42758847Y-52964550D01*
X34721814Y-52964550D01*
X34798234Y-52901834D01*
X34866620Y-52818505D01*
X34917436Y-52723436D01*
X34948728Y-52620280D01*
X34959294Y-52513001D01*
X34959294Y-52225845D01*
X41046061Y-52225845D01*
X41326365Y-52530486D01*
X41791387Y-52766969D01*
X42293610Y-52908186D01*
X42813733Y-52948711D01*
X43331768Y-52886986D01*
X43827808Y-52725384D01*
X44192435Y-52530486D01*
X44472739Y-52225845D01*
X42759400Y-50512506D01*
X41046061Y-52225845D01*
X34959294Y-52225845D01*
X34959294Y-51212999D01*
X34948728Y-51105720D01*
X34917436Y-51002564D01*
X34866620Y-50907495D01*
X34798234Y-50824166D01*
X34714905Y-50755780D01*
X34619836Y-50704964D01*
X34516680Y-50673672D01*
X34409401Y-50663106D01*
X33709399Y-50663106D01*
X33602120Y-50673672D01*
X33498964Y-50704964D01*
X33403895Y-50755780D01*
X33320566Y-50824166D01*
X33252180Y-50907495D01*
X33201364Y-51002564D01*
X33170072Y-51105720D01*
X33159506Y-51212999D01*
X33159506Y-52513001D01*
X33170072Y-52620280D01*
X33201364Y-52723436D01*
X33252180Y-52818505D01*
X33320566Y-52901834D01*
X33396986Y-52964550D01*
X28121814Y-52964550D01*
X28198234Y-52901834D01*
X28266620Y-52818505D01*
X28317436Y-52723436D01*
X28348728Y-52620280D01*
X28359294Y-52513001D01*
X28359294Y-51212999D01*
X28348728Y-51105720D01*
X28317436Y-51002564D01*
X28266620Y-50907495D01*
X28198234Y-50824166D01*
X28114905Y-50755780D01*
X28019836Y-50704964D01*
X27916680Y-50673672D01*
X27809401Y-50663106D01*
X27109399Y-50663106D01*
X27002120Y-50673672D01*
X26898964Y-50704964D01*
X26803895Y-50755780D01*
X26720566Y-50824166D01*
X26652180Y-50907495D01*
X26601364Y-51002564D01*
X26570072Y-51105720D01*
X26559506Y-51212999D01*
X26559506Y-52513001D01*
X26570072Y-52620280D01*
X26601364Y-52723436D01*
X26652180Y-52818505D01*
X26720566Y-52901834D01*
X26796986Y-52964550D01*
X18775216Y-52964550D01*
X18239825Y-52912054D01*
X17740037Y-52761159D01*
X17279075Y-52516062D01*
X16923236Y-52225845D01*
X17046061Y-52225845D01*
X17326365Y-52530486D01*
X17791387Y-52766969D01*
X18293610Y-52908186D01*
X18813733Y-52948711D01*
X19331768Y-52886986D01*
X19827808Y-52725384D01*
X20192435Y-52530486D01*
X20472739Y-52225845D01*
X18759400Y-50512506D01*
X17046061Y-52225845D01*
X16923236Y-52225845D01*
X16874502Y-52186099D01*
X16541724Y-51783840D01*
X16293418Y-51324604D01*
X16139037Y-50825882D01*
X16088215Y-50342333D01*
X16098689Y-50342333D01*
X16160414Y-50860368D01*
X16322016Y-51356408D01*
X16516914Y-51721035D01*
X16821555Y-52001339D01*
X18534894Y-50288000D01*
X18983906Y-50288000D01*
X20697245Y-52001339D01*
X21001886Y-51721035D01*
X21238369Y-51256013D01*
X21379586Y-50753790D01*
X21411644Y-50342333D01*
X40098689Y-50342333D01*
X40160414Y-50860368D01*
X40322016Y-51356408D01*
X40516914Y-51721035D01*
X40821555Y-52001339D01*
X42534894Y-50288000D01*
X42983906Y-50288000D01*
X44697245Y-52001339D01*
X45001886Y-51721035D01*
X45238369Y-51256013D01*
X45379586Y-50753790D01*
X45420111Y-50233667D01*
X45358386Y-49715632D01*
X45196784Y-49219592D01*
X45001886Y-48854965D01*
X44697245Y-48574661D01*
X42983906Y-50288000D01*
X42534894Y-50288000D01*
X40821555Y-48574661D01*
X40516914Y-48854965D01*
X40280431Y-49319987D01*
X40139214Y-49822210D01*
X40098689Y-50342333D01*
X21411644Y-50342333D01*
X21420111Y-50233667D01*
X21358386Y-49715632D01*
X21196784Y-49219592D01*
X21001886Y-48854965D01*
X20697245Y-48574661D01*
X18983906Y-50288000D01*
X18534894Y-50288000D01*
X16821555Y-48574661D01*
X16516914Y-48854965D01*
X16280431Y-49319987D01*
X16139214Y-49822210D01*
X16098689Y-50342333D01*
X16088215Y-50342333D01*
X16082864Y-50291431D01*
X16082850Y-50287447D01*
X16082850Y-48350155D01*
X17046061Y-48350155D01*
X18759400Y-50063494D01*
X20472739Y-48350155D01*
X20192435Y-48045514D01*
X19727413Y-47809031D01*
X19225190Y-47667814D01*
X18705067Y-47627289D01*
X18187032Y-47689014D01*
X17690992Y-47850616D01*
X17326365Y-48045514D01*
X17046061Y-48350155D01*
X16082850Y-48350155D01*
X16082850Y-43338000D01*
X27952506Y-43338000D01*
X27958268Y-43396506D01*
X27975334Y-43452764D01*
X28003047Y-43504612D01*
X28040343Y-43550057D01*
X28085788Y-43587353D01*
X28137636Y-43615066D01*
X28193894Y-43632132D01*
X28252400Y-43637894D01*
X28494038Y-43636450D01*
X28568650Y-43561838D01*
X28568650Y-43059250D01*
X28886150Y-43059250D01*
X28886150Y-43561838D01*
X28960762Y-43636450D01*
X29202400Y-43637894D01*
X29260906Y-43632132D01*
X29317164Y-43615066D01*
X29369012Y-43587353D01*
X29414457Y-43550057D01*
X29451753Y-43504612D01*
X29479466Y-43452764D01*
X29496532Y-43396506D01*
X29502294Y-43338000D01*
X29500850Y-43133862D01*
X29426238Y-43059250D01*
X28886150Y-43059250D01*
X28568650Y-43059250D01*
X28028562Y-43059250D01*
X27953950Y-43133862D01*
X27952506Y-43338000D01*
X16082850Y-43338000D01*
X16082850Y-42463000D01*
X27952506Y-42463000D01*
X27953950Y-42667138D01*
X28028562Y-42741750D01*
X28568650Y-42741750D01*
X28568650Y-42239162D01*
X28886150Y-42239162D01*
X28886150Y-42741750D01*
X29426238Y-42741750D01*
X29500850Y-42667138D01*
X29502294Y-42463000D01*
X29496532Y-42404494D01*
X29479466Y-42348236D01*
X29451753Y-42296388D01*
X29414457Y-42250943D01*
X29369012Y-42213647D01*
X29317164Y-42185934D01*
X29260906Y-42168868D01*
X29202400Y-42163106D01*
X28960762Y-42164550D01*
X28886150Y-42239162D01*
X28568650Y-42239162D01*
X28494038Y-42164550D01*
X28252400Y-42163106D01*
X28193894Y-42168868D01*
X28137636Y-42185934D01*
X28085788Y-42213647D01*
X28040343Y-42250943D01*
X28003047Y-42296388D01*
X27975334Y-42348236D01*
X27958268Y-42404494D01*
X27952506Y-42463000D01*
X16082850Y-42463000D01*
X16082850Y-28276000D01*
X22110506Y-28276000D01*
X22116268Y-28334506D01*
X22133334Y-28390764D01*
X22161047Y-28442612D01*
X22198343Y-28488057D01*
X22243788Y-28525353D01*
X22295636Y-28553066D01*
X22351894Y-28570132D01*
X22410400Y-28575894D01*
X22652038Y-28574450D01*
X22726650Y-28499838D01*
X22726650Y-27997250D01*
X23044150Y-27997250D01*
X23044150Y-28499838D01*
X23118762Y-28574450D01*
X23360400Y-28575894D01*
X23418906Y-28570132D01*
X23475164Y-28553066D01*
X23527012Y-28525353D01*
X23572457Y-28488057D01*
X23609753Y-28442612D01*
X23637466Y-28390764D01*
X23654532Y-28334506D01*
X23660294Y-28276000D01*
X23825006Y-28276000D01*
X23830768Y-28334506D01*
X23847834Y-28390764D01*
X23875547Y-28442612D01*
X23912843Y-28488057D01*
X23958288Y-28525353D01*
X24010136Y-28553066D01*
X24066394Y-28570132D01*
X24124900Y-28575894D01*
X24366538Y-28574450D01*
X24441150Y-28499838D01*
X24441150Y-27997250D01*
X24758650Y-27997250D01*
X24758650Y-28499838D01*
X24833262Y-28574450D01*
X25074900Y-28575894D01*
X25133406Y-28570132D01*
X25189664Y-28553066D01*
X25241512Y-28525353D01*
X25286957Y-28488057D01*
X25324253Y-28442612D01*
X25351966Y-28390764D01*
X25369032Y-28334506D01*
X25374794Y-28276000D01*
X25373350Y-28071862D01*
X25298738Y-27997250D01*
X24758650Y-27997250D01*
X24441150Y-27997250D01*
X23901062Y-27997250D01*
X23826450Y-28071862D01*
X23825006Y-28276000D01*
X23660294Y-28276000D01*
X23658850Y-28071862D01*
X23584238Y-27997250D01*
X23044150Y-27997250D01*
X22726650Y-27997250D01*
X22186562Y-27997250D01*
X22111950Y-28071862D01*
X22110506Y-28276000D01*
X16082850Y-28276000D01*
X16082850Y-24225845D01*
X17046061Y-24225845D01*
X17326365Y-24530486D01*
X17791387Y-24766969D01*
X18293610Y-24908186D01*
X18813733Y-24948711D01*
X19331768Y-24886986D01*
X19827808Y-24725384D01*
X20192435Y-24530486D01*
X20472739Y-24225845D01*
X18759400Y-22512506D01*
X17046061Y-24225845D01*
X16082850Y-24225845D01*
X16082850Y-22342333D01*
X16098689Y-22342333D01*
X16160414Y-22860368D01*
X16322016Y-23356408D01*
X16516914Y-23721035D01*
X16821555Y-24001339D01*
X18534894Y-22288000D01*
X18983906Y-22288000D01*
X20697245Y-24001339D01*
X21001886Y-23721035D01*
X21238369Y-23256013D01*
X21379586Y-22753790D01*
X21420111Y-22233667D01*
X21358386Y-21715632D01*
X21196784Y-21219592D01*
X21001886Y-20854965D01*
X20697245Y-20574661D01*
X18983906Y-22288000D01*
X18534894Y-22288000D01*
X16821555Y-20574661D01*
X16516914Y-20854965D01*
X16280431Y-21319987D01*
X16139214Y-21822210D01*
X16098689Y-22342333D01*
X16082850Y-22342333D01*
X16082850Y-22303816D01*
X16135346Y-21768424D01*
X16286240Y-21268639D01*
X16531337Y-20807678D01*
X16861301Y-20403102D01*
X16925302Y-20350155D01*
X17046061Y-20350155D01*
X18759400Y-22063494D01*
X20472739Y-20350155D01*
X20192435Y-20045514D01*
X19727413Y-19809031D01*
X19225190Y-19667814D01*
X18705067Y-19627289D01*
X18187032Y-19689014D01*
X17690992Y-19850616D01*
X17326365Y-20045514D01*
X17046061Y-20350155D01*
X16925302Y-20350155D01*
X17263557Y-20070327D01*
X17722796Y-19822018D01*
X18221519Y-19667637D01*
X18755968Y-19611464D01*
X18759953Y-19611450D01*
X21570950Y-19611450D01*
X21570950Y-26720800D01*
G37*
X21570950Y-26720800D02*
X21576685Y-26779025D01*
X21593668Y-26835012D01*
X21621248Y-26886610D01*
X21658364Y-26931836D01*
X21861564Y-27135036D01*
X21906790Y-27172152D01*
X21958388Y-27199732D01*
X22014375Y-27216715D01*
X22072600Y-27222450D01*
X22170844Y-27222450D01*
X22161047Y-27234388D01*
X22133334Y-27286236D01*
X22116268Y-27342494D01*
X22110506Y-27401000D01*
X22111950Y-27605138D01*
X22186562Y-27679750D01*
X22726650Y-27679750D01*
X22726650Y-27659750D01*
X23044150Y-27659750D01*
X23044150Y-27679750D01*
X23584238Y-27679750D01*
X23658850Y-27605138D01*
X23660294Y-27401000D01*
X23654532Y-27342494D01*
X23637466Y-27286236D01*
X23609753Y-27234388D01*
X23599956Y-27222450D01*
X23885344Y-27222450D01*
X23875547Y-27234388D01*
X23847834Y-27286236D01*
X23830768Y-27342494D01*
X23825006Y-27401000D01*
X23826450Y-27605138D01*
X23901062Y-27679750D01*
X24441150Y-27679750D01*
X24441150Y-27659750D01*
X24758650Y-27659750D01*
X24758650Y-27679750D01*
X25298738Y-27679750D01*
X25373350Y-27605138D01*
X25374794Y-27401000D01*
X25369032Y-27342494D01*
X25351966Y-27286236D01*
X25324253Y-27234388D01*
X25314456Y-27222450D01*
X27713633Y-27222450D01*
X27690441Y-27257160D01*
X27637791Y-27384270D01*
X27610950Y-27519209D01*
X27610950Y-27656791D01*
X27637791Y-27791730D01*
X27690441Y-27918840D01*
X27766878Y-28033236D01*
X27864164Y-28130522D01*
X27978560Y-28206959D01*
X28105670Y-28259609D01*
X28240609Y-28286450D01*
X28378191Y-28286450D01*
X28513130Y-28259609D01*
X28640240Y-28206959D01*
X28754636Y-28130522D01*
X28851922Y-28033236D01*
X28928359Y-27918840D01*
X28981009Y-27791730D01*
X29007850Y-27656791D01*
X29007850Y-27519209D01*
X28981009Y-27384270D01*
X28928359Y-27257160D01*
X28905167Y-27222450D01*
X29615701Y-27222450D01*
X29615700Y-28397106D01*
X29129400Y-28397106D01*
X29070894Y-28402868D01*
X29014636Y-28419934D01*
X28962788Y-28447647D01*
X28917343Y-28484943D01*
X28880047Y-28530388D01*
X28852334Y-28582236D01*
X28835268Y-28638494D01*
X28829506Y-28697000D01*
X28829506Y-29347000D01*
X28835268Y-29405506D01*
X28852334Y-29461764D01*
X28871168Y-29497000D01*
X28852334Y-29532236D01*
X28835268Y-29588494D01*
X28829506Y-29647000D01*
X28830950Y-29738638D01*
X28905562Y-29813250D01*
X29500650Y-29813250D01*
X29500650Y-29793250D01*
X29818150Y-29793250D01*
X29818150Y-29813250D01*
X29838150Y-29813250D01*
X29838150Y-30130750D01*
X29818150Y-30130750D01*
X29818150Y-30150750D01*
X29500650Y-30150750D01*
X29500650Y-30130750D01*
X28905562Y-30130750D01*
X28830950Y-30205362D01*
X28829506Y-30297000D01*
X28835268Y-30355506D01*
X28852334Y-30411764D01*
X28871168Y-30447000D01*
X28852334Y-30482236D01*
X28835268Y-30538494D01*
X28829506Y-30597000D01*
X28829506Y-31247000D01*
X28835268Y-31305506D01*
X28852334Y-31361764D01*
X28880047Y-31413612D01*
X28917343Y-31459057D01*
X28962788Y-31496353D01*
X29014636Y-31524066D01*
X29070894Y-31541132D01*
X29129400Y-31546894D01*
X29265700Y-31546894D01*
X29265700Y-31697678D01*
X29263797Y-31717001D01*
X29265700Y-31736323D01*
X29265700Y-31736333D01*
X29271397Y-31794179D01*
X29293910Y-31868391D01*
X29330467Y-31936786D01*
X29379666Y-31996735D01*
X29394685Y-32009061D01*
X30168851Y-32783228D01*
X30168850Y-46071774D01*
X29494680Y-46745945D01*
X29479667Y-46758266D01*
X29467346Y-46773279D01*
X29467342Y-46773283D01*
X29430467Y-46818215D01*
X29393910Y-46886610D01*
X29371398Y-46960822D01*
X29369140Y-46983749D01*
X29359452Y-46988927D01*
X29291277Y-47044877D01*
X29279850Y-47058801D01*
X29279850Y-45118875D01*
X29350387Y-45060987D01*
X29414887Y-44982393D01*
X29462815Y-44892726D01*
X29492328Y-44795432D01*
X29502294Y-44694250D01*
X29502294Y-44256750D01*
X29492328Y-44155568D01*
X29462815Y-44058274D01*
X29414887Y-43968607D01*
X29350387Y-43890013D01*
X29271793Y-43825513D01*
X29182126Y-43777585D01*
X29084832Y-43748072D01*
X28983650Y-43738106D01*
X28471150Y-43738106D01*
X28369968Y-43748072D01*
X28272674Y-43777585D01*
X28183007Y-43825513D01*
X28104413Y-43890013D01*
X28039913Y-43968607D01*
X27991985Y-44058274D01*
X27962472Y-44155568D01*
X27952506Y-44256750D01*
X27952506Y-44694250D01*
X27962472Y-44795432D01*
X27991985Y-44892726D01*
X28039913Y-44982393D01*
X28104413Y-45060987D01*
X28174950Y-45118875D01*
X28174951Y-47252814D01*
X28168151Y-47275230D01*
X28159506Y-47363000D01*
X28159506Y-48613000D01*
X28168151Y-48700770D01*
X28193752Y-48785167D01*
X28235327Y-48862948D01*
X28291277Y-48931123D01*
X28359452Y-48987073D01*
X28437233Y-49028648D01*
X28521630Y-49054249D01*
X28609400Y-49062894D01*
X28909400Y-49062894D01*
X28997170Y-49054249D01*
X29081567Y-49028648D01*
X29159348Y-48987073D01*
X29227523Y-48931123D01*
X29259400Y-48892281D01*
X29291277Y-48931123D01*
X29359452Y-48987073D01*
X29437233Y-49028648D01*
X29521630Y-49054249D01*
X29609400Y-49062894D01*
X29909400Y-49062894D01*
X29997170Y-49054249D01*
X30081567Y-49028648D01*
X30159348Y-48987073D01*
X30227523Y-48931123D01*
X30259400Y-48892281D01*
X30291277Y-48931123D01*
X30359452Y-48987073D01*
X30437233Y-49028648D01*
X30521630Y-49054249D01*
X30609400Y-49062894D01*
X30909400Y-49062894D01*
X30997170Y-49054249D01*
X31081567Y-49028648D01*
X31159348Y-48987073D01*
X31227523Y-48931123D01*
X31259400Y-48892281D01*
X31291277Y-48931123D01*
X31358983Y-48986688D01*
X31366869Y-48996297D01*
X31387955Y-49013602D01*
X31953312Y-49578960D01*
X31970613Y-49600041D01*
X32054734Y-49669078D01*
X32150708Y-49720377D01*
X32223255Y-49742383D01*
X32254844Y-49751966D01*
X32264798Y-49752946D01*
X32336006Y-49759960D01*
X32336013Y-49759960D01*
X32363144Y-49762632D01*
X32390275Y-49759960D01*
X33128525Y-49759960D01*
X33155656Y-49762632D01*
X33182787Y-49759960D01*
X33182794Y-49759960D01*
X33263955Y-49751966D01*
X33368092Y-49720377D01*
X33464066Y-49669078D01*
X33548187Y-49600041D01*
X33565492Y-49578955D01*
X34432850Y-48711598D01*
X34453931Y-48694297D01*
X34522968Y-48610176D01*
X34574267Y-48514202D01*
X34605856Y-48410065D01*
X34611756Y-48350155D01*
X41046061Y-48350155D01*
X42759400Y-50063494D01*
X44472739Y-48350155D01*
X44192435Y-48045514D01*
X43727413Y-47809031D01*
X43225190Y-47667814D01*
X42705067Y-47627289D01*
X42187032Y-47689014D01*
X41690992Y-47850616D01*
X41326365Y-48045514D01*
X41046061Y-48350155D01*
X34611756Y-48350155D01*
X34613850Y-48328904D01*
X34613850Y-48328898D01*
X34616522Y-48301767D01*
X34613850Y-48274636D01*
X34613850Y-32804894D01*
X34686400Y-32804894D01*
X34793679Y-32794328D01*
X34896835Y-32763036D01*
X34991905Y-32712220D01*
X35075234Y-32643834D01*
X35143620Y-32560505D01*
X35194436Y-32465435D01*
X35225728Y-32362279D01*
X35236294Y-32255000D01*
X35236294Y-31505000D01*
X35225728Y-31397721D01*
X35194436Y-31294565D01*
X35143620Y-31199495D01*
X35075234Y-31116166D01*
X34991905Y-31047780D01*
X34896835Y-30996964D01*
X34793679Y-30965672D01*
X34686400Y-30955106D01*
X33920685Y-30955106D01*
X32689294Y-29723716D01*
X32689294Y-29647000D01*
X32683532Y-29588494D01*
X32666466Y-29532236D01*
X32647632Y-29497000D01*
X32666466Y-29461764D01*
X32683532Y-29405506D01*
X32689294Y-29347000D01*
X32689294Y-28697000D01*
X32683532Y-28638494D01*
X32666466Y-28582236D01*
X32638753Y-28530388D01*
X32601457Y-28484943D01*
X32556012Y-28447647D01*
X32504164Y-28419934D01*
X32447906Y-28402868D01*
X32389400Y-28397106D01*
X31903100Y-28397106D01*
X31903100Y-27222450D01*
X32613633Y-27222450D01*
X32590441Y-27257160D01*
X32537791Y-27384270D01*
X32510950Y-27519209D01*
X32510950Y-27656791D01*
X32537791Y-27791730D01*
X32590441Y-27918840D01*
X32656950Y-28018378D01*
X32656950Y-28200869D01*
X32654278Y-28228000D01*
X32656950Y-28255131D01*
X32656950Y-28255138D01*
X32664944Y-28336299D01*
X32696534Y-28440436D01*
X32747833Y-28536410D01*
X32816870Y-28620531D01*
X32837950Y-28637831D01*
X32888175Y-28688056D01*
X32886506Y-28705000D01*
X32886506Y-29455000D01*
X32897072Y-29562279D01*
X32928364Y-29665435D01*
X32979180Y-29760505D01*
X33047566Y-29843834D01*
X33130895Y-29912220D01*
X33225965Y-29963036D01*
X33329121Y-29994328D01*
X33436400Y-30004894D01*
X34686400Y-30004894D01*
X34793679Y-29994328D01*
X34896835Y-29963036D01*
X34991905Y-29912220D01*
X35075234Y-29843834D01*
X35143620Y-29760505D01*
X35194436Y-29665435D01*
X35225728Y-29562279D01*
X35236294Y-29455000D01*
X35236294Y-28705000D01*
X35225728Y-28597721D01*
X35194436Y-28494565D01*
X35143620Y-28399495D01*
X35075234Y-28316166D01*
X35026292Y-28276000D01*
X36207506Y-28276000D01*
X36213268Y-28334506D01*
X36230334Y-28390764D01*
X36258047Y-28442612D01*
X36295343Y-28488057D01*
X36340788Y-28525353D01*
X36392636Y-28553066D01*
X36448894Y-28570132D01*
X36507400Y-28575894D01*
X36749038Y-28574450D01*
X36823650Y-28499838D01*
X36823650Y-27997250D01*
X37141150Y-27997250D01*
X37141150Y-28499838D01*
X37215762Y-28574450D01*
X37457400Y-28575894D01*
X37515906Y-28570132D01*
X37572164Y-28553066D01*
X37624012Y-28525353D01*
X37669457Y-28488057D01*
X37706753Y-28442612D01*
X37734466Y-28390764D01*
X37751532Y-28334506D01*
X37757294Y-28276000D01*
X37755850Y-28071862D01*
X37681238Y-27997250D01*
X37141150Y-27997250D01*
X36823650Y-27997250D01*
X36283562Y-27997250D01*
X36208950Y-28071862D01*
X36207506Y-28276000D01*
X35026292Y-28276000D01*
X34991905Y-28247780D01*
X34896835Y-28196964D01*
X34793679Y-28165672D01*
X34686400Y-28155106D01*
X33917787Y-28155106D01*
X33769544Y-28006863D01*
X33828359Y-27918840D01*
X33881009Y-27791730D01*
X33907850Y-27656791D01*
X33907850Y-27519209D01*
X33881009Y-27384270D01*
X33828359Y-27257160D01*
X33805167Y-27222450D01*
X36267844Y-27222450D01*
X36258047Y-27234388D01*
X36230334Y-27286236D01*
X36213268Y-27342494D01*
X36207506Y-27401000D01*
X36208950Y-27605138D01*
X36283562Y-27679750D01*
X36823650Y-27679750D01*
X36823650Y-27659750D01*
X37141150Y-27659750D01*
X37141150Y-27679750D01*
X37681238Y-27679750D01*
X37755850Y-27605138D01*
X37757294Y-27401000D01*
X37751532Y-27342494D01*
X37734466Y-27286236D01*
X37706753Y-27234388D01*
X37696956Y-27222450D01*
X39446200Y-27222450D01*
X39504425Y-27216715D01*
X39560412Y-27199732D01*
X39612010Y-27172152D01*
X39657236Y-27135036D01*
X39860436Y-26931836D01*
X39897552Y-26886610D01*
X39925132Y-26835012D01*
X39942115Y-26779025D01*
X39947850Y-26720800D01*
X39947850Y-24225845D01*
X41046061Y-24225845D01*
X41326365Y-24530486D01*
X41791387Y-24766969D01*
X42293610Y-24908186D01*
X42813733Y-24948711D01*
X43331768Y-24886986D01*
X43827808Y-24725384D01*
X44192435Y-24530486D01*
X44472739Y-24225845D01*
X42759400Y-22512506D01*
X41046061Y-24225845D01*
X39947850Y-24225845D01*
X39947850Y-22342333D01*
X40098689Y-22342333D01*
X40160414Y-22860368D01*
X40322016Y-23356408D01*
X40516914Y-23721035D01*
X40821555Y-24001339D01*
X42534894Y-22288000D01*
X42983906Y-22288000D01*
X44697245Y-24001339D01*
X45001886Y-23721035D01*
X45238369Y-23256013D01*
X45379586Y-22753790D01*
X45420111Y-22233667D01*
X45358386Y-21715632D01*
X45196784Y-21219592D01*
X45001886Y-20854965D01*
X44697245Y-20574661D01*
X42983906Y-22288000D01*
X42534894Y-22288000D01*
X40821555Y-20574661D01*
X40516914Y-20854965D01*
X40280431Y-21319987D01*
X40139214Y-21822210D01*
X40098689Y-22342333D01*
X39947850Y-22342333D01*
X39947850Y-20350155D01*
X41046061Y-20350155D01*
X42759400Y-22063494D01*
X44472739Y-20350155D01*
X44192435Y-20045514D01*
X43727413Y-19809031D01*
X43225190Y-19667814D01*
X42705067Y-19627289D01*
X42187032Y-19689014D01*
X41690992Y-19850616D01*
X41326365Y-20045514D01*
X41046061Y-20350155D01*
X39947850Y-20350155D01*
X39947850Y-19611450D01*
X42743584Y-19611450D01*
X43278976Y-19663946D01*
X43778761Y-19814840D01*
X44239722Y-20059937D01*
X44644298Y-20389901D01*
X44977073Y-20792157D01*
X45225382Y-21251396D01*
X45379763Y-21750119D01*
X45435936Y-22284568D01*
X45435951Y-22288840D01*
X45435950Y-50272184D01*
X45383454Y-50807575D01*
X45232559Y-51307363D01*
X44987462Y-51768325D01*
X44657499Y-52172898D01*
X44255240Y-52505676D01*
X43796004Y-52753982D01*
X43297282Y-52908363D01*
X42762831Y-52964536D01*
X42758847Y-52964550D01*
X34721814Y-52964550D01*
X34798234Y-52901834D01*
X34866620Y-52818505D01*
X34917436Y-52723436D01*
X34948728Y-52620280D01*
X34959294Y-52513001D01*
X34959294Y-52225845D01*
X41046061Y-52225845D01*
X41326365Y-52530486D01*
X41791387Y-52766969D01*
X42293610Y-52908186D01*
X42813733Y-52948711D01*
X43331768Y-52886986D01*
X43827808Y-52725384D01*
X44192435Y-52530486D01*
X44472739Y-52225845D01*
X42759400Y-50512506D01*
X41046061Y-52225845D01*
X34959294Y-52225845D01*
X34959294Y-51212999D01*
X34948728Y-51105720D01*
X34917436Y-51002564D01*
X34866620Y-50907495D01*
X34798234Y-50824166D01*
X34714905Y-50755780D01*
X34619836Y-50704964D01*
X34516680Y-50673672D01*
X34409401Y-50663106D01*
X33709399Y-50663106D01*
X33602120Y-50673672D01*
X33498964Y-50704964D01*
X33403895Y-50755780D01*
X33320566Y-50824166D01*
X33252180Y-50907495D01*
X33201364Y-51002564D01*
X33170072Y-51105720D01*
X33159506Y-51212999D01*
X33159506Y-52513001D01*
X33170072Y-52620280D01*
X33201364Y-52723436D01*
X33252180Y-52818505D01*
X33320566Y-52901834D01*
X33396986Y-52964550D01*
X28121814Y-52964550D01*
X28198234Y-52901834D01*
X28266620Y-52818505D01*
X28317436Y-52723436D01*
X28348728Y-52620280D01*
X28359294Y-52513001D01*
X28359294Y-51212999D01*
X28348728Y-51105720D01*
X28317436Y-51002564D01*
X28266620Y-50907495D01*
X28198234Y-50824166D01*
X28114905Y-50755780D01*
X28019836Y-50704964D01*
X27916680Y-50673672D01*
X27809401Y-50663106D01*
X27109399Y-50663106D01*
X27002120Y-50673672D01*
X26898964Y-50704964D01*
X26803895Y-50755780D01*
X26720566Y-50824166D01*
X26652180Y-50907495D01*
X26601364Y-51002564D01*
X26570072Y-51105720D01*
X26559506Y-51212999D01*
X26559506Y-52513001D01*
X26570072Y-52620280D01*
X26601364Y-52723436D01*
X26652180Y-52818505D01*
X26720566Y-52901834D01*
X26796986Y-52964550D01*
X18775216Y-52964550D01*
X18239825Y-52912054D01*
X17740037Y-52761159D01*
X17279075Y-52516062D01*
X16923236Y-52225845D01*
X17046061Y-52225845D01*
X17326365Y-52530486D01*
X17791387Y-52766969D01*
X18293610Y-52908186D01*
X18813733Y-52948711D01*
X19331768Y-52886986D01*
X19827808Y-52725384D01*
X20192435Y-52530486D01*
X20472739Y-52225845D01*
X18759400Y-50512506D01*
X17046061Y-52225845D01*
X16923236Y-52225845D01*
X16874502Y-52186099D01*
X16541724Y-51783840D01*
X16293418Y-51324604D01*
X16139037Y-50825882D01*
X16088215Y-50342333D01*
X16098689Y-50342333D01*
X16160414Y-50860368D01*
X16322016Y-51356408D01*
X16516914Y-51721035D01*
X16821555Y-52001339D01*
X18534894Y-50288000D01*
X18983906Y-50288000D01*
X20697245Y-52001339D01*
X21001886Y-51721035D01*
X21238369Y-51256013D01*
X21379586Y-50753790D01*
X21411644Y-50342333D01*
X40098689Y-50342333D01*
X40160414Y-50860368D01*
X40322016Y-51356408D01*
X40516914Y-51721035D01*
X40821555Y-52001339D01*
X42534894Y-50288000D01*
X42983906Y-50288000D01*
X44697245Y-52001339D01*
X45001886Y-51721035D01*
X45238369Y-51256013D01*
X45379586Y-50753790D01*
X45420111Y-50233667D01*
X45358386Y-49715632D01*
X45196784Y-49219592D01*
X45001886Y-48854965D01*
X44697245Y-48574661D01*
X42983906Y-50288000D01*
X42534894Y-50288000D01*
X40821555Y-48574661D01*
X40516914Y-48854965D01*
X40280431Y-49319987D01*
X40139214Y-49822210D01*
X40098689Y-50342333D01*
X21411644Y-50342333D01*
X21420111Y-50233667D01*
X21358386Y-49715632D01*
X21196784Y-49219592D01*
X21001886Y-48854965D01*
X20697245Y-48574661D01*
X18983906Y-50288000D01*
X18534894Y-50288000D01*
X16821555Y-48574661D01*
X16516914Y-48854965D01*
X16280431Y-49319987D01*
X16139214Y-49822210D01*
X16098689Y-50342333D01*
X16088215Y-50342333D01*
X16082864Y-50291431D01*
X16082850Y-50287447D01*
X16082850Y-48350155D01*
X17046061Y-48350155D01*
X18759400Y-50063494D01*
X20472739Y-48350155D01*
X20192435Y-48045514D01*
X19727413Y-47809031D01*
X19225190Y-47667814D01*
X18705067Y-47627289D01*
X18187032Y-47689014D01*
X17690992Y-47850616D01*
X17326365Y-48045514D01*
X17046061Y-48350155D01*
X16082850Y-48350155D01*
X16082850Y-43338000D01*
X27952506Y-43338000D01*
X27958268Y-43396506D01*
X27975334Y-43452764D01*
X28003047Y-43504612D01*
X28040343Y-43550057D01*
X28085788Y-43587353D01*
X28137636Y-43615066D01*
X28193894Y-43632132D01*
X28252400Y-43637894D01*
X28494038Y-43636450D01*
X28568650Y-43561838D01*
X28568650Y-43059250D01*
X28886150Y-43059250D01*
X28886150Y-43561838D01*
X28960762Y-43636450D01*
X29202400Y-43637894D01*
X29260906Y-43632132D01*
X29317164Y-43615066D01*
X29369012Y-43587353D01*
X29414457Y-43550057D01*
X29451753Y-43504612D01*
X29479466Y-43452764D01*
X29496532Y-43396506D01*
X29502294Y-43338000D01*
X29500850Y-43133862D01*
X29426238Y-43059250D01*
X28886150Y-43059250D01*
X28568650Y-43059250D01*
X28028562Y-43059250D01*
X27953950Y-43133862D01*
X27952506Y-43338000D01*
X16082850Y-43338000D01*
X16082850Y-42463000D01*
X27952506Y-42463000D01*
X27953950Y-42667138D01*
X28028562Y-42741750D01*
X28568650Y-42741750D01*
X28568650Y-42239162D01*
X28886150Y-42239162D01*
X28886150Y-42741750D01*
X29426238Y-42741750D01*
X29500850Y-42667138D01*
X29502294Y-42463000D01*
X29496532Y-42404494D01*
X29479466Y-42348236D01*
X29451753Y-42296388D01*
X29414457Y-42250943D01*
X29369012Y-42213647D01*
X29317164Y-42185934D01*
X29260906Y-42168868D01*
X29202400Y-42163106D01*
X28960762Y-42164550D01*
X28886150Y-42239162D01*
X28568650Y-42239162D01*
X28494038Y-42164550D01*
X28252400Y-42163106D01*
X28193894Y-42168868D01*
X28137636Y-42185934D01*
X28085788Y-42213647D01*
X28040343Y-42250943D01*
X28003047Y-42296388D01*
X27975334Y-42348236D01*
X27958268Y-42404494D01*
X27952506Y-42463000D01*
X16082850Y-42463000D01*
X16082850Y-28276000D01*
X22110506Y-28276000D01*
X22116268Y-28334506D01*
X22133334Y-28390764D01*
X22161047Y-28442612D01*
X22198343Y-28488057D01*
X22243788Y-28525353D01*
X22295636Y-28553066D01*
X22351894Y-28570132D01*
X22410400Y-28575894D01*
X22652038Y-28574450D01*
X22726650Y-28499838D01*
X22726650Y-27997250D01*
X23044150Y-27997250D01*
X23044150Y-28499838D01*
X23118762Y-28574450D01*
X23360400Y-28575894D01*
X23418906Y-28570132D01*
X23475164Y-28553066D01*
X23527012Y-28525353D01*
X23572457Y-28488057D01*
X23609753Y-28442612D01*
X23637466Y-28390764D01*
X23654532Y-28334506D01*
X23660294Y-28276000D01*
X23825006Y-28276000D01*
X23830768Y-28334506D01*
X23847834Y-28390764D01*
X23875547Y-28442612D01*
X23912843Y-28488057D01*
X23958288Y-28525353D01*
X24010136Y-28553066D01*
X24066394Y-28570132D01*
X24124900Y-28575894D01*
X24366538Y-28574450D01*
X24441150Y-28499838D01*
X24441150Y-27997250D01*
X24758650Y-27997250D01*
X24758650Y-28499838D01*
X24833262Y-28574450D01*
X25074900Y-28575894D01*
X25133406Y-28570132D01*
X25189664Y-28553066D01*
X25241512Y-28525353D01*
X25286957Y-28488057D01*
X25324253Y-28442612D01*
X25351966Y-28390764D01*
X25369032Y-28334506D01*
X25374794Y-28276000D01*
X25373350Y-28071862D01*
X25298738Y-27997250D01*
X24758650Y-27997250D01*
X24441150Y-27997250D01*
X23901062Y-27997250D01*
X23826450Y-28071862D01*
X23825006Y-28276000D01*
X23660294Y-28276000D01*
X23658850Y-28071862D01*
X23584238Y-27997250D01*
X23044150Y-27997250D01*
X22726650Y-27997250D01*
X22186562Y-27997250D01*
X22111950Y-28071862D01*
X22110506Y-28276000D01*
X16082850Y-28276000D01*
X16082850Y-24225845D01*
X17046061Y-24225845D01*
X17326365Y-24530486D01*
X17791387Y-24766969D01*
X18293610Y-24908186D01*
X18813733Y-24948711D01*
X19331768Y-24886986D01*
X19827808Y-24725384D01*
X20192435Y-24530486D01*
X20472739Y-24225845D01*
X18759400Y-22512506D01*
X17046061Y-24225845D01*
X16082850Y-24225845D01*
X16082850Y-22342333D01*
X16098689Y-22342333D01*
X16160414Y-22860368D01*
X16322016Y-23356408D01*
X16516914Y-23721035D01*
X16821555Y-24001339D01*
X18534894Y-22288000D01*
X18983906Y-22288000D01*
X20697245Y-24001339D01*
X21001886Y-23721035D01*
X21238369Y-23256013D01*
X21379586Y-22753790D01*
X21420111Y-22233667D01*
X21358386Y-21715632D01*
X21196784Y-21219592D01*
X21001886Y-20854965D01*
X20697245Y-20574661D01*
X18983906Y-22288000D01*
X18534894Y-22288000D01*
X16821555Y-20574661D01*
X16516914Y-20854965D01*
X16280431Y-21319987D01*
X16139214Y-21822210D01*
X16098689Y-22342333D01*
X16082850Y-22342333D01*
X16082850Y-22303816D01*
X16135346Y-21768424D01*
X16286240Y-21268639D01*
X16531337Y-20807678D01*
X16861301Y-20403102D01*
X16925302Y-20350155D01*
X17046061Y-20350155D01*
X18759400Y-22063494D01*
X20472739Y-20350155D01*
X20192435Y-20045514D01*
X19727413Y-19809031D01*
X19225190Y-19667814D01*
X18705067Y-19627289D01*
X18187032Y-19689014D01*
X17690992Y-19850616D01*
X17326365Y-20045514D01*
X17046061Y-20350155D01*
X16925302Y-20350155D01*
X17263557Y-20070327D01*
X17722796Y-19822018D01*
X18221519Y-19667637D01*
X18755968Y-19611464D01*
X18759953Y-19611450D01*
X21570950Y-19611450D01*
X21570950Y-26720800D01*
G36*
X32973098Y-31210873D02*
G01*
X32928364Y-31294565D01*
X32897072Y-31397721D01*
X32886506Y-31505000D01*
X32886506Y-32255000D01*
X32897072Y-32362279D01*
X32928364Y-32465435D01*
X32979180Y-32560505D01*
X33047566Y-32643834D01*
X33130895Y-32712220D01*
X33225965Y-32763036D01*
X33329121Y-32794328D01*
X33436400Y-32804894D01*
X33508950Y-32804894D01*
X33508951Y-48072933D01*
X33359294Y-48222590D01*
X33359294Y-47363000D01*
X33350649Y-47275230D01*
X33325048Y-47190833D01*
X33283473Y-47113052D01*
X33227523Y-47044877D01*
X33159348Y-46988927D01*
X33081567Y-46947352D01*
X32997170Y-46921751D01*
X32909400Y-46913106D01*
X32609400Y-46913106D01*
X32521630Y-46921751D01*
X32437233Y-46947352D01*
X32359452Y-46988927D01*
X32291277Y-47044877D01*
X32259400Y-47083719D01*
X32227523Y-47044877D01*
X32159348Y-46988927D01*
X32081567Y-46947352D01*
X31997170Y-46921751D01*
X31909400Y-46913106D01*
X31609400Y-46913106D01*
X31521630Y-46921751D01*
X31437233Y-46947352D01*
X31359452Y-46988927D01*
X31336570Y-47007706D01*
X31379721Y-46964555D01*
X31394734Y-46952234D01*
X31407058Y-46937218D01*
X31443933Y-46892287D01*
X31480489Y-46823892D01*
X31480490Y-46823891D01*
X31503003Y-46749679D01*
X31508700Y-46691833D01*
X31508700Y-46691823D01*
X31510603Y-46672501D01*
X31508700Y-46653178D01*
X31508700Y-46514022D01*
X31510603Y-46494699D01*
X31508700Y-46475377D01*
X31508700Y-46475368D01*
X31503003Y-46417522D01*
X31480490Y-46343309D01*
X31443933Y-46274914D01*
X31421065Y-46247050D01*
X31443933Y-46219186D01*
X31480490Y-46150791D01*
X31503003Y-46076579D01*
X31508700Y-46018733D01*
X31508700Y-46018723D01*
X31510603Y-45999401D01*
X31508700Y-45980078D01*
X31508700Y-45853622D01*
X31510603Y-45834299D01*
X31508700Y-45814977D01*
X31508700Y-45814968D01*
X31503003Y-45757122D01*
X31480490Y-45682909D01*
X31443933Y-45614514D01*
X31394734Y-45554566D01*
X31379715Y-45542240D01*
X31349950Y-45512475D01*
X31349950Y-32783226D01*
X32124121Y-32009055D01*
X32139134Y-31996735D01*
X32151459Y-31981718D01*
X32188333Y-31936787D01*
X32224890Y-31868392D01*
X32229601Y-31852862D01*
X32247403Y-31794180D01*
X32253100Y-31736334D01*
X32253100Y-31736324D01*
X32255003Y-31717001D01*
X32253100Y-31697679D01*
X32253100Y-31546894D01*
X32389400Y-31546894D01*
X32447906Y-31541132D01*
X32504164Y-31524066D01*
X32556012Y-31496353D01*
X32601457Y-31459057D01*
X32638753Y-31413612D01*
X32666466Y-31361764D01*
X32683532Y-31305506D01*
X32689294Y-31247000D01*
X32689294Y-30927068D01*
X32973098Y-31210873D01*
G37*
X32973098Y-31210873D02*
X32928364Y-31294565D01*
X32897072Y-31397721D01*
X32886506Y-31505000D01*
X32886506Y-32255000D01*
X32897072Y-32362279D01*
X32928364Y-32465435D01*
X32979180Y-32560505D01*
X33047566Y-32643834D01*
X33130895Y-32712220D01*
X33225965Y-32763036D01*
X33329121Y-32794328D01*
X33436400Y-32804894D01*
X33508950Y-32804894D01*
X33508951Y-48072933D01*
X33359294Y-48222590D01*
X33359294Y-47363000D01*
X33350649Y-47275230D01*
X33325048Y-47190833D01*
X33283473Y-47113052D01*
X33227523Y-47044877D01*
X33159348Y-46988927D01*
X33081567Y-46947352D01*
X32997170Y-46921751D01*
X32909400Y-46913106D01*
X32609400Y-46913106D01*
X32521630Y-46921751D01*
X32437233Y-46947352D01*
X32359452Y-46988927D01*
X32291277Y-47044877D01*
X32259400Y-47083719D01*
X32227523Y-47044877D01*
X32159348Y-46988927D01*
X32081567Y-46947352D01*
X31997170Y-46921751D01*
X31909400Y-46913106D01*
X31609400Y-46913106D01*
X31521630Y-46921751D01*
X31437233Y-46947352D01*
X31359452Y-46988927D01*
X31336570Y-47007706D01*
X31379721Y-46964555D01*
X31394734Y-46952234D01*
X31407058Y-46937218D01*
X31443933Y-46892287D01*
X31480489Y-46823892D01*
X31480490Y-46823891D01*
X31503003Y-46749679D01*
X31508700Y-46691833D01*
X31508700Y-46691823D01*
X31510603Y-46672501D01*
X31508700Y-46653178D01*
X31508700Y-46514022D01*
X31510603Y-46494699D01*
X31508700Y-46475377D01*
X31508700Y-46475368D01*
X31503003Y-46417522D01*
X31480490Y-46343309D01*
X31443933Y-46274914D01*
X31421065Y-46247050D01*
X31443933Y-46219186D01*
X31480490Y-46150791D01*
X31503003Y-46076579D01*
X31508700Y-46018733D01*
X31508700Y-46018723D01*
X31510603Y-45999401D01*
X31508700Y-45980078D01*
X31508700Y-45853622D01*
X31510603Y-45834299D01*
X31508700Y-45814977D01*
X31508700Y-45814968D01*
X31503003Y-45757122D01*
X31480490Y-45682909D01*
X31443933Y-45614514D01*
X31394734Y-45554566D01*
X31379715Y-45542240D01*
X31349950Y-45512475D01*
X31349950Y-32783226D01*
X32124121Y-32009055D01*
X32139134Y-31996735D01*
X32151459Y-31981718D01*
X32188333Y-31936787D01*
X32224890Y-31868392D01*
X32229601Y-31852862D01*
X32247403Y-31794180D01*
X32253100Y-31736334D01*
X32253100Y-31736324D01*
X32255003Y-31717001D01*
X32253100Y-31697679D01*
X32253100Y-31546894D01*
X32389400Y-31546894D01*
X32447906Y-31541132D01*
X32504164Y-31524066D01*
X32556012Y-31496353D01*
X32601457Y-31459057D01*
X32638753Y-31413612D01*
X32666466Y-31361764D01*
X32683532Y-31305506D01*
X32689294Y-31247000D01*
X32689294Y-30927068D01*
X32973098Y-31210873D01*
G36*
X39554150Y-26681346D02*
G01*
X39406746Y-26828750D01*
X37621995Y-26828750D01*
X37669887Y-26770393D01*
X37717815Y-26680726D01*
X37747328Y-26583432D01*
X37757294Y-26482250D01*
X37757294Y-26044750D01*
X37747328Y-25943568D01*
X37717815Y-25846274D01*
X37669887Y-25756607D01*
X37605387Y-25678013D01*
X37526793Y-25613513D01*
X37437126Y-25565585D01*
X37407850Y-25556704D01*
X37407850Y-24404885D01*
X37409907Y-24383999D01*
X37407850Y-24363113D01*
X37407850Y-24363104D01*
X37401694Y-24300597D01*
X37377366Y-24220400D01*
X37337861Y-24146490D01*
X37337860Y-24146488D01*
X37313744Y-24117104D01*
X37284694Y-24081706D01*
X37268462Y-24068385D01*
X35774021Y-22573945D01*
X35760694Y-22557706D01*
X35695911Y-22504540D01*
X35622000Y-22465034D01*
X35541803Y-22440706D01*
X35479296Y-22434550D01*
X35479294Y-22434550D01*
X35458400Y-22432492D01*
X35437506Y-22434550D01*
X33320285Y-22434550D01*
X33299399Y-22432493D01*
X33278513Y-22434550D01*
X33278504Y-22434550D01*
X33215997Y-22440706D01*
X33135800Y-22465034D01*
X33101394Y-22483424D01*
X33061888Y-22504540D01*
X33034003Y-22527426D01*
X32997106Y-22557706D01*
X32983784Y-22573940D01*
X31723340Y-23834384D01*
X31707107Y-23847706D01*
X31693786Y-23863938D01*
X31653940Y-23912490D01*
X31614913Y-23985505D01*
X31614435Y-23986400D01*
X31590107Y-24066597D01*
X31589407Y-24073700D01*
X31581892Y-24150000D01*
X31583951Y-24170904D01*
X31583951Y-24958106D01*
X31379698Y-24958106D01*
X31374890Y-24942257D01*
X31338333Y-24873862D01*
X31289134Y-24813914D01*
X31274116Y-24801589D01*
X31180061Y-24707534D01*
X31167735Y-24692515D01*
X31107787Y-24643316D01*
X31039392Y-24606759D01*
X30965180Y-24584246D01*
X30907334Y-24578549D01*
X30907323Y-24578549D01*
X30888001Y-24576646D01*
X30868679Y-24578549D01*
X30150121Y-24578549D01*
X30130798Y-24576646D01*
X30111476Y-24578549D01*
X30111466Y-24578549D01*
X30053620Y-24584246D01*
X29979408Y-24606759D01*
X29911013Y-24643316D01*
X29851065Y-24692515D01*
X29838739Y-24707534D01*
X29744680Y-24801593D01*
X29729667Y-24813914D01*
X29717346Y-24828927D01*
X29717342Y-24828931D01*
X29680467Y-24873863D01*
X29643910Y-24942258D01*
X29639103Y-24958106D01*
X29434850Y-24958106D01*
X29434850Y-24158894D01*
X29436908Y-24138000D01*
X29432962Y-24097936D01*
X29428694Y-24054597D01*
X29404366Y-23974400D01*
X29364860Y-23900489D01*
X29311694Y-23835706D01*
X29295462Y-23822385D01*
X28047021Y-22573945D01*
X28033694Y-22557706D01*
X27968911Y-22504540D01*
X27895000Y-22465034D01*
X27814803Y-22440706D01*
X27752296Y-22434550D01*
X27752294Y-22434550D01*
X27731400Y-22432492D01*
X27710506Y-22434550D01*
X26184663Y-22434550D01*
X26163769Y-22432492D01*
X26142875Y-22434550D01*
X26142874Y-22434550D01*
X26080367Y-22440706D01*
X26000170Y-22465034D01*
X25926259Y-22504540D01*
X25861476Y-22557706D01*
X25848154Y-22573939D01*
X24313840Y-24108254D01*
X24297607Y-24121576D01*
X24244441Y-24186359D01*
X24204935Y-24260270D01*
X24192398Y-24301600D01*
X24180607Y-24340468D01*
X24172392Y-24423870D01*
X24174451Y-24444774D01*
X24174450Y-25556704D01*
X24145174Y-25565585D01*
X24055507Y-25613513D01*
X23976913Y-25678013D01*
X23912413Y-25756607D01*
X23864485Y-25846274D01*
X23834972Y-25943568D01*
X23825006Y-26044750D01*
X23825006Y-26482250D01*
X23834972Y-26583432D01*
X23864485Y-26680726D01*
X23912413Y-26770393D01*
X23960305Y-26828750D01*
X23630525Y-26828750D01*
X23637466Y-26815764D01*
X23654532Y-26759506D01*
X23660294Y-26701000D01*
X23658850Y-26496862D01*
X23584238Y-26422250D01*
X23044150Y-26422250D01*
X23044150Y-26442250D01*
X22726650Y-26442250D01*
X22726650Y-26422250D01*
X22186562Y-26422250D01*
X22111950Y-26496862D01*
X22110506Y-26701000D01*
X22116268Y-26759506D01*
X22133334Y-26815764D01*
X22140275Y-26828750D01*
X22112054Y-26828750D01*
X21964650Y-26681346D01*
X21964650Y-25826000D01*
X22110506Y-25826000D01*
X22111950Y-26030138D01*
X22186562Y-26104750D01*
X22726650Y-26104750D01*
X22726650Y-25602162D01*
X23044150Y-25602162D01*
X23044150Y-26104750D01*
X23584238Y-26104750D01*
X23658850Y-26030138D01*
X23660294Y-25826000D01*
X23654532Y-25767494D01*
X23637466Y-25711236D01*
X23609753Y-25659388D01*
X23572457Y-25613943D01*
X23527012Y-25576647D01*
X23475164Y-25548934D01*
X23418906Y-25531868D01*
X23360400Y-25526106D01*
X23118762Y-25527550D01*
X23044150Y-25602162D01*
X22726650Y-25602162D01*
X22652038Y-25527550D01*
X22410400Y-25526106D01*
X22351894Y-25531868D01*
X22295636Y-25548934D01*
X22243788Y-25576647D01*
X22198343Y-25613943D01*
X22161047Y-25659388D01*
X22133334Y-25711236D01*
X22116268Y-25767494D01*
X22110506Y-25826000D01*
X21964650Y-25826000D01*
X21964650Y-21175570D01*
X25614944Y-21175570D01*
X25628361Y-21336652D01*
X25672945Y-21492022D01*
X25746984Y-21635708D01*
X25847632Y-21762189D01*
X25971021Y-21866604D01*
X26160193Y-21936041D01*
X26280650Y-21894215D01*
X26280650Y-21046750D01*
X26598150Y-21046750D01*
X26598150Y-21894215D01*
X26718607Y-21936041D01*
X26907779Y-21866604D01*
X27031168Y-21762189D01*
X27131816Y-21635708D01*
X27205855Y-21492022D01*
X27250439Y-21336652D01*
X27263856Y-21175570D01*
X34254944Y-21175570D01*
X34268361Y-21336652D01*
X34312945Y-21492022D01*
X34386984Y-21635708D01*
X34487632Y-21762189D01*
X34611021Y-21866604D01*
X34800193Y-21936041D01*
X34920650Y-21894215D01*
X34920650Y-21046750D01*
X35238150Y-21046750D01*
X35238150Y-21894215D01*
X35358607Y-21936041D01*
X35547779Y-21866604D01*
X35671168Y-21762189D01*
X35771816Y-21635708D01*
X35845855Y-21492022D01*
X35890439Y-21336652D01*
X35903856Y-21175570D01*
X35817149Y-21046750D01*
X35238150Y-21046750D01*
X34920650Y-21046750D01*
X34341651Y-21046750D01*
X34254944Y-21175570D01*
X27263856Y-21175570D01*
X27177149Y-21046750D01*
X26598150Y-21046750D01*
X26280650Y-21046750D01*
X25701651Y-21046750D01*
X25614944Y-21175570D01*
X21964650Y-21175570D01*
X21964650Y-20600430D01*
X25614944Y-20600430D01*
X25701651Y-20729250D01*
X26280650Y-20729250D01*
X26280650Y-19881785D01*
X26598150Y-19881785D01*
X26598150Y-20729250D01*
X27177149Y-20729250D01*
X27263856Y-20600430D01*
X34254944Y-20600430D01*
X34341651Y-20729250D01*
X34920650Y-20729250D01*
X34920650Y-19881785D01*
X35238150Y-19881785D01*
X35238150Y-20729250D01*
X35817149Y-20729250D01*
X35903856Y-20600430D01*
X35890439Y-20439348D01*
X35845855Y-20283978D01*
X35771816Y-20140292D01*
X35671168Y-20013811D01*
X35547779Y-19909396D01*
X35358607Y-19839959D01*
X35238150Y-19881785D01*
X34920650Y-19881785D01*
X34800193Y-19839959D01*
X34611021Y-19909396D01*
X34487632Y-20013811D01*
X34386984Y-20140292D01*
X34312945Y-20283978D01*
X34268361Y-20439348D01*
X34254944Y-20600430D01*
X27263856Y-20600430D01*
X27250439Y-20439348D01*
X27205855Y-20283978D01*
X27131816Y-20140292D01*
X27031168Y-20013811D01*
X26907779Y-19909396D01*
X26718607Y-19839959D01*
X26598150Y-19881785D01*
X26280650Y-19881785D01*
X26160193Y-19839959D01*
X25971021Y-19909396D01*
X25847632Y-20013811D01*
X25746984Y-20140292D01*
X25672945Y-20283978D01*
X25628361Y-20439348D01*
X25614944Y-20600430D01*
X21964650Y-20600430D01*
X21964650Y-19611450D01*
X39554150Y-19611450D01*
X39554150Y-26681346D01*
G37*
X39554150Y-26681346D02*
X39406746Y-26828750D01*
X37621995Y-26828750D01*
X37669887Y-26770393D01*
X37717815Y-26680726D01*
X37747328Y-26583432D01*
X37757294Y-26482250D01*
X37757294Y-26044750D01*
X37747328Y-25943568D01*
X37717815Y-25846274D01*
X37669887Y-25756607D01*
X37605387Y-25678013D01*
X37526793Y-25613513D01*
X37437126Y-25565585D01*
X37407850Y-25556704D01*
X37407850Y-24404885D01*
X37409907Y-24383999D01*
X37407850Y-24363113D01*
X37407850Y-24363104D01*
X37401694Y-24300597D01*
X37377366Y-24220400D01*
X37337861Y-24146490D01*
X37337860Y-24146488D01*
X37313744Y-24117104D01*
X37284694Y-24081706D01*
X37268462Y-24068385D01*
X35774021Y-22573945D01*
X35760694Y-22557706D01*
X35695911Y-22504540D01*
X35622000Y-22465034D01*
X35541803Y-22440706D01*
X35479296Y-22434550D01*
X35479294Y-22434550D01*
X35458400Y-22432492D01*
X35437506Y-22434550D01*
X33320285Y-22434550D01*
X33299399Y-22432493D01*
X33278513Y-22434550D01*
X33278504Y-22434550D01*
X33215997Y-22440706D01*
X33135800Y-22465034D01*
X33101394Y-22483424D01*
X33061888Y-22504540D01*
X33034003Y-22527426D01*
X32997106Y-22557706D01*
X32983784Y-22573940D01*
X31723340Y-23834384D01*
X31707107Y-23847706D01*
X31693786Y-23863938D01*
X31653940Y-23912490D01*
X31614913Y-23985505D01*
X31614435Y-23986400D01*
X31590107Y-24066597D01*
X31589407Y-24073700D01*
X31581892Y-24150000D01*
X31583951Y-24170904D01*
X31583951Y-24958106D01*
X31379698Y-24958106D01*
X31374890Y-24942257D01*
X31338333Y-24873862D01*
X31289134Y-24813914D01*
X31274116Y-24801589D01*
X31180061Y-24707534D01*
X31167735Y-24692515D01*
X31107787Y-24643316D01*
X31039392Y-24606759D01*
X30965180Y-24584246D01*
X30907334Y-24578549D01*
X30907323Y-24578549D01*
X30888001Y-24576646D01*
X30868679Y-24578549D01*
X30150121Y-24578549D01*
X30130798Y-24576646D01*
X30111476Y-24578549D01*
X30111466Y-24578549D01*
X30053620Y-24584246D01*
X29979408Y-24606759D01*
X29911013Y-24643316D01*
X29851065Y-24692515D01*
X29838739Y-24707534D01*
X29744680Y-24801593D01*
X29729667Y-24813914D01*
X29717346Y-24828927D01*
X29717342Y-24828931D01*
X29680467Y-24873863D01*
X29643910Y-24942258D01*
X29639103Y-24958106D01*
X29434850Y-24958106D01*
X29434850Y-24158894D01*
X29436908Y-24138000D01*
X29432962Y-24097936D01*
X29428694Y-24054597D01*
X29404366Y-23974400D01*
X29364860Y-23900489D01*
X29311694Y-23835706D01*
X29295462Y-23822385D01*
X28047021Y-22573945D01*
X28033694Y-22557706D01*
X27968911Y-22504540D01*
X27895000Y-22465034D01*
X27814803Y-22440706D01*
X27752296Y-22434550D01*
X27752294Y-22434550D01*
X27731400Y-22432492D01*
X27710506Y-22434550D01*
X26184663Y-22434550D01*
X26163769Y-22432492D01*
X26142875Y-22434550D01*
X26142874Y-22434550D01*
X26080367Y-22440706D01*
X26000170Y-22465034D01*
X25926259Y-22504540D01*
X25861476Y-22557706D01*
X25848154Y-22573939D01*
X24313840Y-24108254D01*
X24297607Y-24121576D01*
X24244441Y-24186359D01*
X24204935Y-24260270D01*
X24192398Y-24301600D01*
X24180607Y-24340468D01*
X24172392Y-24423870D01*
X24174451Y-24444774D01*
X24174450Y-25556704D01*
X24145174Y-25565585D01*
X24055507Y-25613513D01*
X23976913Y-25678013D01*
X23912413Y-25756607D01*
X23864485Y-25846274D01*
X23834972Y-25943568D01*
X23825006Y-26044750D01*
X23825006Y-26482250D01*
X23834972Y-26583432D01*
X23864485Y-26680726D01*
X23912413Y-26770393D01*
X23960305Y-26828750D01*
X23630525Y-26828750D01*
X23637466Y-26815764D01*
X23654532Y-26759506D01*
X23660294Y-26701000D01*
X23658850Y-26496862D01*
X23584238Y-26422250D01*
X23044150Y-26422250D01*
X23044150Y-26442250D01*
X22726650Y-26442250D01*
X22726650Y-26422250D01*
X22186562Y-26422250D01*
X22111950Y-26496862D01*
X22110506Y-26701000D01*
X22116268Y-26759506D01*
X22133334Y-26815764D01*
X22140275Y-26828750D01*
X22112054Y-26828750D01*
X21964650Y-26681346D01*
X21964650Y-25826000D01*
X22110506Y-25826000D01*
X22111950Y-26030138D01*
X22186562Y-26104750D01*
X22726650Y-26104750D01*
X22726650Y-25602162D01*
X23044150Y-25602162D01*
X23044150Y-26104750D01*
X23584238Y-26104750D01*
X23658850Y-26030138D01*
X23660294Y-25826000D01*
X23654532Y-25767494D01*
X23637466Y-25711236D01*
X23609753Y-25659388D01*
X23572457Y-25613943D01*
X23527012Y-25576647D01*
X23475164Y-25548934D01*
X23418906Y-25531868D01*
X23360400Y-25526106D01*
X23118762Y-25527550D01*
X23044150Y-25602162D01*
X22726650Y-25602162D01*
X22652038Y-25527550D01*
X22410400Y-25526106D01*
X22351894Y-25531868D01*
X22295636Y-25548934D01*
X22243788Y-25576647D01*
X22198343Y-25613943D01*
X22161047Y-25659388D01*
X22133334Y-25711236D01*
X22116268Y-25767494D01*
X22110506Y-25826000D01*
X21964650Y-25826000D01*
X21964650Y-21175570D01*
X25614944Y-21175570D01*
X25628361Y-21336652D01*
X25672945Y-21492022D01*
X25746984Y-21635708D01*
X25847632Y-21762189D01*
X25971021Y-21866604D01*
X26160193Y-21936041D01*
X26280650Y-21894215D01*
X26280650Y-21046750D01*
X26598150Y-21046750D01*
X26598150Y-21894215D01*
X26718607Y-21936041D01*
X26907779Y-21866604D01*
X27031168Y-21762189D01*
X27131816Y-21635708D01*
X27205855Y-21492022D01*
X27250439Y-21336652D01*
X27263856Y-21175570D01*
X34254944Y-21175570D01*
X34268361Y-21336652D01*
X34312945Y-21492022D01*
X34386984Y-21635708D01*
X34487632Y-21762189D01*
X34611021Y-21866604D01*
X34800193Y-21936041D01*
X34920650Y-21894215D01*
X34920650Y-21046750D01*
X35238150Y-21046750D01*
X35238150Y-21894215D01*
X35358607Y-21936041D01*
X35547779Y-21866604D01*
X35671168Y-21762189D01*
X35771816Y-21635708D01*
X35845855Y-21492022D01*
X35890439Y-21336652D01*
X35903856Y-21175570D01*
X35817149Y-21046750D01*
X35238150Y-21046750D01*
X34920650Y-21046750D01*
X34341651Y-21046750D01*
X34254944Y-21175570D01*
X27263856Y-21175570D01*
X27177149Y-21046750D01*
X26598150Y-21046750D01*
X26280650Y-21046750D01*
X25701651Y-21046750D01*
X25614944Y-21175570D01*
X21964650Y-21175570D01*
X21964650Y-20600430D01*
X25614944Y-20600430D01*
X25701651Y-20729250D01*
X26280650Y-20729250D01*
X26280650Y-19881785D01*
X26598150Y-19881785D01*
X26598150Y-20729250D01*
X27177149Y-20729250D01*
X27263856Y-20600430D01*
X34254944Y-20600430D01*
X34341651Y-20729250D01*
X34920650Y-20729250D01*
X34920650Y-19881785D01*
X35238150Y-19881785D01*
X35238150Y-20729250D01*
X35817149Y-20729250D01*
X35903856Y-20600430D01*
X35890439Y-20439348D01*
X35845855Y-20283978D01*
X35771816Y-20140292D01*
X35671168Y-20013811D01*
X35547779Y-19909396D01*
X35358607Y-19839959D01*
X35238150Y-19881785D01*
X34920650Y-19881785D01*
X34800193Y-19839959D01*
X34611021Y-19909396D01*
X34487632Y-20013811D01*
X34386984Y-20140292D01*
X34312945Y-20283978D01*
X34268361Y-20439348D01*
X34254944Y-20600430D01*
X27263856Y-20600430D01*
X27250439Y-20439348D01*
X27205855Y-20283978D01*
X27131816Y-20140292D01*
X27031168Y-20013811D01*
X26907779Y-19909396D01*
X26718607Y-19839959D01*
X26598150Y-19881785D01*
X26280650Y-19881785D01*
X26160193Y-19839959D01*
X25971021Y-19909396D01*
X25847632Y-20013811D01*
X25746984Y-20140292D01*
X25672945Y-20283978D01*
X25628361Y-20439348D01*
X25614944Y-20600430D01*
X21964650Y-20600430D01*
X21964650Y-19611450D01*
X39554150Y-19611450D01*
X39554150Y-26681346D01*
G36*
X28583950Y-24314227D02*
G01*
X28583950Y-24958106D01*
X28330986Y-24958106D01*
X28353666Y-24935426D01*
X28421895Y-24833314D01*
X28468892Y-24719854D01*
X28492850Y-24599405D01*
X28492850Y-24476595D01*
X28468892Y-24356146D01*
X28421895Y-24242686D01*
X28353666Y-24140574D01*
X28266826Y-24053734D01*
X28164714Y-23985505D01*
X28051254Y-23938508D01*
X27930805Y-23914550D01*
X27807995Y-23914550D01*
X27687546Y-23938508D01*
X27574086Y-23985505D01*
X27471974Y-24053734D01*
X27385134Y-24140574D01*
X27316905Y-24242686D01*
X27269908Y-24356146D01*
X27245950Y-24476595D01*
X27245950Y-24599405D01*
X27269908Y-24719854D01*
X27316905Y-24833314D01*
X27385134Y-24935426D01*
X27407814Y-24958106D01*
X27237850Y-24958106D01*
X27237850Y-24359250D01*
X27191537Y-24206530D01*
X27116320Y-24065780D01*
X27015089Y-23942409D01*
X26891735Y-23841157D01*
X26718607Y-23769959D01*
X26598150Y-23811785D01*
X26598150Y-24909250D01*
X26618150Y-24909250D01*
X26618150Y-25226750D01*
X26598150Y-25226750D01*
X26598150Y-26324215D01*
X26718607Y-26366041D01*
X26766882Y-26346188D01*
X26766883Y-26828750D01*
X25239495Y-26828750D01*
X25287387Y-26770393D01*
X25335315Y-26680726D01*
X25364828Y-26583432D01*
X25374794Y-26482250D01*
X25374794Y-26044750D01*
X25364828Y-25943568D01*
X25335315Y-25846274D01*
X25287387Y-25756607D01*
X25222887Y-25678013D01*
X25144293Y-25613513D01*
X25054626Y-25565585D01*
X25025350Y-25556704D01*
X25025350Y-25226750D01*
X25640950Y-25226750D01*
X25640950Y-25776750D01*
X25687263Y-25929470D01*
X25762480Y-26070220D01*
X25863711Y-26193591D01*
X25987065Y-26294843D01*
X26160193Y-26366041D01*
X26280650Y-26324215D01*
X26280650Y-25226750D01*
X25640950Y-25226750D01*
X25025350Y-25226750D01*
X25025350Y-24600096D01*
X25266196Y-24359250D01*
X25640950Y-24359250D01*
X25640950Y-24909250D01*
X26280650Y-24909250D01*
X26280650Y-23811785D01*
X26160193Y-23769959D01*
X25987065Y-23841157D01*
X25863711Y-23942409D01*
X25762480Y-24065780D01*
X25687263Y-24206530D01*
X25640950Y-24359250D01*
X25266196Y-24359250D01*
X26339997Y-23285450D01*
X27555174Y-23285450D01*
X28583950Y-24314227D01*
G37*
X28583950Y-24314227D02*
X28583950Y-24958106D01*
X28330986Y-24958106D01*
X28353666Y-24935426D01*
X28421895Y-24833314D01*
X28468892Y-24719854D01*
X28492850Y-24599405D01*
X28492850Y-24476595D01*
X28468892Y-24356146D01*
X28421895Y-24242686D01*
X28353666Y-24140574D01*
X28266826Y-24053734D01*
X28164714Y-23985505D01*
X28051254Y-23938508D01*
X27930805Y-23914550D01*
X27807995Y-23914550D01*
X27687546Y-23938508D01*
X27574086Y-23985505D01*
X27471974Y-24053734D01*
X27385134Y-24140574D01*
X27316905Y-24242686D01*
X27269908Y-24356146D01*
X27245950Y-24476595D01*
X27245950Y-24599405D01*
X27269908Y-24719854D01*
X27316905Y-24833314D01*
X27385134Y-24935426D01*
X27407814Y-24958106D01*
X27237850Y-24958106D01*
X27237850Y-24359250D01*
X27191537Y-24206530D01*
X27116320Y-24065780D01*
X27015089Y-23942409D01*
X26891735Y-23841157D01*
X26718607Y-23769959D01*
X26598150Y-23811785D01*
X26598150Y-24909250D01*
X26618150Y-24909250D01*
X26618150Y-25226750D01*
X26598150Y-25226750D01*
X26598150Y-26324215D01*
X26718607Y-26366041D01*
X26766882Y-26346188D01*
X26766883Y-26828750D01*
X25239495Y-26828750D01*
X25287387Y-26770393D01*
X25335315Y-26680726D01*
X25364828Y-26583432D01*
X25374794Y-26482250D01*
X25374794Y-26044750D01*
X25364828Y-25943568D01*
X25335315Y-25846274D01*
X25287387Y-25756607D01*
X25222887Y-25678013D01*
X25144293Y-25613513D01*
X25054626Y-25565585D01*
X25025350Y-25556704D01*
X25025350Y-25226750D01*
X25640950Y-25226750D01*
X25640950Y-25776750D01*
X25687263Y-25929470D01*
X25762480Y-26070220D01*
X25863711Y-26193591D01*
X25987065Y-26294843D01*
X26160193Y-26366041D01*
X26280650Y-26324215D01*
X26280650Y-25226750D01*
X25640950Y-25226750D01*
X25025350Y-25226750D01*
X25025350Y-24600096D01*
X25266196Y-24359250D01*
X25640950Y-24359250D01*
X25640950Y-24909250D01*
X26280650Y-24909250D01*
X26280650Y-23811785D01*
X26160193Y-23769959D01*
X25987065Y-23841157D01*
X25863711Y-23942409D01*
X25762480Y-24065780D01*
X25687263Y-24206530D01*
X25640950Y-24359250D01*
X25266196Y-24359250D01*
X26339997Y-23285450D01*
X27555174Y-23285450D01*
X28583950Y-24314227D01*
G36*
X36556950Y-24560227D02*
G01*
X36556951Y-25556704D01*
X36527674Y-25565585D01*
X36438007Y-25613513D01*
X36359413Y-25678013D01*
X36294913Y-25756607D01*
X36246985Y-25846274D01*
X36217472Y-25943568D01*
X36207506Y-26044750D01*
X36207506Y-26482250D01*
X36217472Y-26583432D01*
X36246985Y-26680726D01*
X36294913Y-26770393D01*
X36342805Y-26828750D01*
X34751561Y-26828750D01*
X34751561Y-26346041D01*
X34800193Y-26366041D01*
X34920650Y-26324215D01*
X34920650Y-25226750D01*
X35238150Y-25226750D01*
X35238150Y-26324215D01*
X35358607Y-26366041D01*
X35531735Y-26294843D01*
X35655089Y-26193591D01*
X35756320Y-26070220D01*
X35831537Y-25929470D01*
X35877850Y-25776750D01*
X35877850Y-25226750D01*
X35238150Y-25226750D01*
X34920650Y-25226750D01*
X34900650Y-25226750D01*
X34900650Y-24909250D01*
X34920650Y-24909250D01*
X34920650Y-23811785D01*
X35238150Y-23811785D01*
X35238150Y-24909250D01*
X35877850Y-24909250D01*
X35877850Y-24359250D01*
X35831537Y-24206530D01*
X35756320Y-24065780D01*
X35655089Y-23942409D01*
X35531735Y-23841157D01*
X35358607Y-23769959D01*
X35238150Y-23811785D01*
X34920650Y-23811785D01*
X34800193Y-23769959D01*
X34627065Y-23841157D01*
X34503711Y-23942409D01*
X34402480Y-24065780D01*
X34327263Y-24206530D01*
X34280950Y-24359250D01*
X34280950Y-24958106D01*
X34110986Y-24958106D01*
X34133666Y-24935426D01*
X34201895Y-24833314D01*
X34248892Y-24719854D01*
X34272850Y-24599405D01*
X34272850Y-24476595D01*
X34248892Y-24356146D01*
X34201895Y-24242686D01*
X34133666Y-24140574D01*
X34046826Y-24053734D01*
X33944714Y-23985505D01*
X33831254Y-23938508D01*
X33710805Y-23914550D01*
X33587995Y-23914550D01*
X33467546Y-23938508D01*
X33354086Y-23985505D01*
X33251974Y-24053734D01*
X33165134Y-24140574D01*
X33096905Y-24242686D01*
X33049908Y-24356146D01*
X33025950Y-24476595D01*
X33025950Y-24599405D01*
X33049908Y-24719854D01*
X33096905Y-24833314D01*
X33165134Y-24935426D01*
X33187814Y-24958106D01*
X32909400Y-24958106D01*
X32850894Y-24963868D01*
X32794636Y-24980934D01*
X32784400Y-24986405D01*
X32774164Y-24980934D01*
X32717906Y-24963868D01*
X32659400Y-24958106D01*
X32434850Y-24958106D01*
X32434850Y-24326226D01*
X33475627Y-23285450D01*
X35282174Y-23285450D01*
X36556950Y-24560227D01*
G37*
X36556950Y-24560227D02*
X36556951Y-25556704D01*
X36527674Y-25565585D01*
X36438007Y-25613513D01*
X36359413Y-25678013D01*
X36294913Y-25756607D01*
X36246985Y-25846274D01*
X36217472Y-25943568D01*
X36207506Y-26044750D01*
X36207506Y-26482250D01*
X36217472Y-26583432D01*
X36246985Y-26680726D01*
X36294913Y-26770393D01*
X36342805Y-26828750D01*
X34751561Y-26828750D01*
X34751561Y-26346041D01*
X34800193Y-26366041D01*
X34920650Y-26324215D01*
X34920650Y-25226750D01*
X35238150Y-25226750D01*
X35238150Y-26324215D01*
X35358607Y-26366041D01*
X35531735Y-26294843D01*
X35655089Y-26193591D01*
X35756320Y-26070220D01*
X35831537Y-25929470D01*
X35877850Y-25776750D01*
X35877850Y-25226750D01*
X35238150Y-25226750D01*
X34920650Y-25226750D01*
X34900650Y-25226750D01*
X34900650Y-24909250D01*
X34920650Y-24909250D01*
X34920650Y-23811785D01*
X35238150Y-23811785D01*
X35238150Y-24909250D01*
X35877850Y-24909250D01*
X35877850Y-24359250D01*
X35831537Y-24206530D01*
X35756320Y-24065780D01*
X35655089Y-23942409D01*
X35531735Y-23841157D01*
X35358607Y-23769959D01*
X35238150Y-23811785D01*
X34920650Y-23811785D01*
X34800193Y-23769959D01*
X34627065Y-23841157D01*
X34503711Y-23942409D01*
X34402480Y-24065780D01*
X34327263Y-24206530D01*
X34280950Y-24359250D01*
X34280950Y-24958106D01*
X34110986Y-24958106D01*
X34133666Y-24935426D01*
X34201895Y-24833314D01*
X34248892Y-24719854D01*
X34272850Y-24599405D01*
X34272850Y-24476595D01*
X34248892Y-24356146D01*
X34201895Y-24242686D01*
X34133666Y-24140574D01*
X34046826Y-24053734D01*
X33944714Y-23985505D01*
X33831254Y-23938508D01*
X33710805Y-23914550D01*
X33587995Y-23914550D01*
X33467546Y-23938508D01*
X33354086Y-23985505D01*
X33251974Y-24053734D01*
X33165134Y-24140574D01*
X33096905Y-24242686D01*
X33049908Y-24356146D01*
X33025950Y-24476595D01*
X33025950Y-24599405D01*
X33049908Y-24719854D01*
X33096905Y-24833314D01*
X33165134Y-24935426D01*
X33187814Y-24958106D01*
X32909400Y-24958106D01*
X32850894Y-24963868D01*
X32794636Y-24980934D01*
X32784400Y-24986405D01*
X32774164Y-24980934D01*
X32717906Y-24963868D01*
X32659400Y-24958106D01*
X32434850Y-24958106D01*
X32434850Y-24326226D01*
X33475627Y-23285450D01*
X35282174Y-23285450D01*
X36556950Y-24560227D01*
M02*
