G04 #@! TF.GenerationSoftware,KiCad,Pcbnew,(5.1.5)-3*
G04 #@! TF.CreationDate,2020-04-27T21:47:52+02:00*
G04 #@! TF.ProjectId,unified-usb-pcb_simple,756e6966-6965-4642-9d75-73622d706362,rev?*
G04 #@! TF.SameCoordinates,Original*
G04 #@! TF.FileFunction,Legend,Top*
G04 #@! TF.FilePolarity,Positive*
%FSLAX46Y46*%
G04 Gerber Fmt 4.6, Leading zero omitted, Abs format (unit mm)*
G04 Created by KiCad (PCBNEW (5.1.5)-3) date 2020-04-27 21:47:52*
%MOMM*%
%LPD*%
G04 APERTURE LIST*
%ADD10C,0.150000*%
%ADD11C,0.120000*%
G04 APERTURE END LIST*
D10*
X29386376Y-21154380D02*
X29386376Y-20154380D01*
X29386376Y-20630571D02*
X29957804Y-20630571D01*
X29957804Y-21154380D02*
X29957804Y-20154380D01*
X31005423Y-21154380D02*
X30672090Y-20678190D01*
X30433995Y-21154380D02*
X30433995Y-20154380D01*
X30814947Y-20154380D01*
X30910185Y-20202000D01*
X30957804Y-20249619D01*
X31005423Y-20344857D01*
X31005423Y-20487714D01*
X30957804Y-20582952D01*
X30910185Y-20630571D01*
X30814947Y-20678190D01*
X30433995Y-20678190D01*
X31624471Y-20154380D02*
X31814947Y-20154380D01*
X31910185Y-20202000D01*
X32005423Y-20297238D01*
X32053042Y-20487714D01*
X32053042Y-20821047D01*
X32005423Y-21011523D01*
X31910185Y-21106761D01*
X31814947Y-21154380D01*
X31624471Y-21154380D01*
X31529233Y-21106761D01*
X31433995Y-21011523D01*
X31386376Y-20821047D01*
X31386376Y-20487714D01*
X31433995Y-20297238D01*
X31529233Y-20202000D01*
X31624471Y-20154380D01*
X29433995Y-22709142D02*
X29386376Y-22756761D01*
X29243519Y-22804380D01*
X29148280Y-22804380D01*
X29005423Y-22756761D01*
X28910185Y-22661523D01*
X28862566Y-22566285D01*
X28814947Y-22375809D01*
X28814947Y-22232952D01*
X28862566Y-22042476D01*
X28910185Y-21947238D01*
X29005423Y-21852000D01*
X29148280Y-21804380D01*
X29243519Y-21804380D01*
X29386376Y-21852000D01*
X29433995Y-21899619D01*
X29862566Y-22423428D02*
X30624471Y-22423428D01*
X31005423Y-21804380D02*
X31624471Y-21804380D01*
X31291138Y-22185333D01*
X31433995Y-22185333D01*
X31529233Y-22232952D01*
X31576852Y-22280571D01*
X31624471Y-22375809D01*
X31624471Y-22613904D01*
X31576852Y-22709142D01*
X31529233Y-22756761D01*
X31433995Y-22804380D01*
X31148280Y-22804380D01*
X31053042Y-22756761D01*
X31005423Y-22709142D01*
X32576852Y-22804380D02*
X32005423Y-22804380D01*
X32291138Y-22804380D02*
X32291138Y-21804380D01*
X32195900Y-21947238D01*
X32100661Y-22042476D01*
X32005423Y-22090095D01*
X28791138Y-24454380D02*
X28791138Y-23454380D01*
X29124471Y-24168666D01*
X29457804Y-23454380D01*
X29457804Y-24454380D01*
X29933995Y-24073428D02*
X30695900Y-24073428D01*
X31695900Y-24454380D02*
X31124471Y-24454380D01*
X31410185Y-24454380D02*
X31410185Y-23454380D01*
X31314947Y-23597238D01*
X31219709Y-23692476D01*
X31124471Y-23740095D01*
X32076852Y-23549619D02*
X32124471Y-23502000D01*
X32219709Y-23454380D01*
X32457804Y-23454380D01*
X32553042Y-23502000D01*
X32600661Y-23549619D01*
X32648280Y-23644857D01*
X32648280Y-23740095D01*
X32600661Y-23882952D01*
X32029233Y-24454380D01*
X32648280Y-24454380D01*
X31529495Y-45680380D02*
X31529495Y-46489904D01*
X31577114Y-46585142D01*
X31624733Y-46632761D01*
X31719971Y-46680380D01*
X31910447Y-46680380D01*
X32005685Y-46632761D01*
X32053304Y-46585142D01*
X32100923Y-46489904D01*
X32100923Y-45680380D01*
X32529495Y-46632761D02*
X32672352Y-46680380D01*
X32910447Y-46680380D01*
X33005685Y-46632761D01*
X33053304Y-46585142D01*
X33100923Y-46489904D01*
X33100923Y-46394666D01*
X33053304Y-46299428D01*
X33005685Y-46251809D01*
X32910447Y-46204190D01*
X32719971Y-46156571D01*
X32624733Y-46108952D01*
X32577114Y-46061333D01*
X32529495Y-45966095D01*
X32529495Y-45870857D01*
X32577114Y-45775619D01*
X32624733Y-45728000D01*
X32719971Y-45680380D01*
X32958066Y-45680380D01*
X33100923Y-45728000D01*
X33862828Y-46156571D02*
X34005685Y-46204190D01*
X34053304Y-46251809D01*
X34100923Y-46347047D01*
X34100923Y-46489904D01*
X34053304Y-46585142D01*
X34005685Y-46632761D01*
X33910447Y-46680380D01*
X33529495Y-46680380D01*
X33529495Y-45680380D01*
X33862828Y-45680380D01*
X33958066Y-45728000D01*
X34005685Y-45775619D01*
X34053304Y-45870857D01*
X34053304Y-45966095D01*
X34005685Y-46061333D01*
X33958066Y-46108952D01*
X33862828Y-46156571D01*
X33529495Y-46156571D01*
D11*
X26059400Y-23838000D02*
X26059400Y-21838000D01*
X35459400Y-23838000D02*
X35459400Y-21838000D01*
X29237400Y-43850779D02*
X29237400Y-43525221D01*
X28217400Y-43850779D02*
X28217400Y-43525221D01*
X28319400Y-52673000D02*
X33199400Y-52673000D01*
X34369400Y-48203000D02*
X33319400Y-48203000D01*
X34369400Y-50703000D02*
X34369400Y-48203000D01*
X28199400Y-48203000D02*
X28199400Y-47213000D01*
X27149400Y-48203000D02*
X28199400Y-48203000D01*
X27149400Y-50703000D02*
X27149400Y-48203000D01*
X37492400Y-27213779D02*
X37492400Y-26888221D01*
X36472400Y-27213779D02*
X36472400Y-26888221D01*
X25109900Y-27213779D02*
X25109900Y-26888221D01*
X24089900Y-27213779D02*
X24089900Y-26888221D01*
X31659400Y-28362000D02*
X29209400Y-28362000D01*
X29859400Y-31582000D02*
X31659400Y-31582000D01*
X23395400Y-27213779D02*
X23395400Y-26888221D01*
X22375400Y-27213779D02*
X22375400Y-26888221D01*
X34971400Y-31082064D02*
X34971400Y-29877936D01*
X33151400Y-31082064D02*
X33151400Y-29877936D01*
D10*
X27886066Y-20153380D02*
X27886066Y-20867666D01*
X27838447Y-21010523D01*
X27743209Y-21105761D01*
X27600352Y-21153380D01*
X27505114Y-21153380D01*
X28886066Y-21153380D02*
X28314638Y-21153380D01*
X28600352Y-21153380D02*
X28600352Y-20153380D01*
X28505114Y-20296238D01*
X28409876Y-20391476D01*
X28314638Y-20439095D01*
X26782733Y-44140380D02*
X26306542Y-44140380D01*
X26306542Y-43140380D01*
X27639876Y-44140380D02*
X27068447Y-44140380D01*
X27354161Y-44140380D02*
X27354161Y-43140380D01*
X27258923Y-43283238D01*
X27163685Y-43378476D01*
X27068447Y-43426095D01*
X30426066Y-49363380D02*
X30426066Y-50077666D01*
X30378447Y-50220523D01*
X30283209Y-50315761D01*
X30140352Y-50363380D01*
X30045114Y-50363380D01*
X30854638Y-49458619D02*
X30902257Y-49411000D01*
X30997495Y-49363380D01*
X31235590Y-49363380D01*
X31330828Y-49411000D01*
X31378447Y-49458619D01*
X31426066Y-49553857D01*
X31426066Y-49649095D01*
X31378447Y-49791952D01*
X30807019Y-50363380D01*
X31426066Y-50363380D01*
X36942733Y-30043380D02*
X36609400Y-29567190D01*
X36371304Y-30043380D02*
X36371304Y-29043380D01*
X36752257Y-29043380D01*
X36847495Y-29091000D01*
X36895114Y-29138619D01*
X36942733Y-29233857D01*
X36942733Y-29376714D01*
X36895114Y-29471952D01*
X36847495Y-29519571D01*
X36752257Y-29567190D01*
X36371304Y-29567190D01*
X37895114Y-30043380D02*
X37323685Y-30043380D01*
X37609400Y-30043380D02*
X37609400Y-29043380D01*
X37514161Y-29186238D01*
X37418923Y-29281476D01*
X37323685Y-29329095D01*
X24433233Y-30043380D02*
X24099900Y-29567190D01*
X23861804Y-30043380D02*
X23861804Y-29043380D01*
X24242757Y-29043380D01*
X24337995Y-29091000D01*
X24385614Y-29138619D01*
X24433233Y-29233857D01*
X24433233Y-29376714D01*
X24385614Y-29471952D01*
X24337995Y-29519571D01*
X24242757Y-29567190D01*
X23861804Y-29567190D01*
X24814185Y-29138619D02*
X24861804Y-29091000D01*
X24957042Y-29043380D01*
X25195138Y-29043380D01*
X25290376Y-29091000D01*
X25337995Y-29138619D01*
X25385614Y-29233857D01*
X25385614Y-29329095D01*
X25337995Y-29471952D01*
X24766566Y-30043380D01*
X25385614Y-30043380D01*
X27076495Y-28281380D02*
X27076495Y-29090904D01*
X27124114Y-29186142D01*
X27171733Y-29233761D01*
X27266971Y-29281380D01*
X27457447Y-29281380D01*
X27552685Y-29233761D01*
X27600304Y-29186142D01*
X27647923Y-29090904D01*
X27647923Y-28281380D01*
X28647923Y-29281380D02*
X28076495Y-29281380D01*
X28362209Y-29281380D02*
X28362209Y-28281380D01*
X28266971Y-28424238D01*
X28171733Y-28519476D01*
X28076495Y-28567095D01*
X22083733Y-30043380D02*
X21750400Y-29567190D01*
X21512304Y-30043380D02*
X21512304Y-29043380D01*
X21893257Y-29043380D01*
X21988495Y-29091000D01*
X22036114Y-29138619D01*
X22083733Y-29233857D01*
X22083733Y-29376714D01*
X22036114Y-29471952D01*
X21988495Y-29519571D01*
X21893257Y-29567190D01*
X21512304Y-29567190D01*
X22417066Y-29043380D02*
X23036114Y-29043380D01*
X22702780Y-29424333D01*
X22845638Y-29424333D01*
X22940876Y-29471952D01*
X22988495Y-29519571D01*
X23036114Y-29614809D01*
X23036114Y-29852904D01*
X22988495Y-29948142D01*
X22940876Y-29995761D01*
X22845638Y-30043380D01*
X22559923Y-30043380D01*
X22464685Y-29995761D01*
X22417066Y-29948142D01*
X33728066Y-33837571D02*
X33394733Y-33837571D01*
X33394733Y-34361380D02*
X33394733Y-33361380D01*
X33870923Y-33361380D01*
X34775685Y-34361380D02*
X34204257Y-34361380D01*
X34489971Y-34361380D02*
X34489971Y-33361380D01*
X34394733Y-33504238D01*
X34299495Y-33599476D01*
X34204257Y-33647095D01*
M02*
