G04 #@! TF.GenerationSoftware,KiCad,Pcbnew,(5.1.5)-3*
G04 #@! TF.CreationDate,2020-04-27T21:47:52+02:00*
G04 #@! TF.ProjectId,unified-usb-pcb_simple,756e6966-6965-4642-9d75-73622d706362,rev?*
G04 #@! TF.SameCoordinates,Original*
G04 #@! TF.FileFunction,Soldermask,Bot*
G04 #@! TF.FilePolarity,Negative*
%FSLAX46Y46*%
G04 Gerber Fmt 4.6, Leading zero omitted, Abs format (unit mm)*
G04 Created by KiCad (PCBNEW (5.1.5)-3) date 2020-04-27 21:47:52*
%MOMM*%
%LPD*%
G04 APERTURE LIST*
%ADD10C,0.100000*%
G04 APERTURE END LIST*
D10*
G36*
X19227812Y-47933134D02*
G01*
X19459746Y-47979269D01*
X19896700Y-48160262D01*
X20289948Y-48423022D01*
X20624378Y-48757452D01*
X20887138Y-49150700D01*
X21068131Y-49587654D01*
X21160400Y-50051522D01*
X21160400Y-50524478D01*
X21068131Y-50988346D01*
X20887138Y-51425300D01*
X20624378Y-51818548D01*
X20289948Y-52152978D01*
X19896700Y-52415738D01*
X19459746Y-52596731D01*
X19227812Y-52642866D01*
X18995879Y-52689000D01*
X18522921Y-52689000D01*
X18290988Y-52642865D01*
X18059054Y-52596731D01*
X17622100Y-52415738D01*
X17228852Y-52152978D01*
X16894422Y-51818548D01*
X16631662Y-51425300D01*
X16450669Y-50988346D01*
X16358400Y-50524478D01*
X16358400Y-50051522D01*
X16450669Y-49587654D01*
X16631662Y-49150700D01*
X16894422Y-48757452D01*
X17228852Y-48423022D01*
X17622100Y-48160262D01*
X18059054Y-47979269D01*
X18290988Y-47933134D01*
X18522921Y-47887000D01*
X18995879Y-47887000D01*
X19227812Y-47933134D01*
G37*
G36*
X43227812Y-47933134D02*
G01*
X43459746Y-47979269D01*
X43896700Y-48160262D01*
X44289948Y-48423022D01*
X44624378Y-48757452D01*
X44887138Y-49150700D01*
X45068131Y-49587654D01*
X45160400Y-50051522D01*
X45160400Y-50524478D01*
X45068131Y-50988346D01*
X44887138Y-51425300D01*
X44624378Y-51818548D01*
X44289948Y-52152978D01*
X43896700Y-52415738D01*
X43459746Y-52596731D01*
X43227812Y-52642866D01*
X42995879Y-52689000D01*
X42522921Y-52689000D01*
X42290988Y-52642865D01*
X42059054Y-52596731D01*
X41622100Y-52415738D01*
X41228852Y-52152978D01*
X40894422Y-51818548D01*
X40631662Y-51425300D01*
X40450669Y-50988346D01*
X40358400Y-50524478D01*
X40358400Y-50051522D01*
X40450669Y-49587654D01*
X40631662Y-49150700D01*
X40894422Y-48757452D01*
X41228852Y-48423022D01*
X41622100Y-48160262D01*
X42059054Y-47979269D01*
X42290988Y-47933134D01*
X42522921Y-47887000D01*
X42995879Y-47887000D01*
X43227812Y-47933134D01*
G37*
G36*
X26547415Y-23974973D02*
G01*
X26651279Y-24006479D01*
X26678455Y-24021005D01*
X26747000Y-24057643D01*
X26830901Y-24126499D01*
X26899757Y-24210400D01*
X26918754Y-24245942D01*
X26950921Y-24306121D01*
X26982427Y-24409985D01*
X26990400Y-24490933D01*
X26990400Y-25645067D01*
X26982427Y-25726015D01*
X26950921Y-25829879D01*
X26899756Y-25925600D01*
X26830901Y-26009501D01*
X26762045Y-26066009D01*
X26746999Y-26078357D01*
X26695307Y-26105987D01*
X26651278Y-26129521D01*
X26547414Y-26161027D01*
X26439400Y-26171666D01*
X26331385Y-26161027D01*
X26227521Y-26129521D01*
X26183493Y-26105987D01*
X26131801Y-26078357D01*
X26119043Y-26067887D01*
X26047899Y-26009501D01*
X25979044Y-25925600D01*
X25927879Y-25829878D01*
X25896373Y-25726014D01*
X25888400Y-25645066D01*
X25888401Y-24490933D01*
X25896374Y-24409985D01*
X25927880Y-24306121D01*
X25960047Y-24245942D01*
X25979044Y-24210400D01*
X26047900Y-24126499D01*
X26131801Y-24057643D01*
X26200346Y-24021005D01*
X26227522Y-24006479D01*
X26331386Y-23974973D01*
X26439400Y-23964334D01*
X26547415Y-23974973D01*
G37*
G36*
X35187415Y-23974973D02*
G01*
X35291279Y-24006479D01*
X35318455Y-24021005D01*
X35387000Y-24057643D01*
X35470901Y-24126499D01*
X35539757Y-24210400D01*
X35558754Y-24245942D01*
X35590921Y-24306121D01*
X35622427Y-24409985D01*
X35630400Y-24490933D01*
X35630400Y-25645067D01*
X35622427Y-25726015D01*
X35590921Y-25829879D01*
X35539756Y-25925600D01*
X35470901Y-26009501D01*
X35402045Y-26066009D01*
X35386999Y-26078357D01*
X35335307Y-26105987D01*
X35291278Y-26129521D01*
X35187414Y-26161027D01*
X35079400Y-26171666D01*
X34971385Y-26161027D01*
X34867521Y-26129521D01*
X34823493Y-26105987D01*
X34771801Y-26078357D01*
X34759043Y-26067887D01*
X34687899Y-26009501D01*
X34619044Y-25925600D01*
X34567879Y-25829878D01*
X34536373Y-25726014D01*
X34528400Y-25645066D01*
X34528401Y-24490933D01*
X34536374Y-24409985D01*
X34567880Y-24306121D01*
X34600047Y-24245942D01*
X34619044Y-24210400D01*
X34687900Y-24126499D01*
X34771801Y-24057643D01*
X34840346Y-24021005D01*
X34867522Y-24006479D01*
X34971386Y-23974973D01*
X35079400Y-23964334D01*
X35187415Y-23974973D01*
G37*
G36*
X27979072Y-24176449D02*
G01*
X27979074Y-24176450D01*
X27979075Y-24176450D01*
X28047503Y-24204793D01*
X28109086Y-24245942D01*
X28161458Y-24298314D01*
X28202607Y-24359897D01*
X28230950Y-24428325D01*
X28245400Y-24500967D01*
X28245400Y-24575033D01*
X28230950Y-24647675D01*
X28202607Y-24716103D01*
X28161458Y-24777686D01*
X28109086Y-24830058D01*
X28047503Y-24871207D01*
X27979075Y-24899550D01*
X27979074Y-24899550D01*
X27979072Y-24899551D01*
X27906434Y-24914000D01*
X27832366Y-24914000D01*
X27759728Y-24899551D01*
X27759726Y-24899550D01*
X27759725Y-24899550D01*
X27691297Y-24871207D01*
X27629714Y-24830058D01*
X27577342Y-24777686D01*
X27536193Y-24716103D01*
X27507850Y-24647675D01*
X27493400Y-24575033D01*
X27493400Y-24500967D01*
X27507850Y-24428325D01*
X27536193Y-24359897D01*
X27577342Y-24298314D01*
X27629714Y-24245942D01*
X27691297Y-24204793D01*
X27759725Y-24176450D01*
X27759726Y-24176450D01*
X27759728Y-24176449D01*
X27832366Y-24162000D01*
X27906434Y-24162000D01*
X27979072Y-24176449D01*
G37*
G36*
X33759072Y-24176449D02*
G01*
X33759074Y-24176450D01*
X33759075Y-24176450D01*
X33827503Y-24204793D01*
X33889086Y-24245942D01*
X33941458Y-24298314D01*
X33982607Y-24359897D01*
X34010950Y-24428325D01*
X34025400Y-24500967D01*
X34025400Y-24575033D01*
X34010950Y-24647675D01*
X33982607Y-24716103D01*
X33941458Y-24777686D01*
X33889086Y-24830058D01*
X33827503Y-24871207D01*
X33759075Y-24899550D01*
X33759074Y-24899550D01*
X33759072Y-24899551D01*
X33686434Y-24914000D01*
X33612366Y-24914000D01*
X33539728Y-24899551D01*
X33539726Y-24899550D01*
X33539725Y-24899550D01*
X33471297Y-24871207D01*
X33409714Y-24830058D01*
X33357342Y-24777686D01*
X33316193Y-24716103D01*
X33287850Y-24647675D01*
X33273400Y-24575033D01*
X33273400Y-24500967D01*
X33287850Y-24428325D01*
X33316193Y-24359897D01*
X33357342Y-24298314D01*
X33409714Y-24245942D01*
X33471297Y-24204793D01*
X33539725Y-24176450D01*
X33539726Y-24176450D01*
X33539728Y-24176449D01*
X33612366Y-24162000D01*
X33686434Y-24162000D01*
X33759072Y-24176449D01*
G37*
G36*
X43227812Y-19933135D02*
G01*
X43459746Y-19979269D01*
X43768720Y-20107251D01*
X43817954Y-20127644D01*
X43896700Y-20160262D01*
X44289948Y-20423022D01*
X44624378Y-20757452D01*
X44887138Y-21150700D01*
X45068131Y-21587654D01*
X45160400Y-22051522D01*
X45160400Y-22524478D01*
X45068131Y-22988346D01*
X44887138Y-23425300D01*
X44624378Y-23818548D01*
X44289948Y-24152978D01*
X43896700Y-24415738D01*
X43896699Y-24415739D01*
X43896698Y-24415739D01*
X43866305Y-24428328D01*
X43459746Y-24596731D01*
X43227812Y-24642866D01*
X42995879Y-24689000D01*
X42522921Y-24689000D01*
X42290988Y-24642866D01*
X42059054Y-24596731D01*
X41652495Y-24428328D01*
X41622102Y-24415739D01*
X41622101Y-24415739D01*
X41622100Y-24415738D01*
X41228852Y-24152978D01*
X40894422Y-23818548D01*
X40631662Y-23425300D01*
X40450669Y-22988346D01*
X40358400Y-22524478D01*
X40358400Y-22051522D01*
X40450669Y-21587654D01*
X40631662Y-21150700D01*
X40894422Y-20757452D01*
X41228852Y-20423022D01*
X41622100Y-20160262D01*
X41700847Y-20127644D01*
X41750080Y-20107251D01*
X42059054Y-19979269D01*
X42290988Y-19933135D01*
X42522921Y-19887000D01*
X42995879Y-19887000D01*
X43227812Y-19933135D01*
G37*
G36*
X19227812Y-19933135D02*
G01*
X19459746Y-19979269D01*
X19768720Y-20107251D01*
X19817954Y-20127644D01*
X19896700Y-20160262D01*
X20289948Y-20423022D01*
X20624378Y-20757452D01*
X20887138Y-21150700D01*
X21068131Y-21587654D01*
X21160400Y-22051522D01*
X21160400Y-22524478D01*
X21068131Y-22988346D01*
X20887138Y-23425300D01*
X20624378Y-23818548D01*
X20289948Y-24152978D01*
X19896700Y-24415738D01*
X19896699Y-24415739D01*
X19896698Y-24415739D01*
X19866305Y-24428328D01*
X19459746Y-24596731D01*
X19227812Y-24642866D01*
X18995879Y-24689000D01*
X18522921Y-24689000D01*
X18290988Y-24642866D01*
X18059054Y-24596731D01*
X17652495Y-24428328D01*
X17622102Y-24415739D01*
X17622101Y-24415739D01*
X17622100Y-24415738D01*
X17228852Y-24152978D01*
X16894422Y-23818548D01*
X16631662Y-23425300D01*
X16450669Y-22988346D01*
X16358400Y-22524478D01*
X16358400Y-22051522D01*
X16450669Y-21587654D01*
X16631662Y-21150700D01*
X16894422Y-20757452D01*
X17228852Y-20423022D01*
X17622100Y-20160262D01*
X17700847Y-20127644D01*
X17750080Y-20107251D01*
X18059054Y-19979269D01*
X18290988Y-19933135D01*
X18522921Y-19887000D01*
X18995879Y-19887000D01*
X19227812Y-19933135D01*
G37*
G36*
X35187415Y-20044973D02*
G01*
X35291279Y-20076479D01*
X35318455Y-20091005D01*
X35387000Y-20127643D01*
X35470901Y-20196499D01*
X35539757Y-20280400D01*
X35576395Y-20348945D01*
X35590921Y-20376121D01*
X35622427Y-20479985D01*
X35630400Y-20560933D01*
X35630400Y-21215067D01*
X35622427Y-21296015D01*
X35590921Y-21399879D01*
X35539756Y-21495600D01*
X35470901Y-21579501D01*
X35402045Y-21636009D01*
X35386999Y-21648357D01*
X35335307Y-21675987D01*
X35291278Y-21699521D01*
X35187414Y-21731027D01*
X35079400Y-21741666D01*
X34971385Y-21731027D01*
X34867521Y-21699521D01*
X34823493Y-21675987D01*
X34771801Y-21648357D01*
X34759043Y-21637887D01*
X34687899Y-21579501D01*
X34619044Y-21495600D01*
X34567879Y-21399878D01*
X34536373Y-21296014D01*
X34528400Y-21215066D01*
X34528400Y-20560933D01*
X34536373Y-20479985D01*
X34567880Y-20376121D01*
X34567882Y-20376118D01*
X34619045Y-20280399D01*
X34687900Y-20196499D01*
X34771801Y-20127643D01*
X34840346Y-20091005D01*
X34867522Y-20076479D01*
X34971386Y-20044973D01*
X35079400Y-20034334D01*
X35187415Y-20044973D01*
G37*
G36*
X26547415Y-20044973D02*
G01*
X26651279Y-20076479D01*
X26678455Y-20091005D01*
X26747000Y-20127643D01*
X26830901Y-20196499D01*
X26899757Y-20280400D01*
X26936395Y-20348945D01*
X26950921Y-20376121D01*
X26982427Y-20479985D01*
X26990400Y-20560933D01*
X26990400Y-21215067D01*
X26982427Y-21296015D01*
X26950921Y-21399879D01*
X26899756Y-21495600D01*
X26830901Y-21579501D01*
X26762045Y-21636009D01*
X26746999Y-21648357D01*
X26695307Y-21675987D01*
X26651278Y-21699521D01*
X26547414Y-21731027D01*
X26439400Y-21741666D01*
X26331385Y-21731027D01*
X26227521Y-21699521D01*
X26183493Y-21675987D01*
X26131801Y-21648357D01*
X26119043Y-21637887D01*
X26047899Y-21579501D01*
X25979044Y-21495600D01*
X25927879Y-21399878D01*
X25896373Y-21296014D01*
X25888400Y-21215066D01*
X25888400Y-20560933D01*
X25896373Y-20479985D01*
X25927880Y-20376121D01*
X25927882Y-20376118D01*
X25979045Y-20280399D01*
X26047900Y-20196499D01*
X26131801Y-20127643D01*
X26200346Y-20091005D01*
X26227522Y-20076479D01*
X26331386Y-20044973D01*
X26439400Y-20034334D01*
X26547415Y-20044973D01*
G37*
M02*
