G04 #@! TF.GenerationSoftware,KiCad,Pcbnew,(5.1.5)-3*
G04 #@! TF.CreationDate,2020-04-27T21:47:52+02:00*
G04 #@! TF.ProjectId,unified-usb-pcb_simple,756e6966-6965-4642-9d75-73622d706362,rev?*
G04 #@! TF.SameCoordinates,Original*
G04 #@! TF.FileFunction,Paste,Top*
G04 #@! TF.FilePolarity,Positive*
%FSLAX46Y46*%
G04 Gerber Fmt 4.6, Leading zero omitted, Abs format (unit mm)*
G04 Created by KiCad (PCBNEW (5.1.5)-3) date 2020-04-27 21:47:52*
%MOMM*%
%LPD*%
G04 APERTURE LIST*
%ADD10R,0.600000X1.450000*%
%ADD11R,0.300000X1.450000*%
%ADD12C,0.100000*%
%ADD13R,1.060000X0.650000*%
G04 APERTURE END LIST*
D10*
X27509400Y-25983000D03*
X28309400Y-25983000D03*
X33209400Y-25983000D03*
X34009400Y-25983000D03*
X34009400Y-25983000D03*
X33209400Y-25983000D03*
X28309400Y-25983000D03*
X27509400Y-25983000D03*
D11*
X32509400Y-25983000D03*
X32009400Y-25983000D03*
X31509400Y-25983000D03*
X30509400Y-25983000D03*
X30009400Y-25983000D03*
X29509400Y-25983000D03*
X29009400Y-25983000D03*
X31009400Y-25983000D03*
D12*
G36*
X29005091Y-42464053D02*
G01*
X29026326Y-42467203D01*
X29047150Y-42472419D01*
X29067362Y-42479651D01*
X29086768Y-42488830D01*
X29105181Y-42499866D01*
X29122424Y-42512654D01*
X29138330Y-42527070D01*
X29152746Y-42542976D01*
X29165534Y-42560219D01*
X29176570Y-42578632D01*
X29185749Y-42598038D01*
X29192981Y-42618250D01*
X29198197Y-42639074D01*
X29201347Y-42660309D01*
X29202400Y-42681750D01*
X29202400Y-43119250D01*
X29201347Y-43140691D01*
X29198197Y-43161926D01*
X29192981Y-43182750D01*
X29185749Y-43202962D01*
X29176570Y-43222368D01*
X29165534Y-43240781D01*
X29152746Y-43258024D01*
X29138330Y-43273930D01*
X29122424Y-43288346D01*
X29105181Y-43301134D01*
X29086768Y-43312170D01*
X29067362Y-43321349D01*
X29047150Y-43328581D01*
X29026326Y-43333797D01*
X29005091Y-43336947D01*
X28983650Y-43338000D01*
X28471150Y-43338000D01*
X28449709Y-43336947D01*
X28428474Y-43333797D01*
X28407650Y-43328581D01*
X28387438Y-43321349D01*
X28368032Y-43312170D01*
X28349619Y-43301134D01*
X28332376Y-43288346D01*
X28316470Y-43273930D01*
X28302054Y-43258024D01*
X28289266Y-43240781D01*
X28278230Y-43222368D01*
X28269051Y-43202962D01*
X28261819Y-43182750D01*
X28256603Y-43161926D01*
X28253453Y-43140691D01*
X28252400Y-43119250D01*
X28252400Y-42681750D01*
X28253453Y-42660309D01*
X28256603Y-42639074D01*
X28261819Y-42618250D01*
X28269051Y-42598038D01*
X28278230Y-42578632D01*
X28289266Y-42560219D01*
X28302054Y-42542976D01*
X28316470Y-42527070D01*
X28332376Y-42512654D01*
X28349619Y-42499866D01*
X28368032Y-42488830D01*
X28387438Y-42479651D01*
X28407650Y-42472419D01*
X28428474Y-42467203D01*
X28449709Y-42464053D01*
X28471150Y-42463000D01*
X28983650Y-42463000D01*
X29005091Y-42464053D01*
G37*
G36*
X29005091Y-44039053D02*
G01*
X29026326Y-44042203D01*
X29047150Y-44047419D01*
X29067362Y-44054651D01*
X29086768Y-44063830D01*
X29105181Y-44074866D01*
X29122424Y-44087654D01*
X29138330Y-44102070D01*
X29152746Y-44117976D01*
X29165534Y-44135219D01*
X29176570Y-44153632D01*
X29185749Y-44173038D01*
X29192981Y-44193250D01*
X29198197Y-44214074D01*
X29201347Y-44235309D01*
X29202400Y-44256750D01*
X29202400Y-44694250D01*
X29201347Y-44715691D01*
X29198197Y-44736926D01*
X29192981Y-44757750D01*
X29185749Y-44777962D01*
X29176570Y-44797368D01*
X29165534Y-44815781D01*
X29152746Y-44833024D01*
X29138330Y-44848930D01*
X29122424Y-44863346D01*
X29105181Y-44876134D01*
X29086768Y-44887170D01*
X29067362Y-44896349D01*
X29047150Y-44903581D01*
X29026326Y-44908797D01*
X29005091Y-44911947D01*
X28983650Y-44913000D01*
X28471150Y-44913000D01*
X28449709Y-44911947D01*
X28428474Y-44908797D01*
X28407650Y-44903581D01*
X28387438Y-44896349D01*
X28368032Y-44887170D01*
X28349619Y-44876134D01*
X28332376Y-44863346D01*
X28316470Y-44848930D01*
X28302054Y-44833024D01*
X28289266Y-44815781D01*
X28278230Y-44797368D01*
X28269051Y-44777962D01*
X28261819Y-44757750D01*
X28256603Y-44736926D01*
X28253453Y-44715691D01*
X28252400Y-44694250D01*
X28252400Y-44256750D01*
X28253453Y-44235309D01*
X28256603Y-44214074D01*
X28261819Y-44193250D01*
X28269051Y-44173038D01*
X28278230Y-44153632D01*
X28289266Y-44135219D01*
X28302054Y-44117976D01*
X28316470Y-44102070D01*
X28332376Y-44087654D01*
X28349619Y-44074866D01*
X28368032Y-44063830D01*
X28387438Y-44054651D01*
X28407650Y-44047419D01*
X28428474Y-44042203D01*
X28449709Y-44039053D01*
X28471150Y-44038000D01*
X28983650Y-44038000D01*
X29005091Y-44039053D01*
G37*
G36*
X34433905Y-50964204D02*
G01*
X34458173Y-50967804D01*
X34481972Y-50973765D01*
X34505071Y-50982030D01*
X34527250Y-50992520D01*
X34548293Y-51005132D01*
X34567999Y-51019747D01*
X34586177Y-51036223D01*
X34602653Y-51054401D01*
X34617268Y-51074107D01*
X34629880Y-51095150D01*
X34640370Y-51117329D01*
X34648635Y-51140428D01*
X34654596Y-51164227D01*
X34658196Y-51188495D01*
X34659400Y-51212999D01*
X34659400Y-52513001D01*
X34658196Y-52537505D01*
X34654596Y-52561773D01*
X34648635Y-52585572D01*
X34640370Y-52608671D01*
X34629880Y-52630850D01*
X34617268Y-52651893D01*
X34602653Y-52671599D01*
X34586177Y-52689777D01*
X34567999Y-52706253D01*
X34548293Y-52720868D01*
X34527250Y-52733480D01*
X34505071Y-52743970D01*
X34481972Y-52752235D01*
X34458173Y-52758196D01*
X34433905Y-52761796D01*
X34409401Y-52763000D01*
X33709399Y-52763000D01*
X33684895Y-52761796D01*
X33660627Y-52758196D01*
X33636828Y-52752235D01*
X33613729Y-52743970D01*
X33591550Y-52733480D01*
X33570507Y-52720868D01*
X33550801Y-52706253D01*
X33532623Y-52689777D01*
X33516147Y-52671599D01*
X33501532Y-52651893D01*
X33488920Y-52630850D01*
X33478430Y-52608671D01*
X33470165Y-52585572D01*
X33464204Y-52561773D01*
X33460604Y-52537505D01*
X33459400Y-52513001D01*
X33459400Y-51212999D01*
X33460604Y-51188495D01*
X33464204Y-51164227D01*
X33470165Y-51140428D01*
X33478430Y-51117329D01*
X33488920Y-51095150D01*
X33501532Y-51074107D01*
X33516147Y-51054401D01*
X33532623Y-51036223D01*
X33550801Y-51019747D01*
X33570507Y-51005132D01*
X33591550Y-50992520D01*
X33613729Y-50982030D01*
X33636828Y-50973765D01*
X33660627Y-50967804D01*
X33684895Y-50964204D01*
X33709399Y-50963000D01*
X34409401Y-50963000D01*
X34433905Y-50964204D01*
G37*
G36*
X27833905Y-50964204D02*
G01*
X27858173Y-50967804D01*
X27881972Y-50973765D01*
X27905071Y-50982030D01*
X27927250Y-50992520D01*
X27948293Y-51005132D01*
X27967999Y-51019747D01*
X27986177Y-51036223D01*
X28002653Y-51054401D01*
X28017268Y-51074107D01*
X28029880Y-51095150D01*
X28040370Y-51117329D01*
X28048635Y-51140428D01*
X28054596Y-51164227D01*
X28058196Y-51188495D01*
X28059400Y-51212999D01*
X28059400Y-52513001D01*
X28058196Y-52537505D01*
X28054596Y-52561773D01*
X28048635Y-52585572D01*
X28040370Y-52608671D01*
X28029880Y-52630850D01*
X28017268Y-52651893D01*
X28002653Y-52671599D01*
X27986177Y-52689777D01*
X27967999Y-52706253D01*
X27948293Y-52720868D01*
X27927250Y-52733480D01*
X27905071Y-52743970D01*
X27881972Y-52752235D01*
X27858173Y-52758196D01*
X27833905Y-52761796D01*
X27809401Y-52763000D01*
X27109399Y-52763000D01*
X27084895Y-52761796D01*
X27060627Y-52758196D01*
X27036828Y-52752235D01*
X27013729Y-52743970D01*
X26991550Y-52733480D01*
X26970507Y-52720868D01*
X26950801Y-52706253D01*
X26932623Y-52689777D01*
X26916147Y-52671599D01*
X26901532Y-52651893D01*
X26888920Y-52630850D01*
X26878430Y-52608671D01*
X26870165Y-52585572D01*
X26864204Y-52561773D01*
X26860604Y-52537505D01*
X26859400Y-52513001D01*
X26859400Y-51212999D01*
X26860604Y-51188495D01*
X26864204Y-51164227D01*
X26870165Y-51140428D01*
X26878430Y-51117329D01*
X26888920Y-51095150D01*
X26901532Y-51074107D01*
X26916147Y-51054401D01*
X26932623Y-51036223D01*
X26950801Y-51019747D01*
X26970507Y-51005132D01*
X26991550Y-50992520D01*
X27013729Y-50982030D01*
X27036828Y-50973765D01*
X27060627Y-50967804D01*
X27084895Y-50964204D01*
X27109399Y-50963000D01*
X27809401Y-50963000D01*
X27833905Y-50964204D01*
G37*
G36*
X32924103Y-47213722D02*
G01*
X32938664Y-47215882D01*
X32952943Y-47219459D01*
X32966803Y-47224418D01*
X32980110Y-47230712D01*
X32992736Y-47238280D01*
X33004559Y-47247048D01*
X33015466Y-47256934D01*
X33025352Y-47267841D01*
X33034120Y-47279664D01*
X33041688Y-47292290D01*
X33047982Y-47305597D01*
X33052941Y-47319457D01*
X33056518Y-47333736D01*
X33058678Y-47348297D01*
X33059400Y-47363000D01*
X33059400Y-48613000D01*
X33058678Y-48627703D01*
X33056518Y-48642264D01*
X33052941Y-48656543D01*
X33047982Y-48670403D01*
X33041688Y-48683710D01*
X33034120Y-48696336D01*
X33025352Y-48708159D01*
X33015466Y-48719066D01*
X33004559Y-48728952D01*
X32992736Y-48737720D01*
X32980110Y-48745288D01*
X32966803Y-48751582D01*
X32952943Y-48756541D01*
X32938664Y-48760118D01*
X32924103Y-48762278D01*
X32909400Y-48763000D01*
X32609400Y-48763000D01*
X32594697Y-48762278D01*
X32580136Y-48760118D01*
X32565857Y-48756541D01*
X32551997Y-48751582D01*
X32538690Y-48745288D01*
X32526064Y-48737720D01*
X32514241Y-48728952D01*
X32503334Y-48719066D01*
X32493448Y-48708159D01*
X32484680Y-48696336D01*
X32477112Y-48683710D01*
X32470818Y-48670403D01*
X32465859Y-48656543D01*
X32462282Y-48642264D01*
X32460122Y-48627703D01*
X32459400Y-48613000D01*
X32459400Y-47363000D01*
X32460122Y-47348297D01*
X32462282Y-47333736D01*
X32465859Y-47319457D01*
X32470818Y-47305597D01*
X32477112Y-47292290D01*
X32484680Y-47279664D01*
X32493448Y-47267841D01*
X32503334Y-47256934D01*
X32514241Y-47247048D01*
X32526064Y-47238280D01*
X32538690Y-47230712D01*
X32551997Y-47224418D01*
X32565857Y-47219459D01*
X32580136Y-47215882D01*
X32594697Y-47213722D01*
X32609400Y-47213000D01*
X32909400Y-47213000D01*
X32924103Y-47213722D01*
G37*
G36*
X31924103Y-47213722D02*
G01*
X31938664Y-47215882D01*
X31952943Y-47219459D01*
X31966803Y-47224418D01*
X31980110Y-47230712D01*
X31992736Y-47238280D01*
X32004559Y-47247048D01*
X32015466Y-47256934D01*
X32025352Y-47267841D01*
X32034120Y-47279664D01*
X32041688Y-47292290D01*
X32047982Y-47305597D01*
X32052941Y-47319457D01*
X32056518Y-47333736D01*
X32058678Y-47348297D01*
X32059400Y-47363000D01*
X32059400Y-48613000D01*
X32058678Y-48627703D01*
X32056518Y-48642264D01*
X32052941Y-48656543D01*
X32047982Y-48670403D01*
X32041688Y-48683710D01*
X32034120Y-48696336D01*
X32025352Y-48708159D01*
X32015466Y-48719066D01*
X32004559Y-48728952D01*
X31992736Y-48737720D01*
X31980110Y-48745288D01*
X31966803Y-48751582D01*
X31952943Y-48756541D01*
X31938664Y-48760118D01*
X31924103Y-48762278D01*
X31909400Y-48763000D01*
X31609400Y-48763000D01*
X31594697Y-48762278D01*
X31580136Y-48760118D01*
X31565857Y-48756541D01*
X31551997Y-48751582D01*
X31538690Y-48745288D01*
X31526064Y-48737720D01*
X31514241Y-48728952D01*
X31503334Y-48719066D01*
X31493448Y-48708159D01*
X31484680Y-48696336D01*
X31477112Y-48683710D01*
X31470818Y-48670403D01*
X31465859Y-48656543D01*
X31462282Y-48642264D01*
X31460122Y-48627703D01*
X31459400Y-48613000D01*
X31459400Y-47363000D01*
X31460122Y-47348297D01*
X31462282Y-47333736D01*
X31465859Y-47319457D01*
X31470818Y-47305597D01*
X31477112Y-47292290D01*
X31484680Y-47279664D01*
X31493448Y-47267841D01*
X31503334Y-47256934D01*
X31514241Y-47247048D01*
X31526064Y-47238280D01*
X31538690Y-47230712D01*
X31551997Y-47224418D01*
X31565857Y-47219459D01*
X31580136Y-47215882D01*
X31594697Y-47213722D01*
X31609400Y-47213000D01*
X31909400Y-47213000D01*
X31924103Y-47213722D01*
G37*
G36*
X30924103Y-47213722D02*
G01*
X30938664Y-47215882D01*
X30952943Y-47219459D01*
X30966803Y-47224418D01*
X30980110Y-47230712D01*
X30992736Y-47238280D01*
X31004559Y-47247048D01*
X31015466Y-47256934D01*
X31025352Y-47267841D01*
X31034120Y-47279664D01*
X31041688Y-47292290D01*
X31047982Y-47305597D01*
X31052941Y-47319457D01*
X31056518Y-47333736D01*
X31058678Y-47348297D01*
X31059400Y-47363000D01*
X31059400Y-48613000D01*
X31058678Y-48627703D01*
X31056518Y-48642264D01*
X31052941Y-48656543D01*
X31047982Y-48670403D01*
X31041688Y-48683710D01*
X31034120Y-48696336D01*
X31025352Y-48708159D01*
X31015466Y-48719066D01*
X31004559Y-48728952D01*
X30992736Y-48737720D01*
X30980110Y-48745288D01*
X30966803Y-48751582D01*
X30952943Y-48756541D01*
X30938664Y-48760118D01*
X30924103Y-48762278D01*
X30909400Y-48763000D01*
X30609400Y-48763000D01*
X30594697Y-48762278D01*
X30580136Y-48760118D01*
X30565857Y-48756541D01*
X30551997Y-48751582D01*
X30538690Y-48745288D01*
X30526064Y-48737720D01*
X30514241Y-48728952D01*
X30503334Y-48719066D01*
X30493448Y-48708159D01*
X30484680Y-48696336D01*
X30477112Y-48683710D01*
X30470818Y-48670403D01*
X30465859Y-48656543D01*
X30462282Y-48642264D01*
X30460122Y-48627703D01*
X30459400Y-48613000D01*
X30459400Y-47363000D01*
X30460122Y-47348297D01*
X30462282Y-47333736D01*
X30465859Y-47319457D01*
X30470818Y-47305597D01*
X30477112Y-47292290D01*
X30484680Y-47279664D01*
X30493448Y-47267841D01*
X30503334Y-47256934D01*
X30514241Y-47247048D01*
X30526064Y-47238280D01*
X30538690Y-47230712D01*
X30551997Y-47224418D01*
X30565857Y-47219459D01*
X30580136Y-47215882D01*
X30594697Y-47213722D01*
X30609400Y-47213000D01*
X30909400Y-47213000D01*
X30924103Y-47213722D01*
G37*
G36*
X29924103Y-47213722D02*
G01*
X29938664Y-47215882D01*
X29952943Y-47219459D01*
X29966803Y-47224418D01*
X29980110Y-47230712D01*
X29992736Y-47238280D01*
X30004559Y-47247048D01*
X30015466Y-47256934D01*
X30025352Y-47267841D01*
X30034120Y-47279664D01*
X30041688Y-47292290D01*
X30047982Y-47305597D01*
X30052941Y-47319457D01*
X30056518Y-47333736D01*
X30058678Y-47348297D01*
X30059400Y-47363000D01*
X30059400Y-48613000D01*
X30058678Y-48627703D01*
X30056518Y-48642264D01*
X30052941Y-48656543D01*
X30047982Y-48670403D01*
X30041688Y-48683710D01*
X30034120Y-48696336D01*
X30025352Y-48708159D01*
X30015466Y-48719066D01*
X30004559Y-48728952D01*
X29992736Y-48737720D01*
X29980110Y-48745288D01*
X29966803Y-48751582D01*
X29952943Y-48756541D01*
X29938664Y-48760118D01*
X29924103Y-48762278D01*
X29909400Y-48763000D01*
X29609400Y-48763000D01*
X29594697Y-48762278D01*
X29580136Y-48760118D01*
X29565857Y-48756541D01*
X29551997Y-48751582D01*
X29538690Y-48745288D01*
X29526064Y-48737720D01*
X29514241Y-48728952D01*
X29503334Y-48719066D01*
X29493448Y-48708159D01*
X29484680Y-48696336D01*
X29477112Y-48683710D01*
X29470818Y-48670403D01*
X29465859Y-48656543D01*
X29462282Y-48642264D01*
X29460122Y-48627703D01*
X29459400Y-48613000D01*
X29459400Y-47363000D01*
X29460122Y-47348297D01*
X29462282Y-47333736D01*
X29465859Y-47319457D01*
X29470818Y-47305597D01*
X29477112Y-47292290D01*
X29484680Y-47279664D01*
X29493448Y-47267841D01*
X29503334Y-47256934D01*
X29514241Y-47247048D01*
X29526064Y-47238280D01*
X29538690Y-47230712D01*
X29551997Y-47224418D01*
X29565857Y-47219459D01*
X29580136Y-47215882D01*
X29594697Y-47213722D01*
X29609400Y-47213000D01*
X29909400Y-47213000D01*
X29924103Y-47213722D01*
G37*
G36*
X28924103Y-47213722D02*
G01*
X28938664Y-47215882D01*
X28952943Y-47219459D01*
X28966803Y-47224418D01*
X28980110Y-47230712D01*
X28992736Y-47238280D01*
X29004559Y-47247048D01*
X29015466Y-47256934D01*
X29025352Y-47267841D01*
X29034120Y-47279664D01*
X29041688Y-47292290D01*
X29047982Y-47305597D01*
X29052941Y-47319457D01*
X29056518Y-47333736D01*
X29058678Y-47348297D01*
X29059400Y-47363000D01*
X29059400Y-48613000D01*
X29058678Y-48627703D01*
X29056518Y-48642264D01*
X29052941Y-48656543D01*
X29047982Y-48670403D01*
X29041688Y-48683710D01*
X29034120Y-48696336D01*
X29025352Y-48708159D01*
X29015466Y-48719066D01*
X29004559Y-48728952D01*
X28992736Y-48737720D01*
X28980110Y-48745288D01*
X28966803Y-48751582D01*
X28952943Y-48756541D01*
X28938664Y-48760118D01*
X28924103Y-48762278D01*
X28909400Y-48763000D01*
X28609400Y-48763000D01*
X28594697Y-48762278D01*
X28580136Y-48760118D01*
X28565857Y-48756541D01*
X28551997Y-48751582D01*
X28538690Y-48745288D01*
X28526064Y-48737720D01*
X28514241Y-48728952D01*
X28503334Y-48719066D01*
X28493448Y-48708159D01*
X28484680Y-48696336D01*
X28477112Y-48683710D01*
X28470818Y-48670403D01*
X28465859Y-48656543D01*
X28462282Y-48642264D01*
X28460122Y-48627703D01*
X28459400Y-48613000D01*
X28459400Y-47363000D01*
X28460122Y-47348297D01*
X28462282Y-47333736D01*
X28465859Y-47319457D01*
X28470818Y-47305597D01*
X28477112Y-47292290D01*
X28484680Y-47279664D01*
X28493448Y-47267841D01*
X28503334Y-47256934D01*
X28514241Y-47247048D01*
X28526064Y-47238280D01*
X28538690Y-47230712D01*
X28551997Y-47224418D01*
X28565857Y-47219459D01*
X28580136Y-47215882D01*
X28594697Y-47213722D01*
X28609400Y-47213000D01*
X28909400Y-47213000D01*
X28924103Y-47213722D01*
G37*
G36*
X37260091Y-25827053D02*
G01*
X37281326Y-25830203D01*
X37302150Y-25835419D01*
X37322362Y-25842651D01*
X37341768Y-25851830D01*
X37360181Y-25862866D01*
X37377424Y-25875654D01*
X37393330Y-25890070D01*
X37407746Y-25905976D01*
X37420534Y-25923219D01*
X37431570Y-25941632D01*
X37440749Y-25961038D01*
X37447981Y-25981250D01*
X37453197Y-26002074D01*
X37456347Y-26023309D01*
X37457400Y-26044750D01*
X37457400Y-26482250D01*
X37456347Y-26503691D01*
X37453197Y-26524926D01*
X37447981Y-26545750D01*
X37440749Y-26565962D01*
X37431570Y-26585368D01*
X37420534Y-26603781D01*
X37407746Y-26621024D01*
X37393330Y-26636930D01*
X37377424Y-26651346D01*
X37360181Y-26664134D01*
X37341768Y-26675170D01*
X37322362Y-26684349D01*
X37302150Y-26691581D01*
X37281326Y-26696797D01*
X37260091Y-26699947D01*
X37238650Y-26701000D01*
X36726150Y-26701000D01*
X36704709Y-26699947D01*
X36683474Y-26696797D01*
X36662650Y-26691581D01*
X36642438Y-26684349D01*
X36623032Y-26675170D01*
X36604619Y-26664134D01*
X36587376Y-26651346D01*
X36571470Y-26636930D01*
X36557054Y-26621024D01*
X36544266Y-26603781D01*
X36533230Y-26585368D01*
X36524051Y-26565962D01*
X36516819Y-26545750D01*
X36511603Y-26524926D01*
X36508453Y-26503691D01*
X36507400Y-26482250D01*
X36507400Y-26044750D01*
X36508453Y-26023309D01*
X36511603Y-26002074D01*
X36516819Y-25981250D01*
X36524051Y-25961038D01*
X36533230Y-25941632D01*
X36544266Y-25923219D01*
X36557054Y-25905976D01*
X36571470Y-25890070D01*
X36587376Y-25875654D01*
X36604619Y-25862866D01*
X36623032Y-25851830D01*
X36642438Y-25842651D01*
X36662650Y-25835419D01*
X36683474Y-25830203D01*
X36704709Y-25827053D01*
X36726150Y-25826000D01*
X37238650Y-25826000D01*
X37260091Y-25827053D01*
G37*
G36*
X37260091Y-27402053D02*
G01*
X37281326Y-27405203D01*
X37302150Y-27410419D01*
X37322362Y-27417651D01*
X37341768Y-27426830D01*
X37360181Y-27437866D01*
X37377424Y-27450654D01*
X37393330Y-27465070D01*
X37407746Y-27480976D01*
X37420534Y-27498219D01*
X37431570Y-27516632D01*
X37440749Y-27536038D01*
X37447981Y-27556250D01*
X37453197Y-27577074D01*
X37456347Y-27598309D01*
X37457400Y-27619750D01*
X37457400Y-28057250D01*
X37456347Y-28078691D01*
X37453197Y-28099926D01*
X37447981Y-28120750D01*
X37440749Y-28140962D01*
X37431570Y-28160368D01*
X37420534Y-28178781D01*
X37407746Y-28196024D01*
X37393330Y-28211930D01*
X37377424Y-28226346D01*
X37360181Y-28239134D01*
X37341768Y-28250170D01*
X37322362Y-28259349D01*
X37302150Y-28266581D01*
X37281326Y-28271797D01*
X37260091Y-28274947D01*
X37238650Y-28276000D01*
X36726150Y-28276000D01*
X36704709Y-28274947D01*
X36683474Y-28271797D01*
X36662650Y-28266581D01*
X36642438Y-28259349D01*
X36623032Y-28250170D01*
X36604619Y-28239134D01*
X36587376Y-28226346D01*
X36571470Y-28211930D01*
X36557054Y-28196024D01*
X36544266Y-28178781D01*
X36533230Y-28160368D01*
X36524051Y-28140962D01*
X36516819Y-28120750D01*
X36511603Y-28099926D01*
X36508453Y-28078691D01*
X36507400Y-28057250D01*
X36507400Y-27619750D01*
X36508453Y-27598309D01*
X36511603Y-27577074D01*
X36516819Y-27556250D01*
X36524051Y-27536038D01*
X36533230Y-27516632D01*
X36544266Y-27498219D01*
X36557054Y-27480976D01*
X36571470Y-27465070D01*
X36587376Y-27450654D01*
X36604619Y-27437866D01*
X36623032Y-27426830D01*
X36642438Y-27417651D01*
X36662650Y-27410419D01*
X36683474Y-27405203D01*
X36704709Y-27402053D01*
X36726150Y-27401000D01*
X37238650Y-27401000D01*
X37260091Y-27402053D01*
G37*
G36*
X24877591Y-25827053D02*
G01*
X24898826Y-25830203D01*
X24919650Y-25835419D01*
X24939862Y-25842651D01*
X24959268Y-25851830D01*
X24977681Y-25862866D01*
X24994924Y-25875654D01*
X25010830Y-25890070D01*
X25025246Y-25905976D01*
X25038034Y-25923219D01*
X25049070Y-25941632D01*
X25058249Y-25961038D01*
X25065481Y-25981250D01*
X25070697Y-26002074D01*
X25073847Y-26023309D01*
X25074900Y-26044750D01*
X25074900Y-26482250D01*
X25073847Y-26503691D01*
X25070697Y-26524926D01*
X25065481Y-26545750D01*
X25058249Y-26565962D01*
X25049070Y-26585368D01*
X25038034Y-26603781D01*
X25025246Y-26621024D01*
X25010830Y-26636930D01*
X24994924Y-26651346D01*
X24977681Y-26664134D01*
X24959268Y-26675170D01*
X24939862Y-26684349D01*
X24919650Y-26691581D01*
X24898826Y-26696797D01*
X24877591Y-26699947D01*
X24856150Y-26701000D01*
X24343650Y-26701000D01*
X24322209Y-26699947D01*
X24300974Y-26696797D01*
X24280150Y-26691581D01*
X24259938Y-26684349D01*
X24240532Y-26675170D01*
X24222119Y-26664134D01*
X24204876Y-26651346D01*
X24188970Y-26636930D01*
X24174554Y-26621024D01*
X24161766Y-26603781D01*
X24150730Y-26585368D01*
X24141551Y-26565962D01*
X24134319Y-26545750D01*
X24129103Y-26524926D01*
X24125953Y-26503691D01*
X24124900Y-26482250D01*
X24124900Y-26044750D01*
X24125953Y-26023309D01*
X24129103Y-26002074D01*
X24134319Y-25981250D01*
X24141551Y-25961038D01*
X24150730Y-25941632D01*
X24161766Y-25923219D01*
X24174554Y-25905976D01*
X24188970Y-25890070D01*
X24204876Y-25875654D01*
X24222119Y-25862866D01*
X24240532Y-25851830D01*
X24259938Y-25842651D01*
X24280150Y-25835419D01*
X24300974Y-25830203D01*
X24322209Y-25827053D01*
X24343650Y-25826000D01*
X24856150Y-25826000D01*
X24877591Y-25827053D01*
G37*
G36*
X24877591Y-27402053D02*
G01*
X24898826Y-27405203D01*
X24919650Y-27410419D01*
X24939862Y-27417651D01*
X24959268Y-27426830D01*
X24977681Y-27437866D01*
X24994924Y-27450654D01*
X25010830Y-27465070D01*
X25025246Y-27480976D01*
X25038034Y-27498219D01*
X25049070Y-27516632D01*
X25058249Y-27536038D01*
X25065481Y-27556250D01*
X25070697Y-27577074D01*
X25073847Y-27598309D01*
X25074900Y-27619750D01*
X25074900Y-28057250D01*
X25073847Y-28078691D01*
X25070697Y-28099926D01*
X25065481Y-28120750D01*
X25058249Y-28140962D01*
X25049070Y-28160368D01*
X25038034Y-28178781D01*
X25025246Y-28196024D01*
X25010830Y-28211930D01*
X24994924Y-28226346D01*
X24977681Y-28239134D01*
X24959268Y-28250170D01*
X24939862Y-28259349D01*
X24919650Y-28266581D01*
X24898826Y-28271797D01*
X24877591Y-28274947D01*
X24856150Y-28276000D01*
X24343650Y-28276000D01*
X24322209Y-28274947D01*
X24300974Y-28271797D01*
X24280150Y-28266581D01*
X24259938Y-28259349D01*
X24240532Y-28250170D01*
X24222119Y-28239134D01*
X24204876Y-28226346D01*
X24188970Y-28211930D01*
X24174554Y-28196024D01*
X24161766Y-28178781D01*
X24150730Y-28160368D01*
X24141551Y-28140962D01*
X24134319Y-28120750D01*
X24129103Y-28099926D01*
X24125953Y-28078691D01*
X24124900Y-28057250D01*
X24124900Y-27619750D01*
X24125953Y-27598309D01*
X24129103Y-27577074D01*
X24134319Y-27556250D01*
X24141551Y-27536038D01*
X24150730Y-27516632D01*
X24161766Y-27498219D01*
X24174554Y-27480976D01*
X24188970Y-27465070D01*
X24204876Y-27450654D01*
X24222119Y-27437866D01*
X24240532Y-27426830D01*
X24259938Y-27417651D01*
X24280150Y-27410419D01*
X24300974Y-27405203D01*
X24322209Y-27402053D01*
X24343650Y-27401000D01*
X24856150Y-27401000D01*
X24877591Y-27402053D01*
G37*
D13*
X31859400Y-29972000D03*
X31859400Y-29022000D03*
X31859400Y-30922000D03*
X29659400Y-30922000D03*
X29659400Y-29972000D03*
X29659400Y-29022000D03*
D12*
G36*
X23163091Y-25827053D02*
G01*
X23184326Y-25830203D01*
X23205150Y-25835419D01*
X23225362Y-25842651D01*
X23244768Y-25851830D01*
X23263181Y-25862866D01*
X23280424Y-25875654D01*
X23296330Y-25890070D01*
X23310746Y-25905976D01*
X23323534Y-25923219D01*
X23334570Y-25941632D01*
X23343749Y-25961038D01*
X23350981Y-25981250D01*
X23356197Y-26002074D01*
X23359347Y-26023309D01*
X23360400Y-26044750D01*
X23360400Y-26482250D01*
X23359347Y-26503691D01*
X23356197Y-26524926D01*
X23350981Y-26545750D01*
X23343749Y-26565962D01*
X23334570Y-26585368D01*
X23323534Y-26603781D01*
X23310746Y-26621024D01*
X23296330Y-26636930D01*
X23280424Y-26651346D01*
X23263181Y-26664134D01*
X23244768Y-26675170D01*
X23225362Y-26684349D01*
X23205150Y-26691581D01*
X23184326Y-26696797D01*
X23163091Y-26699947D01*
X23141650Y-26701000D01*
X22629150Y-26701000D01*
X22607709Y-26699947D01*
X22586474Y-26696797D01*
X22565650Y-26691581D01*
X22545438Y-26684349D01*
X22526032Y-26675170D01*
X22507619Y-26664134D01*
X22490376Y-26651346D01*
X22474470Y-26636930D01*
X22460054Y-26621024D01*
X22447266Y-26603781D01*
X22436230Y-26585368D01*
X22427051Y-26565962D01*
X22419819Y-26545750D01*
X22414603Y-26524926D01*
X22411453Y-26503691D01*
X22410400Y-26482250D01*
X22410400Y-26044750D01*
X22411453Y-26023309D01*
X22414603Y-26002074D01*
X22419819Y-25981250D01*
X22427051Y-25961038D01*
X22436230Y-25941632D01*
X22447266Y-25923219D01*
X22460054Y-25905976D01*
X22474470Y-25890070D01*
X22490376Y-25875654D01*
X22507619Y-25862866D01*
X22526032Y-25851830D01*
X22545438Y-25842651D01*
X22565650Y-25835419D01*
X22586474Y-25830203D01*
X22607709Y-25827053D01*
X22629150Y-25826000D01*
X23141650Y-25826000D01*
X23163091Y-25827053D01*
G37*
G36*
X23163091Y-27402053D02*
G01*
X23184326Y-27405203D01*
X23205150Y-27410419D01*
X23225362Y-27417651D01*
X23244768Y-27426830D01*
X23263181Y-27437866D01*
X23280424Y-27450654D01*
X23296330Y-27465070D01*
X23310746Y-27480976D01*
X23323534Y-27498219D01*
X23334570Y-27516632D01*
X23343749Y-27536038D01*
X23350981Y-27556250D01*
X23356197Y-27577074D01*
X23359347Y-27598309D01*
X23360400Y-27619750D01*
X23360400Y-28057250D01*
X23359347Y-28078691D01*
X23356197Y-28099926D01*
X23350981Y-28120750D01*
X23343749Y-28140962D01*
X23334570Y-28160368D01*
X23323534Y-28178781D01*
X23310746Y-28196024D01*
X23296330Y-28211930D01*
X23280424Y-28226346D01*
X23263181Y-28239134D01*
X23244768Y-28250170D01*
X23225362Y-28259349D01*
X23205150Y-28266581D01*
X23184326Y-28271797D01*
X23163091Y-28274947D01*
X23141650Y-28276000D01*
X22629150Y-28276000D01*
X22607709Y-28274947D01*
X22586474Y-28271797D01*
X22565650Y-28266581D01*
X22545438Y-28259349D01*
X22526032Y-28250170D01*
X22507619Y-28239134D01*
X22490376Y-28226346D01*
X22474470Y-28211930D01*
X22460054Y-28196024D01*
X22447266Y-28178781D01*
X22436230Y-28160368D01*
X22427051Y-28140962D01*
X22419819Y-28120750D01*
X22414603Y-28099926D01*
X22411453Y-28078691D01*
X22410400Y-28057250D01*
X22410400Y-27619750D01*
X22411453Y-27598309D01*
X22414603Y-27577074D01*
X22419819Y-27556250D01*
X22427051Y-27536038D01*
X22436230Y-27516632D01*
X22447266Y-27498219D01*
X22460054Y-27480976D01*
X22474470Y-27465070D01*
X22490376Y-27450654D01*
X22507619Y-27437866D01*
X22526032Y-27426830D01*
X22545438Y-27417651D01*
X22565650Y-27410419D01*
X22586474Y-27405203D01*
X22607709Y-27402053D01*
X22629150Y-27401000D01*
X23141650Y-27401000D01*
X23163091Y-27402053D01*
G37*
G36*
X34710904Y-28456204D02*
G01*
X34735173Y-28459804D01*
X34758971Y-28465765D01*
X34782071Y-28474030D01*
X34804249Y-28484520D01*
X34825293Y-28497133D01*
X34844998Y-28511747D01*
X34863177Y-28528223D01*
X34879653Y-28546402D01*
X34894267Y-28566107D01*
X34906880Y-28587151D01*
X34917370Y-28609329D01*
X34925635Y-28632429D01*
X34931596Y-28656227D01*
X34935196Y-28680496D01*
X34936400Y-28705000D01*
X34936400Y-29455000D01*
X34935196Y-29479504D01*
X34931596Y-29503773D01*
X34925635Y-29527571D01*
X34917370Y-29550671D01*
X34906880Y-29572849D01*
X34894267Y-29593893D01*
X34879653Y-29613598D01*
X34863177Y-29631777D01*
X34844998Y-29648253D01*
X34825293Y-29662867D01*
X34804249Y-29675480D01*
X34782071Y-29685970D01*
X34758971Y-29694235D01*
X34735173Y-29700196D01*
X34710904Y-29703796D01*
X34686400Y-29705000D01*
X33436400Y-29705000D01*
X33411896Y-29703796D01*
X33387627Y-29700196D01*
X33363829Y-29694235D01*
X33340729Y-29685970D01*
X33318551Y-29675480D01*
X33297507Y-29662867D01*
X33277802Y-29648253D01*
X33259623Y-29631777D01*
X33243147Y-29613598D01*
X33228533Y-29593893D01*
X33215920Y-29572849D01*
X33205430Y-29550671D01*
X33197165Y-29527571D01*
X33191204Y-29503773D01*
X33187604Y-29479504D01*
X33186400Y-29455000D01*
X33186400Y-28705000D01*
X33187604Y-28680496D01*
X33191204Y-28656227D01*
X33197165Y-28632429D01*
X33205430Y-28609329D01*
X33215920Y-28587151D01*
X33228533Y-28566107D01*
X33243147Y-28546402D01*
X33259623Y-28528223D01*
X33277802Y-28511747D01*
X33297507Y-28497133D01*
X33318551Y-28484520D01*
X33340729Y-28474030D01*
X33363829Y-28465765D01*
X33387627Y-28459804D01*
X33411896Y-28456204D01*
X33436400Y-28455000D01*
X34686400Y-28455000D01*
X34710904Y-28456204D01*
G37*
G36*
X34710904Y-31256204D02*
G01*
X34735173Y-31259804D01*
X34758971Y-31265765D01*
X34782071Y-31274030D01*
X34804249Y-31284520D01*
X34825293Y-31297133D01*
X34844998Y-31311747D01*
X34863177Y-31328223D01*
X34879653Y-31346402D01*
X34894267Y-31366107D01*
X34906880Y-31387151D01*
X34917370Y-31409329D01*
X34925635Y-31432429D01*
X34931596Y-31456227D01*
X34935196Y-31480496D01*
X34936400Y-31505000D01*
X34936400Y-32255000D01*
X34935196Y-32279504D01*
X34931596Y-32303773D01*
X34925635Y-32327571D01*
X34917370Y-32350671D01*
X34906880Y-32372849D01*
X34894267Y-32393893D01*
X34879653Y-32413598D01*
X34863177Y-32431777D01*
X34844998Y-32448253D01*
X34825293Y-32462867D01*
X34804249Y-32475480D01*
X34782071Y-32485970D01*
X34758971Y-32494235D01*
X34735173Y-32500196D01*
X34710904Y-32503796D01*
X34686400Y-32505000D01*
X33436400Y-32505000D01*
X33411896Y-32503796D01*
X33387627Y-32500196D01*
X33363829Y-32494235D01*
X33340729Y-32485970D01*
X33318551Y-32475480D01*
X33297507Y-32462867D01*
X33277802Y-32448253D01*
X33259623Y-32431777D01*
X33243147Y-32413598D01*
X33228533Y-32393893D01*
X33215920Y-32372849D01*
X33205430Y-32350671D01*
X33197165Y-32327571D01*
X33191204Y-32303773D01*
X33187604Y-32279504D01*
X33186400Y-32255000D01*
X33186400Y-31505000D01*
X33187604Y-31480496D01*
X33191204Y-31456227D01*
X33197165Y-31432429D01*
X33205430Y-31409329D01*
X33215920Y-31387151D01*
X33228533Y-31366107D01*
X33243147Y-31346402D01*
X33259623Y-31328223D01*
X33277802Y-31311747D01*
X33297507Y-31297133D01*
X33318551Y-31284520D01*
X33340729Y-31274030D01*
X33363829Y-31265765D01*
X33387627Y-31259804D01*
X33411896Y-31256204D01*
X33436400Y-31255000D01*
X34686400Y-31255000D01*
X34710904Y-31256204D01*
G37*
M02*
